<?xml version="1.0" encoding="UTF-8"?>
<!DOCTYPE svg PUBLIC "-//W3C//DTD SVG 1.1//EN" "http://www.w3.org/Graphics/SVG/1.1/DTD/svg11.dtd">
<!-- Creator: CorelDRAW 2018 (64-Bit) -->
<svg xmlns="http://www.w3.org/2000/svg" xml:space="preserve" width="221.294mm" height="190.78mm" version="1.1" style="shape-rendering:geometricPrecision; text-rendering:geometricPrecision; image-rendering:optimizeQuality; fill-rule:evenodd; clip-rule:evenodd"
viewBox="0 0 1795.48 1547.91"
 xmlns:xlink="http://www.w3.org/1999/xlink">
 <defs>
  <style type="text/css">
   <![CDATA[
    .fil1 {fill:#990310}
    .fil0 {fill:#F2EDF1}
   ]]>
  </style>
 </defs>
 <g id="Слой_x0020_1">
  <metadata id="CorelCorpID_0Corel-Layer"/>
  <g id="_2549016957568">
   <path class="fil0" d="M1713.57 793.36c109.82,-95.01 112.86,-255.54 -13.04,-341.07 -414.41,-390.27 -2107.52,-653.74 -1475.46,255.49 77.82,111.94 192.94,219.03 355.44,273.45 56.2,18.82 63.29,43.24 63.16,82.37 -0.38,114.63 41.09,234.63 141.73,352.5 272.4,319.01 908.77,-10.81 805.33,-254.16 -75.85,-178.45 -5.65,-265.59 58.91,-311.25 24.12,-17.06 45.53,-36.51 63.94,-57.33z"/>
   <path class="fil1" d="M137.01 1475.02l-3.38 -47.7 -3.38 -47.7c-0.66,-9.35 -5.87,-17.05 -14.3,-21.15 -8.43,-4.1 -17.7,-3.44 -25.47,1.81l-39.62 26.78 -39.62 26.78c-7.77,5.25 -11.83,13.61 -11.17,22.96 0.66,9.35 5.87,17.05 14.3,21.15l43 20.92 43 20.92c8.43,4.1 17.7,3.44 25.47,-1.81 7.77,-5.25 11.83,-13.61 11.17,-22.96z"/>
   <path class="fil1" d="M1680.45 47.02l-16.51 -20.82 -16.51 -20.82c-3.24,-4.08 -8.04,-5.98 -13.19,-5.22 -5.15,0.76 -9.2,3.97 -11.12,8.82l-9.78 24.71 -9.78 24.71c-1.92,4.84 -1.16,9.95 2.08,14.03 3.24,4.08 8.04,5.98 13.19,5.22l26.29 -3.89 26.29 -3.89c5.15,-0.76 9.2,-3.97 11.12,-8.82 1.92,-4.84 1.16,-9.95 -2.08,-14.03z"/>
   <path class="fil0" d="M173.57 1428.19l21.57 -14.69 21.57 -14.69c4.23,-2.88 6.43,-7.45 6.05,-12.55 -0.38,-5.1 -3.23,-9.29 -7.84,-11.52l-23.5 -11.34 -23.5 -11.34c-4.61,-2.22 -9.67,-1.85 -13.89,1.03 -4.23,2.88 -6.43,7.45 -6.05,12.55l1.94 26.02 1.93 26.02c0.38,5.1 3.23,9.29 7.84,11.52 4.61,2.22 9.67,1.85 13.89,-1.03z"/>
   <path class="fil0" d="M1581.97 80.24l5.29 -13.5 5.29 -13.5c1.04,-2.65 0.62,-5.43 -1.16,-7.65 -1.77,-2.22 -4.4,-3.25 -7.21,-2.82l-14.34 2.17 -14.34 2.17c-2.81,0.43 -5.01,2.18 -6.05,4.83 -1.04,2.65 -0.62,5.43 1.16,7.65l9.05 11.33 9.05 11.33c1.77,2.22 4.4,3.25 7.21,2.82 2.81,-0.43 5.01,-2.18 6.05,-4.83z"/>
  </g>
 </g>
</svg>
