<?xml version="1.0" encoding="UTF-8"?>
<!DOCTYPE svg PUBLIC "-//W3C//DTD SVG 1.1//EN" "http://www.w3.org/Graphics/SVG/1.1/DTD/svg11.dtd">
<!-- Creator: CorelDRAW 2018 (64-Bit) -->
<svg xmlns="http://www.w3.org/2000/svg" xml:space="preserve" width="256.171mm" height="209.062mm" version="1.1" style="shape-rendering:geometricPrecision; text-rendering:geometricPrecision; image-rendering:optimizeQuality; fill-rule:evenodd; clip-rule:evenodd"
viewBox="0 0 2346 1914.57"
 xmlns:xlink="http://www.w3.org/1999/xlink">
 <defs>
  <style type="text/css">
   <![CDATA[
    .fil1 {fill:#990310}
    .fil0 {fill:#F2EDF1}
   ]]>
  </style>
 </defs>
 <g id="Слой_x0020_1">
  <metadata id="CorelCorpID_0Corel-Layer"/>
  <g id="_2549017822240">
   <path class="fil0" d="M718.91 1229.5c-637.75,881.68 2596.76,809.44 1330.08,-316.57 -100.24,-89.11 -226.62,-162.64 -373.39,-192.72 -79.37,-16.27 -47.19,-74.55 -26.41,-138.86 157.83,-510.7 -593.26,-680.44 -788.04,-388.96 -142.84,213.74 -289.01,217.32 -385.4,193.07 -163.18,-41.05 -340.7,9.55 -410.23,99.67 -223.88,290.16 162.47,570.38 608.93,657.37 57.07,11.12 80.68,36.94 44.47,87z"/>
   <path class="fil1" d="M693.91 35.52l-4.38 61.77 -4.38 61.77c-0.86,12.11 -7.6,22.08 -18.52,27.39 -10.92,5.31 -22.92,4.46 -32.98,-2.34l-51.3 -34.68 -51.3 -34.68c-10.06,-6.8 -15.32,-17.62 -14.46,-29.73 0.86,-12.11 7.6,-22.08 18.52,-27.39l55.68 -27.09 55.68 -27.09c10.92,-5.31 22.92,-4.46 32.98,2.34 10.06,6.8 15.32,17.62 14.46,29.73z"/>
   <path class="fil1" d="M2139.96 1854.81l-20.98 26.46 -20.98 26.46c-4.11,5.19 -10.22,7.6 -16.77,6.63 -6.55,-0.97 -11.69,-5.05 -14.13,-11.2l-12.42 -31.4 -12.42 -31.4c-2.44,-6.16 -1.47,-12.65 2.64,-17.84 4.11,-5.19 10.22,-7.6 16.76,-6.63l33.41 4.94 33.4 4.94c6.55,0.97 11.69,5.05 14.13,11.2 2.44,6.16 1.48,12.65 -2.64,17.84z"/>
   <path class="fil0" d="M741.25 96.16l27.93 19.02 27.93 19.02c5.48,3.73 8.33,9.64 7.84,16.25 -0.49,6.61 -4.19,12.03 -10.15,14.91l-30.44 14.68 -30.44 14.68c-5.97,2.88 -12.52,2.39 -17.99,-1.34 -5.48,-3.73 -8.33,-9.64 -7.84,-16.25l2.51 -33.7 2.5 -33.7c0.49,-6.61 4.19,-12.03 10.15,-14.91 5.97,-2.88 12.52,-2.39 17.99,1.34z"/>
   <path class="fil0" d="M2014.81 1812.6l6.72 17.16 6.72 17.16c1.32,3.36 0.78,6.91 -1.47,9.73 -2.25,2.82 -5.59,4.13 -9.16,3.59l-18.22 -2.76 -18.22 -2.76c-3.57,-0.54 -6.37,-2.78 -7.69,-6.14 -1.32,-3.36 -0.78,-6.9 1.47,-9.73l11.5 -14.4 11.5 -14.4c2.25,-2.82 5.59,-4.13 9.16,-3.59 3.57,0.54 6.37,2.78 7.69,6.14z"/>
  </g>
 </g>
</svg>
