<?xml version="1.0" encoding="UTF-8"?>
<!DOCTYPE svg PUBLIC "-//W3C//DTD SVG 1.1//EN" "http://www.w3.org/Graphics/SVG/1.1/DTD/svg11.dtd">
<!-- Creator: CorelDRAW 2018 (64-Bit) -->
<svg xmlns="http://www.w3.org/2000/svg" xml:space="preserve" width="8.4665mm" height="8.4474mm" version="1.1" style="shape-rendering:geometricPrecision; text-rendering:geometricPrecision; image-rendering:optimizeQuality; fill-rule:evenodd; clip-rule:evenodd"
viewBox="0 0 7.2 7.19"
 xmlns:xlink="http://www.w3.org/1999/xlink">
 <defs>
  <style type="text/css">
   <![CDATA[
    .fil0 {fill:white}
   ]]>
  </style>
 </defs>
 <g id="Слой_x0020_1">
  <metadata id="CorelCorpID_0Corel-Layer"/>
  <path class="fil0" d="M7.04 5.68l-1.11 -1.11c-0.22,-0.22 -0.59,-0.21 -0.82,0.02l-0.56 0.56c-0.04,-0.02 -0.07,-0.04 -0.11,-0.06 -0.35,-0.2 -0.84,-0.46 -1.35,-0.97 -0.51,-0.51 -0.78,-1 -0.98,-1.35 -0.02,-0.04 -0.04,-0.07 -0.06,-0.11l0.38 -0.38 0.18 -0.19c0.23,-0.23 0.24,-0.6 0.01,-0.82l-1.11 -1.11c-0.22,-0.22 -0.59,-0.21 -0.82,0.02l-0.31 0.32 0.01 0.01c-0.11,0.13 -0.19,0.29 -0.26,0.46 -0.06,0.16 -0.1,0.31 -0.11,0.46 -0.15,1.22 0.41,2.33 1.92,3.84 2.09,2.09 3.77,1.93 3.84,1.92 0.16,-0.02 0.31,-0.06 0.46,-0.12 0.17,-0.06 0.32,-0.15 0.45,-0.26l0.01 0.01 0.32 -0.31c0.23,-0.23 0.24,-0.6 0.01,-0.82l0 -0z"/>
 </g>
</svg>
