<?xml version="1.0" encoding="UTF-8"?>
<!DOCTYPE svg PUBLIC "-//W3C//DTD SVG 1.1//EN" "http://www.w3.org/Graphics/SVG/1.1/DTD/svg11.dtd">
<!-- Creator: CorelDRAW 2018 (64-Bit) -->
<svg xmlns="http://www.w3.org/2000/svg" xml:space="preserve" width="8.4665mm" height="9.5993mm" version="1.1" style="shape-rendering:geometricPrecision; text-rendering:geometricPrecision; image-rendering:optimizeQuality; fill-rule:evenodd; clip-rule:evenodd"
viewBox="0 0 4.32 4.9"
 xmlns:xlink="http://www.w3.org/1999/xlink">
 <defs>
  <style type="text/css">
   <![CDATA[
    .fil0 {fill:white}
   ]]>
  </style>
 </defs>
 <g id="Слой_x0020_1">
  <metadata id="CorelCorpID_0Corel-Layer"/>
  <path class="fil0" d="M2.75 2.13c0.13,0.05 0.27,0.08 0.41,0.08 0.61,0 1.1,-0.49 1.1,-1.1 0,-0.61 -0.49,-1.11 -1.1,-1.11 -0.61,0 -1.1,0.5 -1.1,1.11 0,0.25 0.09,0.49 0.24,0.69l0 0.45 0.45 -0.11zm0.77 -1.14l0.24 0 0 0.24 -0.24 0 0 -0.24zm-0.49 0l0.24 0 0 0.24 -0.24 0 0 -0.24zm-0.49 0l0.24 0 0 0.24 -0.24 0 0 -0.24z"/>
  <path class="fil0" d="M4.23 4l-0.67 -0.67c-0.13,-0.13 -0.35,-0.13 -0.49,0.01l-0.34 0.34c-0.02,-0.01 -0.04,-0.02 -0.07,-0.04 -0.21,-0.12 -0.5,-0.28 -0.81,-0.59 -0.31,-0.31 -0.47,-0.6 -0.59,-0.81 -0.01,-0.02 -0.02,-0.04 -0.04,-0.06l0.23 -0.23 0.11 -0.11c0.14,-0.14 0.14,-0.36 0.01,-0.49l-0.67 -0.67c-0.13,-0.13 -0.35,-0.13 -0.49,0.01l-0.19 0.19 0.01 0.01c-0.06,0.08 -0.12,0.17 -0.16,0.27 -0.04,0.1 -0.06,0.19 -0.07,0.28 -0.09,0.73 0.25,1.4 1.15,2.3 1.25,1.25 2.26,1.16 2.31,1.15 0.09,-0.01 0.19,-0.03 0.28,-0.07 0.1,-0.04 0.19,-0.09 0.27,-0.15l0 0 0.19 -0.19c0.14,-0.14 0.14,-0.36 0.01,-0.49l0 -0z"/>
 </g>
</svg>
