<?xml version="1.0" encoding="UTF-8"?>
<!DOCTYPE svg PUBLIC "-//W3C//DTD SVG 1.1//EN" "http://www.w3.org/Graphics/SVG/1.1/DTD/svg11.dtd">
<!-- Creator: CorelDRAW 2018 (64-Bit) -->
<svg xmlns="http://www.w3.org/2000/svg" xml:space="preserve" width="50.0945mm" height="43.3672mm" version="1.1" style="shape-rendering:geometricPrecision; text-rendering:geometricPrecision; image-rendering:optimizeQuality; fill-rule:evenodd; clip-rule:evenodd"
viewBox="0 0 107.24 92.84"
 xmlns:xlink="http://www.w3.org/1999/xlink">
 <defs>
  <style type="text/css">
   <![CDATA[
    .fil0 {fill:#990310}
    .fil1 {fill:#F2EDF1}
   ]]>
  </style>
 </defs>
 <g id="Слой_x0020_1">
  <metadata id="CorelCorpID_0Corel-Layer"/>
  <g id="_3029840601248">
   <path class="fil0" d="M72.2 82.79l-9.95 -26.97 -9.95 -26.97c-1.95,-5.29 -1.01,-10.79 2.6,-15.12 3.6,-4.33 8.84,-6.27 14.4,-5.31l28.33 4.87 9.62 1.65 0 61.72 -8.84 10.64c-3.6,4.33 -8.84,6.27 -14.4,5.31 -5.55,-0.95 -9.85,-4.53 -11.8,-9.81z"/>
   <path class="fil1" d="M6.08 35.52l13.48 2.34 13.48 2.34c2.64,0.46 5.14,-0.46 6.86,-2.52 1.72,-2.06 2.17,-4.68 1.25,-7.2l-4.71 -12.85 -4.71 -12.85c-0.92,-2.52 -2.97,-4.22 -5.61,-4.68 -2.64,-0.46 -5.14,0.46 -6.86,2.52l-8.77 10.5 -8.77 10.5c-1.72,2.06 -2.17,4.68 -1.25,7.2 0.92,2.52 2.97,4.22 5.61,4.68z"/>
  </g>
 </g>
</svg>
