<?xml version="1.0" encoding="UTF-8"?>
<!DOCTYPE svg PUBLIC "-//W3C//DTD SVG 1.1//EN" "http://www.w3.org/Graphics/SVG/1.1/DTD/svg11.dtd">
<!-- Creator: CorelDRAW 2018 (64-Bit) -->
<svg xmlns="http://www.w3.org/2000/svg" xml:space="preserve" width="38.8023mm" height="47.3705mm" version="1.1" style="shape-rendering:geometricPrecision; text-rendering:geometricPrecision; image-rendering:optimizeQuality; fill-rule:evenodd; clip-rule:evenodd"
viewBox="0 0 193.88 236.69"
 xmlns:xlink="http://www.w3.org/1999/xlink">
 <defs>
  <style type="text/css">
   <![CDATA[
    .fil0 {fill:#990310}
    .fil1 {fill:#F2EDF1}
   ]]>
  </style>
 </defs>
 <g id="Слой_x0020_1">
  <metadata id="CorelCorpID_0Corel-Layer"/>
  <g id="_3029977173888">
   <path class="fil0" d="M100.49 49.13l-21.34 67.27 -21.34 67.27c-4.18,13.19 -14.31,22.43 -27.82,25.4 -10.85,2.38 -21.41,0.18 -29.98,-6.07l0 -189.65 56.48 -12.42c13.51,-2.97 26.58,1.18 35.91,11.39 9.33,10.22 12.27,23.61 8.09,36.8z"/>
   <path class="fil1" d="M136.76 128.95l25.87 28.53 25.87 28.53c5.07,5.59 6.65,12.91 4.35,20.1 -2.31,7.19 -7.85,12.22 -15.23,13.81l-37.64 8.14 -37.64 8.14c-7.38,1.6 -14.51,-0.69 -19.58,-6.28 -5.07,-5.59 -6.65,-12.91 -4.35,-20.1l11.77 -36.67 11.77 -36.67c2.31,-7.19 7.85,-12.22 15.23,-13.81 7.38,-1.6 14.51,0.69 19.58,6.28z"/>
  </g>
 </g>
</svg>
