<?xml version="1.0" encoding="UTF-8"?>
<!DOCTYPE svg PUBLIC "-//W3C//DTD SVG 1.1//EN" "http://www.w3.org/Graphics/SVG/1.1/DTD/svg11.dtd">
<!-- Creator: CorelDRAW 2018 (64-Bit) -->
<svg xmlns="http://www.w3.org/2000/svg" xml:space="preserve" width="16.5071mm" height="16.5073mm" version="1.1" style="shape-rendering:geometricPrecision; text-rendering:geometricPrecision; image-rendering:optimizeQuality; fill-rule:evenodd; clip-rule:evenodd"
viewBox="0 0 6.53 6.53"
 xmlns:xlink="http://www.w3.org/1999/xlink"
 enable-background="new 0 0 512 512">
 <defs>
  <style type="text/css">
   <![CDATA[
    .fil0 {fill:#990310}
   ]]>
  </style>
 </defs>
 <g id="Слой_x0020_1">
  <metadata id="CorelCorpID_0Corel-Layer"/>
  <g id="_2512924852944">
   <path class="fil0" d="M6.52 3.98l0 -0 -1.07 -2.34 0.26 -0.13 -0.1 -0.19 -0.25 0.13 -0.03 -0.07c-0.03,-0.05 -0.09,-0.08 -0.14,-0.05 -0.02,0.01 -0.04,0.03 -0.05,0.05l-0.03 0.07c-0.18,-0.09 -0.39,-0.13 -0.59,-0.13l-0.91 0 0 -0.22 0.22 0 0 -0.22 -0.19 0 0.08 -0.31c0.06,-0.24 -0.09,-0.48 -0.33,-0.54 -0.24,-0.06 -0.48,0.09 -0.54,0.33 -0.02,0.07 -0.02,0.15 0,0.22l0.08 0.31 -0.19 0 0 0.22 0.22 0 0 0.22 -0.91 0c-0.2,0 -0.4,0.04 -0.59,0.13l-0.03 -0.07c-0.03,-0.05 -0.09,-0.08 -0.14,-0.05 -0.02,0.01 -0.04,0.03 -0.05,0.05l-0.03 0.07 -0.25 -0.13 -0.1 0.2 0.26 0.13 -1.07 2.34c-0.01,0.01 -0.01,0.03 -0.01,0.05 0,0.42 0.34,0.76 0.76,0.76l1.09 0c0.42,-0 0.76,-0.34 0.76,-0.76 -0,-0.02 -0,-0.03 -0.01,-0.05l-1.08 -2.35c0.16,-0.07 0.33,-0.11 0.5,-0.11l0.91 0 0 3.98 -0.37 0.37 -0.39 0c-0.3,0 -0.54,0.24 -0.54,0.54 0,0.06 0.05,0.11 0.11,0.11l3.05 0c0.06,0 0.11,-0.05 0.11,-0.11 -0,-0.3 -0.24,-0.54 -0.54,-0.54l-0.39 0 -0.37 -0.37 0 -3.98 0.91 0c0.17,-0 0.34,0.04 0.5,0.11l-1.08 2.35c-0.01,0.01 -0.01,0.03 -0.01,0.05 0,0.42 0.34,0.76 0.76,0.76l1.09 0c0.42,-0 0.76,-0.34 0.76,-0.76 -0,-0.02 -0,-0.03 -0.01,-0.05l0 0zm-4.67 0.59l-1.09 0c-0.26,-0 -0.48,-0.18 -0.53,-0.44l2.16 0c-0.05,0.25 -0.27,0.44 -0.53,0.44zm0.48 -0.65l-2.06 0 1 -2.18c0.02,0 0.04,0 0.06,0l1 2.18zm0.75 -3.61c0.08,-0.1 0.24,-0.11 0.34,-0.03 0.01,0.01 0.02,0.02 0.03,0.03 0.04,0.06 0.06,0.13 0.04,0.2l-0.09 0.37 -0.27 0 -0.09 -0.37c-0.02,-0.07 -0,-0.14 0.04,-0.2l0 0zm0.07 1l0 -0.22 0.22 0 0 0.22 -0.22 0zm0.22 0.22l0 3.92 -0.22 0 0 -3.92 0.22 0zm0.98 4.57c0.14,0 0.26,0.09 0.31,0.22l-2.79 0c0.05,-0.13 0.17,-0.22 0.31,-0.22l2.18 0zm-0.7 -0.22l-0.78 0 0.22 -0.22 0.35 0 0.22 0.22zm1.54 -4.14c0.02,0.01 0.04,0.01 0.06,-0l1 2.18 -2.06 0 1 -2.18 0 0zm0.57 2.84l-1.09 0c-0.26,-0 -0.48,-0.18 -0.53,-0.44l2.16 0c-0.05,0.25 -0.27,0.44 -0.53,0.44l0 0z"/>
  </g>
 </g>
</svg>
