<?xml version="1.0" encoding="UTF-8"?>
<!DOCTYPE svg PUBLIC "-//W3C//DTD SVG 1.1//EN" "http://www.w3.org/Graphics/SVG/1.1/DTD/svg11.dtd">
<!-- Creator: CorelDRAW 2018 (64-Bit) -->
<svg xmlns="http://www.w3.org/2000/svg" xml:space="preserve" width="18.2891mm" height="14.1708mm" version="1.1" style="shape-rendering:geometricPrecision; text-rendering:geometricPrecision; image-rendering:optimizeQuality; fill-rule:evenodd; clip-rule:evenodd"
viewBox="0 0 8.03 6.22"
 xmlns:xlink="http://www.w3.org/1999/xlink"
 enable-background="new 0 0 512 512">
 <defs>
  <style type="text/css">
   <![CDATA[
    .fil0 {fill:#990310}
   ]]>
  </style>
 </defs>
 <g id="Слой_x0020_1">
  <metadata id="CorelCorpID_0Corel-Layer"/>
  <g id="_2512876648544">
   <g>
    <path class="fil0" d="M7.98 2.11l-0.21 -0.36c-0.04,-0.08 -0.14,-0.1 -0.21,-0.06 -0.08,0.04 -0.1,0.14 -0.06,0.21l0.21 0.36c0.01,0.02 0.01,0.04 0.01,0.05 -0,0.01 -0.01,0.03 -0.03,0.04l-0.55 0.32c-0.03,0.02 -0.07,0.01 -0.08,-0.02l-1.11 -1.93c-0.02,-0.03 -0.01,-0.07 0.02,-0.08l0.55 -0.32c0.03,-0.02 0.07,-0.01 0.08,0.02l0.2 0.34c0.04,0.08 0.14,0.1 0.21,0.06 0.08,-0.04 0.1,-0.14 0.06,-0.21l-0.2 -0.34c-0.1,-0.18 -0.33,-0.24 -0.51,-0.14l-0.55 0.32c-0.08,0.05 -0.14,0.12 -0.17,0.21l-1.57 0c-0.22,0 -0.43,0.09 -0.58,0.24l-0.16 0.16c-0.14,-0.03 -0.29,-0.05 -0.43,-0.05l-0.49 0c-0.02,-0.09 -0.08,-0.18 -0.18,-0.23l-0.55 -0.32c-0.09,-0.05 -0.19,-0.06 -0.28,-0.04 -0.1,0.03 -0.18,0.09 -0.23,0.17l-1.11 1.93c-0.05,0.09 -0.06,0.19 -0.04,0.28 0.03,0.1 0.09,0.18 0.17,0.23l0.55 0.32c0.06,0.03 0.12,0.05 0.19,0.05 0.02,0 0.05,-0 0.07,-0.01l0.45 0.45c-0.01,0.04 -0.01,0.07 -0.01,0.11 0,0.15 0.06,0.29 0.17,0.4 0.1,0.1 0.23,0.16 0.37,0.16 -0,0.02 -0,0.04 -0,0.06 0,0.15 0.06,0.29 0.17,0.4 0.11,0.11 0.25,0.17 0.4,0.17l0.01 -0 -0 0.01c0,0.15 0.06,0.29 0.17,0.4 0.11,0.11 0.25,0.17 0.4,0.17l0.01 -0 -0 0.01c0,0.15 0.06,0.29 0.17,0.4 0.11,0.11 0.25,0.17 0.4,0.17 0.15,0 0.29,-0.06 0.4,-0.17l0.22 -0.22c0.07,-0.07 0.11,-0.14 0.14,-0.23 0.1,0.07 0.22,0.11 0.33,0.11 0.14,0 0.29,-0.06 0.4,-0.17 0.07,-0.07 0.11,-0.15 0.14,-0.23 0.09,0.06 0.2,0.09 0.31,0.09 0.15,0 0.29,-0.06 0.4,-0.17 0.08,-0.08 0.13,-0.18 0.15,-0.29 0.06,0.02 0.12,0.03 0.18,0.03 0.15,0 0.29,-0.06 0.4,-0.17 0.22,-0.22 0.22,-0.58 0,-0.8l-0.37 -0.37 0.67 -0.67c0.01,0 0.03,0 0.04,0 0.06,0 0.13,-0.02 0.19,-0.05l0.55 -0.32c0.09,-0.05 0.15,-0.13 0.17,-0.23 0.03,-0.1 0.01,-0.2 -0.04,-0.28l0 0zm-7.64 0.57c-0.02,-0.01 -0.03,-0.03 -0.03,-0.04 -0,-0.01 -0,-0.03 0.01,-0.05l1.11 -1.93c0.01,-0.02 0.03,-0.03 0.04,-0.03 0,-0 0.01,-0 0.02,-0 0.01,0 0.02,0 0.03,0.01l0.55 0.32c0.03,0.02 0.04,0.05 0.02,0.08l-1.11 1.93c-0.02,0.03 -0.05,0.04 -0.08,0.02l-0.55 -0.32zm1.41 1.2c0,-0.07 0.03,-0.13 0.07,-0.18l0.14 -0.14c0.05,-0.05 0.11,-0.07 0.18,-0.07 0.06,0 0.13,0.02 0.18,0.07 0.05,0.05 0.07,0.11 0.07,0.18 0,0.07 -0.03,0.13 -0.07,0.18l-0.14 0.14c-0.1,0.1 -0.26,0.1 -0.35,0 -0.05,-0.05 -0.07,-0.11 -0.07,-0.18l0 0zm0.78 0.87c-0.07,0 -0.13,-0.03 -0.18,-0.07 -0.05,-0.05 -0.07,-0.11 -0.07,-0.18 0,-0.07 0.03,-0.13 0.07,-0.18l0.22 -0.22c0.05,-0.05 0.11,-0.07 0.18,-0.07 0.06,0 0.13,0.02 0.18,0.07 0.05,0.05 0.07,0.11 0.07,0.18 0,0.07 -0.03,0.13 -0.07,0.18l-0.22 0.22c-0.05,0.05 -0.11,0.07 -0.18,0.07zm0.58 0.58c-0.07,0 -0.13,-0.03 -0.18,-0.07 -0.05,-0.05 -0.07,-0.11 -0.07,-0.18 0,-0.07 0.03,-0.13 0.07,-0.18l0.22 -0.22c0.05,-0.05 0.11,-0.07 0.18,-0.07 0.06,0 0.13,0.02 0.18,0.07 0.05,0.05 0.07,0.11 0.07,0.18 0,0.07 -0.03,0.13 -0.07,0.18l-0.22 0.22c-0.05,0.05 -0.11,0.07 -0.18,0.07zm0.98 0.28l-0.22 0.22c-0.05,0.05 -0.11,0.07 -0.18,0.07 -0.07,0 -0.13,-0.03 -0.18,-0.07 -0.05,-0.05 -0.07,-0.11 -0.07,-0.18 0,-0.07 0.03,-0.13 0.07,-0.18l0.22 -0.22c0.05,-0.05 0.11,-0.07 0.18,-0.07 0.06,0 0.13,0.02 0.18,0.07 0.1,0.1 0.1,0.26 0,0.35l0 0zm2.45 -1.01c-0.05,0.05 -0.11,0.07 -0.18,0.07 -0.07,0 -0.13,-0.03 -0.18,-0.07l-1.5 -1.5c-0.06,-0.06 -0.16,-0.06 -0.22,0 -0.06,0.06 -0.06,0.16 0,0.22l1.34 1.34c0.05,0.05 0.07,0.11 0.07,0.18 0,0.07 -0.03,0.13 -0.07,0.18 -0.05,0.05 -0.11,0.07 -0.18,0.07 -0.07,0 -0.13,-0.03 -0.18,-0.07l-1.61 -1.61c-0.06,-0.06 -0.16,-0.06 -0.22,0 -0.06,0.06 -0.06,0.16 0,0.22l1.34 1.34c0.05,0.05 0.07,0.11 0.07,0.18 0,0.07 -0.03,0.13 -0.07,0.18 -0.1,0.1 -0.26,0.1 -0.35,0l-0.3 -0.3 -0 -0c-0.11,-0.11 -0.26,-0.17 -0.41,-0.16l0 -0.01c0,-0.15 -0.06,-0.29 -0.17,-0.4 -0.11,-0.11 -0.26,-0.17 -0.41,-0.16l0 -0.01c0,-0.15 -0.06,-0.29 -0.17,-0.4 -0.12,-0.12 -0.29,-0.18 -0.45,-0.16 -0.01,-0.14 -0.06,-0.27 -0.16,-0.37 -0.22,-0.22 -0.58,-0.22 -0.8,0l-0.14 0.14 -0 0 -0.35 -0.35 1.09 -1.89 0.54 0c0.05,0 0.11,0 0.16,0.01l-0.18 0.18c-0.11,0.11 -0.17,0.25 -0.17,0.4 0,0.15 0.06,0.29 0.17,0.4 0.11,0.11 0.25,0.17 0.4,0.17 0.14,0 0.29,-0.06 0.4,-0.17l0.42 -0.42 2.44 2.44c0.1,0.1 0.1,0.26 0,0.35zm-1.51 -2.31c0.23,-0.17 0.37,-0.43 0.37,-0.72 0,-0.09 -0.07,-0.16 -0.16,-0.16 -0.09,0 -0.16,0.07 -0.16,0.16 0,0.2 -0.11,0.39 -0.28,0.49l-0.6 -0.6c-0.06,-0.06 -0.16,-0.06 -0.22,-0l-0.54 0.54c-0.1,0.1 -0.26,0.1 -0.35,0 -0.05,-0.05 -0.07,-0.11 -0.07,-0.18 0,-0.07 0.03,-0.13 0.07,-0.18l0.61 -0.61c0.1,-0.1 0.22,-0.15 0.36,-0.15l1.61 0 1.11 1.92c0,0 0.01,0.01 0.01,0.01l-0.62 0.62 -1.14 -1.14z"/>
    <path class="fil0" d="M7.28 1.38c0.04,0 0.08,-0.02 0.11,-0.05 0.03,-0.03 0.05,-0.07 0.05,-0.11 0,-0.04 -0.02,-0.08 -0.05,-0.11 -0.03,-0.03 -0.07,-0.05 -0.11,-0.05 -0.04,0 -0.08,0.02 -0.11,0.05 -0.03,0.03 -0.05,0.07 -0.05,0.11 0,0.04 0.02,0.08 0.05,0.11 0.03,0.03 0.07,0.05 0.11,0.05z"/>
   </g>
  </g>
 </g>
</svg>
