<?xml version="1.0" encoding="UTF-8"?>
<!DOCTYPE svg PUBLIC "-//W3C//DTD SVG 1.1//EN" "http://www.w3.org/Graphics/SVG/1.1/DTD/svg11.dtd">
<!-- Creator: CorelDRAW 2018 (64-Bit) -->
<svg xmlns="http://www.w3.org/2000/svg" xml:space="preserve" width="14.2606mm" height="16.357mm" version="1.1" style="shape-rendering:geometricPrecision; text-rendering:geometricPrecision; image-rendering:optimizeQuality; fill-rule:evenodd; clip-rule:evenodd"
viewBox="0 0 4.88 5.6"
 xmlns:xlink="http://www.w3.org/1999/xlink">
 <defs>
  <style type="text/css">
   <![CDATA[
    .fil0 {fill:#990310}
   ]]>
  </style>
 </defs>
 <g id="Слой_x0020_1">
  <metadata id="CorelCorpID_0Corel-Layer"/>
  <path class="fil0" d="M3.65 3.17l0.45 0.17 -0 0c0.23,0.09 0.43,0.24 0.57,0.44 0.14,0.19 0.22,0.43 0.22,0.67l0 0.77c0,0.21 -0.17,0.38 -0.38,0.38 -1.37,0 -2.75,-0 -4.12,-0 -0.21,0 -0.38,-0.17 -0.38,-0.38l0 -0.77c0,-0.25 0.08,-0.48 0.22,-0.68 0.14,-0.19 0.34,-0.35 0.57,-0.43l0 -0 0.48 -0.15c0.1,-0.03 0.2,0.02 0.23,0.11l0.6 1.5 0.13 -0.91 -0.08 0 -0.14 -0.29 0.14 -0.29c0.19,0 0.39,0 0.58,0l0.14 0.29 -0.14 0.29 -0.08 0 0.13 0.89 0.61 -1.51c0.04,-0.1 0.15,-0.14 0.25,-0.11zm-1.4 0.44l0.04 0.07 0.32 0 0.04 -0.07 -0.04 -0.07 -0.32 0 -0.04 0.07zm-2.03 0.84l0 0.74c0,0.11 0.09,0.19 0.19,0.19l1.69 0 -0.76 -1.91c-0.01,-0.04 -0.06,-0.06 -0.09,-0.04l-0.38 0.12c-0.19,0.07 -0.35,0.19 -0.46,0.35 -0.11,0.16 -0.18,0.35 -0.18,0.56zm2.05 0.76l0.07 0.17 0.22 0 0.08 -0.2 -0.19 -1.27 -0.18 1.29zm0.52 0.17l1.69 0c0.11,0 0.19,-0.09 0.19,-0.19l-0 -0.73 -0 0c0,-0.21 -0.06,-0.4 -0.18,-0.56 -0.11,-0.16 -0.27,-0.29 -0.47,-0.36l-0.36 -0.14c-0.04,-0.01 -0.08,0 -0.1,0.04l-0.78 1.93zm-1.59 -3.37c-0.05,0.01 -0.22,0.01 -0.24,-0.19l-0 0 0 -0.03c0,-0.01 -0.01,-0.05 -0.02,-0.1 -0.01,-0.08 -0.03,-0.18 -0.03,-0.2 0,-0 0,-0.01 0,-0.01 -0,-0.05 0,-0.13 0.04,-0.19 0.03,-0.05 0.08,-0.09 0.15,-0.12 0.05,-0.34 0.21,-0.63 0.45,-0.84 0.24,-0.21 0.55,-0.34 0.9,-0.34 0.38,0 0.66,0.13 0.88,0.32 0.29,0.26 0.44,0.61 0.48,0.86 0.07,0.02 0.11,0.06 0.14,0.11 0.05,0.07 0.05,0.15 0.05,0.19l-0.05 0.28c-0,0.07 -0.03,0.12 -0.08,0.17 -0.04,0.04 -0.1,0.07 -0.16,0.08 -0.11,0.31 -0.29,0.62 -0.53,0.85 -0.2,0.19 -0.45,0.32 -0.72,0.32 -0.27,0 -0.52,-0.13 -0.72,-0.32 -0.24,-0.22 -0.42,-0.54 -0.53,-0.85zm1.77 -1.67c-0.16,-0.08 -0.33,-0.13 -0.52,-0.13 -0.25,0 -0.48,0.08 -0.67,0.22 -0.19,0.14 -0.33,0.33 -0.41,0.55l0.53 0c0.63,0 0.85,-0.6 0.85,-0.6l0.01 -0.02 0.59 0.28c-0.1,-0.13 -0.22,-0.23 -0.37,-0.3zm-1.69 1.04l-0.08 0c-0.03,0 -0.05,0.01 -0.06,0.02 -0,0 -0.01,0.01 -0.01,0.01 -0,0 -0,0.01 -0,0.01 0,0.01 0,0.01 0.01,0.02l0 0 0 0.01c0.01,0.05 0.02,0.11 0.03,0.17 0.01,0.07 0.02,0.14 0.02,0.17l0.18 0 0.02 0.08c0.09,0.29 0.25,0.58 0.46,0.79 0.18,0.18 0.39,0.3 0.61,0.3 0.22,0 0.43,-0.12 0.61,-0.3 0.21,-0.21 0.37,-0.5 0.46,-0.79l0.02 -0.08 0.11 0c0.02,0 0.03,-0.01 0.04,-0.02 0.01,-0.01 0.02,-0.03 0.03,-0.05l0.05 -0.28c-0,-0.01 -0.01,-0.03 -0.02,-0.05 -0.01,-0.01 -0.03,-0.02 -0.05,-0.02l-0.11 0 -0 -0.02c-0,-0 -0.01,-0.21 -0.08,-0.39l-0.67 -0.32c-0.1,0.17 -0.24,0.3 -0.4,0.4 -0.17,0.1 -0.36,0.15 -0.56,0.15l-0.58 0c-0,0.05 -0.02,0.16 -0.02,0.16l-0 0.02 -0.02 0z"/>
 </g>
</svg>
