<?xml version="1.0" encoding="UTF-8"?>
<!DOCTYPE svg PUBLIC "-//W3C//DTD SVG 1.1//EN" "http://www.w3.org/Graphics/SVG/1.1/DTD/svg11.dtd">
<!-- Creator: CorelDRAW 2018 (64-Bit) -->
<svg xmlns="http://www.w3.org/2000/svg" xml:space="preserve" width="17.3232mm" height="17.2356mm" version="1.1" style="shape-rendering:geometricPrecision; text-rendering:geometricPrecision; image-rendering:optimizeQuality; fill-rule:evenodd; clip-rule:evenodd"
viewBox="0 0 7.18 7.15"
 xmlns:xlink="http://www.w3.org/1999/xlink"
 enable-background="new 0 0 512 512">
 <defs>
  <style type="text/css">
   <![CDATA[
    .fil0 {fill:#990310}
   ]]>
  </style>
 </defs>
 <g id="Слой_x0020_1">
  <metadata id="CorelCorpID_0Corel-Layer"/>
  <g id="_2512890440912">
   <path class="fil0" d="M6.83 6.43l0 -0.12c-0,-0.15 -0.1,-0.29 -0.24,-0.34l0 -0.14c-0,-0.15 -0.1,-0.29 -0.24,-0.34l0 -1.84c0.14,-0.05 0.24,-0.19 0.24,-0.34l0 -0.21 0.22 -0.44 0.35 -0.35c0.05,-0.05 0.05,-0.12 0,-0.17 -0.01,-0.01 -0.01,-0.01 -0.02,-0.02l-3.47 -2.12c-0.04,-0.02 -0.09,-0.02 -0.12,0l-3.47 2.12c-0.06,0.03 -0.07,0.11 -0.04,0.16 0,0.01 0.01,0.02 0.02,0.02l0.35 0.35 0.22 0.44 0 0.21c0,0.15 0.1,0.29 0.24,0.34l0 1.84c-0.14,0.05 -0.24,0.19 -0.24,0.34l0 0.14c-0.14,0.05 -0.24,0.18 -0.24,0.34l0 0.12c-0.2,0 -0.36,0.16 -0.36,0.36l0 0.24c-0,0.07 0.05,0.12 0.12,0.12l6.95 0c0.07,0 0.12,-0.05 0.12,-0.12l0 -0.24c-0,-0.2 -0.16,-0.36 -0.36,-0.36l0 0zm-0.48 -3.11c-0,0.07 -0.05,0.12 -0.12,0.12l-0.72 0c-0.07,-0 -0.12,-0.05 -0.12,-0.12l0 -0.12 0.96 0 0 0.12 -0 0zm-3.35 2.18l0 -1.84c0.14,-0.05 0.24,-0.19 0.24,-0.34l0 -0.12 0.72 0 0 0.12c0,0.15 0.1,0.29 0.24,0.34l0 1.84c-0.14,0.05 -0.24,0.19 -0.24,0.34l0 0.12 -0.72 0 0 -0.12c-0,-0.15 -0.1,-0.29 -0.24,-0.34l0 -0zm-2.04 -2.06c-0.07,-0 -0.12,-0.05 -0.12,-0.12l0 -0.12 0.96 0 0 0.12c-0,0.07 -0.05,0.12 -0.12,0.12l-0.72 0zm0.6 0.24l0 1.8 -0.48 0 0 -1.8 0.48 -0zm0.24 -0.02c0.04,-0.02 0.08,-0.04 0.12,-0.07 0.03,0.03 0.08,0.06 0.12,0.07l0 1.84c-0.04,0.02 -0.08,0.04 -0.12,0.07 -0.03,-0.03 -0.08,-0.06 -0.12,-0.07l0 -1.84zm0.24 2.18c0,-0.07 0.05,-0.12 0.12,-0.12l0.72 0c0.07,0 0.12,0.05 0.12,0.12l0 0.12 -0.96 0 0 -0.12 0 0zm0.24 -0.36l0 -1.8 0.48 -0 0 1.8 -0.48 0zm0.6 -2.04l-0.72 0c-0.07,-0 -0.12,-0.05 -0.12,-0.12l0 -0.12 0.96 0 0 0.12c-0,0.07 -0.05,0.12 -0.12,0.12l0 0zm1.32 2.39c0,-0.07 0.05,-0.12 0.12,-0.12l0.72 0c0.07,0 0.12,0.05 0.12,0.12l0 0.12 -0.96 0 0 -0.12 0 0zm0.24 -0.36l0 -1.8 0.48 -0 0 1.8 -0.48 0zm0.6 -2.04l-0.72 0c-0.07,-0 -0.12,-0.05 -0.12,-0.12l0 -0.12 0.96 0 0 0.12c-0,0.07 -0.05,0.12 -0.12,0.12l0 0zm0.12 0.22c0.04,-0.02 0.08,-0.04 0.12,-0.07 0.03,0.03 0.08,0.06 0.12,0.07l0 1.84c-0.04,0.02 -0.08,0.04 -0.12,0.07 -0.03,-0.03 -0.08,-0.06 -0.12,-0.07l0 -1.84zm0.24 2.18c0,-0.07 0.05,-0.12 0.12,-0.12l0.72 0c0.07,0 0.12,0.05 0.12,0.12l0 0.12 -0.96 0 0 -0.12 0 0zm0.24 -0.36l0 -1.8 0.48 -0 0 1.8 -0.48 0zm-5.13 -3.03l-0.18 -0.18 3.28 -2 3.28 2 -0.18 0.18 -3.03 -1.87c-0.04,-0.02 -0.09,-0.02 -0.13,0l-3.03 1.87 0 0zm5.79 0.03l-5.38 0 2.69 -1.66 2.69 1.66 0 0zm-5.49 0.48l-0.12 -0.24 5.84 0 -0.12 0.24 -5.6 0zm0.05 2.87c0,-0.07 0.05,-0.12 0.12,-0.12l0.72 0c0.07,0 0.12,0.05 0.12,0.12l0 0.12 -0.96 0 0 -0.12 0 0zm6.11 1.08l-6.71 0 0 -0.12c0,-0.07 0.05,-0.12 0.12,-0.12l2.51 0c0.07,0 0.12,-0.05 0.12,-0.12 0,-0.07 -0.05,-0.12 -0.12,-0.12l-2.28 0 0 -0.12c0,-0.07 0.06,-0.12 0.12,-0.12l5.74 0c0.07,-0 0.12,0.05 0.12,0.12l0 0.12 -2.28 0c-0.07,0 -0.12,0.05 -0.12,0.12 0,0.07 0.05,0.12 0.12,0.12l2.51 0c0.07,0 0.12,0.05 0.12,0.12l0 0.12 0 0zm-3.35 -5.69c-0.26,0 -0.48,0.21 -0.48,0.48 0,0.26 0.21,0.48 0.48,0.48 0.26,0 0.48,-0.21 0.48,-0.48 0,-0.26 -0.21,-0.48 -0.48,-0.48zm0 0.72c-0.13,0 -0.24,-0.11 -0.24,-0.24 0,-0.13 0.11,-0.24 0.24,-0.24 0.13,0 0.24,0.11 0.24,0.24 0,0.13 -0.11,0.24 -0.24,0.24z"/>
  </g>
 </g>
</svg>
