<?xml version="1.0" encoding="UTF-8"?>
<!DOCTYPE svg PUBLIC "-//W3C//DTD SVG 1.1//EN" "http://www.w3.org/Graphics/SVG/1.1/DTD/svg11.dtd">
<!-- Creator: CorelDRAW 2018 (64-Bit) -->
<svg xmlns="http://www.w3.org/2000/svg" xml:space="preserve" width="15.1182mm" height="15.1084mm" version="1.1" style="shape-rendering:geometricPrecision; text-rendering:geometricPrecision; image-rendering:optimizeQuality; fill-rule:evenodd; clip-rule:evenodd"
viewBox="0 0 5.36 5.36"
 xmlns:xlink="http://www.w3.org/1999/xlink"
 enable-background="new 0 0 512 512">
 <defs>
  <style type="text/css">
   <![CDATA[
    .fil0 {fill:#990310}
   ]]>
  </style>
 </defs>
 <g id="Слой_x0020_1">
  <metadata id="CorelCorpID_0Corel-Layer"/>
  <g id="_2549016969952">
   <g>
    <path class="fil0" d="M4.84 0l-3.1 0c-0.29,0 -0.52,0.23 -0.52,0.52l0 1.85c-0.69,0.14 -1.22,0.75 -1.22,1.48 0,0.83 0.68,1.51 1.51,1.51l3.33 0c0.29,0 0.52,-0.23 0.52,-0.52l0 -4.31c0,-0.29 -0.23,-0.52 -0.52,-0.52l0 0zm-4.63 3.85c0,-0.72 0.58,-1.3 1.3,-1.3 0.72,0 1.3,0.58 1.3,1.3 0,0.72 -0.58,1.3 -1.3,1.3 -0.72,0 -1.3,-0.58 -1.3,-1.3zm1.72 -1.53l0 -0.25c0,-0.06 0.05,-0.1 0.1,-0.1l0.25 0c0.06,0 0.1,0.05 0.1,0.1l0 0.25c0,0.06 -0.05,0.1 -0.1,0.1l-0.25 0c-0.06,0 -0.1,-0.05 -0.1,-0.1l0 0zm3.22 2.51c0,0.17 -0.14,0.31 -0.31,0.31l-2.57 0c0.25,-0.15 0.45,-0.36 0.58,-0.61l0 0.05c0,0.17 0.14,0.31 0.31,0.31l0.25 0c0.17,0 0.31,-0.14 0.31,-0.31l0 -0.25c0,-0.17 -0.14,-0.31 -0.31,-0.31l-0.25 0c-0.06,0 -0.12,0.02 -0.17,0.05 0.01,-0.07 0.02,-0.14 0.02,-0.21 0,-0.04 -0,-0.08 -0.01,-0.12 0.05,0.03 0.1,0.04 0.16,0.04l0.25 0c0.17,0 0.31,-0.14 0.31,-0.31l0 -0.25c0,-0.17 -0.14,-0.31 -0.31,-0.31l-0.25 0c-0.16,0 -0.3,0.12 -0.31,0.28 -0.11,-0.22 -0.27,-0.41 -0.47,-0.55 0.13,-0.04 0.22,-0.16 0.22,-0.3l0 -0.25c0,-0.17 -0.14,-0.31 -0.31,-0.31l-0.25 0c-0.17,0 -0.31,0.14 -0.31,0.31l0 0.25c0,0.01 0,0.02 0,0.04 -0.07,-0.01 -0.14,-0.02 -0.21,-0.02 -0.03,0 -0.05,0 -0.08,0l0 -1.82c0,-0.17 0.14,-0.31 0.31,-0.31l3.1 0c0.17,0 0.31,0.14 0.31,0.31l0 4.31zm-2.09 -0.25l0 -0.25c0,-0.06 0.05,-0.1 0.1,-0.1l0.25 0c0.06,0 0.1,0.05 0.1,0.1l0 0.25c0,0.06 -0.05,0.1 -0.1,0.1l-0.25 0c-0.06,0 -0.1,-0.05 -0.1,-0.1l0 0zm0 -1.13l0 -0.25c0,-0.06 0.05,-0.1 0.1,-0.1l0.25 0c0.06,0 0.1,0.05 0.1,0.1l0 0.25c0,0.06 -0.05,0.1 -0.1,0.1l-0.25 0c-0.06,0 -0.1,-0.05 -0.1,-0.1z"/>
    <path class="fil0" d="M4.75 0.46l-0.99 0c-0.06,0 -0.1,0.05 -0.1,0.1 0,0.06 0.05,0.1 0.1,0.1l0.89 0 0 0.63 -2.72 0 0 -0.63 0.89 0c0.06,0 0.1,-0.05 0.1,-0.1 0,-0.06 -0.05,-0.1 -0.1,-0.1l-0.99 0c-0.06,0 -0.1,0.05 -0.1,0.1l0 0.84c0,0.06 0.05,0.1 0.1,0.1l2.93 0c0.06,0 0.1,-0.05 0.1,-0.1l0 -0.84c0,-0.06 -0.05,-0.1 -0.1,-0.1l0 0z"/>
    <path class="fil0" d="M3.41 1.76l-0.25 0c-0.17,0 -0.31,0.14 -0.31,0.31l0 0.25c0,0.17 0.14,0.31 0.31,0.31l0.25 0c0.17,0 0.31,-0.14 0.31,-0.31l0 -0.25c0,-0.17 -0.14,-0.31 -0.31,-0.31zm0.1 0.57c0,0.06 -0.05,0.1 -0.1,0.1l-0.25 0c-0.06,0 -0.1,-0.05 -0.1,-0.1l0 -0.25c0,-0.06 0.05,-0.1 0.1,-0.1l0.25 -0c0.06,0 0.1,0.05 0.1,0.1l0 0.25z"/>
    <path class="fil0" d="M4.55 1.76l-0.25 0c-0.17,0 -0.31,0.14 -0.31,0.31l0 0.25c0,0.17 0.14,0.31 0.31,0.31l0.25 0c0.17,0 0.31,-0.14 0.31,-0.31l0 -0.25c0,-0.17 -0.14,-0.31 -0.31,-0.31zm0.1 0.57c0,0.06 -0.05,0.1 -0.1,0.1l-0.25 0c-0.06,0 -0.1,-0.05 -0.1,-0.1l0 -0.25c0,-0.06 0.05,-0.1 0.1,-0.1l0.25 -0c0.06,0 0.1,0.05 0.1,0.1l0 0.25z"/>
    <path class="fil0" d="M4.55 2.89l-0.25 0c-0.17,0 -0.31,0.14 -0.31,0.31l0 1.38c0,0.17 0.14,0.31 0.31,0.31l0.25 0c0.17,0 0.31,-0.14 0.31,-0.31l0 -1.38c0,-0.17 -0.14,-0.31 -0.31,-0.31l0 0zm0.1 1.7c0,0.06 -0.05,0.1 -0.1,0.1l-0.25 0c-0.06,0 -0.1,-0.05 -0.1,-0.1l0 -1.38c0,-0.06 0.05,-0.1 0.1,-0.1l0.25 0c0.06,0 0.1,0.05 0.1,0.1l0 1.38z"/>
    <path class="fil0" d="M3.29 0.67c0.03,0 0.05,-0.01 0.07,-0.03 0.02,-0.02 0.03,-0.05 0.03,-0.07 0,-0.03 -0.01,-0.05 -0.03,-0.07 -0.02,-0.02 -0.05,-0.03 -0.07,-0.03 -0.03,0 -0.05,0.01 -0.07,0.03 -0.02,0.02 -0.03,0.05 -0.03,0.07 0,0.03 0.01,0.05 0.03,0.07 0.02,0.02 0.05,0.03 0.07,0.03z"/>
    <path class="fil0" d="M1.85 3.16c-0.05,-0.03 -0.11,-0 -0.14,0.05l-0.58 1.19c-0.03,0.05 -0,0.11 0.05,0.14 0.01,0.01 0.03,0.01 0.05,0.01 0.04,0 0.08,-0.02 0.09,-0.06l0.58 -1.19c0.03,-0.05 0,-0.11 -0.05,-0.14z"/>
    <path class="fil0" d="M1.24 3.1c-0.13,-0.13 -0.34,-0.13 -0.47,0 -0.13,0.13 -0.13,0.34 0,0.47 0.07,0.07 0.15,0.1 0.24,0.1 0.09,0 0.17,-0.03 0.24,-0.1 0.13,-0.13 0.13,-0.34 0,-0.47zm-0.15 0.33c-0.05,0.05 -0.13,0.05 -0.18,0 -0.05,-0.05 -0.05,-0.13 0,-0.18 0.02,-0.02 0.06,-0.04 0.09,-0.04 0.03,0 0.06,0.01 0.09,0.04 0.05,0.05 0.05,0.13 0,0.18l0 0z"/>
    <path class="fil0" d="M1.79 4.12c-0.13,0.13 -0.13,0.34 0,0.47 0.07,0.07 0.15,0.1 0.24,0.1 0.09,0 0.17,-0.03 0.24,-0.1 0.13,-0.13 0.13,-0.34 0,-0.47 -0.13,-0.13 -0.34,-0.13 -0.47,0zm0.33 0.33c-0.05,0.05 -0.13,0.05 -0.18,0 -0.05,-0.05 -0.05,-0.13 0,-0.18 0.02,-0.02 0.06,-0.04 0.09,-0.04 0.03,0 0.06,0.01 0.09,0.04 0.05,0.05 0.05,0.13 0,0.18l0 0z"/>
   </g>
  </g>
 </g>
</svg>
