<?xml version="1.0" encoding="UTF-8"?>
<!DOCTYPE svg PUBLIC "-//W3C//DTD SVG 1.1//EN" "http://www.w3.org/Graphics/SVG/1.1/DTD/svg11.dtd">
<!-- Creator: CorelDRAW 2018 (64-Bit) -->
<svg xmlns="http://www.w3.org/2000/svg" xml:space="preserve" width="10.7417mm" height="6.9041mm" version="1.1" style="shape-rendering:geometricPrecision; text-rendering:geometricPrecision; image-rendering:optimizeQuality; fill-rule:evenodd; clip-rule:evenodd"
viewBox="0 0 2.78 1.79"
 xmlns:xlink="http://www.w3.org/1999/xlink">
 <defs>
  <style type="text/css">
   <![CDATA[
    .fil0 {fill:#990310}
   ]]>
  </style>
 </defs>
 <g id="Слой_x0020_1">
  <metadata id="CorelCorpID_0Corel-Layer"/>
  <path class="fil0" d="M2.78 1.76l0.01 -0.19c-0.04,0 -0.09,0 -0.15,0 -0.33,0.01 -0.84,0.02 -1.02,-0.06 -0.15,-0.06 -0.28,-0.18 -0.36,-0.34 -0.06,-0.13 -0.08,-0.3 -0.02,-0.49 0.07,-0.23 0.23,-0.38 0.42,-0.44 0.11,-0.04 0.22,-0.05 0.34,-0.04 0.11,0.01 0.22,0.06 0.32,0.12 0.16,0.11 0.27,0.3 0.28,0.55l0.19 0.01c-0.01,-0.29 -0.12,-0.51 -0.29,-0.66 -0.11,-0.1 -0.26,-0.17 -0.4,-0.21 -0.15,-0.03 -0.3,-0.03 -0.45,0.02 -0.22,0.07 -0.41,0.22 -0.53,0.48 -0.1,0.22 -0.11,0.42 -0.06,0.6 0.06,0.21 0.19,0.38 0.35,0.49 0.09,0.06 0.18,0.1 0.27,0.12 0.1,0.02 0.21,0.03 0.34,0.03 0.14,-0 0.28,-0 0.43,0 0.11,0 0.23,0 0.34,0zm-2.78 -1.19l0.18 0 0 0.03c0,0.05 -0,0.13 -0,0.23 -0,0.32 -0.01,0.84 0.01,0.97l0.17 -0 0 -1.41 -0.36 -0 -0.01 0.19zm0.19 -0.38l0.34 0 0 1.6 0.19 0 0 -1.78 -0.53 -0 -0 0.19zm2.59 1.19l0 -0.19 -0.64 -0 -0.07 0c-0.21,0 -0.39,0 -0.47,-0.17 -0.01,-0.03 -0.02,-0.05 -0.02,-0.08 -0.01,-0.07 0,-0.14 0.04,-0.2 0.03,-0.06 0.08,-0.11 0.14,-0.14 0.02,-0.01 0.05,-0.02 0.07,-0.02 0.26,-0.04 0.32,0.14 0.35,0.26l0 0.01c0,0.01 0.01,0.03 0.01,0.03 0,0 -0,0 -0,0 0.01,0 0.05,0 0.11,0l0.07 -0c-0.01,-0.22 -0.12,-0.36 -0.25,-0.43 -0.07,-0.04 -0.14,-0.06 -0.22,-0.06 -0.08,-0 -0.15,0.01 -0.22,0.04 -0.14,0.06 -0.26,0.18 -0.29,0.38 -0.02,0.14 0.02,0.27 0.09,0.37 0.08,0.11 0.19,0.18 0.31,0.2 0.17,0.03 0.48,0.02 0.74,0.01 0.08,-0 0.16,-0 0.23,-0z"/>
 </g>
</svg>
