<?xml version="1.0" encoding="UTF-8"?>
<!DOCTYPE svg PUBLIC "-//W3C//DTD SVG 1.1//EN" "http://www.w3.org/Graphics/SVG/1.1/DTD/svg11.dtd">
<!-- Creator: CorelDRAW 2018 (64-Bit) -->
<svg xmlns="http://www.w3.org/2000/svg" xml:space="preserve" width="15.2101mm" height="16.5072mm" version="1.1" style="shape-rendering:geometricPrecision; text-rendering:geometricPrecision; image-rendering:optimizeQuality; fill-rule:evenodd; clip-rule:evenodd"
viewBox="0 0 5.56 6.03"
 xmlns:xlink="http://www.w3.org/1999/xlink"
 enable-background="new 0 0 512 512">
 <defs>
  <style type="text/css">
   <![CDATA[
    .fil0 {fill:#990310}
   ]]>
  </style>
 </defs>
 <g id="Слой_x0020_1">
  <metadata id="CorelCorpID_0Corel-Layer"/>
  <g id="_2512871407184">
   <g>
    <path class="fil0" d="M5.3 1.5l-0.06 0c-0.04,-0.13 -0.09,-0.25 -0.15,-0.36l0.04 -0.04c0.05,-0.05 0.08,-0.12 0.08,-0.19 0,-0.07 -0.03,-0.14 -0.08,-0.19l-0.29 -0.29c-0.05,-0.05 -0.12,-0.08 -0.19,-0.08 -0.07,0 -0.14,0.03 -0.19,0.08l-0.04 0.04c-0.12,-0.06 -0.24,-0.11 -0.36,-0.15l0 -0.06c0,-0.15 -0.12,-0.26 -0.26,-0.26l-0.41 0c-0.15,0 -0.26,0.12 -0.26,0.26l0 0.06c-0.13,0.04 -0.25,0.09 -0.36,0.15l-0.04 -0.04c-0.05,-0.05 -0.12,-0.08 -0.19,-0.08 -0.07,0 -0.14,0.03 -0.19,0.08l-0.29 0.29c-0.05,0.05 -0.08,0.12 -0.08,0.19 0,0.07 0.03,0.14 0.08,0.19l0.04 0.04c-0.06,0.12 -0.11,0.24 -0.15,0.36l-0.06 0c-0.15,0 -0.26,0.12 -0.26,0.26l0 0.41c0,0.15 0.12,0.26 0.26,0.26l0.06 0c0.04,0.13 0.09,0.25 0.15,0.36l-0.04 0.04c-0.05,0.05 -0.08,0.12 -0.08,0.19 0,0.07 0.03,0.14 0.08,0.19l0.29 0.29c0.05,0.05 0.12,0.08 0.19,0.08l0 0c0.07,0 0.14,-0.03 0.19,-0.08l0.04 -0.04c0.12,0.06 0.24,0.12 0.36,0.15l0 0.06c0,0.15 0.12,0.26 0.26,0.26l0.41 0c0.15,0 0.26,-0.12 0.26,-0.26l0 -0.06c0.13,-0.04 0.25,-0.09 0.36,-0.15l0.04 0.04c0.05,0.05 0.12,0.08 0.19,0.08 0.07,0 0.14,-0.03 0.19,-0.08l0.29 -0.29c0.05,-0.05 0.08,-0.12 0.08,-0.19 0,-0.07 -0.03,-0.14 -0.08,-0.19l-0.04 -0.04c0.06,-0.12 0.11,-0.24 0.15,-0.36l0.06 0c0.15,0 0.26,-0.12 0.26,-0.26l0 -0.41c0,-0.15 -0.12,-0.26 -0.26,-0.26l0 0zm-1.48 2.18c0,0.02 -0.01,0.03 -0.03,0.03l-0.41 0c-0.02,0 -0.03,-0.01 -0.03,-0.03l0 -0.9c0,-0.05 -0.03,-0.09 -0.08,-0.11 -0.32,-0.12 -0.53,-0.42 -0.53,-0.76 0,-0.27 0.13,-0.52 0.35,-0.67 0.01,-0.01 0.02,-0.01 0.03,-0.02 -0,0.02 -0,0.03 -0,0.04 -0,0.01 -0,0.02 -0,0.03l0 0.56c0,0.26 0.2,0.47 0.45,0.49 0.01,0 0.01,0 0.02,0 0.25,-0.02 0.45,-0.23 0.45,-0.49l0 -0.56c0,-0.01 -0,-0.02 -0,-0.03 -0,-0.01 -0,-0.02 -0,-0.04 0.01,0 0.02,0.01 0.03,0.02 0.22,0.15 0.35,0.4 0.35,0.67 0,0.34 -0.21,0.64 -0.53,0.76 -0.05,0.02 -0.08,0.06 -0.08,0.11l0 0.9 0 0zm1.5 -1.5c0,0.02 -0.01,0.03 -0.03,0.03l-0.15 0c-0.06,0 -0.1,0.04 -0.11,0.09 -0.04,0.16 -0.1,0.32 -0.19,0.46 -0.03,0.05 -0.02,0.11 0.02,0.15l0.11 0.11c0.01,0.01 0.01,0.02 0.01,0.02 0,0 -0,0.01 -0.01,0.02l-0.29 0.29c-0.01,0.01 -0.01,0.01 -0.02,0.01 -0.01,0 -0.01,-0 -0.02,-0.01l-0.11 -0.11c-0.04,-0.04 -0.1,-0.05 -0.15,-0.02 -0.1,0.06 -0.21,0.11 -0.32,0.15l0 -0.51c0.37,-0.17 0.61,-0.54 0.61,-0.95 0,-0.34 -0.17,-0.67 -0.46,-0.86 -0.04,-0.03 -0.18,-0.12 -0.29,-0.05 -0.11,0.07 -0.1,0.22 -0.1,0.29 0,0.01 0,0.01 0,0.01l0 0.56c0,0.13 -0.1,0.24 -0.23,0.25 -0.13,-0.01 -0.23,-0.12 -0.23,-0.25l0 -0.56c0,-0 0,-0.01 0,-0.01 0,-0.07 0.02,-0.22 -0.1,-0.29 -0.12,-0.07 -0.25,0.02 -0.29,0.05 -0.29,0.2 -0.46,0.52 -0.46,0.86 0,0.41 0.24,0.78 0.61,0.95l0 0.51c-0.11,-0.04 -0.22,-0.09 -0.32,-0.15 -0.02,-0.01 -0.04,-0.02 -0.06,-0.02 -0.03,0 -0.06,0.01 -0.08,0.03l-0.11 0.11c-0.01,0.01 -0.01,0.01 -0.02,0.01 -0.01,0 -0.01,-0 -0.02,-0.01l-0.29 -0.29c-0.01,-0.01 -0.01,-0.02 -0.01,-0.02 0,-0 0,-0.01 0.01,-0.02l0.11 -0.11c0.04,-0.04 0.05,-0.1 0.02,-0.15 -0.09,-0.14 -0.16,-0.3 -0.19,-0.46 -0.01,-0.05 -0.06,-0.09 -0.11,-0.09l-0.15 0c-0.02,0 -0.03,-0.01 -0.03,-0.03l0 -0.41c0,-0.02 0.01,-0.03 0.03,-0.03l0.15 0c0.06,0 0.1,-0.04 0.11,-0.09 0.04,-0.16 0.1,-0.32 0.19,-0.46 0.03,-0.05 0.02,-0.11 -0.02,-0.15l-0.11 -0.11c-0.01,-0.01 -0.01,-0.02 -0.01,-0.02 0,-0 0,-0.01 0.01,-0.02l0.29 -0.29c0.01,-0.01 0.01,-0.01 0.02,-0.01 0.01,0 0.01,0 0.02,0.01l0.11 0.11c0.04,0.04 0.1,0.05 0.15,0.02 0.14,-0.09 0.3,-0.16 0.46,-0.19 0.05,-0.01 0.09,-0.06 0.09,-0.11l0 -0.15c0,-0.02 0.01,-0.03 0.03,-0.03l0.41 0c0.02,0 0.03,0.01 0.03,0.03l0 0.15c0,0.06 0.04,0.1 0.09,0.11 0.16,0.04 0.32,0.1 0.46,0.19 0.05,0.03 0.11,0.02 0.15,-0.02l0.11 -0.11c0.01,-0.01 0.01,-0.01 0.02,-0.01 0.01,0 0.01,0 0.02,0.01l0.29 0.29c0.01,0.01 0.01,0.02 0.01,0.02 0,0 -0,0.01 -0.01,0.02l-0.11 0.11c-0.04,0.04 -0.05,0.1 -0.02,0.15 0.09,0.14 0.15,0.3 0.19,0.46 0.01,0.05 0.06,0.09 0.11,0.09l0.15 0c0.02,0 0.03,0.01 0.03,0.03l0 0.41 -0 0zm-1.05 3.01c-0.05,0.05 -0.05,0.12 0,0.17 0.02,0.02 0.05,0.03 0.08,0.03 0.03,0 0.06,-0.01 0.08,-0.03l0 -0c0.05,-0.05 0.05,-0.12 -0,-0.17 -0.05,-0.05 -0.12,-0.05 -0.17,0zm0.55 -1.14l-0.94 0.48c-0.08,-0.08 -0.19,-0.13 -0.31,-0.13l-0.64 0c-0.04,0 -0.04,-0 -0.05,-0 -0.01,-0 -0.02,-0.02 -0.03,-0.03l-0.01 -0.01c-0.52,-0.49 -0.96,-0.46 -1.45,-0.26 -0.08,0.03 -0.08,0.03 -0.16,0.04l-0.14 0c-0.04,-0.12 -0.16,-0.21 -0.3,-0.21l-0.47 0c-0.17,0 -0.31,0.14 -0.31,0.31l0 1.24c0,0.17 0.14,0.31 0.31,0.31l0.47 0c0.14,0 0.26,-0.09 0.3,-0.21l0.27 0c0.02,0 0.02,0 0.05,0.01 0.01,0 0.02,0.01 0.04,0.01l1.22 0.33c0.05,0.01 0.1,0.03 0.15,0.04 0.16,0.05 0.29,0.08 0.42,0.08 0.15,0 0.32,-0.05 0.53,-0.19l0 -0 0.23 -0.17c0.05,-0.04 0.07,-0.11 0.03,-0.16 -0.04,-0.05 -0.11,-0.07 -0.16,-0.03l-0.23 0.16c-0.31,0.21 -0.44,0.17 -0.76,0.08 -0.05,-0.01 -0.1,-0.03 -0.16,-0.04l-1.22 -0.33c-0.01,-0 -0.03,-0.01 -0.03,-0.01 -0.04,-0.01 -0.06,-0.02 -0.11,-0.02l-0.25 0 0 -0.96 0.13 0 0.01 -0 0.01 -0c0.1,-0 0.13,-0.01 0.24,-0.05 0.44,-0.17 0.78,-0.19 1.21,0.21l0.01 0.01c0.07,0.07 0.12,0.1 0.24,0.1l0.64 0c0.08,0 0.14,0.04 0.18,0.1l0 0c0.02,0.03 0.02,0.06 0.02,0.09 0,0.11 -0.09,0.2 -0.2,0.2l-1.04 0c-0.07,0 -0.12,0.05 -0.12,0.12 0,0.07 0.05,0.12 0.12,0.12l1.04 0c0.24,0 0.44,-0.2 0.44,-0.44 0,-0.03 -0,-0.06 -0.01,-0.1l0.93 -0.48c0.09,-0.05 0.21,-0.04 0.27,0.06 0.05,0.09 0.02,0.2 -0.07,0.26l-0.41 0.29c-0.05,0.04 -0.07,0.11 -0.03,0.16 0.02,0.03 0.06,0.05 0.1,0.05 0.02,0 0.05,-0.01 0.07,-0.02l0.41 -0.29c0.19,-0.14 0.25,-0.39 0.13,-0.58 -0.12,-0.19 -0.36,-0.25 -0.58,-0.14l0 0zm-3.96 1.42c0,0.04 -0.04,0.08 -0.08,0.08l-0.47 0c-0.04,0 -0.08,-0.04 -0.08,-0.08l0 -1.24c0,-0.04 0.03,-0.08 0.08,-0.08l0.47 0c0.04,0 0.08,0.04 0.08,0.08l-0 1.24z"/>
   </g>
  </g>
 </g>
</svg>
