<?xml version="1.0" encoding="UTF-8"?>
<!DOCTYPE svg PUBLIC "-//W3C//DTD SVG 1.1//EN" "http://www.w3.org/Graphics/SVG/1.1/DTD/svg11.dtd">
<!-- Creator: CorelDRAW 2018 (64-Bit) -->
<svg xmlns="http://www.w3.org/2000/svg" xml:space="preserve" width="16.3961mm" height="16.396mm" version="1.1" style="shape-rendering:geometricPrecision; text-rendering:geometricPrecision; image-rendering:optimizeQuality; fill-rule:evenodd; clip-rule:evenodd"
viewBox="0 0 4.59 4.59"
 xmlns:xlink="http://www.w3.org/1999/xlink">
 <defs>
  <style type="text/css">
   <![CDATA[
    .fil0 {fill:#990310}
   ]]>
  </style>
 </defs>
 <g id="Слой_x0020_1">
  <metadata id="CorelCorpID_0Corel-Layer"/>
  <path class="fil0" d="M2.95 3.33c-0.02,-0.01 -0.05,-0.03 -0.07,-0.04 -0.03,-0.02 -0.05,-0.03 -0.07,-0.04l-0.01 -0.01 0 -0.01c0.01,-0.05 0.01,-0.1 0.01,-0.15 0,-0.05 -0,-0.1 -0.01,-0.15l-0 -0.01 0.01 -0.01c0.02,-0.01 0.05,-0.03 0.08,-0.04 0.02,-0.01 0.05,-0.03 0.07,-0.04 0.04,-0.02 0.06,-0.06 0.08,-0.1 0.01,-0.04 0.01,-0.08 -0,-0.12l-0.11 -0.26c-0.02,-0.04 -0.05,-0.07 -0.08,-0.09 -0.04,-0.02 -0.08,-0.02 -0.12,-0.01 -0.03,0.01 -0.06,0.01 -0.08,0.02 -0.03,0.01 -0.05,0.01 -0.08,0.02l-0.01 0 -0.01 -0.01c-0.03,-0.04 -0.06,-0.08 -0.1,-0.11 -0.04,-0.04 -0.07,-0.07 -0.11,-0.1l-0.01 -0.01 0 -0.01c0.01,-0.03 0.02,-0.06 0.02,-0.08 0.01,-0.03 0.01,-0.05 0.02,-0.08 0.01,-0.04 0,-0.09 -0.01,-0.12 -0.02,-0.04 -0.05,-0.07 -0.09,-0.08l-0.26 -0.11c-0.04,-0.02 -0.08,-0.02 -0.12,-0 -0.04,0.01 -0.07,0.04 -0.1,0.08 -0.01,0.02 -0.03,0.05 -0.04,0.07 -0.01,0.03 -0.03,0.05 -0.04,0.07l-0.01 0.01 -0.01 -0c-0.05,-0.01 -0.1,-0.01 -0.15,-0.01 -0.05,0 -0.1,0 -0.15,0.01l-0.01 0 -0.01 -0.01c-0.01,-0.02 -0.03,-0.05 -0.04,-0.07 -0.01,-0.02 -0.03,-0.05 -0.04,-0.07 -0.02,-0.04 -0.06,-0.06 -0.1,-0.08 -0.04,-0.01 -0.08,-0.01 -0.12,0l-0.26 0.11c-0.04,0.02 -0.07,0.05 -0.09,0.08 -0.02,0.04 -0.02,0.08 -0.01,0.12 0.01,0.03 0.01,0.06 0.02,0.08 0.01,0.03 0.01,0.05 0.02,0.08l0 0.01 -0.01 0.01c-0.04,0.03 -0.08,0.06 -0.11,0.1 -0.04,0.04 -0.07,0.07 -0.1,0.11l-0.01 0.01 -0.01 -0c-0.03,-0.01 -0.06,-0.02 -0.08,-0.02 -0.03,-0.01 -0.05,-0.01 -0.08,-0.02 -0.04,-0.01 -0.09,-0 -0.12,0.01 -0.04,0.02 -0.07,0.05 -0.08,0.09l-0.11 0.26c-0.02,0.04 -0.02,0.08 -0,0.12 0.01,0.04 0.04,0.07 0.08,0.1 0.02,0.01 0.05,0.03 0.07,0.04 0.03,0.02 0.05,0.03 0.07,0.04l0.01 0.01 -0 0.01c-0.01,0.05 -0.01,0.1 -0.01,0.15 0,0.05 0,0.1 0.01,0.15l0 0.01 -0.01 0.01c-0.02,0.01 -0.05,0.03 -0.07,0.04 -0.02,0.01 -0.05,0.03 -0.07,0.04 -0.04,0.02 -0.06,0.06 -0.08,0.1 -0.01,0.04 -0.01,0.08 0,0.12l0.11 0.26c0.02,0.04 0.05,0.07 0.08,0.09 0.04,0.02 0.08,0.02 0.12,0.01 0.03,-0.01 0.06,-0.01 0.08,-0.02 0.03,-0.01 0.05,-0.01 0.08,-0.02l0.01 -0 0.01 0.01c0.03,0.04 0.06,0.08 0.1,0.11 0.04,0.04 0.07,0.07 0.11,0.1l0.01 0.01 -0 0.01c-0.01,0.03 -0.02,0.06 -0.02,0.08 -0.01,0.03 -0.01,0.05 -0.02,0.08 -0.01,0.04 -0,0.09 0.01,0.12 0.02,0.04 0.05,0.07 0.09,0.08l0.26 0.11c0.01,0 0.02,0.01 0.03,0.01 0.01,0 0.02,0 0.03,0 0.03,0 0.06,-0.01 0.09,-0.02 0.03,-0.01 0.05,-0.04 0.06,-0.06 0.01,-0.02 0.03,-0.05 0.04,-0.07 0.02,-0.03 0.03,-0.05 0.04,-0.08l0.01 -0.01 0.01 0c0.05,0.01 0.1,0.01 0.15,0.01 0.05,0 0.1,-0 0.15,-0.01l0.01 -0 0.01 0.01c0.01,0.02 0.03,0.05 0.04,0.07 0.01,0.02 0.03,0.05 0.04,0.07 0.02,0.04 0.06,0.06 0.1,0.08 0.04,0.01 0.08,0.01 0.12,-0l0.26 -0.11c0.04,-0.02 0.07,-0.05 0.09,-0.08 0.02,-0.04 0.02,-0.08 0.01,-0.12 -0.01,-0.03 -0.01,-0.06 -0.02,-0.08 -0.01,-0.03 -0.01,-0.05 -0.02,-0.08l-0 -0.01 0.01 -0.01c0.04,-0.03 0.08,-0.06 0.11,-0.1 0.04,-0.04 0.07,-0.07 0.1,-0.11l0.01 -0.01 0.01 0c0.03,0.01 0.06,0.02 0.08,0.02 0.03,0.01 0.05,0.01 0.08,0.02 0.04,0.01 0.09,0 0.12,-0.01 0.04,-0.02 0.07,-0.05 0.08,-0.09l0.11 -0.26c0.02,-0.04 0.02,-0.08 0,-0.12 -0.01,-0.04 -0.04,-0.07 -0.08,-0.1l-0 -0zm-0.21 0.41c-0.02,-0.01 -0.05,-0.01 -0.08,-0.02 -0.03,-0.01 -0.06,-0.01 -0.08,-0.02 -0.03,-0.01 -0.07,-0.01 -0.1,0 -0.03,0.01 -0.06,0.03 -0.08,0.06 -0.03,0.04 -0.06,0.07 -0.09,0.1l0 0c-0.03,0.03 -0.07,0.06 -0.1,0.09 -0.03,0.02 -0.05,0.05 -0.06,0.08 -0.01,0.03 -0.01,0.07 -0,0.1 0.01,0.02 0.01,0.05 0.02,0.08 0.01,0.03 0.01,0.06 0.02,0.08l0 0.01 -0.26 0.11 -0.01 -0.01c-0.01,-0.02 -0.03,-0.05 -0.04,-0.07 -0.01,-0.02 -0.03,-0.05 -0.04,-0.07 -0.02,-0.03 -0.04,-0.06 -0.07,-0.07 -0.03,-0.02 -0.07,-0.02 -0.1,-0.02 -0.04,0.01 -0.09,0.01 -0.14,0.01 -0.05,0 -0.09,-0 -0.14,-0.01 -0.04,-0 -0.07,0 -0.1,0.02 -0.03,0.02 -0.06,0.04 -0.07,0.07 -0.01,0.02 -0.03,0.05 -0.04,0.07 -0.01,0.02 -0.03,0.05 -0.04,0.07l-0.01 0.01 -0.26 -0.11 0 -0.01c0.01,-0.02 0.01,-0.05 0.02,-0.08 0.01,-0.03 0.01,-0.06 0.02,-0.08 0.01,-0.03 0.01,-0.07 -0,-0.1 -0.01,-0.03 -0.03,-0.06 -0.06,-0.08 -0.04,-0.03 -0.07,-0.06 -0.1,-0.09 -0.03,-0.03 -0.06,-0.07 -0.09,-0.1l-0 0c-0.02,-0.03 -0.05,-0.05 -0.08,-0.06 -0.03,-0.01 -0.07,-0.01 -0.1,-0 -0.02,0.01 -0.05,0.01 -0.08,0.02 -0.03,0.01 -0.06,0.01 -0.08,0.02l-0.01 0 -0.11 -0.26 0.01 -0.01c0.02,-0.01 0.05,-0.03 0.07,-0.04 0.02,-0.01 0.05,-0.03 0.07,-0.04 0.03,-0.02 0.06,-0.04 0.07,-0.07 0.02,-0.03 0.02,-0.07 0.02,-0.1 -0.01,-0.04 -0.01,-0.09 -0.01,-0.14 0,-0.05 0,-0.09 0.01,-0.14 0,-0.04 -0,-0.07 -0.02,-0.1 -0.02,-0.03 -0.04,-0.06 -0.07,-0.08 -0.02,-0.01 -0.05,-0.03 -0.07,-0.04 -0.02,-0.01 -0.05,-0.03 -0.07,-0.04l-0.01 -0.01 0.11 -0.26 0.01 0c0.02,0.01 0.05,0.01 0.08,0.02 0.03,0.01 0.06,0.01 0.08,0.02 0.03,0.01 0.07,0.01 0.1,-0 0.03,-0.01 0.06,-0.03 0.08,-0.06l-0 -0c0.03,-0.04 0.06,-0.07 0.09,-0.1 0.03,-0.03 0.07,-0.06 0.1,-0.09 0.03,-0.02 0.05,-0.05 0.06,-0.08 0.01,-0.03 0.01,-0.07 0,-0.1 -0.01,-0.02 -0.01,-0.05 -0.02,-0.08 -0.01,-0.03 -0.01,-0.06 -0.02,-0.08l-0 -0.01 0.26 -0.11 0.01 0.01c0.01,0.02 0.03,0.05 0.04,0.07 0.01,0.02 0.03,0.05 0.04,0.07 0.02,0.03 0.04,0.06 0.07,0.07 0.03,0.02 0.07,0.02 0.1,0.02 0.04,-0.01 0.09,-0.01 0.14,-0.01 0.05,0 0.09,0 0.14,0.01 0.04,0 0.07,-0 0.1,-0.02 0.03,-0.02 0.06,-0.04 0.08,-0.07 0.01,-0.02 0.03,-0.05 0.04,-0.07 0.01,-0.02 0.03,-0.05 0.04,-0.07l0.01 -0.01 0.26 0.11 -0 0.01c-0.01,0.02 -0.01,0.05 -0.02,0.08 -0.01,0.03 -0.01,0.06 -0.02,0.08 -0.01,0.03 -0.01,0.07 0,0.1 0.01,0.03 0.03,0.06 0.06,0.08 0.04,0.03 0.07,0.06 0.1,0.09 0.03,0.03 0.06,0.07 0.09,0.1 0.02,0.03 0.05,0.05 0.08,0.06 0.03,0.01 0.07,0.01 0.1,0 0.02,-0.01 0.05,-0.01 0.08,-0.02 0.03,-0.01 0.06,-0.01 0.08,-0.02l0.01 -0 0.11 0.26 -0.01 0.01c-0.02,0.01 -0.05,0.03 -0.07,0.04 -0.02,0.01 -0.05,0.03 -0.07,0.04 -0.03,0.02 -0.06,0.04 -0.07,0.07 -0.02,0.03 -0.02,0.07 -0.02,0.1 0.01,0.04 0.01,0.09 0.01,0.14 0,0.05 -0,0.09 -0.01,0.14 -0,0.04 0,0.07 0.02,0.1 0.02,0.03 0.04,0.06 0.07,0.08 0.02,0.01 0.05,0.03 0.07,0.04 0.02,0.01 0.05,0.03 0.07,0.04l0.01 0.01 -0.11 0.26 -0.01 -0zm-0.58 -0.92l-0 -0c-0.07,-0.18 -0.21,-0.31 -0.37,-0.37 -0.16,-0.07 -0.35,-0.07 -0.53,-0 -0.18,0.07 -0.31,0.21 -0.37,0.37 -0.07,0.16 -0.07,0.35 -0,0.53 0.04,0.09 0.09,0.16 0.15,0.22 0.06,0.06 0.14,0.11 0.22,0.15 0.04,0.02 0.09,0.03 0.13,0.04 0.04,0.01 0.09,0.01 0.13,0.01 0.04,0 0.09,-0 0.13,-0.01 0.04,-0.01 0.09,-0.02 0.13,-0.04 0.18,-0.07 0.31,-0.21 0.37,-0.37 0.07,-0.16 0.07,-0.35 0,-0.53zm-0.46 0.75c-0.06,0.02 -0.12,0.03 -0.18,0.03 -0.07,0 -0.13,-0.01 -0.2,-0.04 -0.06,-0.03 -0.12,-0.06 -0.17,-0.11 -0.05,-0.05 -0.08,-0.1 -0.11,-0.17l-0 -0c-0.05,-0.13 -0.05,-0.27 0,-0.39 0.05,-0.12 0.15,-0.22 0.28,-0.28l0 -0c0.03,-0.01 0.06,-0.02 0.1,-0.03 0.03,-0.01 0.07,-0.01 0.1,-0.01 0.1,0 0.2,0.03 0.29,0.09 0.08,0.05 0.15,0.13 0.19,0.23 0.05,0.13 0.05,0.27 -0,0.39 -0.05,0.12 -0.15,0.22 -0.28,0.28l-0.02 0.01 0 -0zm2.77 -2.65c-0.02,-0 -0.03,-0 -0.05,-0.01 -0.02,-0 -0.04,-0.01 -0.05,-0.01l-0.01 -0 -0 -0.01c-0.01,-0.03 -0.02,-0.06 -0.03,-0.09 -0.01,-0.03 -0.03,-0.06 -0.04,-0.09l-0 -0.01 0.01 -0.01c0.01,-0.02 0.02,-0.03 0.03,-0.04 0.01,-0.01 0.02,-0.03 0.03,-0.04 0.02,-0.03 0.03,-0.06 0.03,-0.1 -0,-0.03 -0.02,-0.07 -0.04,-0.09l-0 0 -0.14 -0.14c-0.03,-0.03 -0.06,-0.04 -0.09,-0.04 -0.03,-0 -0.07,0.01 -0.1,0.03 -0.02,0.01 -0.03,0.02 -0.04,0.03 -0.01,0.01 -0.03,0.02 -0.04,0.03l-0.01 0.01 -0.01 -0c-0.03,-0.02 -0.06,-0.03 -0.09,-0.04 -0.03,-0.01 -0.06,-0.02 -0.09,-0.03l-0.01 -0 -0 -0.01c-0,-0.02 -0,-0.04 -0.01,-0.06 -0,-0.02 -0,-0.03 -0.01,-0.05 -0.01,-0.04 -0.02,-0.07 -0.05,-0.09 -0.03,-0.02 -0.06,-0.04 -0.1,-0.04l0 -0 -0.2 0 0 0c-0.04,0 -0.07,0.01 -0.1,0.04 -0.03,0.02 -0.04,0.05 -0.05,0.09 -0,0.02 -0.01,0.04 -0.01,0.05 -0,0.02 -0.01,0.04 -0.01,0.06l-0 0.01 -0.01 0c-0.03,0.01 -0.06,0.02 -0.09,0.03 -0.03,0.01 -0.06,0.03 -0.09,0.04l-0.01 0 -0.01 -0.01c-0.02,-0.01 -0.03,-0.02 -0.04,-0.03 -0.01,-0.01 -0.03,-0.02 -0.04,-0.03 -0.03,-0.02 -0.06,-0.03 -0.1,-0.03 -0.03,0 -0.07,0.02 -0.09,0.04l0 0 -0.14 0.14 -0 0c-0.03,0.03 -0.04,0.06 -0.04,0.09 -0,0.03 0.01,0.07 0.03,0.1 0.01,0.02 0.02,0.03 0.03,0.04 0.01,0.01 0.02,0.03 0.03,0.04l0.01 0.01 -0 0.01c-0.02,0.03 -0.03,0.06 -0.04,0.09 -0.01,0.03 -0.02,0.06 -0.03,0.09l-0 0.01 -0.01 0c-0.02,0 -0.04,0 -0.06,0.01 -0.02,0 -0.03,0 -0.05,0.01 -0.04,0.01 -0.07,0.02 -0.09,0.05 -0.02,0.03 -0.04,0.06 -0.04,0.1l0 0.2c0,0.04 0.01,0.07 0.04,0.1 0.02,0.03 0.05,0.04 0.09,0.05 0.02,0 0.04,0.01 0.05,0.01 0.02,0 0.04,0.01 0.05,0.01l0.01 0 0 0.01c0.01,0.03 0.02,0.06 0.03,0.09 0.01,0.03 0.03,0.06 0.04,0.09l0 0.01 -0.01 0.01c-0.01,0.02 -0.02,0.03 -0.03,0.04 -0.01,0.01 -0.02,0.03 -0.03,0.04 -0.02,0.03 -0.03,0.06 -0.03,0.1 0,0.03 0.02,0.07 0.04,0.09l0 0 0.14 0.14 0 0c0.03,0.03 0.06,0.04 0.09,0.04 0.03,0 0.07,-0.01 0.1,-0.03 0.02,-0.01 0.03,-0.02 0.04,-0.03 0.01,-0.01 0.03,-0.02 0.04,-0.03l0.01 -0.01 0.01 0c0.03,0.02 0.06,0.03 0.09,0.04 0.03,0.01 0.06,0.02 0.09,0.03l0.01 0 0 0.01c0,0.02 0,0.04 0.01,0.05 0,0.02 0.01,0.04 0.01,0.05 0.01,0.04 0.02,0.07 0.05,0.09 0.03,0.02 0.06,0.04 0.1,0.04l0 0 0.2 0 0 -0c0.04,0 0.07,-0.01 0.1,-0.04 0.03,-0.02 0.04,-0.05 0.05,-0.09 0,-0.02 0.01,-0.04 0.01,-0.05 0,-0.02 0.01,-0.04 0.01,-0.06l0 -0.01 0.01 -0c0.03,-0.01 0.06,-0.02 0.09,-0.03 0.03,-0.01 0.06,-0.03 0.09,-0.04l0.01 -0 0.01 0.01c0.02,0.01 0.03,0.02 0.04,0.03 0.01,0.01 0.03,0.02 0.04,0.03 0.03,0.02 0.06,0.03 0.1,0.03 0.03,-0 0.07,-0.02 0.09,-0.04l0 -0 0.14 -0.14c0.03,-0.03 0.04,-0.06 0.04,-0.09 0,-0.03 -0.01,-0.07 -0.03,-0.1 -0.01,-0.02 -0.02,-0.03 -0.03,-0.04 -0.01,-0.01 -0.02,-0.03 -0.03,-0.04l-0.01 -0.01 0 -0.01c0.02,-0.03 0.03,-0.06 0.04,-0.09 0.01,-0.03 0.02,-0.06 0.03,-0.09l0 -0.01 0.01 -0c0.02,-0 0.04,-0 0.06,-0.01 0.02,-0 0.03,-0 0.05,-0.01 0.04,-0.01 0.07,-0.02 0.09,-0.05 0.02,-0.03 0.04,-0.06 0.04,-0.1l0 -0.2 0 0c0,-0.04 -0.01,-0.07 -0.04,-0.1 -0.02,-0.03 -0.05,-0.04 -0.09,-0.05l-0.01 -0zm-0.05 0.34c-0.01,0 -0.03,0 -0.05,0.01 -0.02,0 -0.03,0 -0.05,0.01 -0.03,0 -0.06,0.02 -0.08,0.04 -0.02,0.02 -0.04,0.04 -0.05,0.07l0 0c-0.01,0.03 -0.02,0.06 -0.03,0.09l0 0c-0.01,0.03 -0.03,0.06 -0.04,0.09 -0.01,0.03 -0.02,0.06 -0.02,0.08 0,0.03 0.01,0.06 0.03,0.08 0.01,0.02 0.02,0.03 0.03,0.04 0.01,0.01 0.02,0.03 0.03,0.04l0.01 0.01 -0.12 0.12 -0.01 -0.01c-0.01,-0.01 -0.03,-0.02 -0.04,-0.03 -0.01,-0.01 -0.03,-0.02 -0.04,-0.03 -0.02,-0.02 -0.05,-0.03 -0.08,-0.03 -0.03,-0 -0.06,0 -0.08,0.02 -0.03,0.02 -0.06,0.03 -0.09,0.04 -0.03,0.01 -0.06,0.02 -0.09,0.03 -0.03,0.01 -0.05,0.02 -0.07,0.05 -0.02,0.02 -0.03,0.05 -0.04,0.08 -0,0.02 -0,0.03 -0.01,0.05 -0,0.02 -0,0.03 -0.01,0.05l-0 0.01 -0.17 0 -0 -0.01c-0,-0.01 -0,-0.03 -0.01,-0.05 -0,-0.02 -0,-0.03 -0.01,-0.05 -0,-0.03 -0.02,-0.06 -0.04,-0.08 -0.02,-0.02 -0.04,-0.04 -0.07,-0.05 -0.03,-0.01 -0.06,-0.02 -0.09,-0.03 -0.03,-0.01 -0.06,-0.03 -0.09,-0.04 -0.03,-0.01 -0.06,-0.02 -0.08,-0.02 -0.03,0 -0.06,0.01 -0.08,0.03 -0.02,0.01 -0.03,0.02 -0.04,0.03 -0.01,0.01 -0.03,0.02 -0.04,0.03l-0.01 0.01 -0.12 -0.12 0.01 -0.01c0.01,-0.01 0.02,-0.03 0.03,-0.04 0.01,-0.01 0.02,-0.03 0.03,-0.04 0.02,-0.02 0.03,-0.05 0.03,-0.08 0,-0.03 -0,-0.06 -0.02,-0.08 -0.02,-0.03 -0.03,-0.06 -0.04,-0.09 -0.01,-0.03 -0.02,-0.06 -0.03,-0.09l0 -0c-0.01,-0.03 -0.02,-0.05 -0.05,-0.07 -0.02,-0.02 -0.05,-0.03 -0.08,-0.04 -0.02,-0 -0.03,-0 -0.05,-0.01 -0.02,-0 -0.03,-0 -0.05,-0.01l-0.01 -0 0 -0.17 0.01 -0c0.01,-0 0.03,-0 0.05,-0.01 0.02,-0 0.03,-0 0.05,-0.01 0.03,-0 0.06,-0.02 0.08,-0.04 0.02,-0.02 0.04,-0.04 0.05,-0.07l0 -0c0.01,-0.03 0.02,-0.06 0.03,-0.09 0.01,-0.03 0.03,-0.06 0.04,-0.09 0.01,-0.03 0.02,-0.06 0.02,-0.08 -0,-0.03 -0.01,-0.06 -0.03,-0.08 -0.01,-0.01 -0.02,-0.03 -0.03,-0.04 -0.01,-0.01 -0.02,-0.03 -0.03,-0.04l-0.01 -0.01 0.12 -0.12 0.01 0.01c0.01,0.01 0.03,0.02 0.04,0.03 0.01,0.01 0.03,0.02 0.04,0.03 0.02,0.02 0.05,0.03 0.08,0.03 0.03,0 0.06,-0 0.08,-0.02 0.03,-0.02 0.06,-0.03 0.09,-0.04 0.03,-0.01 0.06,-0.02 0.09,-0.03 0.03,-0.01 0.05,-0.02 0.07,-0.05 0.02,-0.02 0.03,-0.05 0.04,-0.08 0,-0.02 0,-0.03 0.01,-0.05 0,-0.02 0,-0.03 0.01,-0.05l0 -0.01 0.17 0 0 0.01c0,0.01 0,0.03 0.01,0.05 0,0.02 0,0.03 0.01,0.05 0,0.03 0.02,0.06 0.04,0.08 0.02,0.02 0.04,0.04 0.07,0.05l0 0c0.03,0.01 0.06,0.02 0.09,0.03 0.03,0.01 0.06,0.03 0.09,0.04 0.03,0.01 0.06,0.02 0.08,0.02 0.03,-0 0.06,-0.01 0.08,-0.03 0.02,-0.01 0.03,-0.02 0.04,-0.03 0.01,-0.01 0.03,-0.02 0.04,-0.03l0.01 -0.01 0.12 0.12 -0.01 0.01c-0.01,0.01 -0.02,0.03 -0.03,0.04 -0.01,0.01 -0.02,0.03 -0.03,0.04 -0.02,0.02 -0.03,0.05 -0.03,0.08 -0,0.03 0,0.06 0.02,0.08 0.02,0.03 0.03,0.06 0.04,0.09 0.01,0.03 0.02,0.06 0.03,0.09l0 0c0.01,0.03 0.02,0.05 0.05,0.07 0.02,0.02 0.05,0.03 0.08,0.04 0.02,0 0.03,0 0.05,0.01 0.02,0 0.03,0 0.05,0.01l0.01 0 0 0.17 -0.01 0zm-0.98 -0.49c-0.11,0 -0.21,0.05 -0.29,0.12 -0.07,0.07 -0.12,0.17 -0.12,0.29 0,0.11 0.05,0.21 0.12,0.29 0.07,0.07 0.17,0.12 0.29,0.12 0.11,0 0.21,-0.05 0.29,-0.12 0.07,-0.07 0.12,-0.17 0.12,-0.29 0,-0.11 -0.05,-0.21 -0.12,-0.29 -0.07,-0.07 -0.17,-0.12 -0.29,-0.12zm0 0.65c-0.07,0 -0.13,-0.03 -0.18,-0.07 -0.05,-0.05 -0.07,-0.11 -0.07,-0.18 0,-0.07 0.03,-0.13 0.07,-0.18 0.05,-0.05 0.11,-0.07 0.18,-0.07 0.07,0 0.13,0.03 0.18,0.07 0.04,0.04 0.07,0.11 0.07,0.18l0 0c0,0.07 -0.03,0.13 -0.07,0.18 -0.04,0.05 -0.11,0.07 -0.18,0.07z"/>
 </g>
</svg>
