<?xml version="1.0" encoding="UTF-8"?>
<!DOCTYPE svg PUBLIC "-//W3C//DTD SVG 1.1//EN" "http://www.w3.org/Graphics/SVG/1.1/DTD/svg11.dtd">
<!-- Creator: CorelDRAW 2018 (64-Bit) -->
<svg xmlns="http://www.w3.org/2000/svg" xml:space="preserve" width="26.817mm" height="27.4266mm" version="1.1" style="shape-rendering:geometricPrecision; text-rendering:geometricPrecision; image-rendering:optimizeQuality; fill-rule:evenodd; clip-rule:evenodd"
viewBox="0 0 71.42 73.04"
 xmlns:xlink="http://www.w3.org/1999/xlink">
 <defs>
  <style type="text/css">
   <![CDATA[
    .fil1 {fill:#990310}
    .fil0 {fill:white}
   ]]>
  </style>
 </defs>
 <g id="Слой_x0020_1">
  <metadata id="CorelCorpID_0Corel-Layer"/>
  <path class="fil0" d="M70.94 56.75c3.33,-58.17 -10.21,-71.45 -53.31,-40.63 -59.66,39.08 51.02,80.67 53.31,40.63z"/>
  <path class="fil1" d="M39.76 45.15c-0.08,0 -0.16,0.02 -0.24,0.05 -0.07,0.03 -0.14,0.08 -0.2,0.14 -0.06,0.06 -0.1,0.13 -0.14,0.2 -0.03,0.07 -0.05,0.16 -0.05,0.24 0,0.08 0.02,0.16 0.05,0.24 0.03,0.08 0.08,0.14 0.14,0.2 0.06,0.06 0.13,0.1 0.2,0.13 0.08,0.03 0.16,0.05 0.24,0.05 0.08,0 0.16,-0.02 0.24,-0.05 0.07,-0.03 0.14,-0.08 0.2,-0.13 0.06,-0.06 0.1,-0.13 0.14,-0.2 0.03,-0.07 0.05,-0.16 0.05,-0.24 0,-0.08 -0.02,-0.16 -0.05,-0.24 -0.03,-0.08 -0.08,-0.14 -0.14,-0.2 -0.06,-0.06 -0.13,-0.1 -0.2,-0.14 -0.07,-0.03 -0.16,-0.05 -0.24,-0.05zm-0.02 -13.12c0.02,-0.08 0.03,-0.16 0.02,-0.24 -0.01,-0.08 -0.04,-0.16 -0.08,-0.23l-1.19 -2.06c-0.09,-0.15 -0.22,-0.25 -0.38,-0.29 -0.15,-0.04 -0.32,-0.02 -0.47,0.06l-0.72 0.41 -0.04 -0.03c-0.11,-0.08 -0.22,-0.15 -0.34,-0.22 -0.12,-0.07 -0.23,-0.13 -0.35,-0.18l-0.05 -0.02 0 -0.83c0,-0.17 -0.07,-0.33 -0.18,-0.44 -0.11,-0.11 -0.27,-0.18 -0.44,-0.18l-2.37 -0c-0.17,0 -0.33,0.07 -0.44,0.18 -0.11,0.11 -0.18,0.27 -0.18,0.44l0 0.83 -0.05 0.02c-0.12,0.06 -0.24,0.12 -0.35,0.18 -0.11,0.07 -0.23,0.14 -0.34,0.22l-0.04 0.03 -0.72 -0.41c-0.07,-0.04 -0.15,-0.07 -0.23,-0.08 -0.08,-0.01 -0.16,-0.01 -0.24,0.02 -0.08,0.02 -0.15,0.06 -0.22,0.11 -0.06,0.05 -0.12,0.11 -0.16,0.18 -0.37,0.65 -0.79,1.45 -1.19,2.06 -0.08,0.15 -0.1,0.32 -0.06,0.47 0.04,0.15 0.14,0.29 0.29,0.38l0.72 0.42 -0.02 0.25 -0 0.2c0,0.14 0.01,0.27 0.02,0.4l0 0.05 -0.72 0.42c-0.15,0.09 -0.25,0.23 -0.29,0.38 -0.04,0.15 -0.02,0.32 0.06,0.47l1.19 2.06c0.04,0.07 0.1,0.13 0.16,0.18 0.06,0.05 0.14,0.09 0.22,0.11 0.08,0.02 0.16,0.03 0.24,0.02 0.08,-0.01 0.16,-0.04 0.23,-0.08l0.72 -0.42 0.04 0.03c0.11,0.08 0.22,0.15 0.34,0.22 0.11,0.07 0.23,0.13 0.35,0.18l0.05 0.02 0 0.83c0,0.17 0.07,0.33 0.18,0.44 0.11,0.11 0.27,0.18 0.44,0.18l2.37 0c0.17,-0 0.33,-0.07 0.44,-0.18 0.11,-0.11 0.18,-0.27 0.18,-0.44l0 -0.83 0.05 -0.02c0.12,-0.06 0.24,-0.12 0.35,-0.18 0.12,-0.07 0.23,-0.14 0.34,-0.22l0.04 -0.03 0.72 0.42c0.15,0.09 0.32,0.1 0.47,0.06 0.15,-0.04 0.29,-0.14 0.38,-0.29l1.19 -2.06c0.04,-0.07 0.07,-0.15 0.08,-0.23 0.01,-0.08 0.01,-0.16 -0.02,-0.24 -0.02,-0.08 -0.06,-0.15 -0.11,-0.22 -0.05,-0.06 -0.11,-0.12 -0.18,-0.16l-0.72 -0.42 0.02 -0.25 0 -0.2 -0 -0.2 -0.02 -0.25 0.72 -0.42c0.07,-0.04 0.13,-0.1 0.18,-0.16 0.05,-0.06 0.08,-0.13 0.1,-0.21l0 -0.01zm-2.3 0.59c0.02,0.11 0.04,0.21 0.05,0.32 0.01,0.11 0.02,0.22 0.02,0.33 0,0.11 -0.01,0.22 -0.02,0.33 -0.01,0.11 -0.03,0.22 -0.05,0.32 -0.03,0.13 -0.01,0.27 0.04,0.38 0.05,0.12 0.14,0.22 0.26,0.28l0.55 0.32 -0.56 0.97 -0.55 -0.32c-0.12,-0.07 -0.25,-0.09 -0.38,-0.08 -0.13,0.01 -0.25,0.07 -0.35,0.16 -0.16,0.15 -0.34,0.28 -0.53,0.38 -0.19,0.11 -0.39,0.2 -0.59,0.27 -0.13,0.04 -0.24,0.12 -0.31,0.23 -0.08,0.1 -0.12,0.23 -0.12,0.37l0 0.63 -1.13 0 0 -0.63c0,-0.13 -0.04,-0.26 -0.12,-0.37 -0.08,-0.1 -0.18,-0.18 -0.31,-0.23 -0.21,-0.07 -0.41,-0.16 -0.59,-0.27 -0.19,-0.11 -0.36,-0.24 -0.53,-0.38 -0.1,-0.09 -0.22,-0.14 -0.35,-0.16 -0.13,-0.01 -0.26,0.01 -0.38,0.08l-0.55 0.32 -0.56 -0.97 0.55 -0.32c0.12,-0.07 0.21,-0.17 0.26,-0.28 0.05,-0.12 0.07,-0.25 0.04,-0.38 -0.02,-0.11 -0.04,-0.21 -0.05,-0.32 -0.01,-0.11 -0.02,-0.22 -0.02,-0.33 0,-0.11 0.01,-0.22 0.02,-0.33 0.01,-0.11 0.03,-0.22 0.05,-0.32 0.03,-0.13 0.01,-0.27 -0.04,-0.38 -0.05,-0.12 -0.14,-0.22 -0.26,-0.29l-0.55 -0.32 0.56 -0.97 0.55 0.32c0.12,0.07 0.25,0.09 0.38,0.08 0.13,-0.01 0.25,-0.07 0.35,-0.16 0.16,-0.15 0.34,-0.28 0.53,-0.38 0.19,-0.11 0.39,-0.2 0.59,-0.27 0.13,-0.04 0.24,-0.12 0.31,-0.23 0.07,-0.1 0.12,-0.23 0.12,-0.37l0 -0.63 1.13 0 0 0.63c0,0.13 0.04,0.26 0.12,0.37 0.07,0.1 0.18,0.18 0.31,0.23 0.21,0.07 0.41,0.16 0.59,0.27 0.19,0.11 0.36,0.24 0.53,0.38 0.1,0.09 0.22,0.14 0.35,0.16 0.13,0.01 0.26,-0.01 0.38,-0.08l0.55 -0.32 0.56 0.97 -0.55 0.32c-0.12,0.07 -0.21,0.17 -0.26,0.29 -0.05,0.12 -0.07,0.25 -0.04,0.38zm-3.11 0.03c-0.08,0 -0.16,0.02 -0.24,0.05 -0.08,0.03 -0.14,0.08 -0.2,0.14 -0.06,0.06 -0.1,0.13 -0.14,0.2 -0.03,0.08 -0.05,0.16 -0.05,0.24 0,0.08 0.02,0.16 0.05,0.24 0.03,0.08 0.08,0.15 0.14,0.2 0.06,0.06 0.13,0.1 0.2,0.13 0.07,0.03 0.16,0.05 0.24,0.05 0.08,0 0.16,-0.02 0.24,-0.05 0.07,-0.03 0.14,-0.08 0.2,-0.13 0.06,-0.06 0.1,-0.13 0.14,-0.2 0.03,-0.07 0.05,-0.16 0.05,-0.24 0,-0.08 -0.02,-0.16 -0.05,-0.24 -0.03,-0.08 -0.08,-0.15 -0.14,-0.2 -0.06,-0.06 -0.13,-0.1 -0.2,-0.14 -0.07,-0.03 -0.16,-0.05 -0.24,-0.05zm15.35 -8.38c-1.18,0 -2.25,0.48 -3.02,1.25 -0.77,0.77 -1.25,1.84 -1.25,3.02 0,1.18 0.48,2.25 1.25,3.02 0.77,0.77 1.84,1.25 3.02,1.25 1.18,0 2.25,-0.48 3.02,-1.25 0.77,-0.77 1.25,-1.84 1.25,-3.02 0,-1.18 -0.48,-2.25 -1.25,-3.02 -0.77,-0.77 -1.84,-1.25 -3.02,-1.25zm0 7.31c-0.84,0 -1.59,-0.34 -2.14,-0.89 -0.55,-0.55 -0.89,-1.31 -0.89,-2.14 0,-0.83 0.34,-1.59 0.89,-2.14 0.55,-0.55 1.31,-0.89 2.14,-0.89 0.83,0 1.59,0.34 2.14,0.89 0.55,0.55 0.89,1.31 0.89,2.14 0,0.84 -0.34,1.59 -0.89,2.14 -0.55,0.55 -1.31,0.89 -2.14,0.89zm9.06 -4.54c0,-0.17 -0.07,-0.33 -0.18,-0.44 -0.11,-0.11 -0.27,-0.18 -0.44,-0.18l-1.14 0 -0.02 -0.06c-0.07,-0.25 -0.16,-0.49 -0.26,-0.72 -0.1,-0.23 -0.21,-0.46 -0.33,-0.69l-0.03 -0.05 0.81 -0.81c0.12,-0.12 0.18,-0.28 0.18,-0.44 0,-0.16 -0.06,-0.32 -0.18,-0.44l-2.13 -2.13c-0.12,-0.12 -0.28,-0.18 -0.44,-0.18 -0.16,0 -0.32,0.06 -0.44,0.18l-0.81 0.81 -0.05 -0.03c-0.23,-0.12 -0.46,-0.23 -0.69,-0.33 -0.23,-0.1 -0.47,-0.18 -0.72,-0.26l-0.06 -0.02 0 -1.14c0,-0.17 -0.07,-0.33 -0.18,-0.44 -0.11,-0.11 -0.27,-0.18 -0.44,-0.18l-3.02 0c-0.17,0 -0.33,0.07 -0.44,0.18 -0.11,0.11 -0.18,0.27 -0.18,0.44l0 1.14 -0.06 0.02c-0.25,0.07 -0.49,0.16 -0.72,0.26 -0.23,0.1 -0.46,0.21 -0.69,0.33l-0.05 0.03 -0.81 -0.81c-0.12,-0.12 -0.28,-0.18 -0.44,-0.18 -0.16,0 -0.32,0.06 -0.44,0.18l-2.13 2.13c-0.07,0.07 -0.12,0.16 -0.15,0.25 -0.03,0.1 -0.04,0.2 -0.02,0.29l0.02 0.09 -16.41 0c-0.75,0 -1.44,0.31 -1.93,0.8 -0.5,0.5 -0.8,1.18 -0.8,1.93l0 19.4c0,0.75 0.31,1.44 0.8,1.93 0.5,0.49 1.18,0.8 1.93,0.8l11.25 0 0 2.55 -1.76 0c-0.68,0 -1.29,0.28 -1.73,0.72 -0.44,0.44 -0.72,1.06 -0.72,1.73l0 0.98c0,0.17 0.07,0.33 0.18,0.44 0.11,0.11 0.27,0.18 0.44,0.18l12.93 0c0.17,0 0.33,-0.07 0.44,-0.18 0.11,-0.11 0.18,-0.27 0.18,-0.44l0 -0.98c0,-0.68 -0.28,-1.29 -0.72,-1.73 -0.44,-0.44 -1.06,-0.72 -1.73,-0.72l-1.76 0 0 -2.55 11.24 0c0.75,0 1.44,-0.31 1.93,-0.8 0.49,-0.5 0.8,-1.18 0.8,-1.93l0 -11.55 0.54 -0.54c0.06,-0.06 0.1,-0.13 0.14,-0.2 0.03,-0.07 0.05,-0.16 0.05,-0.24 0,-0.08 -0.02,-0.16 -0.05,-0.24 -0.03,-0.07 -0.08,-0.14 -0.14,-0.2l-0.81 -0.81 0.03 -0.05c0.12,-0.22 0.23,-0.45 0.33,-0.69 0.1,-0.23 0.18,-0.47 0.26,-0.72l0.02 -0.06 1.14 0c0.08,0 0.16,-0.02 0.24,-0.05 0.07,-0.03 0.14,-0.08 0.2,-0.14 0.06,-0.06 0.1,-0.13 0.14,-0.2 0.03,-0.07 0.05,-0.16 0.05,-0.24l-0 -3.02zm-13.13 26.68l0 0.36 -11.69 0 0 -0.36c0,-0.33 0.14,-0.63 0.35,-0.85 0.22,-0.22 0.52,-0.35 0.85,-0.35l9.27 0c0.33,0 0.63,0.14 0.85,0.35 0.22,0.22 0.35,0.52 0.35,0.85zm-4.3 -2.45l-3.17 0 0 -2.55 3.25 0 0 2.55 -0.08 0zm14.06 -5.28c0,0.41 -0.17,0.78 -0.44,1.05 -0.27,0.27 -0.64,0.44 -1.05,0.44l-28.24 0c-0.41,0 -0.78,-0.17 -1.05,-0.44 -0.27,-0.27 -0.44,-0.64 -0.44,-1.05l0 -1.69 26.21 0c0.17,0 0.33,-0.07 0.44,-0.18 0.11,-0.11 0.18,-0.27 0.18,-0.44 0,-0.17 -0.07,-0.33 -0.18,-0.44 -0.11,-0.11 -0.27,-0.18 -0.44,-0.18l-26.21 0 0 -2.13 5.44 0c0.17,0 0.33,-0.07 0.44,-0.18 0.11,-0.11 0.18,-0.27 0.18,-0.44 0,-0.17 -0.07,-0.33 -0.18,-0.44 -0.11,-0.11 -0.27,-0.18 -0.44,-0.18l-5.44 0 0 -13.08c0,-0.41 0.17,-0.78 0.44,-1.05 0.27,-0.27 0.64,-0.44 1.05,-0.44l17.28 0 -0.06 0.11c-0.09,0.19 -0.17,0.37 -0.25,0.57 -0.07,0.19 -0.14,0.38 -0.2,0.58l-0.02 0.06 -1.15 0c-0.08,0 -0.16,0.02 -0.24,0.05 -0.07,0.03 -0.14,0.08 -0.2,0.14 -0.06,0.06 -0.1,0.13 -0.14,0.2 -0.03,0.07 -0.05,0.16 -0.05,0.24l0 3.02c0,0.17 0.07,0.33 0.18,0.44 0.11,0.11 0.27,0.18 0.44,0.18l1.15 0 0.02 0.06c0.07,0.24 0.16,0.48 0.25,0.72 0.1,0.23 0.2,0.46 0.33,0.69l0.03 0.05 -0.82 0.82c-0.12,0.12 -0.18,0.28 -0.18,0.44 0,0.16 0.06,0.32 0.18,0.44l2.13 2.13c0.12,0.12 0.28,0.18 0.44,0.18 0.16,0 0.32,-0.06 0.44,-0.18l0.82 -0.82 0.05 0.03c0.22,0.12 0.45,0.23 0.69,0.33 0.23,0.1 0.47,0.18 0.72,0.25l0.06 0.02 0 1.15c0,0.17 0.07,0.33 0.18,0.44 0.11,0.11 0.27,0.18 0.44,0.18l3.02 0c0.17,0 0.33,-0.07 0.44,-0.18 0.11,-0.11 0.18,-0.27 0.18,-0.44l0 -1.15 0.06 -0.02c0.25,-0.07 0.48,-0.16 0.72,-0.25 0.23,-0.1 0.46,-0.21 0.69,-0.33l0.05 -0.03 0.81 0.81c0.06,0.06 0.13,0.1 0.2,0.14 0.07,0.03 0.16,0.05 0.24,0.05 0.08,0 0.16,-0.02 0.24,-0.05 0.08,-0.03 0.14,-0.08 0.2,-0.14l0.35 -0.35 0 10.3zm2.05 -16.55l-0.92 0c-0.15,0 -0.28,0.05 -0.39,0.14 -0.11,0.09 -0.19,0.21 -0.22,0.35 -0.08,0.36 -0.19,0.71 -0.33,1.05 -0.14,0.34 -0.31,0.67 -0.51,0.98 -0.08,0.12 -0.11,0.27 -0.1,0.4 0.01,0.14 0.08,0.27 0.18,0.37l0.71 0.71 -1.25 1.25 -0.71 -0.71c-0.1,-0.1 -0.22,-0.15 -0.34,-0.17 -0.13,-0.02 -0.26,-0 -0.38,0.06l-0.06 0.03c-0.31,0.2 -0.64,0.37 -0.98,0.51 -0.34,0.14 -0.69,0.25 -1.05,0.33 -0.14,0.03 -0.27,0.11 -0.35,0.22 -0.09,0.11 -0.14,0.24 -0.14,0.39l0 1.01 -1.77 0 0 -1.01c0,-0.15 -0.05,-0.28 -0.14,-0.39 -0.09,-0.11 -0.21,-0.19 -0.35,-0.22 -0.36,-0.08 -0.71,-0.19 -1.05,-0.33 -0.34,-0.14 -0.67,-0.31 -0.98,-0.51 -0.05,-0.03 -0.1,-0.06 -0.16,-0.07 -0.06,-0.02 -0.12,-0.03 -0.17,-0.03 -0.08,0 -0.16,0.02 -0.24,0.05 -0.07,0.03 -0.14,0.08 -0.2,0.14l-0.72 0.72 -1.25 -1.25 0.72 -0.72c0.1,-0.1 0.16,-0.24 0.18,-0.37 0.01,-0.14 -0.02,-0.28 -0.1,-0.4 -0.2,-0.31 -0.37,-0.64 -0.51,-0.98 -0.14,-0.34 -0.25,-0.69 -0.33,-1.05 -0.03,-0.14 -0.11,-0.27 -0.22,-0.35 -0.11,-0.09 -0.24,-0.14 -0.39,-0.14l-1.01 -0 0 -1.77 1.01 0c0.15,0 0.28,-0.05 0.39,-0.14 0.11,-0.09 0.19,-0.21 0.22,-0.35 0.08,-0.36 0.19,-0.71 0.33,-1.05 0.14,-0.34 0.31,-0.67 0.51,-0.98 0.08,-0.12 0.11,-0.27 0.09,-0.4 -0.01,-0.14 -0.08,-0.27 -0.18,-0.37l-0.71 -0.71 1.25 -1.25 0.71 0.71c0.11,0.11 0.24,0.17 0.38,0.18 0.14,0.01 0.29,-0.02 0.41,-0.1 0.31,-0.2 0.64,-0.37 0.98,-0.51 0.34,-0.14 0.69,-0.25 1.05,-0.33 0.14,-0.03 0.27,-0.11 0.35,-0.22 0.09,-0.11 0.14,-0.24 0.14,-0.39l0 -1 1.77 0 0 1c0,0.15 0.05,0.28 0.14,0.39 0.09,0.11 0.21,0.19 0.35,0.22 0.36,0.08 0.71,0.19 1.06,0.33 0.34,0.14 0.67,0.31 0.98,0.51l0.06 0.03c0.12,0.06 0.25,0.08 0.38,0.06 0.13,-0.02 0.25,-0.08 0.34,-0.17l0.71 -0.71 1.25 1.25 -0.71 0.71 -0.04 0.05 -0.04 0.05c-0.07,0.1 -0.1,0.22 -0.1,0.34 -0,0.12 0.03,0.24 0.1,0.34 0.2,0.31 0.37,0.64 0.51,0.98 0.14,0.34 0.25,0.69 0.33,1.06 0.03,0.14 0.11,0.27 0.22,0.35 0.11,0.09 0.24,0.14 0.39,0.14l1 0 0 1.77 -0.08 0zm-25.03 10.23c-0.08,0 -0.16,0.02 -0.24,0.05 -0.08,0.03 -0.14,0.08 -0.2,0.14 -0.06,0.06 -0.1,0.13 -0.13,0.2 -0.03,0.07 -0.05,0.16 -0.05,0.24 0,0.08 0.02,0.16 0.05,0.24 0.03,0.07 0.08,0.14 0.13,0.2 0.06,0.06 0.13,0.1 0.2,0.13 0.07,0.03 0.16,0.05 0.24,0.05 0.08,0 0.16,-0.02 0.24,-0.05 0.08,-0.03 0.14,-0.08 0.2,-0.13 0.06,-0.06 0.1,-0.13 0.14,-0.2 0.03,-0.07 0.05,-0.16 0.05,-0.24 0,-0.08 -0.02,-0.16 -0.05,-0.24 -0.03,-0.07 -0.08,-0.14 -0.14,-0.2 -0.06,-0.06 -0.13,-0.1 -0.2,-0.14 -0.07,-0.03 -0.16,-0.05 -0.24,-0.05zm20.79 3.38c-0.08,0 -0.16,0.02 -0.24,0.05 -0.08,0.03 -0.15,0.08 -0.2,0.14 -0.06,0.06 -0.1,0.13 -0.13,0.2 -0.03,0.08 -0.05,0.16 -0.05,0.24 0,0.08 0.02,0.16 0.05,0.24 0.03,0.07 0.08,0.14 0.13,0.2 0.06,0.06 0.13,0.1 0.2,0.14 0.07,0.03 0.16,0.05 0.24,0.05 0.08,0 0.16,-0.02 0.24,-0.05 0.08,-0.03 0.15,-0.08 0.2,-0.14 0.06,-0.06 0.1,-0.13 0.14,-0.2 0.03,-0.07 0.05,-0.16 0.05,-0.24 0,-0.08 -0.02,-0.16 -0.05,-0.24 -0.03,-0.08 -0.08,-0.15 -0.14,-0.2 -0.06,-0.06 -0.13,-0.1 -0.2,-0.14 -0.07,-0.03 -0.16,-0.05 -0.24,-0.05z"/>
 </g>
</svg>
