<?xml version="1.0" encoding="UTF-8"?>
<!DOCTYPE svg PUBLIC "-//W3C//DTD SVG 1.1//EN" "http://www.w3.org/Graphics/SVG/1.1/DTD/svg11.dtd">
<!-- Creator: CorelDRAW 2018 (64-Bit) -->
<svg xmlns="http://www.w3.org/2000/svg" xml:space="preserve" width="9.5206mm" height="8.2132mm" version="1.1" style="shape-rendering:geometricPrecision; text-rendering:geometricPrecision; image-rendering:optimizeQuality; fill-rule:evenodd; clip-rule:evenodd"
viewBox="0 0 10.1 8.72"
 xmlns:xlink="http://www.w3.org/1999/xlink"
 enable-background="new 0 0 512 512">
 <defs>
  <style type="text/css">
   <![CDATA[
    .fil0 {fill:#990310}
   ]]>
  </style>
 </defs>
 <g id="Слой_x0020_1">
  <metadata id="CorelCorpID_0Corel-Layer"/>
  <g id="_3029978629088">
   <g>
    <path class="fil0" d="M4.76 0c-1.14,0.07 -2.21,0.51 -3.06,1.27l1.32 1.32c0.5,-0.41 1.1,-0.66 1.74,-0.72l0 -1.87zm-2.16 3.01l-1.32 -1.32c-0.76,0.85 -1.21,1.92 -1.27,3.06l1.87 0c0.06,-0.64 0.31,-1.25 0.72,-1.74l0 0zm5.64 1.74l1.87 0c-0.07,-1.14 -0.51,-2.21 -1.27,-3.06l-1.32 1.32c0.41,0.5 0.67,1.1 0.72,1.74zm-0 0.59c-0.04,0.46 -0.17,0.84 -0.33,1.14 0.15,0.23 0.28,0.43 0.36,0.56 0.23,0.35 0.18,0.81 -0.12,1.1 -0.07,0.07 -0.15,0.13 -0.24,0.17l0.31 0.31c0.06,0.06 0.13,0.09 0.21,0.09 0.08,0 0.15,-0.03 0.21,-0.09 0.89,-0.89 1.4,-2.04 1.47,-3.28l-1.87 0zm-6.37 0l-1.87 0c0.07,1.24 0.59,2.4 1.47,3.28 0.06,0.06 0.13,0.09 0.21,0.09 0.08,0 0.15,-0.03 0.21,-0.09l0.9 -0.9c0.12,-0.12 0.12,-0.3 0,-0.42 -0.23,-0.23 -0.82,-0.89 -0.92,-1.97zm6.54 -4.08c-0.85,-0.76 -1.92,-1.2 -3.06,-1.27l0 1.87c0.64,0.06 1.25,0.31 1.74,0.72l1.32 -1.32zm-2.7 3.13c-0.36,-0.36 -0.95,-0.36 -1.32,0 -0.36,0.36 -0.36,0.95 0,1.32 0.46,0.46 2.71,1.9 2.96,2.06 0.12,0.07 0.27,0.06 0.37,-0.04 0.1,-0.1 0.11,-0.25 0.04,-0.37 -0.16,-0.26 -1.6,-2.51 -2.06,-2.96l0 0z"/>
   </g>
  </g>
 </g>
</svg>
