<?xml version="1.0" encoding="UTF-8"?>
<!DOCTYPE svg PUBLIC "-//W3C//DTD SVG 1.1//EN" "http://www.w3.org/Graphics/SVG/1.1/DTD/svg11.dtd">
<!-- Creator: CorelDRAW 2018 (64-Bit) -->
<svg xmlns="http://www.w3.org/2000/svg" xml:space="preserve" width="8.5229mm" height="7.8824mm" version="1.1" style="shape-rendering:geometricPrecision; text-rendering:geometricPrecision; image-rendering:optimizeQuality; fill-rule:evenodd; clip-rule:evenodd"
viewBox="0 0 4.56 4.22"
 xmlns:xlink="http://www.w3.org/1999/xlink">
 <defs>
  <style type="text/css">
   <![CDATA[
    .fil0 {fill:white}
   ]]>
  </style>
 </defs>
 <g id="Слой_x0020_1">
  <metadata id="CorelCorpID_0Corel-Layer"/>
  <circle class="fil0" cx="1.63" cy="3.78" r="0.43"/>
  <circle class="fil0" cx="3.61" cy="3.78" r="0.43"/>
  <path class="fil0" d="M2.45 1.32c-0.03,-0.02 -0.22,-0.22 -0.28,-0.27 -0.07,-0.07 -0.06,-0.07 -0.16,-0.07 -0.08,0 -0.12,0.07 -0.12,0.14 0,0.09 0.06,0.13 0.11,0.17l0.28 0.28c0.19,0.19 0.19,0.14 0.36,-0.02 0.23,-0.22 0.25,-0.24 0.47,-0.45 0.05,-0.05 0.09,-0.1 0.14,-0.14 0.04,-0.04 0.12,-0.09 0.13,-0.16 0.02,-0.2 -0.15,-0.24 -0.28,-0.11 -0.01,0.01 -0.02,0.02 -0.03,0.03l-0.11 0.1c-0.21,0.21 -0.22,0.22 -0.43,0.42 -0.02,0.01 -0.02,0.02 -0.04,0.03 -0.01,0.01 -0.02,0.02 -0.04,0.03zm2.08 -0.07c-0.03,-0.04 -0.07,-0.07 -0.12,-0.06l-0.61 0 0 -0.01c0,-0.65 -0.53,-1.18 -1.18,-1.18 -0.65,-0 -1.18,0.53 -1.18,1.18l0 0.01 -0.46 0 -0.16 -0.71c-0.02,-0.07 -0.08,-0.12 -0.16,-0.12l-0.67 0 0 0.32 0.54 0 0.5 2.29c0.01,0.08 0.08,0.13 0.16,0.13l2.81 0c0.07,-0 0.14,-0.05 0.16,-0.12l0.4 -1.59c0.01,-0.05 -0,-0.1 -0.03,-0.13l0 0z"/>
 </g>
</svg>
