<?xml version="1.0" encoding="UTF-8"?>
<!DOCTYPE svg PUBLIC "-//W3C//DTD SVG 1.1//EN" "http://www.w3.org/Graphics/SVG/1.1/DTD/svg11.dtd">
<!-- Creator: CorelDRAW 2018 (64-Bit) -->
<svg xmlns="http://www.w3.org/2000/svg" xml:space="preserve" width="14.8205mm" height="14.8205mm" version="1.1" style="shape-rendering:geometricPrecision; text-rendering:geometricPrecision; image-rendering:optimizeQuality; fill-rule:evenodd; clip-rule:evenodd"
viewBox="0 0 3.75 3.75"
 xmlns:xlink="http://www.w3.org/1999/xlink"
 enable-background="new 0 0 512 512">
 <defs>
  <style type="text/css">
   <![CDATA[
    .fil0 {fill:#990310}
   ]]>
  </style>
 </defs>
 <g id="Слой_x0020_1">
  <metadata id="CorelCorpID_0Corel-Layer"/>
  <g id="_2549016960800">
   <g>
    <path class="fil0" d="M3.4 0.78c0.04,-0.05 0.06,-0.11 0.06,-0.18 0,-0.17 -0.14,-0.31 -0.31,-0.31 -0.07,0 -0.13,0.02 -0.18,0.06 -0.32,-0.23 -0.7,-0.35 -1.09,-0.35 -0.39,0 -0.76,0.12 -1.08,0.34 -0.03,0.02 -0.04,0.07 -0.02,0.1 0.02,0.03 0.07,0.04 0.1,0.02 0.21,-0.15 0.45,-0.25 0.7,-0.29 -0.03,0.04 -0.06,0.08 -0.09,0.14 -0.09,0.17 -0.16,0.39 -0.21,0.66 -0.13,0.01 -0.25,0.11 -0.28,0.23l-0.72 0c0.04,-0.1 0.09,-0.2 0.16,-0.29 0.02,-0.03 0.01,-0.08 -0.02,-0.1 -0.03,-0.02 -0.08,-0.01 -0.1,0.02 -0.21,0.31 -0.32,0.67 -0.32,1.04 0,0.4 0.12,0.77 0.35,1.09 -0.04,0.05 -0.06,0.11 -0.06,0.18 0,0.17 0.14,0.31 0.31,0.31 0.07,0 0.13,-0.02 0.18,-0.06 0.32,0.23 0.7,0.35 1.09,0.35 0.5,0 0.97,-0.2 1.33,-0.55 0.35,-0.35 0.55,-0.83 0.55,-1.33 0,-0.4 -0.12,-0.77 -0.35,-1.09l0 0zm0.12 1.62l-0.78 0c-0.03,-0.1 -0.1,-0.18 -0.2,-0.22 0.01,-0.1 0.01,-0.21 0.01,-0.31 0,-0.18 -0.01,-0.36 -0.03,-0.53l1 0c0.05,0.17 0.08,0.35 0.08,0.53 0,0.18 -0.03,0.36 -0.08,0.53zm-1.65 1.2c-0.12,0 -0.26,-0.18 -0.36,-0.48 -0.06,-0.17 -0.1,-0.36 -0.13,-0.58l0.75 0c0.02,0.1 0.09,0.17 0.18,0.21 -0.11,0.58 -0.3,0.84 -0.45,0.84l0 0zm-1.27 -0.76c-0.05,0 -0.1,0.01 -0.14,0.03 -0.07,-0.1 -0.13,-0.21 -0.18,-0.33l0.96 0c0.03,0.23 0.08,0.44 0.14,0.62 0.06,0.17 0.13,0.31 0.2,0.41 -0.25,-0.04 -0.49,-0.14 -0.71,-0.29 0.02,-0.04 0.03,-0.09 0.03,-0.14 0,-0.17 -0.14,-0.31 -0.31,-0.31zm0.75 -0.97c0,-0.1 0,-0.2 0.01,-0.3 0.12,-0.02 0.22,-0.11 0.25,-0.23l0.77 0c0.02,0.17 0.03,0.35 0.03,0.53 0,0.1 -0,0.2 -0.01,0.3 -0.12,0.02 -0.22,0.11 -0.25,0.23l-0.77 0c-0.02,-0.17 -0.03,-0.35 -0.03,-0.53zm1.09 0.76c-0.09,0 -0.16,-0.07 -0.16,-0.16 0,-0.09 0.07,-0.16 0.16,-0.16 0.09,0 0.16,0.07 0.16,0.16 0,0.09 -0.07,0.16 -0.16,0.16zm-0.07 -2.06c-0.06,-0.17 -0.13,-0.31 -0.2,-0.41 0.25,0.04 0.49,0.14 0.71,0.29 -0.02,0.04 -0.03,0.09 -0.03,0.14 0,0.17 0.14,0.31 0.31,0.31 0.05,0 0.1,-0.01 0.14,-0.03 0.07,0.1 0.13,0.21 0.18,0.33l-0.96 0c-0.03,-0.23 -0.08,-0.44 -0.14,-0.62l0 0zm0.94 0.02c0,0.09 -0.07,0.16 -0.16,0.16 -0.09,0 -0.16,-0.07 -0.16,-0.16 0,-0.09 0.07,-0.16 0.16,-0.16 0.09,0 0.16,0.07 0.16,0.16zm-1.44 -0.45c0.12,0 0.26,0.18 0.36,0.48 0.06,0.17 0.1,0.36 0.13,0.58l-0.76 0c-0.02,-0.09 -0.09,-0.17 -0.18,-0.21 0.11,-0.58 0.3,-0.85 0.45,-0.85l0 0zm-0.57 0.97c0.09,0 0.16,0.07 0.16,0.16 0,0.09 -0.07,0.16 -0.16,0.16 -0.09,0 -0.16,-0.07 -0.16,-0.16 0,-0.09 0.07,-0.16 0.16,-0.16zm-0.3 0.23c0.03,0.1 0.1,0.19 0.21,0.22 -0.01,0.1 -0.01,0.2 -0.01,0.31 0,0.18 0.01,0.36 0.03,0.53l-1 0c-0.05,-0.17 -0.08,-0.35 -0.08,-0.53 0,-0.18 0.03,-0.36 0.08,-0.53l0.78 0zm-0.57 1.8c0,-0.09 0.07,-0.16 0.16,-0.16 0.09,0 0.16,0.07 0.16,0.16 0,0.09 -0.07,0.16 -0.16,0.16 -0.09,0 -0.16,-0.07 -0.16,-0.16zm1.73 0.43c0.03,-0.04 0.06,-0.08 0.09,-0.14 0.09,-0.17 0.16,-0.39 0.21,-0.66 0.13,-0.01 0.24,-0.11 0.27,-0.23l0.73 0c-0.23,0.53 -0.71,0.93 -1.3,1.03l0 0z"/>
    <path class="fil0" d="M0.59 0.69c0.02,0 0.04,-0.01 0.05,-0.02 0.01,-0.01 0.02,-0.03 0.02,-0.05 0,-0.02 -0.01,-0.04 -0.02,-0.05 -0.01,-0.01 -0.03,-0.02 -0.05,-0.02 -0.02,0 -0.04,0.01 -0.05,0.02 -0.01,0.01 -0.02,0.03 -0.02,0.05 0,0.02 0.01,0.04 0.02,0.05 0.01,0.01 0.03,0.02 0.05,0.02z"/>
   </g>
  </g>
 </g>
</svg>
