<?xml version="1.0" encoding="UTF-8"?>
<!DOCTYPE svg PUBLIC "-//W3C//DTD SVG 1.1//EN" "http://www.w3.org/Graphics/SVG/1.1/DTD/svg11.dtd">
<!-- Creator: CorelDRAW 2018 (64-Bit) -->
<svg xmlns="http://www.w3.org/2000/svg" xml:space="preserve" width="27.0707mm" height="26.4858mm" version="1.1" style="shape-rendering:geometricPrecision; text-rendering:geometricPrecision; image-rendering:optimizeQuality; fill-rule:evenodd; clip-rule:evenodd"
viewBox="0 0 66.83 65.39"
 xmlns:xlink="http://www.w3.org/1999/xlink">
 <defs>
  <style type="text/css">
   <![CDATA[
    .fil0 {fill:#990310}
    .fil1 {fill:white}
   ]]>
  </style>
 </defs>
 <g id="Слой_x0020_1">
  <metadata id="CorelCorpID_0Corel-Layer"/>
  <path class="fil0" d="M14.54 65.24c52.11,1.8 66.37,-13.29 37.83,-50.55 -36.3,-51.65 -73.7,49.31 -37.83,50.55z"/>
  <path class="fil1" d="M28.73 22.63c-0.6,0.6 -0.97,1.42 -0.97,2.33l0 2.59c0,0.38 0.07,0.76 0.21,1.11 0.14,0.35 0.34,0.68 0.6,0.97l0.99 1.09 0 1 -1.57 0c-0.07,0 -0.14,0 -0.22,0.01l-0.14 0.01c-0.16,-0.64 -0.52,-1.19 -1.02,-1.59 -0.51,-0.41 -1.15,-0.65 -1.85,-0.65l-1.33 0 0 -0.79 0.86 -0.95c0.23,-0.26 0.42,-0.56 0.54,-0.88 0.12,-0.32 0.19,-0.66 0.19,-1.01l0 -2.3c0,-0.83 -0.34,-1.58 -0.88,-2.12 -1.23,-1.23 -4.35,-1.23 -5.58,0 -0.54,0.54 -0.88,1.29 -0.88,2.12l0 2.3c0,0.35 0.07,0.69 0.19,1.01 0.12,0.32 0.31,0.62 0.54,0.88l0.86 0.95 0 0.79 -1.33 0c-0.81,0 -1.55,0.33 -2.09,0.87 -0.53,0.53 -0.87,1.27 -0.87,2.09l0 3.26c0,0.16 0.07,0.31 0.17,0.41 0.11,0.11 0.25,0.17 0.41,0.17l7.84 0c0.16,0 0.31,-0.07 0.41,-0.17 0.11,-0.11 0.17,-0.25 0.17,-0.41 0,-0.16 -0.07,-0.31 -0.17,-0.41 -0.11,-0.11 -0.25,-0.17 -0.41,-0.17l-7.26 0 0 -2.67c0,-0.49 0.2,-0.94 0.52,-1.26 0.32,-0.32 0.77,-0.52 1.26,-0.52l1.92 0c0.16,0 0.31,-0.07 0.41,-0.17 0.11,-0.11 0.17,-0.25 0.17,-0.41l0 -1.63c0,-0.1 -0.03,-0.19 -0.07,-0.28 -0.04,-0.08 -0.11,-0.15 -0.18,-0.21l-0.91 -1c-0.14,-0.15 -0.24,-0.32 -0.32,-0.51 -0.07,-0.19 -0.11,-0.39 -0.11,-0.59l0 -2.3c0,-0.5 0.21,-0.96 0.54,-1.29 0.77,-0.77 3.16,-0.77 3.93,0 0.33,0.33 0.54,0.79 0.54,1.29l0 2.3c0,0.2 -0.04,0.41 -0.11,0.59 -0.07,0.19 -0.18,0.36 -0.32,0.51l-0.91 1c-0.08,0.05 -0.14,0.12 -0.18,0.21 -0.04,0.08 -0.07,0.18 -0.07,0.28l0 1.63c0,0.16 0.07,0.31 0.17,0.41 0.11,0.11 0.25,0.17 0.41,0.17l1.92 0c0.43,0 0.83,0.16 1.14,0.41 0.3,0.25 0.52,0.6 0.6,0.99 -0.53,0.27 -0.97,0.68 -1.28,1.18 -0.31,0.5 -0.49,1.09 -0.49,1.72l0 3.67c0,0.16 0.07,0.31 0.17,0.41 0.11,0.11 0.25,0.17 0.41,0.17l13.02 0c0.16,0 0.31,-0.07 0.41,-0.17 0.11,-0.11 0.17,-0.25 0.17,-0.41l0 -3.67c0,-0.63 -0.18,-1.21 -0.49,-1.71 -0.31,-0.5 -0.75,-0.9 -1.27,-1.17 0.08,-0.4 0.3,-0.75 0.6,-1 0.31,-0.26 0.71,-0.42 1.15,-0.42l1.92 0c0.16,0 0.31,-0.07 0.41,-0.17 0.11,-0.11 0.17,-0.25 0.17,-0.41l0 -1.63c0,-0.1 -0.03,-0.19 -0.07,-0.28 -0.04,-0.08 -0.11,-0.15 -0.18,-0.21l-0.91 -1c-0.14,-0.15 -0.24,-0.32 -0.32,-0.51 -0.07,-0.19 -0.11,-0.39 -0.11,-0.59l0 -2.3c0,-0.5 0.21,-0.96 0.54,-1.29 0.77,-0.77 3.16,-0.77 3.93,0 0.33,0.33 0.54,0.79 0.54,1.29l0 2.3c0,0.2 -0.04,0.41 -0.11,0.59 -0.07,0.19 -0.18,0.36 -0.32,0.51l-0.91 1c-0.08,0.05 -0.14,0.12 -0.18,0.21 -0.04,0.08 -0.07,0.18 -0.07,0.28l0 1.63c0,0.16 0.07,0.31 0.17,0.41 0.11,0.11 0.25,0.17 0.41,0.17l1.92 0c0.49,0 0.94,0.2 1.26,0.52 0.32,0.32 0.52,0.77 0.52,1.26l0 2.67 -7.17 0c-0.16,0 -0.31,0.07 -0.41,0.17 -0.11,0.11 -0.17,0.25 -0.17,0.41 0,0.16 0.07,0.31 0.17,0.41 0.11,0.11 0.25,0.17 0.41,0.17l7.76 0c0.16,0 0.31,-0.07 0.41,-0.17 0.11,-0.11 0.17,-0.25 0.17,-0.41l0 -3.26c0,-0.81 -0.33,-1.55 -0.87,-2.09 -0.53,-0.53 -1.27,-0.87 -2.09,-0.87l-1.33 0 0 -0.79 0.86 -0.95c0.24,-0.26 0.42,-0.56 0.54,-0.88 0.12,-0.32 0.19,-0.66 0.19,-1.01l0 -2.3c0,-0.83 -0.34,-1.58 -0.88,-2.12 -1.23,-1.23 -4.35,-1.23 -5.58,0 -0.54,0.54 -0.88,1.29 -0.88,2.12l0 2.3c0,0.35 0.07,0.69 0.19,1.01 0.12,0.32 0.31,0.62 0.54,0.88l0.86 0.95 0 0.79 -1.33 0c-0.7,0 -1.34,0.24 -1.85,0.65 -0.5,0.4 -0.86,0.96 -1.02,1.6l-0.15 -0.01c-0.08,-0.01 -0.15,-0.01 -0.23,-0.01l-1.57 0 0 -1 0.99 -1.09c0.26,-0.28 0.46,-0.61 0.6,-0.96 0.14,-0.35 0.21,-0.73 0.21,-1.12l0 -2.59c0,-0.91 -0.37,-1.74 -0.97,-2.33 -1.35,-1.35 -4.83,-1.35 -6.18,0zm0.83 0.83c-0.39,0.39 -0.63,0.92 -0.63,1.51l0 2.59c0,0.24 0.04,0.47 0.13,0.69 0.08,0.22 0.21,0.42 0.37,0.6l1.03 1.14c0.08,0.05 0.14,0.12 0.19,0.21 0.05,0.08 0.07,0.18 0.07,0.28l0 1.84c0,0.16 -0.07,0.31 -0.17,0.41 -0.11,0.11 -0.25,0.17 -0.41,0.17l-2.16 0c-0.11,0 -0.21,0.01 -0.31,0.02 -0.1,0.02 -0.2,0.04 -0.3,0.07l-0.06 0.02 -0.06 0.02c-0.4,0.15 -0.74,0.42 -0.98,0.76 -0.23,0.34 -0.37,0.75 -0.37,1.19l0 3.08 11.84 0 0 -3.08c0,-0.57 -0.23,-1.09 -0.61,-1.47 -0.38,-0.38 -0.9,-0.61 -1.47,-0.61l-2.16 0c-0.16,0 -0.31,-0.07 -0.41,-0.17 -0.11,-0.11 -0.17,-0.25 -0.17,-0.41l0 -1.83c0,-0.1 0.03,-0.2 0.07,-0.28 0.05,-0.08 0.11,-0.15 0.19,-0.21l1.03 -1.14c0.16,-0.18 0.29,-0.38 0.37,-0.6 0.08,-0.22 0.13,-0.45 0.13,-0.69l0 -2.59c0,-0.59 -0.24,-1.12 -0.63,-1.51 -0.9,-0.9 -3.63,-0.9 -4.53,0zm7.25 21.79c0.08,0.07 0.14,0.16 0.18,0.26 0.03,0.1 0.04,0.21 0.01,0.32 -0.02,0.1 -0.08,0.2 -0.15,0.28l-1.93 1.96 0.41 2.72c0.02,0.11 0,0.22 -0.04,0.31 -0.04,0.1 -0.11,0.18 -0.2,0.25 -0.09,0.06 -0.19,0.1 -0.3,0.11 -0.1,0.01 -0.21,-0.01 -0.31,-0.06l-2.46 -1.23 -2.46 1.23c-0.08,0.04 -0.17,0.06 -0.26,0.06 -0.06,0 -0.12,-0.01 -0.18,-0.03 -0.06,-0.02 -0.11,-0.05 -0.16,-0.08 -0.09,-0.06 -0.16,-0.15 -0.2,-0.25 -0.04,-0.1 -0.06,-0.21 -0.04,-0.31l0.41 -2.72 -1.93 -1.95c-0.08,-0.08 -0.13,-0.18 -0.15,-0.28 -0.02,-0.1 -0.02,-0.21 0.01,-0.32 0.03,-0.1 0.1,-0.19 0.18,-0.26 0.08,-0.07 0.18,-0.12 0.29,-0.13l2.71 -0.45 1.26 -2.44c0.05,-0.1 0.13,-0.18 0.22,-0.23 0.09,-0.06 0.2,-0.09 0.3,-0.09 0.11,0 0.21,0.03 0.3,0.09 0.09,0.05 0.17,0.13 0.22,0.23l1.26 2.44 2.71 0.45c0.11,0.02 0.21,0.06 0.29,0.13zm-3.08 2.43c0.03,-0.09 0.08,-0.16 0.14,-0.23l1.34 -1.36 -1.88 -0.31c-0.09,-0.02 -0.18,-0.05 -0.25,-0.1 -0.07,-0.05 -0.13,-0.12 -0.18,-0.2l-0.88 -1.7 -0.88 1.7c-0.04,0.08 -0.1,0.15 -0.18,0.21 -0.07,0.05 -0.16,0.09 -0.25,0.1l-1.88 0.31 1.34 1.36c0.07,0.07 0.11,0.15 0.14,0.23 0.03,0.09 0.04,0.18 0.02,0.27l-0.29 1.89 1.71 -0.86c0.08,-0.04 0.17,-0.06 0.26,-0.06 0.09,0 0.18,0.02 0.26,0.06l1.71 0.86 -0.29 -1.89c-0.01,-0.09 -0.01,-0.18 0.02,-0.27zm14.11 -6.13c0.08,0.07 0.14,0.16 0.18,0.26 0.03,0.1 0.04,0.21 0.01,0.32 -0.02,0.1 -0.08,0.2 -0.15,0.28l-1.93 1.96 0.41 2.72c0.02,0.11 0,0.22 -0.04,0.31 -0.04,0.1 -0.11,0.18 -0.2,0.25 -0.05,0.04 -0.11,0.06 -0.16,0.08 -0.06,0.02 -0.12,0.03 -0.18,0.03 -0.04,0 -0.09,-0.01 -0.13,-0.02 -0.04,-0.01 -0.09,-0.03 -0.13,-0.05l-2.46 -1.23 -2.46 1.23c-0.1,0.05 -0.21,0.07 -0.31,0.06 -0.11,-0.01 -0.21,-0.05 -0.3,-0.11 -0.09,-0.06 -0.16,-0.15 -0.2,-0.25 -0.04,-0.1 -0.05,-0.21 -0.04,-0.31l0.41 -2.72 -1.93 -1.96c-0.08,-0.08 -0.13,-0.17 -0.15,-0.28 -0.02,-0.1 -0.02,-0.21 0.01,-0.32 0.03,-0.1 0.1,-0.19 0.18,-0.26 0.08,-0.07 0.18,-0.12 0.29,-0.13l2.71 -0.45 1.26 -2.44c0.05,-0.1 0.13,-0.18 0.22,-0.23 0.09,-0.06 0.2,-0.09 0.3,-0.09 0.11,0 0.21,0.03 0.3,0.09 0.09,0.05 0.17,0.13 0.22,0.23l1.26 2.44 2.71 0.45c0.11,0.02 0.21,0.07 0.29,0.13zm-3.08 2.43c0.03,-0.09 0.08,-0.16 0.14,-0.23l1.34 -1.36 -1.88 -0.31c-0.09,-0.02 -0.18,-0.05 -0.25,-0.1 -0.07,-0.05 -0.13,-0.12 -0.18,-0.21l-0.88 -1.7 -0.88 1.7c-0.04,0.08 -0.1,0.15 -0.18,0.21 -0.07,0.05 -0.16,0.09 -0.25,0.1l-1.88 0.31 1.34 1.36c0.06,0.07 0.11,0.14 0.14,0.23 0.03,0.09 0.04,0.18 0.02,0.27l-0.29 1.89 1.71 -0.86c0.04,-0.02 0.08,-0.04 0.13,-0.05 0.04,-0.01 0.09,-0.02 0.14,-0.02 0.05,0 0.09,0.01 0.13,0.02 0.04,0.01 0.09,0.03 0.13,0.05l1.71 0.86 -0.29 -1.89c-0.01,-0.09 -0.01,-0.18 0.02,-0.27zm-18.99 -2.43c0.08,0.07 0.14,0.16 0.18,0.26 0.03,0.1 0.04,0.21 0.01,0.32 -0.02,0.1 -0.08,0.2 -0.15,0.28l-1.93 1.95 0.41 2.72c0.02,0.11 0,0.22 -0.04,0.31 -0.04,0.1 -0.11,0.18 -0.2,0.25 -0.05,0.04 -0.11,0.06 -0.16,0.08 -0.06,0.02 -0.12,0.03 -0.18,0.03 -0.04,0 -0.09,-0.01 -0.13,-0.02 -0.04,-0.01 -0.09,-0.03 -0.13,-0.05l-2.46 -1.23 -2.46 1.23c-0.1,0.05 -0.21,0.07 -0.31,0.06 -0.1,-0.01 -0.21,-0.05 -0.3,-0.11 -0.09,-0.06 -0.16,-0.15 -0.2,-0.25 -0.04,-0.1 -0.06,-0.21 -0.04,-0.31l0.41 -2.72 -1.93 -1.95c-0.08,-0.08 -0.13,-0.17 -0.15,-0.28 -0.02,-0.1 -0.02,-0.21 0.01,-0.32 0.03,-0.1 0.1,-0.19 0.18,-0.26 0.08,-0.07 0.18,-0.12 0.29,-0.13l2.71 -0.45 1.26 -2.44c0.05,-0.1 0.13,-0.18 0.22,-0.23 0.09,-0.06 0.2,-0.09 0.3,-0.09 0.11,0 0.21,0.03 0.3,0.09 0.09,0.05 0.17,0.13 0.22,0.23l1.26 2.44 2.71 0.45c0.11,0.02 0.21,0.07 0.29,0.13zm-3.08 2.43c0.03,-0.08 0.08,-0.16 0.14,-0.23l1.34 -1.36 -1.88 -0.31c-0.09,-0.02 -0.18,-0.05 -0.25,-0.1 -0.07,-0.05 -0.13,-0.12 -0.18,-0.21l-0.88 -1.7 -0.88 1.7c-0.04,0.08 -0.1,0.15 -0.18,0.21 -0.07,0.05 -0.16,0.09 -0.25,0.1l-1.89 0.31 1.34 1.36c0.06,0.07 0.11,0.15 0.14,0.23 0.03,0.09 0.04,0.18 0.02,0.27l-0.29 1.89 1.71 -0.86c0.04,-0.02 0.09,-0.04 0.13,-0.05 0.04,-0.01 0.09,-0.02 0.14,-0.02 0.05,0 0.09,0.01 0.13,0.02 0.04,0.01 0.09,0.03 0.13,0.05l1.71 0.86 -0.29 -1.89c-0.01,-0.09 -0.01,-0.18 0.02,-0.27z"/>
 </g>
</svg>
