<?xml version="1.0" encoding="UTF-8"?>
<!DOCTYPE svg PUBLIC "-//W3C//DTD SVG 1.1//EN" "http://www.w3.org/Graphics/SVG/1.1/DTD/svg11.dtd">
<!-- Creator: CorelDRAW 2018 (64-Bit) -->
<svg xmlns="http://www.w3.org/2000/svg" xml:space="preserve" width="26.0468mm" height="26.5482mm" version="1.1" style="shape-rendering:geometricPrecision; text-rendering:geometricPrecision; image-rendering:optimizeQuality; fill-rule:evenodd; clip-rule:evenodd"
viewBox="0 0 57.65 58.76"
 xmlns:xlink="http://www.w3.org/1999/xlink"
 enable-background="new 0 0 512 512">
 <defs>
  <style type="text/css">
   <![CDATA[
    .fil1 {fill:#990310}
    .fil0 {fill:white}
   ]]>
  </style>
 </defs>
 <g id="Слой_x0020_1">
  <metadata id="CorelCorpID_0Corel-Layer"/>
  <path class="fil0" d="M0.01 14.11c1.1,45.64 14.95,57.61 45.74,29.78 43.55,-32.64 -46.53,-62.36 -45.74,-29.78z"/>
  <g id="_3029838369760">
   <g>
    <path class="fil1" d="M35.2 16.57c0.18,-0.26 0.12,-0.62 -0.14,-0.8 -2.49,-1.76 -5.43,-2.68 -8.49,-2.68 -1.91,0 -3.78,0.36 -5.54,1.07 -0.29,0.12 -0.44,0.46 -0.32,0.75 0.12,0.3 0.46,0.44 0.75,0.32 1.62,-0.66 3.34,-0.99 5.11,-0.99 2.82,0 5.53,0.86 7.82,2.47 0.1,0.07 0.22,0.11 0.33,0.11 0.18,0 0.36,-0.09 0.47,-0.24l0 0z"/>
    <path class="fil1" d="M41.33 27.83c0,-2.95 -0.87,-5.8 -2.51,-8.23 -0.18,-0.26 -0.54,-0.33 -0.8,-0.16 -0.26,0.18 -0.33,0.54 -0.16,0.8 1.51,2.25 2.31,4.87 2.31,7.59 0,2.89 -0.89,5.63 -2.57,7.96 -0.28,-0.13 -0.58,-0.2 -0.9,-0.2 -1.21,0 -2.19,0.98 -2.19,2.19 0,1.21 0.98,2.19 2.19,2.19 1.21,0 2.19,-0.98 2.19,-2.19 0,-0.47 -0.15,-0.9 -0.4,-1.26 1.85,-2.54 2.83,-5.53 2.83,-8.69l0 0zm-4.62 10.99c-0.57,0 -1.04,-0.47 -1.04,-1.04 0,-0.57 0.47,-1.04 1.04,-1.04 0.57,0 1.04,0.47 1.04,1.04 0,0.57 -0.47,1.04 -1.04,1.04z"/>
    <path class="fil1" d="M31.68 40.45c-1.62,0.66 -3.34,0.99 -5.11,0.99 -7.5,0 -13.6,-6.1 -13.6,-13.6 0,-2.89 0.89,-5.63 2.57,-7.96 0.28,0.13 0.58,0.2 0.9,0.2 1.21,0 2.19,-0.98 2.19,-2.19 0,-1.21 -0.98,-2.19 -2.19,-2.19 -1.21,0 -2.19,0.98 -2.19,2.19 0,0.47 0.15,0.9 0.4,1.26 -1.85,2.54 -2.83,5.53 -2.83,8.69 0,3.94 1.53,7.65 4.32,10.43 2.79,2.79 6.49,4.32 10.43,4.32 1.92,0 3.78,-0.36 5.54,-1.07 0.3,-0.12 0.44,-0.46 0.32,-0.75 -0.12,-0.3 -0.46,-0.44 -0.75,-0.32l0 0zm-15.24 -23.6c0.57,0 1.04,0.47 1.04,1.04 0,0.57 -0.47,1.04 -1.04,1.04 -0.57,0 -1.04,-0.47 -1.04,-1.04 0,-0.57 0.47,-1.04 1.04,-1.04z"/>
    <path class="fil1" d="M26.58 26.55c-1.22,0 -2.21,0.99 -2.21,2.21 0,0.5 0.17,0.98 0.48,1.37l0 1.72c0,0.95 0.78,1.73 1.73,1.73 0.95,0 1.73,-0.78 1.73,-1.73l0 -1.72c0.31,-0.39 0.48,-0.87 0.48,-1.37 0,-1.22 -0.99,-2.21 -2.21,-2.21zm0.75 2.95c-0.11,0.11 -0.17,0.25 -0.17,0.41l0 1.94c0,0.32 -0.26,0.58 -0.58,0.58 -0.32,0 -0.58,-0.26 -0.58,-0.58l0 -1.94c0,-0.15 -0.06,-0.3 -0.17,-0.41 -0.2,-0.2 -0.31,-0.46 -0.31,-0.75 0,-0.58 0.47,-1.05 1.05,-1.05 0.58,0 1.05,0.47 1.05,1.05 0,0.28 -0.11,0.55 -0.31,0.75z"/>
    <path class="fil1" d="M31.88 24.35l0 -1.18c0,-2.92 -2.38,-5.3 -5.3,-5.3 -2.92,0 -5.3,2.38 -5.3,5.3l0 1.18c-0.75,0.32 -1.27,1.06 -1.27,1.92l0 7.59c0,1.15 0.94,2.08 2.08,2.08l8.97 0c1.15,0 2.08,-0.94 2.08,-2.08l0 -7.59c0,-0.86 -0.52,-1.6 -1.27,-1.92zm-9.45 -1.18c0,-2.29 1.86,-4.15 4.15,-4.15 2.29,0 4.15,1.86 4.15,4.15l0 1.02 -1.21 0 0 -1.02c0,-1.62 -1.32,-2.94 -2.94,-2.94 -1.62,0 -2.94,1.32 -2.94,2.94l0 1.02 -1.21 0 0 -1.02 0 0zm2.36 1.02l0 -1.02c0,-0.98 0.8,-1.79 1.79,-1.79 0.98,0 1.79,0.8 1.79,1.79l0 1.02 -3.57 0zm7.2 9.67c0,0.51 -0.42,0.93 -0.93,0.93l-8.97 0c-0.51,0 -0.93,-0.42 -0.93,-0.93l0 -7.59c0,-0.51 0.42,-0.93 0.93,-0.93l8.97 0c0.51,0 0.93,0.42 0.93,0.93l0 7.59z"/>
    <path class="fil1" d="M36.71 18.49c0.15,0 0.3,-0.06 0.41,-0.17 0.11,-0.11 0.17,-0.26 0.17,-0.41 0,-0.15 -0.06,-0.3 -0.17,-0.41 -0.11,-0.11 -0.26,-0.17 -0.41,-0.17 -0.15,0 -0.3,0.06 -0.41,0.17 -0.11,0.11 -0.17,0.26 -0.17,0.41 0,0.15 0.06,0.3 0.17,0.41 0.11,0.11 0.26,0.17 0.41,0.17z"/>
   </g>
  </g>
 </g>
</svg>
