<?xml version="1.0" encoding="UTF-8"?>
<!DOCTYPE svg PUBLIC "-//W3C//DTD SVG 1.1//EN" "http://www.w3.org/Graphics/SVG/1.1/DTD/svg11.dtd">
<!-- Creator: CorelDRAW 2018 (64-Bit) -->
<svg xmlns="http://www.w3.org/2000/svg" xml:space="preserve" width="26.0468mm" height="26.5482mm" version="1.1" style="shape-rendering:geometricPrecision; text-rendering:geometricPrecision; image-rendering:optimizeQuality; fill-rule:evenodd; clip-rule:evenodd"
viewBox="0 0 57.45 58.55"
 xmlns:xlink="http://www.w3.org/1999/xlink"
 enable-background="new 0 0 512 512">
 <defs>
  <style type="text/css">
   <![CDATA[
    .fil0 {fill:#990310}
    .fil1 {fill:white}
   ]]>
  </style>
 </defs>
 <g id="Слой_x0020_1">
  <metadata id="CorelCorpID_0Corel-Layer"/>
  <path class="fil0" d="M0.01 14.06c1.09,45.48 14.89,57.41 45.59,29.67 43.4,-32.53 -46.37,-62.14 -45.59,-29.67z"/>
  <g id="_3029977170816">
   <g>
    <path class="fil1" d="M35.08 16.51c0.18,-0.26 0.12,-0.62 -0.14,-0.8 -2.48,-1.75 -5.41,-2.67 -8.46,-2.67 -1.91,0 -3.77,0.36 -5.52,1.07 -0.29,0.12 -0.44,0.45 -0.32,0.75 0.12,0.29 0.45,0.44 0.75,0.32 1.62,-0.65 3.33,-0.99 5.09,-0.99 2.81,0 5.51,0.85 7.8,2.46 0.1,0.07 0.22,0.1 0.33,0.1 0.18,0 0.36,-0.08 0.47,-0.24l0 0z"/>
    <path class="fil1" d="M41.19 27.74c0,-2.94 -0.86,-5.78 -2.5,-8.2 -0.18,-0.26 -0.53,-0.33 -0.8,-0.16 -0.26,0.18 -0.33,0.53 -0.16,0.8 1.51,2.24 2.3,4.85 2.3,7.56 0,2.88 -0.88,5.61 -2.56,7.93 -0.27,-0.12 -0.58,-0.19 -0.9,-0.19 -1.2,0 -2.18,0.98 -2.18,2.18 0,1.2 0.98,2.18 2.18,2.18 1.2,0 2.18,-0.98 2.18,-2.18 0,-0.47 -0.15,-0.9 -0.4,-1.25 1.85,-2.53 2.82,-5.51 2.82,-8.66l0 0zm-4.61 10.95c-0.57,0 -1.03,-0.46 -1.03,-1.03 0,-0.57 0.46,-1.03 1.03,-1.03 0.57,0 1.03,0.46 1.03,1.03 0,0.57 -0.46,1.03 -1.03,1.03z"/>
    <path class="fil1" d="M31.57 40.31c-1.62,0.65 -3.33,0.99 -5.09,0.99 -7.47,0 -13.56,-6.08 -13.56,-13.56 0,-2.88 0.88,-5.61 2.56,-7.93 0.27,0.12 0.58,0.19 0.9,0.19 1.2,0 2.18,-0.98 2.18,-2.18 0,-1.2 -0.98,-2.18 -2.18,-2.18 -1.2,0 -2.18,0.98 -2.18,2.18 0,0.47 0.15,0.9 0.4,1.25 -1.85,2.53 -2.82,5.51 -2.82,8.66 0,3.93 1.53,7.62 4.31,10.4 2.78,2.78 6.47,4.31 10.4,4.31 1.91,0 3.77,-0.36 5.52,-1.07 0.29,-0.12 0.44,-0.45 0.32,-0.75 -0.12,-0.29 -0.45,-0.44 -0.75,-0.32l0 0zm-15.18 -23.52c0.57,0 1.03,0.46 1.03,1.03 0,0.57 -0.46,1.03 -1.03,1.03 -0.57,0 -1.03,-0.46 -1.03,-1.03 0,-0.57 0.46,-1.03 1.03,-1.03z"/>
    <path class="fil1" d="M26.49 26.46c-1.21,0 -2.2,0.99 -2.2,2.2 0,0.5 0.17,0.98 0.48,1.37l0 1.72c0,0.95 0.77,1.72 1.72,1.72 0.95,0 1.72,-0.77 1.72,-1.72l0 -1.72c0.31,-0.39 0.48,-0.86 0.48,-1.37 0,-1.21 -0.99,-2.2 -2.2,-2.2zm0.74 2.94c-0.11,0.11 -0.17,0.25 -0.17,0.41l0 1.93c0,0.32 -0.26,0.57 -0.57,0.57 -0.32,0 -0.57,-0.26 -0.57,-0.57l0 -1.93c0,-0.15 -0.06,-0.3 -0.17,-0.41 -0.2,-0.2 -0.31,-0.46 -0.31,-0.74 0,-0.58 0.47,-1.05 1.05,-1.05 0.58,0 1.05,0.47 1.05,1.05 0,0.28 -0.11,0.54 -0.31,0.74z"/>
    <path class="fil1" d="M31.77 24.27l0 -1.18c0,-2.91 -2.37,-5.28 -5.28,-5.28 -2.91,0 -5.28,2.37 -5.28,5.28l0 1.18c-0.74,0.32 -1.27,1.05 -1.27,1.91l0 7.56c0,1.15 0.93,2.08 2.08,2.08l8.94 0c1.15,0 2.08,-0.93 2.08,-2.08l0 -7.56c0,-0.86 -0.52,-1.6 -1.27,-1.91zm-9.41 -1.18c0,-2.28 1.85,-4.13 4.13,-4.13 2.28,0 4.13,1.85 4.13,4.13l0 1.01 -1.2 0 0 -1.01c0,-1.61 -1.31,-2.93 -2.93,-2.93 -1.61,0 -2.93,1.31 -2.93,2.93l0 1.01 -1.2 0 0 -1.01 0 0zm2.35 1.01l0 -1.01c0,-0.98 0.8,-1.78 1.78,-1.78 0.98,0 1.78,0.8 1.78,1.78l0 1.01 -3.56 0zm7.18 9.64c0,0.51 -0.42,0.93 -0.93,0.93l-8.94 0c-0.51,0 -0.93,-0.42 -0.93,-0.93l0 -7.56c0,-0.51 0.42,-0.93 0.93,-0.93l8.94 0c0.51,0 0.93,0.42 0.93,0.93l0 7.56z"/>
    <path class="fil1" d="M36.58 18.43c0.15,0 0.3,-0.06 0.41,-0.17 0.11,-0.11 0.17,-0.25 0.17,-0.41 0,-0.15 -0.06,-0.3 -0.17,-0.41 -0.11,-0.11 -0.25,-0.17 -0.41,-0.17 -0.15,0 -0.3,0.06 -0.41,0.17 -0.11,0.11 -0.17,0.25 -0.17,0.41 0,0.15 0.06,0.3 0.17,0.41 0.11,0.11 0.25,0.17 0.41,0.17z"/>
   </g>
  </g>
 </g>
</svg>
