<?xml version="1.0" encoding="UTF-8"?>
<!DOCTYPE svg PUBLIC "-//W3C//DTD SVG 1.1//EN" "http://www.w3.org/Graphics/SVG/1.1/DTD/svg11.dtd">
<!-- Creator: CorelDRAW 2018 (64-Bit) -->
<svg xmlns="http://www.w3.org/2000/svg" xml:space="preserve" width="27.0707mm" height="26.4858mm" version="1.1" style="shape-rendering:geometricPrecision; text-rendering:geometricPrecision; image-rendering:optimizeQuality; fill-rule:evenodd; clip-rule:evenodd"
viewBox="0 0 67.08 65.63"
 xmlns:xlink="http://www.w3.org/1999/xlink">
 <defs>
  <style type="text/css">
   <![CDATA[
    .fil1 {fill:#990310}
    .fil0 {fill:white}
   ]]>
  </style>
 </defs>
 <g id="Слой_x0020_1">
  <metadata id="CorelCorpID_0Corel-Layer"/>
  <path class="fil0" d="M14.59 65.49c52.31,1.81 66.62,-13.34 37.97,-50.74 -36.43,-51.84 -73.98,49.49 -37.97,50.74z"/>
  <path class="fil1" d="M28.84 22.71c-0.6,0.6 -0.97,1.43 -0.97,2.34l0 2.6c0,0.39 0.07,0.76 0.21,1.12 0.14,0.35 0.34,0.68 0.6,0.97l0.99 1.09 0 1 -1.58 0c-0.07,0 -0.14,0 -0.22,0.01l-0.14 0.01c-0.16,-0.64 -0.53,-1.2 -1.02,-1.6 -0.51,-0.41 -1.15,-0.65 -1.85,-0.65l-1.33 0 0 -0.8 0.86 -0.95c0.24,-0.26 0.42,-0.56 0.54,-0.88 0.12,-0.32 0.19,-0.67 0.19,-1.02l0 -2.31c0,-0.83 -0.34,-1.58 -0.88,-2.13 -1.24,-1.24 -4.37,-1.24 -5.6,0 -0.54,0.54 -0.88,1.3 -0.88,2.13l0 2.31c0,0.35 0.07,0.7 0.19,1.02 0.12,0.32 0.31,0.62 0.54,0.88l0.86 0.95 0 0.8 -1.33 0c-0.82,0 -1.56,0.33 -2.1,0.87 -0.54,0.54 -0.87,1.28 -0.87,2.1l0 3.27c0,0.16 0.07,0.31 0.17,0.42 0.11,0.11 0.25,0.17 0.42,0.17l7.87 0c0.16,0 0.31,-0.07 0.42,-0.17 0.11,-0.11 0.17,-0.25 0.17,-0.42 0,-0.16 -0.07,-0.31 -0.17,-0.42 -0.11,-0.11 -0.25,-0.17 -0.42,-0.17l-7.28 0 0 -2.68c0,-0.49 0.2,-0.94 0.52,-1.26 0.32,-0.32 0.77,-0.52 1.26,-0.52l1.92 0c0.16,0 0.31,-0.07 0.42,-0.17 0.11,-0.11 0.17,-0.25 0.17,-0.42l0 -1.64c0,-0.1 -0.03,-0.19 -0.07,-0.28 -0.04,-0.08 -0.11,-0.15 -0.18,-0.21l-0.91 -1.01c-0.14,-0.15 -0.25,-0.33 -0.32,-0.51 -0.07,-0.19 -0.11,-0.39 -0.11,-0.59l0 -2.31c0,-0.51 0.21,-0.96 0.54,-1.3 0.77,-0.77 3.17,-0.77 3.94,0 0.33,0.33 0.54,0.79 0.54,1.3l0 2.31c0,0.21 -0.04,0.41 -0.11,0.59 -0.07,0.19 -0.18,0.36 -0.32,0.51l-0.91 1.01c-0.08,0.05 -0.14,0.12 -0.18,0.21 -0.04,0.08 -0.07,0.18 -0.07,0.28l0 1.64c0,0.16 0.07,0.31 0.17,0.42 0.11,0.11 0.25,0.17 0.42,0.17l1.92 0c0.44,0 0.84,0.16 1.15,0.42 0.3,0.25 0.52,0.6 0.6,1 -0.53,0.27 -0.97,0.68 -1.29,1.18 -0.31,0.5 -0.5,1.09 -0.5,1.73l0 3.68c0,0.16 0.07,0.31 0.17,0.42 0.11,0.11 0.25,0.17 0.42,0.17l13.06 0c0.16,0 0.31,-0.07 0.42,-0.17 0.11,-0.11 0.17,-0.25 0.17,-0.42l0 -3.68c0,-0.63 -0.18,-1.22 -0.49,-1.72 -0.31,-0.5 -0.75,-0.91 -1.27,-1.18 0.08,-0.4 0.3,-0.75 0.6,-1.01 0.31,-0.26 0.71,-0.42 1.15,-0.42l1.92 0c0.16,0 0.31,-0.07 0.42,-0.17 0.11,-0.11 0.17,-0.25 0.17,-0.42l0 -1.64c0,-0.1 -0.03,-0.19 -0.07,-0.28 -0.04,-0.08 -0.11,-0.15 -0.18,-0.21l-0.91 -1.01c-0.14,-0.15 -0.24,-0.33 -0.32,-0.51 -0.07,-0.19 -0.11,-0.39 -0.11,-0.59l0 -2.31c0,-0.51 0.21,-0.96 0.54,-1.3 0.77,-0.77 3.17,-0.77 3.94,0 0.33,0.33 0.54,0.79 0.54,1.3l0 2.31c0,0.21 -0.04,0.41 -0.11,0.59 -0.07,0.19 -0.18,0.36 -0.32,0.51l-0.91 1.01c-0.08,0.05 -0.14,0.12 -0.18,0.21 -0.04,0.08 -0.07,0.18 -0.07,0.28l0 1.64c0,0.16 0.07,0.31 0.17,0.42 0.11,0.11 0.25,0.17 0.42,0.17l1.92 0c0.49,0 0.94,0.2 1.26,0.52 0.32,0.32 0.52,0.77 0.52,1.26l0 2.68 -7.2 0c-0.16,0 -0.31,0.07 -0.42,0.17 -0.11,0.11 -0.17,0.25 -0.17,0.42 0,0.16 0.07,0.31 0.17,0.42 0.11,0.11 0.25,0.17 0.42,0.17l7.78 0c0.16,0 0.31,-0.07 0.42,-0.17 0.11,-0.11 0.17,-0.25 0.17,-0.42l0 -3.27c0,-0.82 -0.33,-1.56 -0.87,-2.09 -0.54,-0.54 -1.28,-0.87 -2.09,-0.87l-1.33 0 0 -0.8 0.86 -0.95c0.24,-0.26 0.42,-0.56 0.54,-0.88 0.12,-0.32 0.19,-0.67 0.19,-1.02l0 -2.31c0,-0.83 -0.34,-1.58 -0.88,-2.13 -1.24,-1.24 -4.37,-1.24 -5.6,0 -0.54,0.54 -0.88,1.3 -0.88,2.13l0 2.31c0,0.35 0.07,0.7 0.19,1.02 0.12,0.32 0.31,0.62 0.54,0.88l0.86 0.95 0 0.8 -1.34 0c-0.7,0 -1.35,0.24 -1.85,0.65 -0.5,0.4 -0.87,0.96 -1.02,1.6l-0.15 -0.01c-0.08,-0.01 -0.15,-0.01 -0.23,-0.01l-1.58 0 0 -1 0.99 -1.09c0.26,-0.29 0.46,-0.61 0.6,-0.97 0.14,-0.35 0.21,-0.73 0.21,-1.12l0 -2.6c0,-0.91 -0.37,-1.74 -0.97,-2.34 -1.36,-1.36 -4.85,-1.36 -6.21,0zm0.83 0.83c-0.39,0.39 -0.63,0.92 -0.63,1.51l0 2.6c0,0.24 0.04,0.48 0.13,0.7 0.08,0.22 0.21,0.42 0.37,0.6l1.04 1.14c0.08,0.05 0.14,0.12 0.19,0.21 0.05,0.08 0.07,0.18 0.07,0.28l0 1.84c0,0.16 -0.07,0.31 -0.17,0.42 -0.11,0.11 -0.25,0.17 -0.42,0.17l-2.17 0c-0.11,0 -0.21,0.01 -0.31,0.02 -0.1,0.02 -0.2,0.04 -0.3,0.07l-0.06 0.02 -0.06 0.02c-0.4,0.15 -0.75,0.42 -0.99,0.77 -0.24,0.34 -0.37,0.75 -0.37,1.19l0 3.09 11.89 0 0 -3.09c0,-0.58 -0.23,-1.1 -0.61,-1.48 -0.38,-0.38 -0.9,-0.61 -1.48,-0.61l-2.17 0c-0.16,0 -0.31,-0.07 -0.42,-0.17 -0.11,-0.11 -0.17,-0.25 -0.17,-0.42l0 -1.84c0,-0.1 0.03,-0.2 0.07,-0.28 0.05,-0.08 0.11,-0.15 0.19,-0.21l1.04 -1.14c0.16,-0.18 0.29,-0.38 0.37,-0.6 0.08,-0.22 0.13,-0.45 0.13,-0.7l0 -2.6c0,-0.59 -0.24,-1.13 -0.63,-1.51 -0.9,-0.9 -3.64,-0.9 -4.54,0zm7.27 21.87c0.08,0.07 0.14,0.16 0.18,0.26 0.03,0.1 0.04,0.21 0.01,0.32 -0.02,0.1 -0.08,0.2 -0.15,0.28l-1.94 1.96 0.42 2.73c0.02,0.11 0,0.22 -0.04,0.32 -0.04,0.1 -0.11,0.18 -0.2,0.25 -0.09,0.06 -0.19,0.1 -0.3,0.11 -0.11,0.01 -0.21,-0.01 -0.31,-0.06l-2.47 -1.24 -2.47 1.24c-0.08,0.04 -0.17,0.06 -0.26,0.06 -0.06,0 -0.12,-0.01 -0.18,-0.03 -0.06,-0.02 -0.11,-0.05 -0.16,-0.08 -0.09,-0.06 -0.16,-0.15 -0.2,-0.25 -0.04,-0.1 -0.06,-0.21 -0.04,-0.32l0.42 -2.73 -1.94 -1.96c-0.08,-0.08 -0.13,-0.18 -0.15,-0.28 -0.02,-0.1 -0.02,-0.21 0.01,-0.32 0.03,-0.1 0.1,-0.2 0.18,-0.26 0.08,-0.07 0.18,-0.12 0.29,-0.13l2.72 -0.45 1.27 -2.45c0.05,-0.1 0.13,-0.18 0.22,-0.23 0.09,-0.06 0.2,-0.09 0.31,-0.09 0.11,0 0.22,0.03 0.31,0.09 0.09,0.06 0.17,0.14 0.22,0.23l1.27 2.45 2.72 0.45c0.11,0.02 0.21,0.07 0.29,0.13zm-3.09 2.44c0.03,-0.09 0.08,-0.17 0.14,-0.23l1.35 -1.36 -1.89 -0.31c-0.09,-0.02 -0.18,-0.05 -0.25,-0.1 -0.07,-0.05 -0.13,-0.12 -0.18,-0.21l-0.88 -1.7 -0.88 1.7c-0.04,0.08 -0.1,0.15 -0.18,0.21 -0.07,0.05 -0.16,0.09 -0.25,0.1l-1.89 0.31 1.35 1.36c0.07,0.07 0.11,0.15 0.14,0.23 0.03,0.09 0.04,0.18 0.02,0.27l-0.29 1.89 1.71 -0.86c0.08,-0.04 0.17,-0.06 0.26,-0.06 0.09,0 0.18,0.02 0.26,0.06l1.71 0.86 -0.29 -1.89c-0.01,-0.09 -0.01,-0.18 0.02,-0.27zm14.17 -6.16c0.08,0.07 0.14,0.16 0.18,0.26 0.03,0.1 0.04,0.21 0.01,0.32 -0.02,0.1 -0.08,0.2 -0.15,0.28l-1.94 1.96 0.42 2.73c0.02,0.11 0,0.22 -0.04,0.31 -0.04,0.1 -0.11,0.18 -0.2,0.25 -0.05,0.04 -0.11,0.07 -0.16,0.08 -0.06,0.02 -0.12,0.03 -0.18,0.03 -0.05,0 -0.09,-0.01 -0.14,-0.02 -0.04,-0.01 -0.09,-0.03 -0.13,-0.05l-2.47 -1.24 -2.47 1.24c-0.1,0.05 -0.21,0.07 -0.31,0.06 -0.11,-0.01 -0.21,-0.05 -0.3,-0.11 -0.09,-0.06 -0.16,-0.15 -0.2,-0.25 -0.04,-0.1 -0.06,-0.21 -0.04,-0.31l0.42 -2.73 -1.94 -1.96c-0.08,-0.08 -0.13,-0.17 -0.15,-0.28 -0.02,-0.1 -0.02,-0.21 0.01,-0.32 0.03,-0.1 0.1,-0.2 0.18,-0.26 0.08,-0.07 0.18,-0.12 0.29,-0.13l2.72 -0.45 1.27 -2.45c0.05,-0.1 0.13,-0.18 0.22,-0.23 0.09,-0.06 0.2,-0.09 0.31,-0.09 0.11,0 0.22,0.03 0.31,0.09 0.09,0.06 0.17,0.14 0.22,0.23l1.27 2.45 2.72 0.45c0.11,0.02 0.21,0.07 0.29,0.13zm-3.09 2.44c0.03,-0.09 0.08,-0.17 0.14,-0.23l1.35 -1.36 -1.89 -0.31c-0.09,-0.02 -0.18,-0.05 -0.25,-0.1 -0.07,-0.05 -0.13,-0.12 -0.18,-0.21l-0.88 -1.7 -0.88 1.7c-0.04,0.08 -0.1,0.15 -0.18,0.21 -0.07,0.05 -0.16,0.09 -0.25,0.1l-1.89 0.31 1.35 1.36c0.06,0.07 0.11,0.15 0.14,0.23 0.03,0.09 0.04,0.18 0.02,0.27l-0.29 1.9 1.71 -0.86c0.04,-0.02 0.08,-0.04 0.13,-0.05 0.04,-0.01 0.09,-0.02 0.14,-0.02 0.05,0 0.09,0.01 0.14,0.02 0.04,0.01 0.09,0.03 0.13,0.05l1.71 0.86 -0.29 -1.9c-0.01,-0.09 -0.01,-0.18 0.02,-0.27zm-19.06 -2.44c0.08,0.07 0.14,0.16 0.18,0.26 0.03,0.1 0.04,0.21 0.01,0.32 -0.02,0.1 -0.08,0.2 -0.15,0.28l-1.94 1.96 0.42 2.73c0.02,0.11 0,0.22 -0.04,0.31 -0.04,0.1 -0.11,0.18 -0.2,0.25 -0.05,0.04 -0.11,0.06 -0.16,0.08 -0.06,0.02 -0.12,0.03 -0.18,0.03 -0.05,0 -0.09,-0.01 -0.14,-0.02 -0.04,-0.01 -0.09,-0.03 -0.13,-0.05l-2.47 -1.24 -2.47 1.24c-0.1,0.05 -0.21,0.07 -0.31,0.06 -0.11,-0.01 -0.21,-0.05 -0.3,-0.11 -0.09,-0.06 -0.16,-0.15 -0.2,-0.25 -0.04,-0.1 -0.06,-0.21 -0.04,-0.31l0.42 -2.73 -1.94 -1.96c-0.08,-0.08 -0.13,-0.18 -0.15,-0.28 -0.02,-0.1 -0.02,-0.21 0.01,-0.32 0.03,-0.1 0.1,-0.2 0.18,-0.26 0.08,-0.07 0.18,-0.12 0.29,-0.13l2.72 -0.45 1.27 -2.45c0.05,-0.1 0.13,-0.18 0.22,-0.23 0.09,-0.06 0.2,-0.09 0.31,-0.09 0.11,0 0.22,0.03 0.31,0.09 0.09,0.06 0.17,0.14 0.22,0.23l1.27 2.45 2.72 0.45c0.11,0.02 0.21,0.07 0.29,0.13zm-3.09 2.44c0.03,-0.08 0.08,-0.17 0.14,-0.23l1.35 -1.36 -1.89 -0.31c-0.09,-0.02 -0.18,-0.05 -0.25,-0.1 -0.07,-0.05 -0.13,-0.12 -0.18,-0.21l-0.88 -1.7 -0.88 1.7c-0.04,0.08 -0.1,0.15 -0.18,0.21 -0.07,0.05 -0.16,0.09 -0.25,0.1l-1.89 0.31 1.35 1.36c0.07,0.07 0.11,0.15 0.14,0.23 0.03,0.09 0.04,0.18 0.02,0.27l-0.29 1.9 1.71 -0.86c0.04,-0.02 0.09,-0.04 0.13,-0.05 0.04,-0.01 0.09,-0.02 0.14,-0.02 0.05,0 0.09,0.01 0.14,0.02 0.04,0.01 0.09,0.03 0.13,0.05l1.71 0.86 -0.29 -1.9c-0.01,-0.09 -0.01,-0.18 0.02,-0.27z"/>
 </g>
</svg>
