<?xml version="1.0" encoding="UTF-8"?>
<!DOCTYPE svg PUBLIC "-//W3C//DTD SVG 1.1//EN" "http://www.w3.org/Graphics/SVG/1.1/DTD/svg11.dtd">
<!-- Creator: CorelDRAW 2018 (64-Bit) -->
<svg xmlns="http://www.w3.org/2000/svg" xml:space="preserve" width="16.5074mm" height="15.6203mm" version="1.1" style="shape-rendering:geometricPrecision; text-rendering:geometricPrecision; image-rendering:optimizeQuality; fill-rule:evenodd; clip-rule:evenodd"
viewBox="0 0 6.54 6.19"
 xmlns:xlink="http://www.w3.org/1999/xlink"
 enable-background="new 0 0 512 512">
 <defs>
  <style type="text/css">
   <![CDATA[
    .fil0 {fill:#990310}
   ]]>
  </style>
 </defs>
 <g id="Слой_x0020_1">
  <metadata id="CorelCorpID_0Corel-Layer"/>
  <g id="_2512871423952">
   <g>
    <path class="fil0" d="M1.75 3.94c0.06,-0.04 0.08,-0.11 0.05,-0.17 -0.04,-0.06 -0.11,-0.08 -0.17,-0.05 -0.06,0.04 -0.08,0.11 -0.05,0.17 0.04,0.06 0.11,0.08 0.17,0.05zm0 0m-0.52 0.88l0.64 1.11c0.14,0.24 0.45,0.33 0.7,0.19 0.24,-0.14 0.33,-0.45 0.19,-0.7l-0.38 -0.66 0.33 -0.19c0.06,-0.04 0.08,-0.11 0.05,-0.17l-0.17 -0.29c0.02,-0 0.15,-0.03 2.45,-0.48 0.28,-0.02 0.45,-0.33 0.31,-0.57l-0.42 -0.74 0.27 -0.41c0.03,-0.04 0.03,-0.09 0,-0.13l-0.26 -0.44c-0.02,-0.04 -0.07,-0.07 -0.12,-0.06l-0.49 0.03 -0.47 -0.82c-0.07,-0.12 -0.19,-0.19 -0.33,-0.19l-0 -0c-0.13,0 -0.25,0.07 -0.32,0.18l-1.67 2.13 -1.08 0.63c-0.43,0.25 -0.57,0.79 -0.33,1.22 0.23,0.39 0.7,0.55 1.11,0.38l0 0zm1.31 0.73c0.07,0.12 0.03,0.28 -0.09,0.35 -0.12,0.07 -0.28,0.03 -0.35,-0.09l-0.64 -1.11 0.44 -0.26c0.74,1.28 0.63,1.09 0.64,1.11l-0 0zm-0.29 -1.01l-0.13 -0.22 0.22 -0.13 0.13 0.22 -0.22 0.13zm2.51 -3.01l0.18 0.31 -0.16 0.24 -0.3 -0.53 0.29 -0.02zm-1.34 -0.92c0.03,-0.06 0.09,-0.06 0.11,-0.06 0.02,0 0.08,0.01 0.11,0.06l1.49 2.57c0.05,0.08 -0.01,0.19 -0.11,0.19 -0.02,0 -0.03,0 -0.07,0.01l-1.57 -2.72c0.03,-0.04 0.04,-0.05 0.04,-0.06l0 -0zm-0.21 0.27l1.48 2.56 -2.23 0.44 -0.68 -1.17 1.43 -1.82zm-2.86 3.43c-0.06,-0.1 -0.09,-0.21 -0.09,-0.32 0,-0.23 0.12,-0.44 0.32,-0.55l1 -0.57 0.64 1.11 -1 0.57c-0.31,0.18 -0.7,0.07 -0.87,-0.23l0 0zm0 0m1.01 -0.29c-0.04,-0.06 -0.11,-0.08 -0.17,-0.05l-0.22 0.13c-0.06,0.04 -0.14,0.01 -0.17,-0.05 -0.04,-0.06 -0.11,-0.08 -0.17,-0.05 -0.06,0.04 -0.08,0.11 -0.05,0.17 0.11,0.18 0.34,0.25 0.52,0.14l0.22 -0.13c0.06,-0.04 0.08,-0.11 0.05,-0.17l0 0zm0 0m5 -3.46l-0.71 0.4c-0.06,0.03 -0.08,0.11 -0.05,0.17 0.03,0.06 0.11,0.08 0.17,0.05l0.71 -0.4c0.06,-0.03 0.08,-0.11 0.05,-0.17 -0.03,-0.06 -0.11,-0.08 -0.17,-0.05zm0 0m-0.07 1.32l-0.49 -0.13c-0.07,-0.02 -0.14,0.02 -0.16,0.09 -0.02,0.07 0.02,0.14 0.09,0.16l0.49 0.13c0.07,0.02 0.14,-0.02 0.16,-0.09 0.02,-0.07 -0.02,-0.14 -0.09,-0.16l0 0zm0 0m-1.24 -1.79l-0.13 0.49c-0.02,0.07 0.02,0.14 0.09,0.16 0.07,0.02 0.14,-0.02 0.16,-0.09l0.13 -0.49c0.02,-0.07 -0.02,-0.14 -0.09,-0.16 -0.07,-0.02 -0.14,0.02 -0.16,0.09l0 0zm0 0z"/>
   </g>
  </g>
 </g>
</svg>
