<?xml version="1.0" encoding="UTF-8"?>
<!DOCTYPE svg PUBLIC "-//W3C//DTD SVG 1.1//EN" "http://www.w3.org/Graphics/SVG/1.1/DTD/svg11.dtd">
<!-- Creator: CorelDRAW 2018 (64-Bit) -->
<svg xmlns="http://www.w3.org/2000/svg" xml:space="preserve" width="16.5072mm" height="16.5073mm" version="1.1" style="shape-rendering:geometricPrecision; text-rendering:geometricPrecision; image-rendering:optimizeQuality; fill-rule:evenodd; clip-rule:evenodd"
viewBox="0 0 6.52 6.52"
 xmlns:xlink="http://www.w3.org/1999/xlink">
 <defs>
  <style type="text/css">
   <![CDATA[
    .fil0 {fill:#990310}
   ]]>
  </style>
 </defs>
 <g id="Слой_x0020_1">
  <metadata id="CorelCorpID_0Corel-Layer"/>
  <path class="fil0" d="M4.35 4.07c-0.22,0 -0.41,-0.18 -0.41,-0.41 0,-0.22 0.18,-0.41 0.41,-0.41 0.22,0 0.41,0.18 0.41,0.41 0,0.22 -0.18,0.41 -0.41,0.41zm2.12 -2.74l-0.31 -0.31c0.06,-0.1 0.09,-0.22 0.09,-0.34 0,-0.37 -0.3,-0.68 -0.68,-0.68 -0.37,0 -0.68,0.3 -0.68,0.68 0,0.37 0.3,0.68 0.68,0.68 0.15,0 0.29,-0.05 0.41,-0.14l0.3 0.3c0.05,0.05 0.14,0.05 0.19,0l0 0c0.05,-0.05 0.05,-0.14 0,-0.19zm-2.53 0.29l-3.53 0c-0.22,0 -0.41,-0.18 -0.41,-0.41l0 -0.81c0,-0.22 0.18,-0.41 0.41,-0.41l3.53 0c0.22,0 0.41,0.18 0.41,0.41l0 0.81c0,0.22 -0.18,0.41 -0.41,0.41zm-3.53 -1.36c-0.07,0 -0.14,0.06 -0.14,0.14l0 0.81c0,0.07 0.06,0.14 0.14,0.14l3.53 0c0.07,0 0.14,-0.06 0.14,-0.14l0 -0.81c0,-0.07 -0.06,-0.14 -0.14,-0.14l-3.53 0zm0.41 6.25c-0.45,0 -0.81,-0.37 -0.81,-0.81 0,-0.45 0.37,-0.81 0.81,-0.81 0.45,0 0.81,0.37 0.81,0.81 0,0.45 -0.37,0.81 -0.81,0.81zm0 -1.36c-0.3,0 -0.54,0.24 -0.54,0.54 0,0.3 0.24,0.54 0.54,0.54 0.3,0 0.54,-0.24 0.54,-0.54 0,-0.3 -0.24,-0.54 -0.54,-0.54zm0.68 -1.63l-1.36 0c-0.07,0 -0.14,-0.06 -0.14,-0.14 0,-0.07 0.06,-0.14 0.14,-0.14l1.36 0c0.07,0 0.14,0.06 0.14,0.14 0,0.07 -0.06,0.14 -0.14,0.14l0 0zm0 0.81l-1.36 0c-0.07,0 -0.14,-0.06 -0.14,-0.14 0,-0.07 0.06,-0.14 0.14,-0.14l1.36 0c0.07,0 0.14,0.06 0.14,0.14 0,0.07 -0.06,0.14 -0.14,0.14l0 0zm0 -1.63l-1.36 0c-0.07,0 -0.14,-0.06 -0.14,-0.14 0,-0.07 0.06,-0.14 0.14,-0.14l1.36 0c0.07,0 0.14,0.06 0.14,0.14 0,0.07 -0.06,0.14 -0.14,0.14l0 0zm4.62 3.8l-3.53 0c-0.22,0 -0.41,-0.18 -0.41,-0.41l0 -3.53c0,-0.22 0.18,-0.41 0.41,-0.41l3.53 0c0.22,0 0.41,0.18 0.41,0.41l0 3.53c0,0.22 -0.18,0.41 -0.41,0.41zm-3.53 -4.07c-0.07,0 -0.14,0.06 -0.14,0.14l0 3.53c0,0.07 0.06,0.14 0.14,0.14l3.53 0c0.07,0 0.14,-0.06 0.14,-0.14l0 -3.53c0,-0.07 -0.06,-0.14 -0.14,-0.14l-3.53 0zm2.99 -2.17c-0.22,0 -0.41,0.18 -0.41,0.41 0,0.22 0.18,0.41 0.41,0.41 0.22,0 0.41,-0.18 0.41,-0.41 0,-0.22 -0.18,-0.41 -0.41,-0.41zm-1.22 3.26c-0.07,0 -0.14,0.06 -0.14,0.14 0,0.07 0.06,0.14 0.14,0.14 0.07,0 0.14,-0.06 0.14,-0.14 0,-0.07 -0.06,-0.14 -0.14,-0.14zm0.68 1.63c-0.07,0 -0.14,-0.06 -0.14,-0.14l0 -0.14c0,-0.15 -0.12,-0.27 -0.27,-0.27l-0.54 0c-0.15,0 -0.27,0.12 -0.27,0.27l0 0.14c0,0.07 -0.06,0.14 -0.14,0.14 -0.07,0 -0.14,-0.06 -0.14,-0.14l0 -0.14c0,-0.3 0.24,-0.54 0.54,-0.54l0.54 0c0.3,0 0.54,0.24 0.54,0.54l0 0.14c0,0.07 -0.06,0.14 -0.14,0.14l0 0z"/>
 </g>
</svg>
