<?xml version="1.0" encoding="UTF-8"?>
<!DOCTYPE svg PUBLIC "-//W3C//DTD SVG 1.1//EN" "http://www.w3.org/Graphics/SVG/1.1/DTD/svg11.dtd">
<!-- Creator: CorelDRAW 2018 (64-Bit) -->
<svg xmlns="http://www.w3.org/2000/svg" xml:space="preserve" width="9.5206mm" height="8.2132mm" version="1.1" style="shape-rendering:geometricPrecision; text-rendering:geometricPrecision; image-rendering:optimizeQuality; fill-rule:evenodd; clip-rule:evenodd"
viewBox="0 0 8.58 7.4"
 xmlns:xlink="http://www.w3.org/1999/xlink"
 enable-background="new 0 0 512 512">
 <defs>
  <style type="text/css">
   <![CDATA[
    .fil0 {fill:white}
   ]]>
  </style>
 </defs>
 <g id="Слой_x0020_1">
  <metadata id="CorelCorpID_0Corel-Layer"/>
  <g id="_3029978635104">
   <g>
    <path class="fil0" d="M4.04 0c-0.97,0.06 -1.88,0.43 -2.6,1.08l1.12 1.12c0.42,-0.35 0.93,-0.56 1.48,-0.61l0 -1.59zm-1.84 2.55l-1.12 -1.12c-0.65,0.72 -1.02,1.63 -1.08,2.6l1.59 0c0.05,-0.55 0.26,-1.06 0.61,-1.48l0 0zm4.79 1.48l1.59 0c-0.06,-0.97 -0.43,-1.88 -1.08,-2.6l-1.12 1.12c0.35,0.42 0.56,0.93 0.61,1.48zm-0 0.5c-0.04,0.39 -0.15,0.71 -0.28,0.97 0.13,0.2 0.23,0.36 0.3,0.47 0.19,0.3 0.15,0.69 -0.1,0.94 -0.06,0.06 -0.13,0.11 -0.21,0.15l0.26 0.26c0.05,0.05 0.11,0.07 0.18,0.07 0.06,0 0.13,-0.02 0.18,-0.07 0.75,-0.75 1.19,-1.73 1.25,-2.79l-1.59 0zm-5.4 0l-1.59 0c0.06,1.05 0.5,2.03 1.25,2.79 0.05,0.05 0.11,0.07 0.18,0.07 0.06,0 0.13,-0.02 0.18,-0.07l0.76 -0.76c0.1,-0.1 0.1,-0.26 0,-0.36 -0.2,-0.2 -0.7,-0.76 -0.78,-1.67zm5.55 -3.46c-0.72,-0.65 -1.63,-1.02 -2.6,-1.08l0 1.59c0.55,0.05 1.06,0.26 1.48,0.61l1.12 -1.12zm-2.29 2.65c-0.31,-0.31 -0.81,-0.31 -1.12,0 -0.31,0.31 -0.31,0.81 0,1.12 0.39,0.39 2.3,1.61 2.52,1.75 0.1,0.06 0.23,0.05 0.31,-0.03 0.08,-0.08 0.1,-0.21 0.03,-0.31 -0.14,-0.22 -1.36,-2.13 -1.75,-2.52l0 0z"/>
   </g>
  </g>
 </g>
</svg>
