<?xml version="1.0" encoding="UTF-8"?>
<!DOCTYPE svg PUBLIC "-//W3C//DTD SVG 1.1//EN" "http://www.w3.org/Graphics/SVG/1.1/DTD/svg11.dtd">
<!-- Creator: CorelDRAW 2018 (64-Bit) -->
<svg xmlns="http://www.w3.org/2000/svg" xml:space="preserve" width="16.5072mm" height="16.5073mm" version="1.1" style="shape-rendering:geometricPrecision; text-rendering:geometricPrecision; image-rendering:optimizeQuality; fill-rule:evenodd; clip-rule:evenodd"
viewBox="0 0 6.52 6.52"
 xmlns:xlink="http://www.w3.org/1999/xlink"
 enable-background="new 0 0 512 512">
 <defs>
  <style type="text/css">
   <![CDATA[
    .fil0 {fill:#990310}
   ]]>
  </style>
 </defs>
 <g id="Слой_x0020_1">
  <metadata id="CorelCorpID_0Corel-Layer"/>
  <g id="_2512871437648">
   <g>
    <path class="fil0" d="M6.14 1.53l-0.13 0 0 -0.25c0,-0.07 -0.06,-0.13 -0.13,-0.13l-1.05 0c-0.15,-0.47 -0.51,-0.85 -0.97,-1.03 -0.07,-0.03 -0.14,0.01 -0.17,0.07 -0.03,0.07 0.01,0.14 0.07,0.17 0.52,0.21 0.88,0.71 0.88,1.3 0,0.5 -0.27,0.97 -0.71,1.22 -0.15,0.09 -0.24,0.25 -0.24,0.43l0 0.13 -0.32 0 0 -1.35 0.34 -0.34c0.05,-0.05 0.05,-0.13 0,-0.18 -0.05,-0.05 -0.13,-0.05 -0.18,0l-0.29 0.29 -0.29 -0.29c-0.05,-0.05 -0.13,-0.05 -0.18,0 -0.05,0.05 -0.05,0.13 0,0.18l0.34 0.34 0 1.35 -0.32 0 0 -0.13c0,-0.18 -0.09,-0.35 -0.25,-0.43 -0.51,-0.29 -0.78,-0.85 -0.69,-1.44 0.07,-0.47 0.39,-0.89 0.87,-1.08 0.07,-0.03 0.1,-0.1 0.07,-0.17 -0.03,-0.07 -0.1,-0.1 -0.17,-0.07 -0.46,0.19 -0.82,0.57 -0.97,1.03l-1.05 0c-0.07,0 -0.13,0.06 -0.13,0.13l0 0.25 -0.13 0c-0.21,0 -0.38,0.17 -0.38,0.38l0 3.84c0,0.21 0.17,0.38 0.38,0.38l1.99 0c0,0.21 0.17,0.38 0.38,0.38l1.02 0c0.21,0 0.38,-0.17 0.38,-0.38l1.99 0c0.21,0 0.38,-0.17 0.38,-0.38l0 -3.84c0,-0.21 -0.17,-0.38 -0.38,-0.38l0 0zm-2.18 1.78c0,-0.09 0.04,-0.17 0.11,-0.21 0.52,-0.29 0.84,-0.84 0.84,-1.44 0,-0.09 -0.01,-0.17 -0.02,-0.25l0.86 0 0 3.97 -2.11 0c-0.09,0 -0.18,0.03 -0.25,0.07l0 -0.99 0.06 -0c0.28,0 0.51,-0.23 0.51,-0.51l0 -0.64zm-0.25 0.39l0 0.25c0,0.14 -0.11,0.25 -0.25,0.25l-0.38 0c-0.14,0 -0.25,-0.11 -0.25,-0.25l0 -0.25 0.89 0zm-2.94 -2.29l0.86 0c-0.1,0.69 0.22,1.35 0.82,1.69 0.07,0.04 0.12,0.12 0.12,0.21l0 0.64c0,0.28 0.23,0.51 0.51,0.51l0.06 0 0 0.99c-0.07,-0.04 -0.16,-0.07 -0.25,-0.07l-2.11 0 0 -3.97zm1.86 4.74c0,-0.14 -0.11,-0.25 -0.25,-0.25l-1.99 0c-0.07,0 -0.13,-0.06 -0.13,-0.13l0 -3.84c0,-0.07 0.06,-0.13 0.13,-0.13l0.13 0 0 3.72c0,0.07 0.06,0.13 0.13,0.13l2.24 0c0.14,0 0.25,0.11 0.25,0.25l0 0.38 -0.38 0c-0.07,0 -0.13,-0.06 -0.13,-0.13zm3.64 -0.38c0,0.07 -0.06,0.13 -0.13,0.13l-1.99 0c-0.14,0 -0.25,0.11 -0.25,0.25 0,0.07 -0.06,0.13 -0.13,0.13l-0.38 0 0 -0.38c0,-0.14 0.11,-0.25 0.25,-0.25l2.24 0c0.07,0 0.13,-0.06 0.13,-0.13l0 -3.72 0.13 0c0.07,0 0.13,0.06 0.13,0.13l0 3.84z"/>
    <circle class="fil0" cx="3.26" cy="0.13" r="0.13"/>
   </g>
  </g>
 </g>
</svg>
