<?xml version="1.0" encoding="UTF-8"?>
<!DOCTYPE svg PUBLIC "-//W3C//DTD SVG 1.1//EN" "http://www.w3.org/Graphics/SVG/1.1/DTD/svg11.dtd">
<!-- Creator: CorelDRAW 2018 (64-Bit) -->
<svg xmlns="http://www.w3.org/2000/svg" xml:space="preserve" width="15.4755mm" height="12.3192mm" version="1.1" style="shape-rendering:geometricPrecision; text-rendering:geometricPrecision; image-rendering:optimizeQuality; fill-rule:evenodd; clip-rule:evenodd"
viewBox="0 0 5.74 4.57"
 xmlns:xlink="http://www.w3.org/1999/xlink"
 enable-background="new 0 0 512 512">
 <defs>
  <style type="text/css">
   <![CDATA[
    .fil0 {fill:#990310}
   ]]>
  </style>
 </defs>
 <g id="Слой_x0020_1">
  <metadata id="CorelCorpID_0Corel-Layer"/>
  <g id="_2549016929344">
   <g>
    <path class="fil0" d="M5.63 1.82c-0.06,0 -0.11,0.05 -0.11,0.11l0 0.4c0,0.23 -0.19,0.42 -0.42,0.42l-0.64 0c-0.03,0 -0.06,0.01 -0.08,0.03l-0.78 0.78 0 -0.7c0,-0.06 -0.05,-0.11 -0.11,-0.11l-1.61 0c-0.23,0 -0.42,-0.19 -0.42,-0.42l0 -1.7c0,-0.23 0.19,-0.42 0.42,-0.42l3.21 0c0.23,0 0.42,0.19 0.42,0.42l0 0.4c0,0.06 0.05,0.11 0.11,0.11 0.06,0 0.11,-0.05 0.11,-0.11l0 -0.4c0,-0.35 -0.29,-0.64 -0.64,-0.64l-3.21 0c-0.35,0 -0.64,0.29 -0.64,0.64l0 1.44 -0.82 0c-0.24,0 -0.43,0.19 -0.43,0.43l0 1.03c0,0.24 0.19,0.43 0.43,0.43l0.34 0 0.56 0.56c0.02,0.02 0.05,0.03 0.08,0.03 0.01,0 0.03,-0 0.04,-0.01 0.04,-0.02 0.07,-0.06 0.07,-0.1l0 -0.48 0.87 0c0.24,0 0.43,-0.19 0.43,-0.43l0 -0.57 0.56 0 0 0.85c0,0.05 0.03,0.09 0.07,0.1 0.01,0.01 0.03,0.01 0.04,0.01 0.03,0 0.06,-0.01 0.08,-0.03l0.93 -0.93 0.59 0c0.35,0 0.64,-0.29 0.64,-0.64l0 -0.4c0,-0.06 -0.05,-0.11 -0.11,-0.11l0 0zm-3.03 1.72c0,0.12 -0.09,0.21 -0.21,0.21l-0.98 0c-0.06,0 -0.11,0.05 -0.11,0.11l0 0.32 -0.4 -0.4c-0.02,-0.02 -0.05,-0.03 -0.08,-0.03l-0.39 -0c-0.12,0 -0.21,-0.09 -0.21,-0.21l0 -1.03c0,-0.12 0.09,-0.21 0.21,-0.21l0.82 0 0 0.03c0,0.35 0.29,0.64 0.64,0.64l0.71 0 0 0.57zm0 0m1.99 -2.81l-2.19 0c-0.06,0 -0.11,0.05 -0.11,0.11 0,0.06 0.05,0.11 0.11,0.11l2.19 -0c0.06,0 0.11,-0.05 0.11,-0.11 0,-0.06 -0.05,-0.11 -0.11,-0.11l0 0zm0 0m0.11 0.72c0,-0.06 -0.05,-0.11 -0.11,-0.11l-2.19 0c-0.06,0 -0.11,0.05 -0.11,0.11 0,0.06 0.05,0.11 0.11,0.11l2.19 0c0.06,0 0.11,-0.05 0.11,-0.11zm0 0m-2.3 0.49c-0.06,0 -0.11,0.05 -0.11,0.11 0,0.06 0.05,0.11 0.11,0.11l1.26 0c0.06,0 0.11,-0.05 0.11,-0.11 0,-0.06 -0.05,-0.11 -0.11,-0.11l-1.26 0zm0 0m3.23 -0.57c-0.06,0 -0.11,0.05 -0.11,0.11 0,0.06 0.05,0.11 0.11,0.11 0.06,0 0.11,-0.05 0.11,-0.11 0,-0.06 -0.05,-0.11 -0.11,-0.11zm0 0z"/>
   </g>
  </g>
 </g>
</svg>
