<?xml version="1.0" encoding="UTF-8"?>
<!DOCTYPE svg PUBLIC "-//W3C//DTD SVG 1.1//EN" "http://www.w3.org/Graphics/SVG/1.1/DTD/svg11.dtd">
<!-- Creator: CorelDRAW 2018 (64-Bit) -->
<svg xmlns="http://www.w3.org/2000/svg" xml:space="preserve" width="16.5052mm" height="16.5072mm" version="1.1" style="shape-rendering:geometricPrecision; text-rendering:geometricPrecision; image-rendering:optimizeQuality; fill-rule:evenodd; clip-rule:evenodd"
viewBox="0 0 6.54 6.54"
 xmlns:xlink="http://www.w3.org/1999/xlink"
 enable-background="new 0 0 512 512">
 <defs>
  <style type="text/css">
   <![CDATA[
    .fil0 {fill:#990310}
   ]]>
  </style>
 </defs>
 <g id="Слой_x0020_1">
  <metadata id="CorelCorpID_0Corel-Layer"/>
  <g id="_2512876678912">
   <g>
    <path class="fil0" d="M2.07 5.87c-0.03,0 -0.07,0.01 -0.09,0.04 -0.02,0.02 -0.04,0.06 -0.04,0.09 0,0.03 0.01,0.07 0.04,0.09 0.02,0.02 0.06,0.04 0.09,0.04 0.03,0 0.07,-0.01 0.09,-0.04 0.02,-0.02 0.04,-0.06 0.04,-0.09 0,-0.03 -0.01,-0.07 -0.04,-0.09 -0.02,-0.02 -0.06,-0.04 -0.09,-0.04zm0 0m3.96 -2.32l-0.9 -0.9c-0.09,-0.09 -0.2,-0.13 -0.32,-0.13 -0.12,0 -0.24,0.05 -0.32,0.13 -0.06,0.06 -0.1,0.12 -0.12,0.2 -0.07,-0.04 -0.15,-0.05 -0.23,-0.05l0 -2.27c0,-0.3 -0.24,-0.54 -0.54,-0.54l-3.06 0c-0.3,0 -0.54,0.24 -0.54,0.54l0 2.16c0,0.07 0.06,0.13 0.13,0.13 0.07,0 0.13,-0.06 0.13,-0.13l0 -1.62 3.63 0 0 1.82c-0.02,0.01 -0.04,0.03 -0.05,0.05 -0.09,0.09 -0.14,0.21 -0.13,0.33 -0.12,-0 -0.24,0.04 -0.33,0.13 -0.05,0.05 -0.09,0.11 -0.11,0.18l-0.74 -0.74c-0.09,-0.09 -0.2,-0.13 -0.32,-0.13 -0.12,0 -0.24,0.05 -0.32,0.13 -0.09,0.09 -0.13,0.2 -0.13,0.32 0,0.12 0.05,0.24 0.13,0.32l1.7 1.7 -0.3 -0.07c-0.25,-0.06 -0.5,0.09 -0.57,0.34 -0,0.01 -0,0.01 -0,0.02l-2.44 0 0 -1.62c0,-0.07 -0.06,-0.13 -0.13,-0.13 -0.07,0 -0.13,0.06 -0.13,0.13l0 2.16c0,0.3 0.24,0.54 0.54,0.54l3.06 0c0.15,0 0.29,-0.06 0.4,-0.17l0.22 0.08c0.19,0.06 0.38,0.1 0.57,0.1 0.13,0 0.26,-0.01 0.39,-0.04 0.32,-0.07 0.61,-0.23 0.84,-0.47 0.68,-0.68 0.68,-1.79 0,-2.47l0 0zm-5.77 -2.74l0 -0.28c0,-0.15 0.13,-0.28 0.28,-0.28l3.06 0c0.15,0 0.28,0.13 0.28,0.28l0 0.28 -3.63 0zm3.35 5.47l-3.06 0c-0.15,0 -0.28,-0.13 -0.28,-0.28l0 -0.28 2.45 0c0.05,0.13 0.15,0.25 0.29,0.29l0.71 0.25c-0.03,0.01 -0.07,0.02 -0.1,0.02l0 0zm2.25 -0.44c-0.4,0.4 -1.01,0.54 -1.54,0.35l-1.22 -0.43c-0.11,-0.04 -0.17,-0.15 -0.14,-0.26 0.03,-0.1 0.11,-0.16 0.21,-0.16 0.02,0 0.03,0 0.05,0.01l0.74 0.18c0.06,0.01 0.11,-0.01 0.14,-0.06 0.03,-0.05 0.02,-0.11 -0.02,-0.15l-2.02 -2.02c-0.04,-0.04 -0.06,-0.09 -0.06,-0.14 0,-0.05 0.02,-0.1 0.06,-0.14 0.04,-0.04 0.09,-0.06 0.14,-0.06 0.05,0 0.1,0.02 0.14,0.06l1.03 1.03 0 0 0 0 0.63 0.63c0.02,0.02 0.06,0.04 0.09,0.04 0.03,0 0.07,-0.01 0.09,-0.04 0.05,-0.05 0.05,-0.13 0,-0.18l-0.63 -0.63 -0 0c-0.08,-0.08 -0.08,-0.21 0,-0.28 0.08,-0.08 0.21,-0.08 0.28,0l0.67 0.67c0.02,0.02 0.06,0.04 0.09,0.04 0.03,0 0.07,-0.01 0.09,-0.04 0.05,-0.05 0.05,-0.13 0,-0.18l-0.67 -0.67c-0.08,-0.08 -0.08,-0.21 0,-0.28 0.08,-0.08 0.21,-0.08 0.28,0l0.19 0.19 0.49 0.49c0.02,0.02 0.06,0.04 0.09,0.04 0.03,0 0.07,-0.01 0.09,-0.04 0.05,-0.05 0.05,-0.13 0,-0.18l-0.49 -0.49c-0.08,-0.08 -0.08,-0.21 0,-0.28 0.04,-0.04 0.09,-0.06 0.14,-0.06 0.05,0 0.1,0.02 0.14,0.06l0.9 0.9c0.58,0.58 0.58,1.53 0,2.11l0 0zm0 0m-2.85 -3.73c0.03,0 0.07,-0.01 0.09,-0.04 0.05,-0.05 0.05,-0.13 0,-0.18 -0.52,-0.52 -1.37,-0.52 -1.89,0 -0.05,0.05 -0.05,0.13 0,0.18 0.05,0.05 0.13,0.05 0.18,0 0.42,-0.42 1.11,-0.42 1.53,0 0.02,0.02 0.06,0.04 0.09,0.04l0 0zm0 0m-1.38 0.2c-0.05,0.05 -0.05,0.13 0,0.18 0.05,0.05 0.13,0.05 0.18,0 0.19,-0.19 0.5,-0.19 0.69,0 0.02,0.02 0.06,0.04 0.09,0.04 0.03,0 0.07,-0.01 0.09,-0.04 0.05,-0.05 0.05,-0.13 0,-0.18 -0.29,-0.29 -0.76,-0.29 -1.05,0zm0 0m-1.49 1.08c0.03,0 0.07,-0.01 0.09,-0.04 0.02,-0.02 0.04,-0.06 0.04,-0.09 0,-0.03 -0.01,-0.07 -0.04,-0.09 -0.02,-0.02 -0.06,-0.04 -0.09,-0.04 -0.03,0 -0.07,0.01 -0.09,0.04 -0.02,0.02 -0.04,0.06 -0.04,0.09 0,0.03 0.01,0.07 0.04,0.09 0.02,0.02 0.06,0.04 0.09,0.04zm0 0z"/>
   </g>
  </g>
 </g>
</svg>
