<?xml version="1.0" encoding="UTF-8"?>
<!DOCTYPE svg PUBLIC "-//W3C//DTD SVG 1.1//EN" "http://www.w3.org/Graphics/SVG/1.1/DTD/svg11.dtd">
<!-- Creator: CorelDRAW 2018 (64-Bit) -->
<svg xmlns="http://www.w3.org/2000/svg" xml:space="preserve" width="15.5213mm" height="15.5215mm" version="1.1" style="shape-rendering:geometricPrecision; text-rendering:geometricPrecision; image-rendering:optimizeQuality; fill-rule:evenodd; clip-rule:evenodd"
viewBox="0 0 4.12 4.12"
 xmlns:xlink="http://www.w3.org/1999/xlink">
 <defs>
  <style type="text/css">
   <![CDATA[
    .fil0 {fill:#990310}
   ]]>
  </style>
 </defs>
 <g id="Слой_x0020_1">
  <metadata id="CorelCorpID_0Corel-Layer"/>
  <path class="fil0" d="M3.44 0.77c-0.01,0 -0.03,-0 -0.04,-0.01 -0.01,-0 -0.02,-0.01 -0.03,-0.02 -0.01,-0.01 -0.02,-0.02 -0.02,-0.03 -0,-0.01 -0.01,-0.03 -0.01,-0.04 0,-0.01 0,-0.03 0.01,-0.04 0,-0.01 0.01,-0.02 0.02,-0.03 0.01,-0.01 0.02,-0.02 0.03,-0.02 0.01,-0 0.02,-0.01 0.04,-0.01 0.01,0 0.03,0 0.04,0.01 0.01,0 0.02,0.01 0.03,0.02 0.01,0.01 0.02,0.02 0.02,0.03 0,0.01 0.01,0.03 0.01,0.04 0,0.01 -0,0.03 -0.01,0.04 -0,0.01 -0.01,0.02 -0.02,0.03 -0.01,0.01 -0.02,0.02 -0.03,0.02 -0.01,0 -0.02,0.01 -0.04,0.01zm-1.4 2.61c-0.07,0 -0.14,-0.03 -0.19,-0.08 -0.05,-0.05 -0.08,-0.12 -0.08,-0.19 0,-0.07 0.03,-0.14 0.08,-0.19 0.05,-0.05 0.12,-0.08 0.19,-0.08 0.07,0 0.14,0.03 0.19,0.08 0.05,0.05 0.08,0.12 0.08,0.19 0,0.07 -0.03,0.14 -0.08,0.19 -0.05,0.05 -0.12,0.08 -0.19,0.08zm0 -0.34c-0.02,0 -0.04,0.01 -0.05,0.02 -0.01,0.01 -0.02,0.03 -0.02,0.05 0,0.02 0.01,0.04 0.02,0.05 0.01,0.01 0.03,0.02 0.05,0.02 0.02,0 0.04,-0.01 0.05,-0.02 0.01,-0.01 0.02,-0.03 0.02,-0.05 0,-0.02 -0.01,-0.04 -0.02,-0.05 -0.01,-0.01 -0.03,-0.02 -0.05,-0.02zm0 -0.34c-0.07,0 -0.14,-0.03 -0.19,-0.08 -0.05,-0.05 -0.08,-0.12 -0.08,-0.19 0,-0.13 0.04,-0.26 0.11,-0.37 0.07,-0.11 0.17,-0.2 0.29,-0.26 0.05,-0.02 0.09,-0.06 0.11,-0.11 0.03,-0.05 0.04,-0.1 0.04,-0.15 -0,-0.07 -0.04,-0.13 -0.08,-0.18 -0.05,-0.05 -0.11,-0.08 -0.18,-0.08 -0.04,-0 -0.08,0 -0.11,0.02 -0.03,0.01 -0.07,0.03 -0.09,0.06 -0.02,0.02 -0.03,0.03 -0.04,0.05 -0.01,0.02 -0.02,0.04 -0.03,0.06 -0.02,0.06 -0.05,0.1 -0.1,0.13 -0.04,0.03 -0.1,0.05 -0.16,0.05l-0 0c-0.04,0 -0.09,-0.01 -0.12,-0.03 -0.04,-0.02 -0.07,-0.05 -0.1,-0.08 -0.03,-0.04 -0.04,-0.07 -0.05,-0.12 -0.01,-0.04 -0,-0.08 0.01,-0.13 0.02,-0.06 0.05,-0.12 0.09,-0.18 0.04,-0.06 0.08,-0.11 0.13,-0.16 0.08,-0.08 0.18,-0.14 0.28,-0.17 0.1,-0.04 0.21,-0.06 0.32,-0.05 0.1,0 0.2,0.03 0.29,0.07 0.09,0.04 0.18,0.1 0.25,0.17 0.07,0.07 0.13,0.16 0.17,0.25 0.04,0.09 0.06,0.19 0.07,0.29 0.01,0.16 -0.03,0.32 -0.11,0.45 -0.08,0.13 -0.19,0.25 -0.34,0.32 -0.03,0.02 -0.05,0.04 -0.07,0.06 -0.02,0.03 -0.03,0.06 -0.03,0.09 0,0.07 -0.03,0.14 -0.08,0.19 -0.05,0.05 -0.12,0.08 -0.19,0.08zm-0 -1.63l0.02 0c0.12,0.01 0.23,0.06 0.31,0.14 0.08,0.08 0.14,0.19 0.14,0.31 0,0.09 -0.02,0.18 -0.06,0.26 -0.05,0.08 -0.11,0.14 -0.2,0.19 -0.09,0.04 -0.16,0.11 -0.21,0.19 -0.05,0.08 -0.08,0.17 -0.08,0.27 0,0.02 0.01,0.04 0.02,0.05 0.01,0.01 0.03,0.02 0.05,0.02 0.02,0 0.04,-0.01 0.05,-0.02 0.01,-0.01 0.02,-0.03 0.02,-0.05 0,-0.07 0.02,-0.14 0.06,-0.19 0.04,-0.06 0.09,-0.1 0.15,-0.14 0.11,-0.05 0.2,-0.14 0.26,-0.24 0.06,-0.1 0.09,-0.22 0.08,-0.34 -0,-0.07 -0.02,-0.15 -0.05,-0.22 -0.03,-0.07 -0.08,-0.13 -0.13,-0.19 -0.06,-0.06 -0.12,-0.1 -0.19,-0.13 -0.07,-0.03 -0.14,-0.05 -0.22,-0.05 -0.09,-0 -0.17,0.01 -0.25,0.04 -0.08,0.03 -0.15,0.07 -0.21,0.13 -0.04,0.04 -0.07,0.08 -0.1,0.12 -0.03,0.04 -0.05,0.09 -0.06,0.14 -0,0.01 -0,0.02 -0,0.03 0,0.01 0.01,0.02 0.01,0.03 0.01,0.01 0.02,0.02 0.03,0.02 0.01,0.01 0.02,0.01 0.03,0.01l0 0c0.02,-0 0.03,-0.01 0.04,-0.01 0.01,-0.01 0.02,-0.02 0.03,-0.04 0.01,-0.04 0.03,-0.07 0.05,-0.1 0.02,-0.03 0.05,-0.06 0.07,-0.09 0.04,-0.04 0.1,-0.08 0.15,-0.1 0.06,-0.02 0.12,-0.03 0.18,-0.03l0 0zm0.01 3.04c-0.21,-0 -0.42,-0.03 -0.62,-0.1 -0.2,-0.06 -0.39,-0.16 -0.56,-0.28l-0.52 0.14c-0.02,0 -0.03,0 -0.05,-0 -0.02,-0 -0.03,-0.01 -0.04,-0.03 -0.01,-0.01 -0.02,-0.03 -0.03,-0.04 -0,-0.02 -0,-0.03 0,-0.05l0.14 -0.52c-0.13,-0.19 -0.23,-0.4 -0.3,-0.63 -0.06,-0.23 -0.09,-0.46 -0.07,-0.7 0.02,-0.25 0.08,-0.49 0.18,-0.71 0.1,-0.22 0.24,-0.43 0.42,-0.6 0.35,-0.35 0.8,-0.55 1.27,-0.59 0.47,-0.04 0.95,0.07 1.35,0.35 0.02,0.02 0.04,0.04 0.04,0.06 0,0.02 -0,0.05 -0.02,0.07l-0 0c-0.02,0.02 -0.04,0.04 -0.06,0.04 -0.02,0 -0.05,-0 -0.07,-0.02l-0 -0c-0.37,-0.25 -0.8,-0.36 -1.22,-0.32 -0.42,0.04 -0.83,0.22 -1.15,0.54 -0.32,0.32 -0.5,0.74 -0.54,1.18 -0.03,0.43 0.08,0.88 0.36,1.24 0.01,0.01 0.01,0.03 0.02,0.04 0,0.01 0,0.03 -0,0.04l-0.11 0.4 0.4 -0.11c0.01,-0 0.03,-0 0.04,-0 0.01,0 0.03,0.01 0.04,0.02 0.37,0.27 0.81,0.39 1.24,0.36 0.43,-0.03 0.85,-0.21 1.18,-0.54 0.32,-0.32 0.5,-0.72 0.54,-1.15 0.04,-0.42 -0.07,-0.85 -0.32,-1.22 -0.02,-0.02 -0.02,-0.05 -0.02,-0.07 0,-0.02 0.02,-0.05 0.04,-0.06 0.02,-0.02 0.05,-0.02 0.07,-0.02 0.02,0 0.05,0.02 0.06,0.04 0.28,0.41 0.4,0.89 0.35,1.35 -0.04,0.47 -0.24,0.92 -0.59,1.27 -0.18,0.18 -0.38,0.32 -0.6,0.42 -0.22,0.1 -0.46,0.16 -0.71,0.18 -0.02,0 -0.05,0 -0.07,0 -0.03,0 -0.05,0 -0.07,0l-0.01 -0z"/>
 </g>
</svg>
