<?xml version="1.0" encoding="UTF-8"?>
<!DOCTYPE svg PUBLIC "-//W3C//DTD SVG 1.1//EN" "http://www.w3.org/Graphics/SVG/1.1/DTD/svg11.dtd">
<!-- Creator: CorelDRAW 2018 (64-Bit) -->
<svg xmlns="http://www.w3.org/2000/svg" xml:space="preserve" width="107.457mm" height="63.5607mm" version="1.1" style="shape-rendering:geometricPrecision; text-rendering:geometricPrecision; image-rendering:optimizeQuality; fill-rule:evenodd; clip-rule:evenodd"
viewBox="0 0 8339.54 4932.84"
 xmlns:xlink="http://www.w3.org/1999/xlink">
 <defs>
  <style type="text/css">
   <![CDATA[
    .fil0 {fill:#990310}
    .fil1 {fill:#FBF8F8}
    .fil9 {fill:#121212;fill-rule:nonzero}
    .fil25 {fill:#2E3552;fill-rule:nonzero}
    .fil4 {fill:#302121;fill-rule:nonzero}
    .fil17 {fill:#402B13;fill-rule:nonzero}
    .fil12 {fill:#470343;fill-rule:nonzero}
    .fil21 {fill:#4D4D4D;fill-rule:nonzero}
    .fil20 {fill:#595959;fill-rule:nonzero}
    .fil16 {fill:#78111A;fill-rule:nonzero}
    .fil13 {fill:#990310;fill-rule:nonzero}
    .fil23 {fill:#A4A4A4;fill-rule:nonzero}
    .fil15 {fill:#D1BCCD;fill-rule:nonzero}
    .fil14 {fill:#DBCAD8;fill-rule:nonzero}
    .fil8 {fill:#E8945B;fill-rule:nonzero}
    .fil22 {fill:#EBDCE8;fill-rule:nonzero}
    .fil10 {fill:#EBF3FA;fill-rule:nonzero}
    .fil19 {fill:#EBF3FF;fill-rule:nonzero}
    .fil18 {fill:#ED975D;fill-rule:nonzero}
    .fil26 {fill:#F0E4EE;fill-rule:nonzero}
    .fil7 {fill:#F2CCAA;fill-rule:nonzero}
    .fil3 {fill:#F2EDF1;fill-rule:nonzero}
    .fil6 {fill:#F9DDBF;fill-rule:nonzero}
    .fil2 {fill:#FBF8F8;fill-rule:nonzero}
    .fil5 {fill:#FFB27D;fill-rule:nonzero}
    .fil11 {fill:white;fill-rule:nonzero}
    .fil24 {fill:white;fill-rule:nonzero}
   ]]>
  </style>
 </defs>
 <g id="Слой_x0020_1">
  <metadata id="CorelCorpID_0Corel-Layer"/>
  <path class="fil0" d="M3858.8 163.5l-20.18 284.31 -20.17 284.32c-3.95,55.74 -34.97,101.64 -85.22,126.07 -50.25,24.45 -105.5,20.53 -151.8,-10.76l-236.13 -159.63 -236.14 -159.62c-46.3,-31.29 -70.53,-81.1 -66.58,-136.84 3.96,-55.75 34.98,-101.64 85.23,-126.07l256.31 -124.69 256.31 -124.69c50.25,-24.44 105.5,-20.52 151.8,10.77 46.29,31.29 70.52,81.11 66.57,136.85z"/>
  <path class="fil0" d="M8002.14 2732.24l53.79 -178.6 53.8 -178.6c10.55,-35.01 2.24,-70.3 -22.81,-96.93 -25.04,-26.64 -59.76,-37.1 -95.35,-28.72l-181.56 42.72 -181.57 42.71c-35.59,8.37 -62,33.21 -72.55,68.22 -10.55,35.02 -2.24,70.3 22.8,96.94l127.78 135.88 127.77 135.88c25.05,26.64 59.76,37.1 95.36,28.72 35.59,-8.37 62,-33.21 72.55,-68.22z"/>
  <path class="fil1" d="M3281.18 769.35l105.69 71.97 105.69 71.96c20.72,14.11 31.52,36.49 29.66,61.49 -1.86,25 -15.85,45.54 -38.42,56.43l-115.17 55.54 -115.16 55.54c-22.58,10.9 -47.36,9.05 -68.08,-5.06 -20.72,-14.11 -31.52,-36.48 -29.66,-61.48l9.48 -127.52 9.48 -127.51c1.86,-25 15.85,-45.53 38.42,-56.42 22.58,-10.89 47.36,-9.05 68.08,5.06z"/>
  <path class="fil1" d="M7847.23 2184.24l118.28 -28.25 118.28 -28.24c23.19,-5.54 40.35,-21.78 47.15,-44.63 6.8,-22.85 1.3,-45.84 -15.08,-63.15l-83.6 -88.3 -83.6 -88.31c-16.39,-17.31 -39.04,-24.05 -62.23,-18.51 -23.19,5.53 -40.35,21.78 -47.15,44.63l-34.68 116.55 -34.68 116.55c-6.8,22.85 -1.31,45.84 15.08,63.14 16.39,17.31 39.04,24.05 62.23,18.52z"/>
  <path class="fil2" d="M720.73 4900.64c-880.16,-1065.42 -1201.64,-2882.5 487.71,-3849.78 1202.39,-688.46 2148.26,1183.83 2713.24,275.39 1117.75,-1797.24 4658.07,-1500.27 3539.27,734.6 -586.99,1172.53 1493.26,1161.57 692.64,2842.13l-7432.86 -2.34z"/>
  <path class="fil3" d="M2345.73 1724.46c35.24,68.69 59.99,146.7 71.7,233.78 2.72,18.41 3.49,39.34 3.33,61.25 -1.97,94.56 -30.41,209.03 -72.22,280.03 -320.76,542.43 -1086.67,394.44 -1187.7,-218.65 -1.54,-10.09 -3.07,-20.18 -4.33,-30.47 -12.33,-95.78 18.03,-243.26 66.18,-326.79 25.36,-43.78 53.6,-83.15 83.87,-118.3 304.43,-349.85 838.09,-272.07 1039.17,119.15zm592.8 1288.83l140.74 -241.3 3.31 -5.79c16.93,-29.48 9.24,-66.83 -17.94,-86.87l-187.6 -138.68c-3.12,-2.3 -5.96,-4.8 -8.49,-7.44 -17.68,-18.86 -23.47,-46.76 -12.88,-70.83 60.44,-142.84 91.9,-295.84 92.3,-450.83 0.1,-6.43 1.12,-12.67 2.77,-18.53 6.67,-22.28 25.06,-40.01 48.18,-45.84l189.33 -45.37c24.85,-6.19 43.7,-26.2 49.26,-50.14 1.49,-7.34 2.17,-15.3 1.19,-23.39l-36.47 -282.94c-4.4,-34.78 -35.13,-60.78 -70.56,-59.15l-258.76 11.31c-25.49,1.01 -49.2,-12.59 -61.08,-35.28 -17.54,-32.43 -36.16,-64.13 -56.82,-95.24 -38.73,-58.44 -81.8,-112.01 -128.45,-160.83l-0.2 -0.27c-19.47,-20.4 -24.45,-50.04 -12.36,-75.51l112.58 -237.72 5.53 -12c14.75,-30.41 3.45,-67.77 -26.22,-84.99l-246.62 -143.96c-30.16,-17.32 -68.69,-9.62 -89.37,18.39l-154.43 208.74c-17.13,23.24 -47.23,32.9 -74.25,23.83 -115.01,-36.41 -235.04,-55.23 -355.8,-54.88 -30.74,-0.26 -57.28,-21.15 -64.53,-51.24l-54.3 -224.29c-8.37,-34.13 -40.67,-55.96 -75,-51.45l-284.12 36.44c-33.58,4.42 -58.13,33.8 -56.58,67.27l12.83 304.16c1.23,25.78 -12.49,49.96 -35.07,62.56 -27.93,15.34 -55.4,31.96 -82.4,49.86 -50.99,33.81 -98.31,70.76 -141.88,110.36 -19.67,18.2 -48.3,22.89 -72.39,11.1l-285.54 -135.61c-31.6,-14.75 -68.78,-3.2 -86.28,26.67l-144.59 247.47c-15.11,26.27 -10.43,59.65 10.62,80.61 2.2,2.13 4.57,4.5 7.32,6.26l231.52 171.45c21.61,15.81 31.91,42.73 25.7,68.66 -0.47,2.27 -0.93,4.57 -1.85,6.77 -2.31,6.71 -4.52,12.94 -6.2,19.98 -25.5,78.82 -42.3,160.59 -50.49,243.37 -2.27,27.69 -22.68,50.78 -50.21,57.11l-236.86 57.49c-33.58,7.99 -55.67,40.49 -51.17,74.78l8 62.94 28.54 219.53c4.22,34.5 34.43,59.73 69.28,58.4l254.9 -11.11c27.26,-1.38 51.88,14.8 62.54,39.89 27.73,65.71 62.33,130.48 103.44,192.48 30.52,46.01 64.16,89.58 99.92,129.74l-23.69 49.84 -96.8 204.66c-12.25,25.19 -6.65,55.19 12.65,74.12 3.94,4.16 8.52,7.48 13.65,10.42l248 145.42c29.49,16.93 66.94,8.76 87.18,-18.15l105.25 -142.81c17.78,-24.07 50.45,-33.46 78.21,-22.07 114.98,47.12 236.36,75.77 359.33,84.71 29.15,2.06 53.22,22.2 59.29,49.94l68.56 283.48c7.89,31.66 38.02,52.55 70.58,48.42l287.14 -37.28c34.06,-4.3 58.88,-33.89 57.12,-67.64l-13.4 -316.42c-1.43,-27.26 14.15,-52.25 39.13,-63.65 53.33,-24.28 105.3,-53.6 156.02,-87.22 27.29,-18.07 53.57,-37.1 78.85,-57.01 19.84,-15.54 46.73,-18.7 69.61,-8.09l273.83 129.91c31.76,15 69.41,3.55 87.46,-26.68z"/>
  <path class="fil4" d="M6645.8 1592.66c-63.1,-32.7 -113.56,-12.15 -113.56,-12.15 -192.92,-22.65 -249.15,202.31 -246.57,279.72 2.58,77.4 11.43,160.54 -74.71,261.11 -248.84,290.44 272.27,303.29 272.27,303.29 4.47,-232.1 282.59,-147.4 270.47,-123.91 356.61,85.6 35.42,-633.66 -107.89,-708.05z"/>
  <path class="fil5" d="M5901.71 2560.17c0,0 -33.95,-51.63 -61.3,-52.66 -27.31,-0.99 -77.96,-15.17 -73.89,-5.04 4.02,10.13 35.43,11.15 38.46,17.22 3.03,6.08 -46.59,15.18 -60.77,16.2 -14.16,0.98 -47.58,0 -46.55,7.09 0.99,7.05 60.22,36.45 102,32.39 41.77,-4.06 93.4,12.14 93.4,12.14l8.64 -27.35z"/>
  <path class="fil6" d="M6392.27 2576.87c0,0 -18.48,36.54 -51.83,78.48 -40.33,50.48 -102.48,108.81 -180.54,120.32 -37.31,5.52 -73.75,-2.53 -107.24,-17.42 -0.08,0 -0.12,0 -0.12,0 -94.78,-42.1 -166.04,-138.86 -166.04,-138.86 -16.72,-45.56 10.64,-76.46 10.64,-76.46 0,0 191.39,43.08 209.64,33.93 18.22,-9.1 124.48,-315.37 149.85,-353.88 25.28,-38.5 111.59,-58.49 111.59,-58.49l24.07 412.36z"/>
  <path class="fil7" d="M6340.44 2655.35c-40.33,50.48 -102.48,108.81 -180.54,120.32 -37.31,5.52 -73.75,-2.53 -107.24,-17.42 3.7,0.5 98.38,12.17 136.13,-55.3 38.42,-68.85 80.12,-178.23 137.21,-141.77 24.67,15.72 23.55,54.82 14.44,94.15z"/>
  <path class="fil4" d="M7106.27 4642.68c0,0 58.37,53.32 47.02,91.16 -11.43,37.87 -64.14,63.13 -71.18,109.4 -7.14,46.27 -35.68,71.54 -61.3,71.54 -25.62,0 -122.25,0 -122.25,0 0,0 -18.83,-32.6 26.74,-42.41 45.56,-9.81 62.76,-64.21 59.92,-114.7 -2.83,-50.48 4.3,-117.79 4.3,-117.79l96.81 -22.42 19.95 25.22z"/>
  <path class="fil4" d="M6612.02 4665.34c0,0 20.97,225.76 -4.65,238.37l-328.07 -0.68c0,0 0,-37.87 52.7,-46.27 52.62,-8.43 145.21,-39.29 160.94,-107.98 15.65,-68.75 119.07,-83.44 119.07,-83.44z"/>
  <path class="fil5" d="M6845.86 3045.65c-67.57,-151.42 -108.93,-194.9 -101.02,-241.88 5.85,-34.99 -17.88,-652.19 -17.88,-652.19 -7.99,-2.48 -24.07,-4.69 -32.84,-6.66 -27.68,-6.15 -50.64,-25.58 -60.1,-52.3 -11.52,-32.18 -20.63,-79.7 -20.46,-139.25l-8.6 1.71 -145.46 28.79c0,0 3.35,45.77 3.35,88.88 0,0.36 0,0.72 0,1.07 0.26,37.45 -24.33,70.47 -60.26,80.88 -18.4,5.33 -34.39,9.82 -34.39,9.82 0,0 -53.39,152.48 -63.62,309.08 -10.14,156.62 97.15,224.68 -0.77,537.66 -99.99,319.63 579.27,118.03 542.05,34.4z"/>
  <path class="fil8" d="M6459.5 1983.86c0,0 3.35,45.77 3.35,88.88 81.42,-2.29 124.4,-76.53 142.11,-117.67l-145.46 28.79z"/>
  <path class="fil5" d="M6432.34 2024.69c0,0 192.57,3.17 192.66,-116.75 0.09,-119.94 25.11,-200.3 -97.83,-207.39 -122.94,-7.11 -146.84,38.63 -156.64,78.65 -9.8,40.02 11.77,241.57 61.82,245.49z"/>
  <path class="fil4" d="M6439.47 1697.61c0,0 52.7,140.7 133.6,161.5 80.9,20.81 115.97,-0.87 115.97,-0.87 0,0 -62.07,-49.3 -74.97,-135.34 0,0 -134.88,-92.26 -174.6,-25.28z"/>
  <path class="fil9" d="M6452.54 1709.02c0,0 -39.11,14.61 -55.2,43.12 -15.73,27.88 -29.14,64.81 -26.05,110.1 0,0 -39.71,-95.62 4.9,-149.72 47.37,-57.37 76.34,-3.5 76.34,-3.5z"/>
  <path class="fil10" d="M6474.2 1950.29c0,0 -13.24,17.48 -39.81,16.21 -21.4,-1.02 -29.74,-19.58 -29.74,-19.58 0,0 39.37,-9.46 69.54,3.37z"/>
  <path class="fil6" d="M6864.42 2424.63c0,0 4.82,68.93 0,151.62 -3.27,54.82 -58.72,128.28 -66.63,146.45 -19.68,45.56 -41.96,52.98 -41.96,52.98l-172.28 42.21 -60.61 14.85 -191.03 -57.07c0,0 -87.01,-242.81 -52.1,-379.54 34.99,-136.68 88.38,-231.62 88.38,-231.62 0,0 155.86,152.64 358.75,-12.93l137.47 273.05z"/>
  <path class="fil7" d="M6813.96 2598.63c-3.27,54.82 -8.26,105.9 -16.17,124.06 -19.68,45.56 -41.96,52.98 -41.96,52.98l-172.28 42.21 -74.88 -21.99c0,0 249.84,-37.84 222.07,-252.72l83.22 55.45z"/>
  <path class="fil9" d="M6344.13 2812.52c0,0 -94.65,294.45 -100.76,394.68 -6.01,100.27 180.88,1424.09 188.36,1470.28 7.13,43.55 61.21,71.3 61.21,71.3 0,0 24.85,14.66 60.36,4.65 49.26,-13.92 64.73,-30.55 64.73,-30.55 0,0 73.68,-944.16 28.11,-1281.41 -45.56,-337.29 -46.08,-628.95 -46.08,-628.95l-255.94 0z"/>
  <path class="fil4" d="M6744.84 2803.77c0,0 144.27,193.6 157.76,324.45 13.5,130.89 21.15,590.59 49.78,718.17 28.71,127.58 133.94,373.12 133.94,771.07 0,0 -10.92,22.82 -44.71,34.95 -10.83,3.9 -25.36,7.64 -39.37,10.87 -27.86,6.39 -56.48,-7.25 -69.21,-32.83 -71.18,-143.34 -297.89,-605.61 -309.49,-701.58 -8.25,-67.91 -79.87,-517.33 -236.08,-781.07 -37.4,-63.31 23.04,-315.07 23.04,-315.07l334.34 -28.97z"/>
  <path class="fil11" d="M6469.99 1953.5c0,0 -3.35,14.13 -38.51,11.95 0,0 -29.58,-1.82 -28.63,-17.36 0,0 28.63,-11.05 67.14,5.41z"/>
  <path class="fil12" d="M6329 2767.08c0,0 38,30.03 113.4,31.57 90.1,1.82 313.36,-22.98 313.36,-22.98 0,0 9.97,27.71 9.55,56.99 0,0 -272.7,68.78 -430.72,10.05 0,0 -20.37,-38.35 -5.59,-75.63z"/>
  <path class="fil11" d="M6420.73 2796.84c-15.13,0 -27.43,14.78 -27.43,32.91 0,18.17 12.29,32.91 27.43,32.91 15.22,0 27.51,-14.74 27.51,-32.91 0,-18.13 -12.29,-32.91 -27.51,-32.91zm0 79.46c-22.61,0 -41.09,-20.89 -41.09,-46.54 0,-25.67 18.49,-46.51 41.09,-46.51 22.7,0 41.18,20.85 41.18,46.51 0,25.65 -18.48,46.54 -41.18,46.54z"/>
  <polygon class="fil13" points="7049.35,2820.37 6769.94,3063.62 6436.98,2681.2 6716.39,2437.91 "/>
  <path class="fil5" d="M6692.83 2821.23c0,0 -102.4,11.98 -102.14,36.27 0.35,24.32 25.53,74.25 38.18,76.46 12.63,2.2 83.3,-67.51 83.3,-67.51l-19.34 -45.21z"/>
  <path class="fil6" d="M6726.96 2151.58c0,0 136.7,9.58 189.14,136.92 52.35,127.37 151.74,341.18 151.74,377.17 0,35.98 -55.45,146.85 -353.68,210.62 0,0 -30.86,-32.43 -28.97,-58.09 0,0 186.13,-159.9 185.61,-178.58 -0.95,-35.35 -30.52,-82.02 -193.95,-245.51 -44.45,-44.45 50.12,-242.54 50.12,-242.54z"/>
  <path class="fil14" d="M3894.82 4906.94l-1.37 0c-8.31,0 -15.02,-6.86 -14.82,-15.13l22.44 -972.85 66.12 -7.73 -56.36 980.62c-0.5,8.47 -7.52,15.09 -16,15.09z"/>
  <path class="fil15" d="M3509.57 4906.94l-1.42 0c-8.32,0 -15.02,-6.86 -14.82,-15.13l22.48 -972.85 66.08 -7.73 -56.35 980.62c-0.52,8.47 -7.5,15.09 -15.96,15.09z"/>
  <path class="fil14" d="M4572.72 4906.94l1.41 0c8.32,0 14.99,-6.86 14.78,-15.13l-22.43 -972.85 -66.13 -7.73 56.4 980.62c0.47,8.47 7.49,15.09 15.96,15.09z"/>
  <path class="fil14" d="M3465.74 3858.61l0 -666.63c0,-117.29 95.1,-212.39 212.39,-212.39l480.29 0c117.3,0 212.39,95.1 212.39,212.39l0 692.12 -905.07 -25.49z"/>
  <path class="fil15" d="M4456.88 3963.88l-927.37 0c-35.24,0 -63.78,-28.58 -63.78,-63.77l0 -41.5 991.14 0 0 105.27z"/>
  <path class="fil14" d="M4567.99 3963.88l-701.59 0c-26.05,0 -47.14,-21.13 -47.14,-47.18l0 -10.92c0,-26.05 21.09,-47.17 47.14,-47.17l701.59 0c26.05,0 47.17,21.12 47.17,47.17l0 10.92c0,26.05 -21.13,47.18 -47.17,47.18z"/>
  <path class="fil16" d="M4540.76 3692.52c-68.82,119.74 -155.33,165.97 -155.33,165.97l-360.03 0c0,0 567.86,-257.32 515.37,-165.97z"/>
  <path class="fil5" d="M4264.24 4619.07c-9.38,10.76 -10.57,22.79 -5.91,35.59 0,0.05 0,0.12 0.08,0.2 8.59,23.72 36.96,50.21 69.92,76.66 4.18,3.43 7.96,6.5 11.19,9.38 0.87,0.75 1.73,1.5 2.52,2.24 0.67,0.6 1.3,1.19 1.93,1.74 30.74,28.33 19.2,34.84 74.37,92.3 62.97,65.51 106.29,66.69 118.62,60.74 10.45,-5.09 -10.76,-39.84 -34.24,-78.87 -1.14,-1.89 -2.25,-3.82 -3.43,-5.71 -3.11,-5.21 -6.23,-10.45 -9.34,-15.69 -27.51,-46.98 -20.41,-69 -13.92,-138.97 5.32,-56.83 88.4,-317.46 88.4,-317.46l-120.64 -20.78c0,0 -36.3,207.55 -76.34,239.51 -21.4,17.03 -45.35,17.27 -65.94,29.88 -1.45,0.87 -2.87,1.77 -4.25,2.72 -11.7,7.73 -23.61,15.72 -33.02,26.52z"/>
  <path class="fil12" d="M4264.24 4619.07c-9.38,10.76 -10.57,22.79 -5.91,35.59 0,0.05 0,0.12 0.08,0.2 10.52,23.69 38.15,50.05 70.03,76.42 4.14,3.47 7.8,6.66 11.07,9.62 0.87,0.75 1.73,1.5 2.52,2.24 0.67,0.6 1.3,1.19 1.93,1.74 30.74,28.33 19.2,34.84 74.37,92.3 62.97,65.51 106.29,66.69 118.62,60.74 10.45,-5.09 -10.76,-39.84 -34.24,-78.87 -12.26,-4.49 -69.17,-27.63 -112.21,-82.69 -37.91,-48.39 -63.18,-110.51 -88.99,-146.52 -1.45,0.87 -2.87,1.77 -4.25,2.72 -11.7,7.73 -23.61,15.72 -33.02,26.52z"/>
  <path class="fil5" d="M5236.97 4543.72c7.45,37.24 60.5,31.01 119.82,16.55 59.32,-14.51 45.2,2.72 129.59,-6.63 84.41,-9.34 110,-40.79 112.56,-53.36 2.28,-11.11 -39.42,-15.05 -84.15,-20.22 -5.6,-0.63 -11.27,-1.3 -16.91,-2.01 -50.52,-6.35 -87.49,-38.94 -133.36,-65.7 -43.44,-25.35 -108.31,-128.64 -108.31,-128.64l-115.71 9.18c0,0 60.74,92.26 84.22,132.35 13.79,23.61 13.08,54.78 11.35,78.9 -0.91,13.08 -1.74,26.44 0.9,39.57z"/>
  <path class="fil12" d="M5356.79 4560.27c59.32,-14.51 45.2,2.72 129.59,-6.63 84.41,-9.34 110,-40.79 112.56,-53.36 2.28,-11.11 -39.42,-15.05 -84.15,-20.22l-0.4 0.87c0,0 -50.65,35.91 -120.88,37.56 -57.27,1.41 -117.93,-15.02 -157.45,-14.35 -0.91,13.08 -1.74,26.44 0.9,39.57 7.45,37.24 60.5,31.01 119.82,16.55z"/>
  <path class="fil16" d="M4793.39 3803.63l-108.19 291.15 -141.25 380.16c0,0 -38.35,3.7 -75.05,-6.85 -33.81,-9.78 -72.59,-35.32 -72.59,-35.32 0,0 39.22,-408.19 112.41,-642.5 18.76,-60.14 39.76,-108.81 62.94,-136.16 113.43,-134.08 221.73,149.53 221.73,149.53z"/>
  <path class="fil13" d="M4683.39 3341.24c-70.86,-22.86 -273.05,6.5 -476.14,46.22l-42.53 -70.1 -438.66 -34.26c0,0 -144.76,320.97 -65.54,525.53 11.66,30.07 34.8,49.35 74.25,49.98 0.05,0.03 6.39,0 6.43,0 0,0 261.07,-0.16 345.85,-0.16 218.19,0 461.72,-149.97 493.2,-156.24 51.59,-10.32 72.21,92.82 123.76,201.08 51.59,108.3 484.73,479.57 484.73,479.57 0,0 66.57,0.67 94.08,-9.65 29.6,-11.07 40.4,-25.47 40.4,-25.47 0,0 -479.96,-954.96 -639.82,-1006.5z"/>
  <path class="fil17" d="M4147.46 2040.01c-56.2,-29.5 -141.69,-33.49 -155.6,-35.36 -166.2,-22.34 -266.27,219.21 -272.14,292.4 -10.84,134.91 -82.22,155.49 -182.68,239.95 -201.39,169.43 -142.35,366.26 -32.2,439.4 66.05,43.9 182.57,0 182.57,0 1.61,1.14 318.52,-177.15 474.72,-263.15 234.19,-33.3 128.53,-598.03 -14.66,-673.24z"/>
  <path class="fil5" d="M4031.19 2640.01c0.71,0.43 -76.86,26.92 -128.68,3.99 -48.79,-21.57 -85.76,-101.85 -85.01,-101.88 22.19,-1.02 46.55,-20.42 65.31,-147.72l9.45 3.39 158.88 57.19c0,0 -11.52,50.95 -18.96,99.51 -6.26,40.71 -9.65,79.77 -0.99,85.52z"/>
  <path class="fil18" d="M4051.14 2454.98c0,0 -11.52,50.95 -18.96,99.51 -91.28,-16.43 -127.07,-107.36 -139.92,-156.7l158.88 57.19z"/>
  <path class="fil5" d="M4074.78 2505.54c0,0 -217.35,-29.17 -197.09,-164.23 20.26,-135.12 5.84,-229.85 145.47,-216.93 139.64,12.93 158.79,68.5 163.01,115.24 4.22,46.7 -54.31,270.05 -111.38,265.92z"/>
  <path class="fil17" d="M4178.23 2165.57c0,0 -139.12,119.89 -233.8,129.58 -94.63,9.67 -130.49,-20.72 -130.49,-20.72 0,0 55.81,-46.32 89.39,-121.08 9.89,-22.03 30.78,-37.15 54.86,-39.23 67.59,-5.83 195.67,-8.49 220.04,51.45z"/>
  <path class="fil17" d="M4091.26 2154.81c0,0 46.54,45.01 61.2,78.4 14.15,32.24 18.4,109.29 7.13,139.87 0,0 72.52,-141.01 31.45,-209.56 -43.51,-72.63 -99.78,-8.71 -99.78,-8.71z"/>
  <path class="fil11" d="M4214.22 2960.24c-6.54,440 -1.77,348.05 -49.9,389.79 -11.62,10.05 -44.21,16.04 -87.14,18.88 -134.91,8.95 -372.09,-13.29 -381.12,-38.19 -31.09,-86.27 -9.13,-113.08 -35.11,-245.19 -2.68,-14.03 -6.03,-29.24 -9.97,-45.8 -21.64,-90.72 -42.72,-121.59 34.09,-267.34 69.65,-132.03 142.01,-239.16 148.51,-235.29 183.74,109.09 198.6,17.38 198.6,17.38 0,0 185.27,191.11 182.05,405.75z"/>
  <path class="fil13" d="M4685.2 4094.77l-141.25 380.16c0,0 -38.35,3.7 -75.05,-6.85 -33.81,-9.78 -72.59,-35.32 -72.59,-35.32 0,0 39.22,-408.19 112.41,-642.5l176.48 304.51z"/>
  <path class="fil11" d="M4032.18 2554.49c0,0 189.06,32.04 211.29,113.47 22.2,81.39 152.84,559.98 152.84,559.98 0,0 -96.13,17.26 -140.5,-27.12 -44.42,-44.42 -154.54,-411.98 -154.54,-411.98l-69.09 -234.35z"/>
  <path class="fil19" d="M4077.18 3368.91c-134.91,8.95 -372.09,-13.29 -381.12,-38.19 -31.09,-86.27 -9.13,-113.08 -35.11,-245.19l65.11 -183.23c0,0 -10.76,204.05 49.38,257.73 60.15,53.67 246.41,103.61 275.65,148.46 14.11,21.52 23.41,43.08 26.09,60.43z"/>
  <path class="fil5" d="M3922.61 3283.11c0,0 133.1,-29.64 154.57,-17.85 21.48,11.82 73.98,54.82 80.57,69.79 6.57,14.98 -47.85,-11.35 -65.51,-16.08 -11.47,-3.07 -41.62,7.42 -56.55,12.38 -62.83,20.92 -101.33,10.17 -101.33,10.17l-11.74 -58.41z"/>
  <path class="fil11" d="M3833.46 2537c0,0 -178.74,11.03 -240.58,97.31 -87.1,121.47 -259.88,639.19 -160.87,708.24 111.54,77.72 507.51,20.33 507.51,20.33 0,0 13.2,-61.6 -5.17,-91.4 -18.32,-29.79 -316.28,-77.91 -330.04,-91.67 -13.75,-13.75 171.92,-268.16 171.92,-309.42 0,-41.26 57.23,-333.38 57.23,-333.38z"/>
  <path class="fil5" d="M4083.65 3302.3c0,0 27.86,35.99 37.01,40.29 9.14,4.29 15.06,3.23 15.06,3.23l-18.8 -33.82 -33.26 -9.69z"/>
  <path class="fil5" d="M4077.18 3265.26l81.12 39.37c0,0 -3.48,5.67 -13.44,5.2 -10.01,-0.43 -35.2,-9.65 -35.2,-9.65l-32.48 -34.92z"/>
  <polygon class="fil20" points="4120.66,3397.68 4762.09,3397.68 4955.06,2917.87 4314.61,2917.87 "/>
  <polygon class="fil21" points="4769.62,3378.99 3922.61,3378.99 3922.61,3397.68 4762.09,3397.68 "/>
  <path class="fil11" d="M4600.18 3157.77c4.85,-16.86 -4.92,-30.53 -21.79,-30.53 -16.86,0 -34.44,13.67 -39.29,30.53 -4.85,16.88 4.92,30.55 21.79,30.55 16.86,0 34.45,-13.67 39.29,-30.55z"/>
  <path class="fil14" d="M1154.22 3941.06l-2.05 0c-23.84,0 -43.17,-19.36 -43.17,-43.19l0 -911.18c0,-23.85 19.32,-43.2 43.17,-43.2l2.05 0c23.84,0 43.17,19.35 43.17,43.2l0 911.18c0,23.83 -19.33,43.19 -43.17,43.19z"/>
  <path class="fil15" d="M1152.81 4906.94l-1.4 0c-8.3,0 -14.99,-6.86 -14.8,-15.13l22.44 -972.85 66.11 -7.73 -56.38 980.62c-0.49,8.47 -7.49,15.09 -15.97,15.09z"/>
  <path class="fil14" d="M2215.98 4906.94l1.42 0c8.31,0 14.97,-6.86 14.81,-15.13l-22.46 -972.85 -66.13 -7.73 56.4 980.62c0.47,8.47 7.49,15.09 15.96,15.09z"/>
  <path class="fil14" d="M2211.25 3858.61l-1102.25 0 0 41.5c0,35.2 28.55,63.77 63.78,63.77l1038.47 0c26.05,0 47.17,-21.13 47.17,-47.18l0 -10.92c0,-26.05 -21.13,-47.17 -47.17,-47.17z"/>
  <path class="fil4" d="M2763.05 4698.96c0,0 -16.24,201.71 19.9,204.39 4.82,0.36 183.2,0.36 183.2,0.36l227.72 -1.31c0,0 -1.5,-54.89 -68.06,-66.49 -66.57,-11.58 -198.29,-67.59 -238.65,-155.59 -42.41,-92.55 -124.11,18.64 -124.11,18.64z"/>
  <path class="fil21" d="M1393.08 3593.91c0,0 7.58,198.25 42.52,264.7l805.4 0c0,0 193.51,20.02 211.16,33.11 22.27,16.42 -77.52,179.8 296.5,818.12l183.19 -4.65c0,0 -191.55,-1035.29 -225.6,-1061.46 -50.92,-39.21 -646.75,-175.62 -748.76,-178.62 -101.99,-2.95 -564.42,128.8 -564.42,128.8z"/>
  <path class="fil5" d="M1844.64 2419.3c62.15,38.51 65.62,115.2 65.62,115.2 -151.58,39.18 -372.13,-129.11 -372.13,-129.11 0,0 97.58,-65.54 133.73,-209.6 1.82,-7.29 3.51,-14.75 4.96,-22.34 4.73,-24.28 7.68,-50.55 8.2,-78.9l69.64 62.39 115.8 103.73c0,0 -2.65,43.04 -17.1,117.1 -2.53,12.93 -5.4,26.8 -8.71,41.54z"/>
  <path class="fil22" d="M1930.28 3215.12c-5.21,33.81 5.28,61.01 10.32,86.19 1.97,9.58 3.11,18.92 2.29,28.19 -8.28,93.56 25.06,105.42 14.61,135.61 0,0 -35.62,20.85 -100.85,45.6 -28.38,10.68 -62.39,22.18 -101.53,33.02 -2.05,0.55 -4.1,1.1 -6.22,1.66 -151.5,40.99 -310.81,49.73 -355.82,48.51 -85.97,-2.29 -103.32,-220.2 -71.42,-494.71 49.68,-427.58 116.86,-634.89 293.9,-784.65 11.16,-9.46 3.63,22.65 63.14,51.35 54.99,26.45 121.31,32.63 172.78,21.24l40.49 41.51c80.4,127.02 88.83,277.77 82.02,403.46 -8.68,158.86 -28.78,285.65 -43.71,383.01z"/>
  <path class="fil18" d="M1870.45 2260.67c0,0 6.15,-6.46 -8.32,67.56 -128.29,-37.09 -170.06,-102.44 -187.17,-145.75 -4.88,-12.26 47.69,-18.77 79.69,-25.54l115.8 103.73z"/>
  <path class="fil5" d="M1930.07 2261.03c0,0 -247.46,35.47 -267.17,-118.99 -19.7,-154.46 -64.91,-253.91 92.26,-283.08 157.18,-29.15 195.45,25.86 214.56,75.82 19.11,49.96 24.2,313.04 -39.66,326.25z"/>
  <polygon class="fil21" points="2861.43,3405.76 2880.34,3411.71 3035.39,2916.1 3016.48,2910.19 "/>
  <polygon class="fil21" points="2335.83,3373.44 2880.71,3379.12 2880.34,3411.71 2335.48,3406.03 "/>
  <path class="fil17" d="M1584 1862.08c-2.02,-2.31 -6.62,-4.2 -16.9,-4.84 0,0 8.27,-5.08 19.26,-5.26 2.25,-14.28 10.1,-39.53 34.73,-45.49 0,0 -13.29,6.95 -15.13,22.14 28.73,-29.06 89.98,-49.88 259.01,-35.2 222.76,19.35 148.2,161.49 119.18,178.27 -28.96,16.79 -101.25,-30.43 -155.04,-26.59 -53.8,3.84 -64.64,81.46 -82.97,91.97 -18.32,10.52 -11,-8.27 -35.58,-19.63 -24.59,-11.35 -27.28,29.53 -20.34,56.17 6.89,26.64 -27.27,61.43 -27.27,61.43 0,0 0,0 -33.98,-37.17 -33.98,-37.17 -65.03,-193.73 -49.18,-226.93 1.37,-2.93 2.75,-5.91 4.21,-8.89z"/>
  <path class="fil15" d="M1957.5 3465.11c0,0 -35.62,20.85 -100.85,45.6 -282.35,-206.01 -280.82,-693.66 -282.35,-702.01l354.6 312.3 11.7 180.32c1.97,9.58 3.11,18.92 2.29,28.19 -8.28,93.56 25.06,105.42 14.61,135.61z"/>
  <path class="fil5" d="M2468.68 3235.74c0,0 22.71,3.7 46.67,-7.57 23.97,-11.23 106.6,-46.74 122.14,-41.89 15.53,4.84 66.21,33.46 78.15,38.9 11.94,5.43 33.03,33.34 33.03,33.34 -8.75,8.83 -39.57,-11.42 -53.29,-11.04 -13.76,0.36 -115.36,55.85 -145.55,57.07 -30.2,1.22 -77.26,-4.97 -77.26,-4.97l-3.9 -63.85z"/>
  <path class="fil5" d="M2652.82 3240.15c0.28,1.65 37.13,42.76 65.23,29.71l-30.79 -30.42 -34.44 0.71z"/>
  <path class="fil5" d="M2515.35 3228.17c0,0 33.07,-30.62 44.02,-45.32 0,0 6.63,3 6.91,8.59 0.43,9.3 -8.68,26.4 -8.68,26.4l-42.25 10.33z"/>
  <path class="fil22" d="M1864.88 2500.57c-181.73,-110.67 -396.25,82.68 -306.07,275.46 104.6,223.5 278.68,496.09 417.02,512.21 98.61,11.46 380.41,47.6 499.79,25.33 0,0 57.82,2.85 26.45,-90.25 0,0 -385.61,-107.47 -449.7,-190.87 -34.33,-44.66 -92.81,-135.11 -183.26,-529.27 -0.36,-1.61 -2.8,-1.74 -4.22,-2.61z"/>
  <path class="fil23" d="M6751.81 4906.94l1.97 0c11.44,0 20.72,-9.46 20.47,-20.93l-31.04 -1343.92 -91.3 -10.69 77.89 1354.69c0.6,11.71 10.31,20.85 22.01,20.85z"/>
  <path class="fil23" d="M2261.11 4906.94l-1.94 0c-11.46,0 -20.73,-9.46 -20.45,-20.93l31.02 -1343.92 91.31 -10.69 -77.88 1354.69c-0.67,11.71 -10.32,20.85 -22.06,20.85z"/>
  <path class="fil23" d="M6831.42 3566.8l-4661.52 0c-33.89,0 -61.4,-27.51 -61.4,-61.4l0 -39.34c0,-33.93 27.51,-61.43 61.4,-61.43l4661.52 0c33.87,0 61.38,27.5 61.38,61.43l0 39.34c0,33.89 -27.51,61.4 -61.38,61.4z"/>
  <polygon class="fil24" points="6139,3404.62 5497.61,3404.62 5304.64,2924.8 5945.09,2924.8 "/>
  <polygon class="fil24" points="5490.07,3385.94 6337.08,3385.94 6337.08,3404.62 5497.61,3404.62 "/>
  <path class="fil2" d="M5659.52 3164.71c-4.81,-16.86 4.93,-30.55 21.79,-30.55 16.87,0 34.44,13.68 39.3,30.55 4.84,16.88 -4.94,30.55 -21.81,30.55 -16.86,0 -34.43,-13.67 -39.29,-30.55z"/>
  <g id="_3029838628336">
   <path class="fil3" d="M7749.66 4454.82c0,0 -63.2,-83.64 -3.9,-136.75 0,0 43.3,-29.76 78.63,-27.34 0,0 -50.07,95.19 -33.87,104.67 16.2,9.46 49.03,-110.63 49.03,-110.63 0,0 98.59,-10.87 130.27,6.45 0,0 -84.25,78.19 -66.49,82.85 17.76,4.66 108.74,-72.1 108.74,-72.1 0,0 91.76,17.69 86.86,81.18 -4.9,63.48 -36.48,83.08 -50.38,81.4 -13.92,-1.68 -95.19,-36.88 -96.96,-23.95 -1.72,12.9 47.15,55.11 81.43,57.09 0,0 -64.71,80.91 -107.64,57.55 -43.04,-23.35 -46.69,-60.36 -73.46,-74.24 -26.78,-13.9 -49.71,-13.85 -38.61,0.29 11.04,14.18 59.55,27.91 74.87,58.66 15.32,30.76 29.08,51.49 -15.37,43.9 -44.5,-7.58 -116.82,-44.49 -120,-86.76 -3.13,-42.27 -3.13,-42.27 -3.13,-42.27z"/>
   <path class="fil3" d="M8053.84 4384.87c0,0 -249.16,-10.89 -304.19,69.96 0,0 -12.19,41.33 -49.65,78.99l-5.84 18.04c0,0 43.2,-51.65 58.62,-54.76 0,0 -24.12,-100.15 301.06,-112.23z"/>
   <path class="fil3" d="M7700 4533.81c0,0 -53.46,44.87 -57.16,125.02l9.69 1c0,0 17.09,-82.89 47.94,-115.32 30.9,-32.41 -0.47,-10.7 -0.47,-10.7z"/>
   <path class="fil3" d="M7528.69 4349.64c0,0 100.5,-63.86 53.61,-150.51 0,0 -37.52,-53.22 -77.74,-66.9 0,0 21.42,129.22 0,132.28 -21.41,3.03 -14.75,-145.97 -14.75,-145.97 0,0 -105.87,-57.8 -147.45,-53.22 0,0 65.7,126.18 44.28,123.15 -21.47,-3.03 -95.19,-130.76 -95.19,-130.76 0,0 -108.58,-22.82 -125.98,50.17 -17.45,72.98 10.73,109.47 26.78,114.02 16.1,4.58 119.32,3.06 116.61,18.26 -2.66,15.2 -72.38,39.53 -111.24,25.85 0,0 42.88,120.11 99.21,114.02 56.27,-6.07 73.73,-45.6 108.53,-48.64 34.86,-3.07 60.34,7.58 42.93,18.23 -17.45,10.66 -76.43,3.49 -104.57,30.65 -28.13,27.12 -50.9,43.86 1.36,56.01 52.26,12.16 146.1,4.58 164.86,-41.05 18.76,-45.61 18.76,-45.61 18.76,-45.61z"/>
   <path class="fil3" d="M7215.08 4130.71c0,0 281.46,103.37 313.62,218.93 0,0 -1.36,51.7 26.83,110.99l0 22.82c0,0 -29.54,-77.55 -45.59,-88.19 0,0 62.99,-100.35 -294.86,-264.54z"/>
   <path class="fil3" d="M7555.52 4460.63c0,0 43.41,74.78 18.66,165.79l-11.15 -3.38c0,0 10.79,-100.25 -11.88,-150.68 -22.72,-50.43 4.38,-11.73 4.38,-11.73z"/>
   <path class="fil3" d="M7688.65 4261.59c0,0 -132.56,-84.19 -70.71,-198.43 0,0 49.44,-70.14 102.49,-88.19 0,0 -28.3,170.38 0,174.36 28.29,4 19.43,-192.41 19.43,-192.41 0,0 139.59,-76.14 194.35,-70.12 0,0 -86.6,166.33 -58.3,162.33 28.23,-4.01 125.41,-172.36 125.41,-172.36 0,0 143.13,-30.07 166.11,66.15 22.97,96.19 -14.12,144.28 -35.33,150.3 -21.21,6.01 -157.25,4.01 -153.71,24.06 3.55,20.05 95.4,52.11 146.63,34.06 0,0 -56.54,158.35 -130.73,150.33 -74.19,-8.02 -97.17,-60.12 -143.13,-64.14 -45.91,-4.01 -79.46,10.03 -56.54,24.07 22.98,14.01 100.72,4.57 137.82,40.36 37.1,35.77 67.11,57.83 -1.77,73.87 -68.89,16.04 -192.58,6.01 -217.33,-54.12 -24.69,-60.12 -24.69,-60.12 -24.69,-60.12z"/>
   <path class="fil3" d="M8102.09 3972.96c0,0 -371.08,136.29 -413.44,288.63 0,0 1.72,68.14 -35.38,146.28l0 30.08c0,0 38.87,-102.21 60.08,-116.25 0,0 -83.06,-132.28 388.75,-348.74z"/>
   <path class="fil3" d="M7653.27 4407.87c0,0 -57.21,98.58 -24.59,218.55l14.75 -4.47c0,0 -14.27,-132.17 15.63,-198.64 29.91,-66.46 -5.78,-15.44 -5.78,-15.44z"/>
   <path class="fil3" d="M7684.16 4886.62c143.34,0 259.58,-131.84 259.58,-294.45l-519.16 0c0,162.61 116.19,294.45 259.58,294.45z"/>
   <path class="fil3" d="M7947.29 4901.61l-526.29 0 0 0c0,-20.08 14.33,-36.33 32.04,-36.33l462.27 0c17.66,0 31.99,16.25 31.99,36.33l0 0z"/>
   <polygon class="fil3" points="7416.04,4601.2 7949.61,4601.2 7949.61,4592.17 7416.04,4592.17 "/>
  </g>
  <path class="fil25" d="M8155.91 4914.71l0 4.62c0,7.41 -3.8,13.52 -8.41,13.52l-7413.85 0c-4.62,0 -8.42,-6.11 -8.42,-13.52l0 -4.62c0,-7.44 3.8,-13.51 8.42,-13.51l7413.85 0c4.61,0 8.41,6.07 8.41,13.51z"/>
  <g id="_3029838635504">
   <path class="fil26" d="M7972.36 3146.13l62.57 229.57c0.92,3.38 1.25,6.81 1.06,10.12 -0.79,12.07 -8.65,22.89 -20.33,26.41l-379.85 114.08c-11.81,3.54 -23.96,-1.38 -30.62,-11.28 -1.85,-2.65 -3.24,-5.69 -4.16,-9l-62.57 -229.47c-4.29,-15.71 4.35,-32.04 19.33,-36.52l379.78 -114.08c14.92,-4.48 30.42,4.52 34.78,20.18z"/>
   <path class="fil22" d="M8035.99 3385.81c-0.79,12.07 -8.65,22.89 -20.33,26.41l-379.85 114.08c-11.81,3.54 -23.96,-1.38 -30.62,-11.28l193.45 -184.99 237.34 55.78z"/>
   <path class="fil3" d="M7972.36 3146.13l-170.02 221.63 -260.65 -79.47 -3.23 -11.74c-4.29,-15.71 4.35,-32.04 19.33,-36.52l379.78 -114.08c14.92,-4.48 30.42,4.52 34.78,20.18z"/>
  </g>
  <path class="fil3" d="M7191.65 915.17c36.93,15.54 59.92,46.34 65.58,78.42 19.66,112.47 -97.05,183.37 -179.76,111.43 -20.95,-18.7 -34.75,-46.26 -34.92,-82.47 0.05,-84.16 78.5,-137.02 149.09,-107.38zm223.5 105.95l-8.99 -49.8 -0.23 -1.19c-1.13,-6.05 -6.36,-10.25 -12.19,-9.76l-40.19 3.33c-0.68,0.06 -1.33,0.06 -1.96,0 -4.45,-0.48 -8.37,-3.61 -9.72,-8.17 -8.31,-26.75 -21.55,-51.45 -39.08,-72.73 -0.71,-0.88 -1.3,-1.86 -1.74,-2.86 -1.65,-3.84 -1.27,-8.47 1.09,-12.01l19.55 -28.75c2.55,-3.81 2.74,-8.8 0.75,-12.74 -0.64,-1.18 -1.46,-2.35 -2.5,-3.34l-36.84 -34.4c-4.52,-4.24 -11.49,-4.14 -15.92,0.29l-32.48 32.35c-3.21,3.18 -7.85,4.13 -11.97,2.44 -5.96,-2.35 -11.98,-4.47 -18.21,-6.28 -11.67,-3.39 -23.37,-5.6 -34.99,-6.74l-0.06 -0.02c-4.85,-0.47 -8.86,-3.94 -10.18,-8.86l-12.26 -45.96 -0.64 -2.3c-1.52,-5.92 -7.23,-9.69 -13.05,-8.53l-48.51 9.65c-5.89,1.21 -10.05,6.86 -9.57,13.15l3.52 46.96c0.4,5.23 -2.43,10.13 -6.98,12.11 -19.14,8.7 -36.93,20.4 -52.65,34.83 -4.04,3.62 -9.86,3.92 -14.23,0.66l-32.52 -24.25c-4.96,-3.68 -11.65,-2.82 -15.61,1.88l-32.94 38.81c-3.88,4.6 -3.76,11.55 0.25,15.94l36.16 40.13c3.09,3.38 4.04,8.33 2.52,12.74 -1.9,5.42 -3.6,10.97 -5.1,16.64 -2.82,10.7 -4.8,21.39 -5.99,32 -0.5,4.84 -3.72,8.89 -8.19,10.14l-52.63 15.42c-5.8,1.74 -9.34,7.75 -8.24,13.92l9.2 51.1c1.02,5.39 5.42,9.41 10.53,9.78 0.54,0.03 1.12,0.07 1.67,-0.02l49.65 -4.08c4.61,-0.4 9.01,2.06 11.14,6.35 0.2,0.37 0.4,0.75 0.53,1.15 0.46,1.19 0.88,2.31 1.46,3.48 5.61,13.83 12.7,27.02 21.01,39.34 2.85,4.06 2.8,9.65 -0.07,13.79l-24.39 36.07c-3.48,5.09 -2.67,12.17 1.81,16.34l8.18 7.66 28.62 26.67c4.46,4.21 11.26,4.07 15.65,-0.25l32 -31.86c3.41,-3.44 8.44,-4.15 12.68,-1.99 11.07,5.7 22.93,10.45 35.33,14.05 9.2,2.67 18.53,4.63 27.75,5.87l2.56 9.65 10.58 39.55c1.26,4.9 5.39,8.35 10.05,8.65 0.99,0.1 1.96,0.01 2.96,-0.2l48.85 -9.6c5.77,-1.19 9.72,-6.77 9.32,-12.87l-2.47 -32.08c-0.4,-5.41 2.79,-10.59 7.7,-12.33 20.36,-7.23 39.43,-17.76 56.48,-31.17 4.04,-3.18 9.48,-3.29 13.4,-0.22l41.09 30.66c4.62,3.39 10.92,2.68 14.69,-1.78l33.24 -39.28c3.96,-4.64 3.85,-11.65 -0.21,-16.06l-37.64 -41.73c-3.27,-3.57 -4.07,-8.85 -2.11,-13.38 4.21,-9.67 7.67,-19.88 10.48,-30.52 1.51,-5.73 2.78,-11.46 3.81,-17.19 0.84,-4.5 3.98,-8.13 8.17,-9.4l50.45 -14.8c5.86,-1.73 9.47,-7.78 8.39,-14.06z"/>
  <path class="fil3" d="M4310.89 1019.72c53.59,22.55 86.96,67.26 95.18,113.81 28.53,163.23 -140.86,266.13 -260.9,161.73 -30.4,-27.15 -50.43,-67.15 -50.67,-119.7 0.08,-122.15 113.94,-198.87 216.4,-155.85zm324.37 153.77l-13.06 -72.28 -0.33 -1.72c-1.65,-8.79 -9.24,-14.89 -17.7,-14.17l-58.33 4.84c-0.98,0.09 -1.92,0.08 -2.85,-0.01 -6.44,-0.69 -12.13,-5.24 -14.09,-11.86 -12.06,-38.83 -31.28,-74.67 -56.72,-105.56 -1.04,-1.29 -1.88,-2.71 -2.53,-4.15 -2.4,-5.58 -1.83,-12.29 1.58,-17.43l28.38 -41.74c3.69,-5.53 3.97,-12.77 1.09,-18.48 -0.93,-1.72 -2.12,-3.41 -3.63,-4.85l-53.46 -49.94c-6.57,-6.15 -16.67,-6.01 -23.1,0.43l-47.15 46.95c-4.66,4.62 -11.39,6 -17.38,3.54 -8.65,-3.41 -17.4,-6.49 -26.43,-9.11 -16.95,-4.92 -33.91,-8.13 -50.79,-9.78l-0.09 -0.02c-7.05,-0.69 -12.86,-5.72 -14.78,-12.86l-17.8 -66.7 -0.93 -3.34c-2.22,-8.59 -10.5,-14.07 -18.94,-12.36l-70.41 13.99c-8.55,1.76 -14.59,9.96 -13.89,19.09l5.11 68.16c0.58,7.58 -3.52,14.7 -10.14,17.57 -27.77,12.63 -53.59,29.62 -76.41,50.55 -5.87,5.26 -14.32,5.69 -20.66,0.97l-47.19 -35.2c-7.2,-5.34 -16.91,-4.1 -22.67,2.72l-47.8 56.34c-5.63,6.67 -5.45,16.76 0.36,23.14l52.48 58.25c4.48,4.91 5.86,12.08 3.66,18.49 -2.76,7.87 -5.23,15.92 -7.4,24.15 -4.09,15.52 -6.97,31.04 -8.69,46.43 -0.74,7.02 -5.39,12.91 -11.88,14.71l-76.4 22.37c-8.41,2.53 -13.54,11.25 -11.96,20.21l13.36 74.16c1.47,7.83 7.85,13.66 15.27,14.19 0.78,0.04 1.62,0.1 2.42,-0.02l72.06 -5.92c6.7,-0.58 13.08,2.98 16.17,9.21 0.29,0.54 0.57,1.08 0.77,1.67 0.67,1.72 1.27,3.35 2.11,5.04 8.14,20.07 18.42,39.22 30.49,57.1 4.14,5.89 4.07,14 -0.1,20.02l-35.4 52.35c-5.05,7.4 -3.88,17.66 2.62,23.72l11.87 11.12 41.54 38.7c6.48,6.12 16.34,5.92 22.72,-0.36l46.44 -46.24c4.94,-4.99 12.25,-6.01 18.4,-2.88 16.07,8.28 33.29,15.16 51.27,20.39 13.36,3.88 26.91,6.72 40.29,8.52l3.71 14 15.36 57.41c1.82,7.12 7.82,12.11 14.59,12.55 1.43,0.14 2.85,0.01 4.3,-0.29l70.9 -13.93c8.38,-1.73 14.12,-9.83 13.53,-18.67l-3.58 -46.57c-0.59,-7.85 4.05,-15.37 11.17,-17.9 29.55,-10.5 57.24,-25.77 81.99,-45.24 5.87,-4.63 13.74,-4.78 19.45,-0.32l59.64 44.5c6.7,4.93 15.84,3.88 21.33,-2.57l48.24 -57.02c5.75,-6.74 5.58,-16.9 -0.31,-23.31l-54.63 -60.57c-4.73,-5.18 -5.91,-12.83 -3.06,-19.41 6.11,-14.04 11.12,-28.85 15.2,-44.29 2.19,-8.31 4.04,-16.62 5.54,-24.95 1.21,-6.53 5.77,-11.79 11.86,-13.64l73.22 -21.48c8.5,-2.51 13.74,-11.29 12.18,-20.41z"/>
  <path class="fil3" d="M6068.5 676.5c19.36,8.15 31.42,24.3 34.4,41.12 10.31,58.99 -50.9,96.17 -94.29,58.45 -10.99,-9.81 -18.22,-24.27 -18.31,-43.26 0.02,-44.14 41.17,-71.87 78.2,-56.31zm117.22 55.57l-4.72 -26.12 -0.12 -0.62c-0.6,-3.17 -3.34,-5.38 -6.4,-5.12l-21.08 1.75c-0.35,0.03 -0.7,0.03 -1.02,0 -2.33,-0.25 -4.38,-1.89 -5.1,-4.28 -4.35,-14.03 -11.3,-26.98 -20.5,-38.14 -0.37,-0.47 -0.68,-0.98 -0.91,-1.51 -0.87,-2.02 -0.67,-4.44 0.57,-6.29l10.26 -15.09c1.33,-1.99 1.44,-4.61 0.39,-6.67 -0.33,-0.62 -0.76,-1.23 -1.31,-1.75l-19.32 -18.04c-2.37,-2.23 -6.03,-2.17 -8.35,0.16l-17.04 16.97c-1.68,1.67 -4.11,2.17 -6.28,1.28 -3.13,-1.23 -6.29,-2.35 -9.55,-3.3 -6.12,-1.78 -12.26,-2.94 -18.35,-3.53l-0.03 -0.01c-2.55,-0.25 -4.65,-2.07 -5.34,-4.65l-6.43 -24.11 -0.33 -1.21c-0.8,-3.1 -3.8,-5.08 -6.85,-4.47l-25.45 5.06c-3.09,0.64 -5.27,3.6 -5.01,6.9l1.85 24.63c0.21,2.74 -1.27,5.31 -3.67,6.35 -10.03,4.56 -19.36,10.71 -27.61,18.27 -2.13,1.9 -5.18,2.06 -7.47,0.35l-17.06 -12.72c-2.6,-1.92 -6.11,-1.48 -8.19,0.99l-17.28 20.36c-2.04,2.41 -1.97,6.06 0.13,8.37l18.96 21.05c1.62,1.77 2.12,4.36 1.33,6.68 -1,2.84 -1.89,5.75 -2.68,8.72 -1.48,5.61 -2.52,11.22 -3.14,16.79 -0.26,2.53 -1.95,4.66 -4.29,5.32l-27.61 8.09c-3.03,0.91 -4.89,4.06 -4.32,7.3l4.82 26.8c0.54,2.83 2.84,4.94 5.53,5.13 0.28,0.02 0.58,0.04 0.87,-0.01l26.05 -2.14c2.42,-0.21 4.73,1.08 5.84,3.33 0.11,0.19 0.21,0.39 0.28,0.61 0.24,0.62 0.46,1.21 0.77,1.82 2.94,7.25 6.66,14.17 11.02,20.63 1.49,2.13 1.47,5.06 -0.04,7.24l-12.8 18.91c-1.82,2.67 -1.4,6.39 0.95,8.57l4.29 4.02 15.02 13.99c2.34,2.22 5.91,2.14 8.21,-0.12l16.78 -16.71c1.78,-1.81 4.43,-2.18 6.65,-1.04 5.81,2.99 12.03,5.48 18.53,7.37 4.83,1.4 9.72,2.43 14.56,3.08l1.34 5.06 5.55 20.74c0.66,2.57 2.82,4.38 5.28,4.53 0.51,0.05 1.02,0 1.55,-0.11l25.62 -5.03c3.03,-0.63 5.1,-3.55 4.89,-6.75l-1.3 -16.83c-0.21,-2.84 1.47,-5.56 4.04,-6.47 10.68,-3.79 20.68,-9.31 29.63,-16.34 2.12,-1.67 4.97,-1.73 7.03,-0.12l21.55 16.08c2.42,1.78 5.73,1.4 7.71,-0.92l17.43 -20.61c2.08,-2.44 2.02,-6.11 -0.11,-8.43l-19.74 -21.89c-1.72,-1.87 -2.13,-4.64 -1.1,-7.02 2.2,-5.08 4.01,-10.42 5.49,-16.01 0.79,-3 1.46,-6.01 2,-9.02 0.43,-2.35 2.09,-4.25 4.28,-4.92l26.46 -7.77c3.07,-0.91 4.97,-4.08 4.4,-7.37z"/>
  <g id="_3029838639536">
   <path class="fil3" d="M6238.96 347.05c0.81,74.58 27.97,142.71 72.53,195.63 38.56,45.77 60.32,103.31 60.96,163.13l0.94 86.25c0.59,54.84 45.91,99.23 100.77,98.63l159.57 -1.72c54.85,-0.6 99.21,-45.96 98.61,-100.8l-0.93 -86.4c-0.65,-59.94 20.2,-117.9 57.69,-164.65 43.57,-54.26 69.2,-123.51 67.93,-198.64 -2.82,-170.44 -141.87,-305.7 -312.37,-303.85 -18.91,0.21 -37.46,2.12 -55.37,5.59 -4.04,0.76 -7.96,1.6 -11.88,2.52 -137.98,32.23 -240.03,156.75 -238.44,304.3z"/>
   <path class="fil3" d="M6633.15 888.98l-0.31 2.65 -4.03 33.65 -1.04 8.87 0 0.07 -1.1 8.93 -4.02 33.64 -1.04 8.86 0 0.07 -1.05 8.95 -0.63 4.92c-2.03,17.07 -21.38,30.31 -44.68,30.56l-52.53 0.57c-5.53,0.06 -10.83,-0.62 -15.8,-1.92l0 0c-4.45,-1.16 -8.58,-2.85 -12.3,-4.95l-0.29 -0.16c-2.98,-1.72 -5.68,-3.73 -7.99,-5.98 -4.77,-4.59 -7.92,-10.14 -8.89,-16.26l-2.02 -13 -1.29 -8.2 0 -0.02 0 -0.18 0 -0.02 -1.23 -8.01 -4.78 -31.1 -1.29 -8.16 0 -0.18 -1.28 -8.06 -5.21 -33.69 172.78 -1.86z"/>
   <path class="fil22" d="M6494.34 1023.69l0.29 0.16c3.73,2.1 7.85,3.79 12.3,4.95l0 0c24.19,-7.23 60.15,-18.03 113.63,-34.13l1.05 -8.94 0 -0.08 1.04 -8.86c-47.7,14.38 -102.5,30.86 -136.29,40.94 2.29,2.22 5,4.24 7.98,5.96zm117.96 -134.5l-29.69 0.32c-47.76,14.37 -95.07,28.56 -117.05,35.02l1.29 8.06 0 0.19 1.3 8.16c17.71,-5.13 60.42,-17.86 164.69,-49.3l0.31 -2.66 -20.85 0.23zm-138.14 90.86l0 0.01 0 0.19 0 0.02 1.27 8.2c20.56,-6.01 62.93,-18.68 151.24,-45.3l1.1 -8.93 0 -0.08 1.05 -8.86c-55.82,16.82 -123.29,37.1 -155.89,46.74l1.23 8.02z"/>
   <polygon class="fil11" points="6491.66,891.67 6420.39,496.99 6434.15,494.51 6505.42,889.19 "/>
   <polygon class="fil11" points="6610.04,890.48 6596.23,888.12 6663.28,498.18 6677.03,500.54 "/>
   <path class="fil11" d="M6633 511.82c-7.27,7.13 -12.19,16.24 -11.72,23.2 0.34,5.05 3.4,8.64 9.12,10.66 3.09,1.12 5.25,0.25 6.7,-2.69 3.17,-6.53 1.66,-20.42 -4.1,-31.18zm-156.18 -1.01c-7.33,6.67 -11.39,16 -12.21,24.52 -0.67,7.23 1.16,13.07 4.48,14.22 5.38,1.85 9.35,0.6 11.64,-3.76 4.25,-7.9 2.48,-22.99 -3.91,-34.98zm53.07 12.83c-3.82,4.87 -6.85,9.99 -8.39,14.79 -3.08,9.49 -0.45,15.86 8.02,18.94 3.37,1.23 7.89,2.2 10.02,-0.27 3.27,-3.8 1.21,-14.48 -5.01,-25.96 -1.4,-2.55 -2.96,-5.06 -4.64,-7.5zm61.13 -0.36c-8.24,12.3 -13.96,26.18 -12.52,33.57 0.43,2.34 1.58,3.64 3.63,4.09 8.34,1.78 13.39,-0.68 15.08,-7.36 1.97,-7.71 -0.84,-19.69 -6.19,-30.31zm-3.7 42.47c-1.82,0.02 -3.82,-0.19 -6.05,-0.67 -3.77,-0.81 -6.19,-3.38 -6.91,-7.42 -1.69,-8.72 4.97,-24.82 14.45,-38.5 -5.17,-8.72 -11.91,-15.9 -18.94,-17.95 -10.46,-3.03 -26.25,6.72 -37.23,19.08 2.08,2.85 3.93,5.83 5.56,8.82 5.81,10.67 10.07,24.34 4.49,30.74 -2.03,2.37 -6.22,4.56 -14.63,1.48 -10.52,-3.84 -14.38,-12.67 -10.63,-24.23 1.88,-5.67 5.35,-11.57 9.79,-17.07 -8.72,-11.11 -20.32,-19.5 -31.59,-17.95 -6.03,0.83 -11.19,3 -15.49,6.03 7.38,13.38 9.22,30.45 4.31,39.67 -3.35,6.29 -9.31,8.32 -16.75,5.76 -5.37,-1.84 -8.19,-9.15 -7.26,-18.63 0.92,-9.7 5.65,-20.36 14.17,-27.82 -2.26,-3.48 -5.03,-6.56 -8.13,-8.92 -19.64,-14.92 -35.59,1.48 -36.27,2.2l-3.05 -2.91c0.23,-0.2 19.27,-19.84 41.9,-2.65 3.39,2.6 6.39,5.93 8.88,9.69 4.76,-3.31 10.42,-5.67 17.14,-6.59 12.63,-1.73 25.38,7.08 34.9,18.88 11.94,-13.25 28.98,-23.11 41.04,-19.63 7.61,2.21 14.8,9.44 20.43,18.39 5,-6.64 10.58,-12.46 16.06,-16.17 8.76,-5.94 14.53,-4.66 17.8,-2.55 3.38,2.17 6.32,5.11 8.69,8.49 2.65,-2.14 5.37,-3.97 8.15,-5.39 10.14,-5.21 19.54,-4.93 26.44,0.77l-2.7 3.26c-7.41,-6.15 -16.83,-2.8 -21.82,-0.26 -2.72,1.4 -5.38,3.16 -7.81,5.18 6.91,12.2 8.46,28.19 4.61,35.99 -2.4,4.9 -6.77,6.64 -11.91,4.82 -9.27,-3.28 -11.61,-9.62 -11.89,-14.37 -0.61,-9.07 5.54,-19.46 13.72,-27.17 -2.2,-3.14 -4.8,-5.84 -7.72,-7.76 -4.07,-2.58 -9.4,-0.07 -13.19,2.49 -5.48,3.7 -11.11,9.76 -16.17,16.62 6.45,12 9.91,26.04 7.61,35.13 -1.15,4.42 -4.44,11.02 -14.01,11.13z"/>
  </g>
  <g id="_3029838643952">
   <polygon class="fil22" points="4864.35,2224.56 4779.63,2224.56 4779.63,1897.42 4864.35,1897.42 "/>
   <path class="fil22" d="M4790.22 1865l59.68 0c5.82,0 10.59,-5 10.59,-11.11l0 0c0,-6.11 -4.77,-11.12 -10.59,-11.12l-59.68 0c-5.82,0 -10.59,5.01 -10.59,11.12l0 0c0,6.12 4.77,11.11 10.59,11.11z"/>
   <polygon class="fil22" points="5010.4,2224.56 4925.68,2224.56 4925.68,1640.52 5010.4,1640.52 "/>
   <path class="fil22" d="M4938.19 1616.28l59.68 0c5.82,0 10.59,-5.01 10.59,-11.12l0 0c0,-6.12 -4.77,-11.11 -10.59,-11.11l-59.68 0c-5.82,0 -10.58,5 -10.58,11.11l0 0c0,6.12 4.76,11.12 10.58,11.12z"/>
   <polygon class="fil22" points="5150.35,2224.56 5065.64,2224.56 5065.64,1233.82 5150.35,1233.82 "/>
   <path class="fil22" d="M5078.16 1206.8l59.69 0c5.81,0 10.59,-5 10.59,-11.12l0 0c0,-6.11 -4.77,-11.11 -10.59,-11.11l-59.69 0c-5.83,0 -10.59,5.01 -10.59,11.11l0 0c0,6.12 4.76,11.12 10.59,11.12z"/>
   <polygon class="fil22" points="5294.01,2224.56 5209.29,2224.56 5209.29,1413.58 5294.01,1413.58 "/>
   <path class="fil22" d="M5221.8 1391.88l59.69 0c5.81,0 10.59,-5.01 10.59,-11.11l0 0c0,-6.12 -4.77,-11.12 -10.59,-11.12l-59.69 0c-5.83,0 -10.59,5 -10.59,11.12l0 0c0,6.11 4.76,11.11 10.59,11.11z"/>
   <polygon class="fil22" points="5433.97,2224.56 5349.25,2224.56 5349.25,963.54 5433.97,963.54 "/>
   <path class="fil22" d="M5361.77 939.38l59.68 0c5.83,0 10.59,-5 10.59,-11.11l0 0c0,-6.11 -4.76,-11.12 -10.59,-11.12l-59.68 0c-5.83,0 -10.59,5.01 -10.59,11.12l0 0c0,6.12 4.77,11.11 10.59,11.11z"/>
   <polygon class="fil22" points="5570.25,2224.56 5485.54,2224.56 5485.54,1160.48 5570.25,1160.48 "/>
   <path class="fil22" d="M5498.04 1137.84l59.69 0c5.83,0 10.59,-5 10.59,-11.11l0 0c0,-6.12 -4.76,-11.12 -10.59,-11.12l-59.69 0c-5.81,0 -10.59,5 -10.59,11.12l0 0c0,6.11 4.77,11.11 10.59,11.11z"/>
  </g>
  <g id="_3029836810336">
   <path class="fil3" d="M273.1 3624.73c15.49,-42.17 60.63,-64.39 100.8,-49.63 40.19,14.76 60.19,60.91 44.69,103.09 -15.49,42.17 -60.61,64.4 -100.8,49.63 -40.17,-14.75 -60.19,-60.91 -44.69,-103.09z"/>
   <path class="fil24" d="M333.75 3612.24c4.97,-13.53 19.46,-20.67 32.35,-15.93 12.89,4.73 19.32,19.55 14.34,33.08 -4.97,13.53 -19.46,20.67 -32.35,15.93 -12.89,-4.74 -19.32,-19.56 -14.34,-33.09z"/>
   <path class="fil24" d="M348.09 3645.34c-22.56,-8.29 -47.91,4.19 -56.62,27.88l81.72 30.03c8.71,-23.69 -2.53,-49.61 -25.11,-57.9z"/>
   <path class="fil3" d="M327.73 3120.69c1.56,-2.11 4.44,-2.56 6.43,-1 1.99,1.55 2.32,4.52 0.76,6.64 -1.55,2.11 -4.44,2.56 -6.43,1 -1.99,-1.55 -2.34,-4.53 -0.77,-6.64z"/>
   <path class="fil3" d="M344.39 3133.73c1.57,-2.11 4.45,-2.56 6.43,-1.01 1.99,1.56 2.34,4.53 0.77,6.64 -1.56,2.12 -4.44,2.57 -6.43,1.01 -1.99,-1.56 -2.33,-4.53 -0.77,-6.64z"/>
   <path class="fil3" d="M362.02 3153.59c-1.98,-1.56 -2.33,-4.53 -0.77,-6.64 1.58,-2.11 4.45,-2.57 6.44,-1.01 1.98,1.56 2.33,4.53 0.77,6.65 -1.57,2.11 -4.45,2.56 -6.44,1z"/>
   <path class="fil3" d="M378.13 3160.17c1.56,-2.11 4.44,-2.56 6.43,-1.01 1.99,1.56 2.32,4.53 0.76,6.64 -1.56,2.11 -4.44,2.56 -6.43,1.01 -1.99,-1.55 -2.34,-4.53 -0.77,-6.64z"/>
   <path class="fil3" d="M394.79 3173.21c1.57,-2.11 4.45,-2.56 6.43,-1.01 1.99,1.56 2.34,4.53 0.78,6.64 -1.57,2.12 -4.45,2.56 -6.44,1 -1.99,-1.55 -2.32,-4.52 -0.76,-6.64z"/>
   <path class="fil3" d="M412.42 3193.07c-1.98,-1.56 -2.33,-4.53 -0.77,-6.64 1.57,-2.12 4.45,-2.56 6.44,-1.01 1.99,1.56 2.33,4.53 0.77,6.64 -1.58,2.11 -4.45,2.57 -6.44,1.01z"/>
   <path class="fil3" d="M427.85 3199.12c1.57,-2.12 4.45,-2.57 6.44,-1.01 1.99,1.56 2.32,4.53 0.76,6.64 -1.57,2.11 -4.45,2.56 -6.43,1 -1.99,-1.55 -2.34,-4.53 -0.78,-6.64z"/>
   <path class="fil3" d="M444.51 3212.17c1.57,-2.12 4.45,-2.57 6.43,-1.01 1.99,1.55 2.34,4.53 0.77,6.64 -1.56,2.11 -4.44,2.56 -6.43,1 -1.99,-1.55 -2.33,-4.52 -0.77,-6.64z"/>
   <path class="fil3" d="M462.14 3232.02c-1.99,-1.55 -2.34,-4.53 -0.77,-6.64 1.56,-2.11 4.44,-2.56 6.43,-1 1.99,1.55 2.34,4.53 0.77,6.64 -1.56,2.11 -4.44,2.56 -6.43,1z"/>
   <path class="fil3" d="M478.25 3238.59c1.56,-2.11 4.44,-2.56 6.42,-1 2,1.56 2.34,4.53 0.78,6.64 -1.57,2.11 -4.45,2.56 -6.43,1 -1.99,-1.55 -2.34,-4.52 -0.77,-6.64z"/>
   <path class="fil3" d="M494.91 3251.64c1.56,-2.11 4.44,-2.56 6.43,-1 1.99,1.55 2.34,4.53 0.77,6.64 -1.56,2.11 -4.44,2.56 -6.43,1 -1.99,-1.55 -2.32,-4.52 -0.76,-6.64z"/>
   <path class="fil3" d="M512.54 3271.5c-1.99,-1.55 -2.33,-4.53 -0.77,-6.64 1.56,-2.11 4.44,-2.56 6.43,-1 1.99,1.55 2.33,4.52 0.76,6.64 -1.56,2.1 -4.44,2.56 -6.43,1z"/>
   <path class="fil3" d="M528.69 3278.11c1.57,-2.12 4.45,-2.56 6.43,-1.01 1.98,1.55 2.33,4.53 0.77,6.64 -1.57,2.11 -4.45,2.56 -6.44,1 -1.98,-1.55 -2.32,-4.52 -0.76,-6.64z"/>
   <path class="fil3" d="M545.35 3291.15c1.56,-2.11 4.44,-2.56 6.43,-1 1.99,1.56 2.33,4.53 0.77,6.64 -1.57,2.11 -4.45,2.56 -6.43,1 -1.99,-1.55 -2.34,-4.53 -0.77,-6.64z"/>
   <path class="fil3" d="M562.99 3311.01c-1.99,-1.55 -2.33,-4.52 -0.77,-6.64 1.57,-2.11 4.44,-2.56 6.43,-1 1.99,1.56 2.32,4.52 0.75,6.64 -1.54,2.12 -4.43,2.56 -6.42,1z"/>
   <path class="fil3" d="M579.09 3317.59c1.57,-2.11 4.43,-2.57 6.43,-1.02 1.99,1.56 2.34,4.54 0.78,6.65 -1.57,2.11 -4.45,2.56 -6.44,1 -1.99,-1.56 -2.33,-4.53 -0.76,-6.64z"/>
   <path class="fil3" d="M595.75 3330.63c1.54,-2.12 4.43,-2.57 6.43,-1.01 1.99,1.56 2.32,4.52 0.75,6.64 -1.57,2.11 -4.43,2.57 -6.42,1.01 -1.99,-1.55 -2.33,-4.52 -0.76,-6.64z"/>
   <path class="fil3" d="M613.38 3350.49c-1.99,-1.56 -2.33,-4.53 -0.76,-6.64 1.57,-2.11 4.43,-2.57 6.43,-1.01 1.99,1.56 2.32,4.53 0.78,6.65 -1.57,2.11 -4.45,2.56 -6.44,1z"/>
   <path class="fil3" d="M628.81 3356.53c1.57,-2.11 4.43,-2.57 6.45,-1 1.96,1.54 2.32,4.52 0.75,6.64 -1.57,2.11 -4.43,2.57 -6.44,1 -1.97,-1.54 -2.33,-4.52 -0.76,-6.64z"/>
   <path class="fil3" d="M645.47 3369.58c1.57,-2.11 4.43,-2.57 6.42,-1.01 1.99,1.56 2.33,4.53 0.78,6.65 -1.57,2.11 -4.45,2.55 -6.44,0.99 -1.99,-1.55 -2.33,-4.52 -0.76,-6.64z"/>
   <path class="fil3" d="M663.12 3389.44c-1.99,-1.56 -2.35,-4.53 -0.78,-6.64 1.57,-2.11 4.45,-2.56 6.42,-1.01 1.99,1.55 2.35,4.54 0.78,6.64 -1.57,2.11 -4.45,2.56 -6.42,1.01z"/>
   <path class="fil3" d="M679.2 3396c1.57,-2.11 4.45,-2.55 6.44,-1 1.99,1.56 2.33,4.53 0.76,6.64 -1.54,2.12 -4.43,2.57 -6.42,1.01 -1.99,-1.56 -2.35,-4.54 -0.78,-6.65z"/>
   <path class="fil3" d="M695.86 3409.06c1.57,-2.12 4.45,-2.56 6.42,-1.01 1.99,1.55 2.35,4.53 0.78,6.64 -1.57,2.11 -4.45,2.56 -6.42,1.01 -2.02,-1.57 -2.35,-4.54 -0.78,-6.64z"/>
   <path class="fil3" d="M713.51 3428.92c-1.99,-1.56 -2.33,-4.53 -0.78,-6.65 1.57,-2.11 4.45,-2.55 6.44,-0.99 1.99,1.55 2.33,4.52 0.76,6.64 -1.57,2.11 -4.43,2.57 -6.42,1.01z"/>
   <path class="fil3" d="M425.51 3592.07c-1.36,-2.16 -0.75,-5.12 1.39,-6.6 2.13,-1.48 4.96,-0.94 6.33,1.23 1.36,2.17 0.75,5.12 -1.39,6.6 -2.13,1.49 -4.96,0.94 -6.33,-1.23z"/>
   <path class="fil3" d="M443.35 3579.62c-1.37,-2.16 -0.75,-5.11 1.38,-6.6 2.13,-1.48 4.96,-0.94 6.33,1.23 1.37,2.17 0.75,5.12 -1.37,6.61 -2.13,1.48 -4.97,0.93 -6.33,-1.23z"/>
   <path class="fil3" d="M467.75 3568.24c-2.13,1.48 -4.97,0.93 -6.33,-1.23 -1.37,-2.16 -0.75,-5.12 1.38,-6.6 2.13,-1.48 4.97,-0.93 6.33,1.23 1.37,2.17 0.75,5.12 -1.37,6.61z"/>
   <path class="fil3" d="M479.48 3554.4c-1.35,-2.16 -0.74,-5.11 1.4,-6.6 2.1,-1.49 4.97,-0.93 6.32,1.23 1.37,2.17 0.75,5.12 -1.37,6.61 -2.13,1.48 -4.97,0.93 -6.34,-1.23z"/>
   <path class="fil3" d="M497.31 3541.95c-1.34,-2.15 -0.74,-5.11 1.37,-6.6 2.13,-1.49 4.99,-0.93 6.34,1.23 1.37,2.17 0.76,5.13 -1.37,6.61 -2.13,1.48 -4.97,0.93 -6.34,-1.23z"/>
   <path class="fil3" d="M521.71 3530.56c-2.13,1.49 -4.97,0.94 -6.32,-1.22 -1.37,-2.17 -0.76,-5.12 1.37,-6.61 2.13,-1.48 4.97,-0.93 6.34,1.23 1.34,2.16 0.73,5.11 -1.4,6.6z"/>
   <path class="fil3" d="M533.5 3516.69c-1.37,-2.17 -0.74,-5.11 1.4,-6.6 2.13,-1.48 4.97,-0.93 6.32,1.23 1.37,2.17 0.75,5.12 -1.37,6.61 -2.13,1.48 -4.97,0.93 -6.34,-1.23z"/>
   <path class="fil3" d="M551.33 3504.24c-1.37,-2.17 -0.73,-5.11 1.4,-6.6 2.13,-1.49 4.94,-0.95 6.32,1.22 1.37,2.17 0.76,5.13 -1.37,6.61 -2.13,1.48 -4.97,0.93 -6.34,-1.23z"/>
   <path class="fil3" d="M575.73 3492.86c-2.13,1.49 -4.97,0.94 -6.34,-1.23 -1.34,-2.16 -0.74,-5.11 1.4,-6.6 2.13,-1.48 4.97,-0.93 6.34,1.23 1.34,2.16 0.74,5.11 -1.4,6.6z"/>
   <path class="fil3" d="M587.47 3479.03c-1.37,-2.17 -0.74,-5.12 1.37,-6.61 2.13,-1.49 4.97,-0.94 6.34,1.23 1.37,2.17 0.75,5.13 -1.37,6.61 -2.13,1.48 -4.97,0.93 -6.34,-1.23z"/>
   <path class="fil3" d="M605.31 3466.58c-1.37,-2.17 -0.75,-5.13 1.37,-6.61 2.13,-1.48 4.97,-0.93 6.34,1.23 1.37,2.17 0.74,5.11 -1.37,6.61 -2.13,1.48 -4.99,0.92 -6.34,-1.23z"/>
   <path class="fil3" d="M629.71 3455.2c-2.13,1.48 -4.97,0.93 -6.34,-1.23 -1.34,-2.16 -0.74,-5.11 1.4,-6.6 2.13,-1.49 4.94,-0.95 6.32,1.22 1.37,2.17 0.76,5.13 -1.37,6.61z"/>
   <path class="fil3" d="M640.71 3441.86c-1.35,-2.17 -0.74,-5.12 1.4,-6.6 2.13,-1.48 4.97,-0.94 6.31,1.22 1.37,2.17 0.76,5.13 -1.37,6.61 -2.13,1.48 -4.97,0.93 -6.34,-1.23z"/>
   <path class="fil3" d="M658.55 3429.41c-1.37,-2.17 -0.74,-5.12 1.4,-6.6 2.13,-1.48 4.94,-0.94 6.32,1.22 1.37,2.17 0.76,5.13 -1.37,6.61 -2.13,1.49 -4.97,0.94 -6.34,-1.23z"/>
   <path class="fil3" d="M682.95 3418.03c-2.13,1.48 -4.97,0.93 -6.32,-1.23 -1.37,-2.17 -0.76,-5.12 1.37,-6.61 2.13,-1.48 4.97,-0.93 6.34,1.23 1.34,2.16 0.73,5.11 -1.4,6.6z"/>
   <path class="fil3" d="M694.69 3404.19c-1.37,-2.17 -0.74,-5.12 1.37,-6.61 2.13,-1.48 4.97,-0.93 6.33,1.23 1.37,2.17 0.76,5.12 -1.37,6.6 -2.16,1.47 -4.97,0.94 -6.34,-1.23z"/>
   <path class="fil3" d="M712.52 3391.74c-1.37,-2.17 -0.75,-5.12 1.37,-6.61 2.13,-1.48 4.97,-0.93 6.34,1.23 1.37,2.17 0.74,5.11 -1.37,6.61 -2.15,1.47 -4.97,0.93 -6.34,-1.23z"/>
   <path class="fil3" d="M736.92 3380.36c-2.13,1.49 -4.97,0.94 -6.34,-1.23 -1.35,-2.16 -0.74,-5.12 1.4,-6.6 2.13,-1.48 4.94,-0.94 6.32,1.22 1.37,2.17 0.76,5.13 -1.37,6.61z"/>
   <path class="fil3" d="M435.05 3675.33c0.52,-2.58 2.95,-4.31 5.42,-3.85 2.48,0.45 4.06,2.91 3.53,5.49 -0.5,2.59 -2.93,4.32 -5.41,3.86 -2.48,-0.46 -4.05,-2.91 -3.55,-5.5z"/>
   <path class="fil3" d="M455.79 3679.14c0.53,-2.58 2.96,-4.31 5.43,-3.85 2.48,0.45 4.06,2.91 3.53,5.49 -0.5,2.59 -2.93,4.32 -5.41,3.86 -2.48,-0.45 -4.05,-2.91 -3.55,-5.5z"/>
   <path class="fil3" d="M480.36 3688.51c-2.48,-0.46 -4.06,-2.92 -3.55,-5.51 0.53,-2.58 2.96,-4.3 5.43,-3.85 2.48,0.46 4.05,2.92 3.55,5.5 -0.53,2.58 -2.96,4.31 -5.43,3.86z"/>
   <path class="fil3" d="M497.82 3686.86c0.53,-2.58 2.96,-4.31 5.43,-3.85 2.48,0.45 4.07,2.92 3.55,5.5 -0.52,2.58 -2.95,4.31 -5.42,3.85 -2.48,-0.45 -4.06,-2.92 -3.55,-5.5z"/>
   <path class="fil3" d="M518.56 3690.68c0.52,-2.58 2.95,-4.31 5.42,-3.85 2.48,0.45 4.06,2.92 3.55,5.5 -0.52,2.58 -2.96,4.31 -5.43,3.85 -2.48,-0.45 -4.05,-2.91 -3.55,-5.5z"/>
   <path class="fil3" d="M543.13 3700.04c-2.48,-0.46 -4.05,-2.92 -3.55,-5.5 0.53,-2.58 2.96,-4.31 5.43,-3.86 2.48,0.46 4.06,2.92 3.55,5.51 -0.53,2.58 -2.96,4.3 -5.43,3.85z"/>
   <path class="fil3" d="M560.67 3698.41c0.5,-2.59 2.93,-4.32 5.4,-3.86 2.48,0.46 4.06,2.92 3.55,5.5 -0.52,2.58 -2.93,4.32 -5.41,3.86 -2.47,-0.45 -4.07,-2.92 -3.55,-5.5z"/>
   <path class="fil3" d="M581.4 3702.22c0.5,-2.58 2.93,-4.32 5.41,-3.86 2.48,0.46 4.06,2.92 3.55,5.5 -0.53,2.58 -2.93,4.32 -5.41,3.86 -2.5,-0.47 -4.07,-2.93 -3.55,-5.51z"/>
   <path class="fil3" d="M605.97 3711.59c-2.5,-0.47 -4.08,-2.92 -3.55,-5.5 0.5,-2.59 2.93,-4.32 5.41,-3.86 2.48,0.46 4.05,2.92 3.55,5.51 -0.53,2.58 -2.93,4.32 -5.41,3.86z"/>
   <path class="fil3" d="M623.44 3709.95c0.5,-2.58 2.93,-4.31 5.41,-3.86 2.48,0.46 4.07,2.93 3.55,5.5 -0.5,2.59 -2.93,4.32 -5.4,3.86 -2.5,-0.46 -4.08,-2.92 -3.55,-5.5z"/>
   <path class="fil3" d="M644.18 3713.76c0.5,-2.58 2.93,-4.31 5.4,-3.86 2.48,0.46 4.08,2.93 3.55,5.5 -0.5,2.59 -2.93,4.32 -5.43,3.86 -2.48,-0.46 -4.05,-2.92 -3.52,-5.5z"/>
   <path class="fil3" d="M668.74 3723.12c-2.5,-0.46 -4.07,-2.93 -3.55,-5.5 0.5,-2.59 2.93,-4.32 5.41,-3.86 2.48,0.45 4.08,2.92 3.55,5.5 -0.5,2.59 -2.93,4.32 -5.41,3.86z"/>
   <path class="fil3" d="M685.37 3721.33c0.52,-2.58 2.93,-4.32 5.41,-3.86 2.47,0.46 4.07,2.93 3.55,5.5 -0.52,2.58 -2.93,4.32 -5.42,3.86 -2.48,-0.46 -4.06,-2.92 -3.53,-5.49z"/>
   <path class="fil3" d="M706.1 3725.14c0.53,-2.58 2.93,-4.32 5.41,-3.86 2.48,0.46 4.08,2.93 3.55,5.51 -0.53,2.58 -2.96,4.3 -5.43,3.85 -2.45,-0.45 -4.05,-2.92 -3.53,-5.49z"/>
   <path class="fil3" d="M730.65 3734.49c-2.45,-0.44 -4.05,-2.91 -3.53,-5.49 0.53,-2.58 2.93,-4.32 5.41,-3.86 2.48,0.45 4.08,2.93 3.55,5.5 -0.53,2.58 -2.96,4.31 -5.43,3.85z"/>
   <path class="fil3" d="M748.14 3732.86c0.53,-2.58 2.93,-4.32 5.41,-3.86 2.48,0.46 4.07,2.93 3.55,5.51 -0.53,2.58 -2.96,4.3 -5.43,3.85 -2.45,-0.45 -4.06,-2.92 -3.53,-5.49z"/>
   <path class="fil3" d="M768.88 3736.67c0.53,-2.58 2.93,-4.32 5.41,-3.86 2.48,0.45 4.07,2.92 3.55,5.5 -0.52,2.58 -2.96,4.31 -5.4,3.86 -2.48,-0.46 -4.08,-2.93 -3.55,-5.5z"/>
   <path class="fil3" d="M793.45 3746.04c-2.48,-0.46 -4.07,-2.93 -3.55,-5.51 0.52,-2.58 2.93,-4.32 5.4,-3.86 2.48,0.46 4.08,2.93 3.55,5.5 -0.53,2.58 -2.96,4.31 -5.41,3.86z"/>
   <path class="fil3" d="M352.82 3552.28c-2.53,-0.07 -4.45,-2.25 -4.31,-4.87 0.15,-2.63 2.31,-4.7 4.84,-4.63 2.53,0.08 4.45,2.26 4.3,4.88 -0.15,2.62 -2.32,4.69 -4.84,4.62z"/>
   <path class="fil3" d="M354.07 3530.3c-2.53,-0.07 -4.45,-2.25 -4.3,-4.87 0.14,-2.62 2.3,-4.7 4.84,-4.63 2.53,0.08 4.45,2.26 4.3,4.88 -0.14,2.62 -2.32,4.69 -4.84,4.62z"/>
   <path class="fil3" d="M360.17 3503.41c-0.16,2.62 -2.32,4.69 -4.85,4.62 -2.51,-0.07 -4.45,-2.26 -4.3,-4.88 0.16,-2.62 2.32,-4.69 4.85,-4.62 2.51,0.08 4.44,2.26 4.3,4.88z"/>
   <path class="fil3" d="M356.58 3485.77c-2.53,-0.07 -4.45,-2.25 -4.3,-4.87 0.14,-2.63 2.31,-4.7 4.84,-4.63 2.53,0.08 4.45,2.26 4.3,4.88 -0.14,2.62 -2.31,4.69 -4.84,4.62z"/>
   <path class="fil3" d="M357.82 3463.8c-2.53,-0.08 -4.45,-2.26 -4.3,-4.88 0.14,-2.63 2.3,-4.7 4.84,-4.63 2.53,0.08 4.45,2.26 4.3,4.88 -0.15,2.62 -2.31,4.69 -4.84,4.63z"/>
   <path class="fil3" d="M363.92 3436.9c-0.15,2.62 -2.31,4.69 -4.84,4.62 -2.52,-0.07 -4.44,-2.25 -4.3,-4.87 0.15,-2.62 2.31,-4.7 4.84,-4.62 2.51,0.06 4.44,2.25 4.3,4.87z"/>
   <path class="fil3" d="M360.34 3419.2c-2.51,-0.08 -4.44,-2.26 -4.3,-4.88 0.15,-2.62 2.31,-4.69 4.85,-4.62 2.51,0.07 4.44,2.25 4.3,4.88 -0.16,2.62 -2.32,4.69 -4.85,4.62z"/>
   <path class="fil3" d="M361.58 3397.22c-2.51,-0.07 -4.45,-2.26 -4.3,-4.88 0.16,-2.62 2.32,-4.69 4.85,-4.62 2.51,0.07 4.44,2.25 4.3,4.88 -0.16,2.62 -2.32,4.69 -4.85,4.62z"/>
   <path class="fil3" d="M367.68 3370.34c-0.14,2.62 -2.31,4.69 -4.84,4.62 -2.53,-0.08 -4.45,-2.26 -4.3,-4.88 0.14,-2.62 2.32,-4.69 4.84,-4.62 2.53,0.07 4.45,2.26 4.3,4.88z"/>
   <path class="fil3" d="M364.1 3352.68c-2.52,-0.07 -4.45,-2.25 -4.31,-4.87 0.16,-2.62 2.32,-4.7 4.85,-4.62 2.51,0.07 4.44,2.25 4.3,4.88 -0.16,2.62 -2.31,4.69 -4.84,4.61z"/>
   <path class="fil3" d="M365.34 3330.71c-2.52,-0.07 -4.45,-2.26 -4.3,-4.88 0.15,-2.62 2.31,-4.69 4.84,-4.62 2.52,0.07 4.44,2.25 4.3,4.88 -0.15,2.62 -2.31,4.69 -4.84,4.62z"/>
   <path class="fil3" d="M371.44 3303.82c-0.15,2.63 -2.31,4.7 -4.84,4.63 -2.53,-0.08 -4.45,-2.26 -4.31,-4.88 0.15,-2.62 2.32,-4.69 4.84,-4.62 2.54,0.07 4.45,2.26 4.31,4.87z"/>
   <path class="fil3" d="M367.81 3287.07c-2.52,-0.06 -4.45,-2.25 -4.3,-4.87 0.15,-2.62 2.31,-4.7 4.84,-4.62 2.52,0.07 4.44,2.25 4.3,4.87 -0.15,2.62 -2.31,4.7 -4.84,4.62z"/>
   <path class="fil3" d="M369.05 3265.09c-2.52,-0.07 -4.45,-2.26 -4.3,-4.88 0.15,-2.62 2.31,-4.69 4.84,-4.62 2.53,0.07 4.45,2.25 4.31,4.88 -0.15,2.62 -2.31,4.69 -4.84,4.62z"/>
   <path class="fil3" d="M375.15 3238.2c-0.14,2.62 -2.32,4.7 -4.84,4.63 -2.53,-0.08 -4.45,-2.26 -4.3,-4.88 0.14,-2.62 2.3,-4.7 4.83,-4.62 2.54,0.07 4.45,2.25 4.31,4.87z"/>
   <path class="fil3" d="M371.57 3220.55c-2.51,-0.07 -4.44,-2.25 -4.3,-4.87 0.15,-2.62 2.32,-4.7 4.85,-4.62 2.51,0.07 4.44,2.25 4.29,4.87 -0.15,2.62 -2.31,4.7 -4.84,4.62z"/>
   <path class="fil3" d="M372.81 3198.58c-2.51,-0.06 -4.45,-2.25 -4.3,-4.87 0.16,-2.62 2.32,-4.69 4.85,-4.62 2.51,0.07 4.44,2.25 4.3,4.87 -0.16,2.62 -2.32,4.7 -4.85,4.62z"/>
   <path class="fil3" d="M378.91 3171.69c-0.14,2.62 -2.31,4.7 -4.84,4.63 -2.53,-0.08 -4.45,-2.26 -4.3,-4.88 0.14,-2.62 2.32,-4.69 4.84,-4.63 2.53,0.08 4.45,2.26 4.3,4.88z"/>
   <path class="fil3" d="M758.72 3474.44c2.33,-1.09 5.01,-0.03 6.01,2.37 0.97,2.38 -0.14,5.2 -2.48,6.29 -2.33,1.09 -5.01,0.04 -5.98,-2.35 -0.99,-2.4 0.12,-5.21 2.44,-6.3z"/>
   <path class="fil3" d="M766.88 3494.44c2.35,-1.08 5.03,-0.02 6,2.36 0.97,2.39 -0.12,5.21 -2.47,6.29 -2.33,1.09 -5.01,0.03 -5.98,-2.35 -0.97,-2.39 0.12,-5.22 2.45,-6.3z"/>
   <path class="fil3" d="M772.71 3521.02c-0.98,-2.39 0.12,-5.22 2.47,-6.29 2.33,-1.09 5.01,-0.03 5.98,2.35 0.98,2.39 -0.12,5.22 -2.44,6.29 -2.35,1.09 -5.03,0.03 -6,-2.35z"/>
   <path class="fil3" d="M783.45 3534.99c2.33,-1.09 5.01,-0.04 5.98,2.35 0.98,2.39 -0.12,5.21 -2.44,6.3 -2.33,1.09 -5.03,0.02 -6,-2.37 -0.98,-2.38 0.14,-5.2 2.47,-6.29z"/>
   <path class="fil3" d="M791.63 3555.01c2.31,-1.1 5.01,-0.04 5.98,2.35 0.97,2.38 -0.14,5.2 -2.47,6.29 -2.33,1.09 -5.01,0.04 -5.98,-2.35 -0.97,-2.38 0.12,-5.21 2.47,-6.29z"/>
   <path class="fil3" d="M797.43 3581.57c-0.97,-2.39 0.12,-5.21 2.47,-6.29 2.34,-1.09 5.01,-0.04 5.98,2.35 0.97,2.38 -0.14,5.2 -2.44,6.29 -2.35,1.08 -5.03,0.03 -6.01,-2.36z"/>
   <path class="fil3" d="M808.21 3595.61c2.3,-1.1 5.01,-0.04 5.98,2.35 0.98,2.38 -0.14,5.2 -2.47,6.29 -2.33,1.09 -5.01,0.04 -5.98,-2.35 -0.98,-2.38 0.12,-5.21 2.47,-6.29z"/>
   <path class="fil3" d="M816.37 3615.61c2.33,-1.09 5.01,-0.04 5.98,2.34 0.97,2.39 -0.12,5.22 -2.44,6.3 -2.35,1.08 -5.03,0.02 -6.01,-2.36 -0.97,-2.39 0.12,-5.21 2.47,-6.29z"/>
   <path class="fil3" d="M822.18 3642.17c-0.97,-2.39 0.14,-5.2 2.47,-6.29 2.34,-1.09 5.01,-0.03 5.98,2.35 0.97,2.39 -0.12,5.21 -2.44,6.3 -2.33,1.09 -5.03,0.02 -6.01,-2.36z"/>
   <path class="fil3" d="M832.92 3656.15c2.33,-1.09 5.03,-0.02 6,2.36 0.97,2.39 -0.14,5.21 -2.47,6.29 -2.33,1.09 -5.01,0.03 -5.98,-2.35 -0.97,-2.39 0.12,-5.21 2.45,-6.3z"/>
   <path class="fil3" d="M841.1 3676.16c2.33,-1.09 5.01,-0.04 5.98,2.35 0.97,2.39 -0.12,5.21 -2.45,6.3 -2.35,1.08 -5.03,0.02 -6,-2.37 -0.97,-2.38 0.14,-5.19 2.47,-6.29z"/>
   <path class="fil3" d="M846.91 3702.72c-0.97,-2.38 0.14,-5.2 2.47,-6.29 2.33,-1.09 5.01,-0.04 5.98,2.35 0.97,2.38 -0.12,5.21 -2.44,6.29 -2.34,1.09 -5.04,0.03 -6.01,-2.36z"/>
   <path class="fil3" d="M299.72 3116.98c12.88,-35.05 50.38,-53.51 83.78,-41.24 33.39,12.26 50.02,50.62 37.14,85.67 -12.88,35.05 -50.39,53.52 -83.78,41.25 -33.39,-12.27 -50.02,-50.62 -37.14,-85.68z"/>
   <path class="fil24" d="M350.12 3106.6c4.13,-11.25 16.17,-17.17 26.9,-13.24 10.71,3.94 16.05,16.25 11.91,27.5 -4.13,11.25 -16.17,17.17 -26.88,13.24 -18.77,-6.9 -39.82,3.48 -47.06,23.17l67.92 24.96c7.23,-19.69 -2.11,-41.24 -20.86,-48.12 -10.73,-3.94 -16.06,-16.26 -11.93,-27.5z"/>
   <path class="fil3" d="M644.79 3370.83c19.84,-54.01 77.63,-82.47 129.08,-63.57 51.48,18.91 77.08,78.02 57.24,132.03 -19.84,54.01 -77.62,82.47 -129.09,63.56 -51.45,-18.91 -77.06,-78.01 -57.22,-132.02z"/>
   <path class="fil24" d="M722.46 3354.83c6.37,-17.33 24.92,-26.46 41.43,-20.4 16.53,6.08 24.75,25.04 18.39,42.38 -6.37,17.33 -24.92,26.46 -41.45,20.4 -16.51,-6.06 -24.73,-25.04 -18.36,-42.37z"/>
   <path class="fil24" d="M740.83 3397.21c-28.89,-10.62 -61.35,5.37 -72.49,35.71l104.65 38.45c11.14,-30.34 -3.24,-63.53 -32.15,-74.15z"/>
   <path class="fil3" d="M809.83 3735.61c13.4,-36.46 52.42,-55.67 87.16,-42.9 34.74,12.76 52.04,52.67 38.65,89.13 -13.4,36.47 -52.43,55.68 -87.16,42.92 -34.74,-12.77 -52.04,-52.67 -38.65,-89.14z"/>
   <path class="fil24" d="M863.94 3729.97c3.88,-10.56 15.19,-16.13 25.25,-12.43 10.07,3.7 15.09,15.26 11.21,25.83 -3.88,10.56 -15.19,16.13 -25.26,12.43 -10.06,-3.69 -15.07,-15.26 -11.19,-25.82z"/>
   <path class="fil24" d="M875.14 3755.79c-17.61,-6.46 -37.38,3.28 -44.18,21.76l63.78 23.44c6.8,-18.49 -1.97,-38.72 -19.6,-45.2z"/>
  </g>
  <path class="fil3" d="M420.09 4132.5c28.45,11.97 46.17,35.71 50.53,60.43 15.15,86.66 -74.78,141.29 -138.51,85.86 -16.14,-14.41 -26.77,-35.65 -26.91,-63.55 0.05,-64.85 60.5,-105.58 114.88,-82.74zm172.21 81.64l-6.93 -38.38 -0.17 -0.91c-0.88,-4.66 -4.91,-7.9 -9.4,-7.52l-30.97 2.56c-0.52,0.05 -1.02,0.05 -1.51,0 -3.42,-0.37 -6.45,-2.79 -7.49,-6.29 -6.4,-20.62 -16.61,-39.65 -30.11,-56.04 -0.55,-0.68 -0.99,-1.44 -1.33,-2.2 -1.28,-2.96 -0.98,-6.53 0.83,-9.26l15.07 -22.16c1.96,-2.93 2.11,-6.78 0.58,-9.81 -0.5,-0.91 -1.13,-1.81 -1.93,-2.58l-28.39 -26.51c-3.48,-3.27 -8.85,-3.19 -12.26,0.23l-25.02 24.93c-2.48,2.45 -6.05,3.18 -9.23,1.88 -4.6,-1.81 -9.24,-3.45 -14.04,-4.84 -8.99,-2.62 -18.01,-4.32 -26.96,-5.19l-0.05 -0.02c-3.74,-0.36 -6.83,-3.03 -7.84,-6.83l-9.45 -35.41 -0.5 -1.77c-1.17,-4.56 -5.57,-7.47 -10.06,-6.57l-37.38 7.43c-4.54,0.93 -7.75,5.29 -7.37,10.14l2.72 36.19c0.3,4.03 -1.88,7.8 -5.39,9.33 -14.75,6.71 -28.45,15.72 -40.57,26.84 -3.12,2.79 -7.61,3.03 -10.97,0.51l-25.06 -18.69c-3.82,-2.83 -8.98,-2.17 -12.04,1.45l-25.38 29.9c-2.99,3.55 -2.89,8.9 0.19,12.29l27.86 30.93c2.38,2.61 3.11,6.41 1.94,9.82 -1.47,4.18 -2.77,8.45 -3.93,12.82 -2.17,8.24 -3.7,16.48 -4.62,24.66 -0.39,3.73 -2.86,6.85 -6.31,7.81l-40.56 11.88c-4.46,1.34 -7.19,5.97 -6.35,10.73l7.09 39.38c0.78,4.15 4.17,7.25 8.11,7.54 0.41,0.02 0.86,0.05 1.28,-0.02l38.26 -3.14c3.55,-0.31 6.94,1.58 8.58,4.89 0.16,0.29 0.31,0.57 0.41,0.88 0.36,0.92 0.68,1.78 1.12,2.68 4.33,10.66 9.79,20.82 16.2,30.31 2.19,3.13 2.16,7.43 -0.05,10.63l-18.8 27.79c-2.68,3.92 -2.06,9.38 1.39,12.59l6.3 5.91 22.06 20.55c3.44,3.25 8.68,3.14 12.07,-0.19l24.66 -24.55c2.62,-2.65 6.5,-3.2 9.77,-1.53 8.53,4.39 17.67,8.05 27.22,10.83 7.09,2.06 14.28,3.56 21.39,4.52l1.97 7.43 8.15 30.48c0.97,3.78 4.15,6.43 7.75,6.67 0.76,0.08 1.51,0 2.28,-0.16l37.64 -7.4c4.45,-0.92 7.5,-5.22 7.19,-9.92l-1.9 -24.72c-0.32,-4.18 2.15,-8.16 5.93,-9.51 15.68,-5.57 30.38,-13.67 43.52,-24.01 3.12,-2.45 7.3,-2.54 10.33,-0.17l31.66 23.62c3.55,2.62 8.41,2.06 11.32,-1.37l25.61 -30.27c3.05,-3.58 2.96,-8.97 -0.16,-12.38l-29 -32.15c-2.51,-2.76 -3.14,-6.81 -1.62,-10.31 3.24,-7.45 5.9,-15.31 8.06,-23.51 1.16,-4.42 2.14,-8.83 2.94,-13.25 0.64,-3.47 3.07,-6.26 6.29,-7.24l38.88 -11.41c4.51,-1.33 7.29,-5.99 6.46,-10.83z"/>
  <path class="fil3" d="M780.38 4367.23c19.05,8.02 30.9,23.9 33.82,40.44 10.14,58 -50.05,94.56 -92.7,57.46 -10.8,-9.65 -17.91,-23.86 -18,-42.53 0.02,-43.4 40.48,-70.65 76.88,-55.37zm115.26 54.64l-4.64 -25.68 -0.12 -0.61c-0.59,-3.13 -3.28,-5.29 -6.29,-5.04l-20.72 1.72c-0.35,0.03 -0.68,0.03 -1.02,0 -2.29,-0.25 -4.31,-1.86 -5.01,-4.21 -4.28,-13.8 -11.11,-26.53 -20.15,-37.5 -0.37,-0.46 -0.67,-0.96 -0.9,-1.48 -0.85,-1.98 -0.65,-4.36 0.56,-6.19l10.08 -14.82c1.32,-1.96 1.42,-4.54 0.39,-6.57 -0.33,-0.61 -0.75,-1.21 -1.29,-1.72l-19 -17.75c-2.33,-2.18 -5.92,-2.13 -8.2,0.16l-16.75 16.68c-1.66,1.65 -4.05,2.13 -6.18,1.26 -3.07,-1.21 -6.18,-2.3 -9.39,-3.24 -6.02,-1.75 -12.05,-2.89 -18.04,-3.48l-0.03 0c-2.51,-0.25 -4.57,-2.03 -5.25,-4.57l-6.33 -23.7 -0.33 -1.19c-0.78,-3.05 -3.73,-5 -6.73,-4.39l-25.01 4.97c-3.04,0.63 -5.18,3.54 -4.94,6.79l1.82 24.21c0.2,2.69 -1.26,5.22 -3.61,6.25 -9.86,4.49 -19.04,10.52 -27.15,17.96 -2.08,1.87 -5.08,2.02 -7.33,0.34l-16.77 -12.5c-2.56,-1.9 -6.01,-1.46 -8.06,0.96l-16.98 20.02c-2,2.37 -1.94,5.96 0.12,8.23l18.65 20.69c1.59,1.75 2.08,4.29 1.3,6.57 -0.98,2.79 -1.85,5.66 -2.62,8.58 -1.46,5.52 -2.48,11.04 -3.1,16.5 -0.26,2.5 -1.91,4.59 -4.22,5.23l-27.14 7.95c-2.99,0.9 -4.81,4 -4.25,7.19l4.74 26.35c0.52,2.78 2.79,4.85 5.42,5.04 0.28,0.02 0.57,0.03 0.86,-0.01l25.6 -2.11c2.38,-0.2 4.65,1.06 5.74,3.28 0.1,0.19 0.2,0.38 0.27,0.59 0.24,0.62 0.45,1.2 0.75,1.8 2.89,7.12 6.54,13.93 10.83,20.28 1.47,2.1 1.44,4.98 -0.04,7.12l-12.57 18.59c-1.8,2.63 -1.38,6.28 0.93,8.43l4.21 3.95 14.76 13.75c2.3,2.18 5.81,2.1 8.07,-0.12l16.5 -16.43c1.75,-1.77 4.36,-2.14 6.54,-1.02 5.71,2.94 11.83,5.39 18.21,7.25 4.74,1.37 9.56,2.38 14.31,3.03l1.32 4.97 5.46 20.4c0.65,2.53 2.78,4.3 5.18,4.45 0.51,0.05 1.01,0.01 1.53,-0.1l25.19 -4.95c2.97,-0.61 5.01,-3.49 4.8,-6.64l-1.27 -16.55c-0.21,-2.79 1.44,-5.46 3.97,-6.36 10.5,-3.73 20.34,-9.16 29.13,-16.07 2.08,-1.65 4.88,-1.7 6.91,-0.12l21.19 15.82c2.38,1.75 5.63,1.37 7.57,-0.92l17.14 -20.26c2.04,-2.4 1.98,-6.01 -0.11,-8.29l-19.41 -21.52c-1.68,-1.84 -2.1,-4.56 -1.09,-6.9 2.17,-4.98 3.95,-10.24 5.39,-15.73 0.78,-2.96 1.44,-5.91 1.97,-8.86 0.43,-2.32 2.05,-4.19 4.21,-4.85l26.01 -7.63c3.02,-0.89 4.88,-4.01 4.33,-7.26z"/>
 </g>
</svg>
