<?xml version="1.0" encoding="UTF-8"?>
<!DOCTYPE svg PUBLIC "-//W3C//DTD SVG 1.1//EN" "http://www.w3.org/Graphics/SVG/1.1/DTD/svg11.dtd">
<!-- Creator: CorelDRAW 2018 (64-Bit) -->
<svg xmlns="http://www.w3.org/2000/svg" xml:space="preserve" width="115.625mm" height="78.696mm" version="1.1" style="shape-rendering:geometricPrecision; text-rendering:geometricPrecision; image-rendering:optimizeQuality; fill-rule:evenodd; clip-rule:evenodd"
viewBox="0 0 8647.48 5885.61"
 xmlns:xlink="http://www.w3.org/1999/xlink">
 <defs>
  <style type="text/css">
   <![CDATA[
    .fil26 {fill:#990310}
    .fil27 {fill:#A4A4A4}
    .fil24 {fill:#FBF8F8}
    .fil25 {fill:white}
    .fil17 {fill:#121212;fill-rule:nonzero}
    .fil15 {fill:#121212;fill-rule:nonzero}
    .fil18 {fill:#233862;fill-rule:nonzero}
    .fil23 {fill:#2E3552;fill-rule:nonzero}
    .fil16 {fill:#302121;fill-rule:nonzero}
    .fil4 {fill:#302121;fill-rule:nonzero}
    .fil20 {fill:#470343;fill-rule:nonzero}
    .fil5 {fill:#78111A;fill-rule:nonzero}
    .fil10 {fill:#78111A;fill-rule:nonzero}
    .fil21 {fill:#87111B;fill-rule:nonzero}
    .fil6 {fill:#990310;fill-rule:nonzero}
    .fil14 {fill:#A4A4A4;fill-rule:nonzero}
    .fil7 {fill:#B5453C;fill-rule:nonzero}
    .fil13 {fill:#C2C2C2;fill-rule:nonzero}
    .fil19 {fill:#E2915A;fill-rule:nonzero}
    .fil2 {fill:#EBDCE8;fill-rule:nonzero}
    .fil8 {fill:#ED975D;fill-rule:nonzero}
    .fil22 {fill:#F0E4EE;fill-rule:nonzero}
    .fil1 {fill:#F2EDF1;fill-rule:nonzero}
    .fil0 {fill:#FBF8F8;fill-rule:nonzero}
    .fil12 {fill:#FCFCFC;fill-rule:nonzero}
    .fil3 {fill:#FFB27D;fill-rule:nonzero}
    .fil9 {fill:white;fill-rule:nonzero}
    .fil11 {fill:white;fill-rule:nonzero}
   ]]>
  </style>
 </defs>
 <g id="Слой_x0020_1">
  <metadata id="CorelCorpID_0Corel-Layer"/>
  <path class="fil0" d="M416.16 5187.84c-822.02,-1574 -386.65,-3811.93 1867.4,-3216.71 463.51,122.41 1166.46,104.35 1853.34,-974.56 936.64,-1471.32 4548.56,-614.51 3789.56,1963.32 -319.74,1085.85 871.92,1135.27 281.65,2230.3l-7791.94 -2.36z"/>
  <g id="_3029828662048">
   <path class="fil1" d="M7827.94 4824.54c0,0 -55.04,-72.84 -3.4,-119.09 0,0 37.7,-25.91 68.47,-23.81 0,0 -43.61,82.89 -29.5,91.15 14.11,8.23 42.7,-96.34 42.7,-96.34 0,0 85.85,-9.46 113.44,5.61 0,0 -73.37,68.1 -57.89,72.16 15.47,4.05 94.7,-62.79 94.7,-62.79 0,0 79.9,15.41 75.63,70.7 -4.26,55.28 -31.76,72.35 -43.87,70.89 -12.12,-1.47 -82.9,-32.11 -84.44,-20.86 -1.5,11.23 41.06,47.99 70.92,49.71 0,0 -56.36,70.47 -93.75,50.12 -37.48,-20.34 -40.66,-52.58 -63.98,-64.66 -23.32,-12.11 -43.29,-12.06 -33.62,0.25 9.62,12.35 51.86,24.31 65.2,51.09 13.34,26.79 25.32,44.84 -13.39,38.22 -38.75,-6.6 -101.73,-38.74 -104.5,-75.55 -2.72,-36.81 -2.72,-36.81 -2.72,-36.81z"/>
   <path class="fil1" d="M8092.84 4763.62c0,0 -216.98,-9.49 -264.9,60.92 0,0 -10.62,35.99 -43.24,68.78l-5.09 15.71c0,0 37.62,-44.97 51.05,-47.69 0,0 -21.01,-87.21 262.17,-97.73z"/>
   <path class="fil1" d="M7784.7 4893.33c0,0 -46.56,39.08 -49.78,108.88l8.44 0.88c0,0 14.88,-72.19 41.74,-100.43 26.91,-28.23 -0.4,-9.33 -0.4,-9.33z"/>
   <path class="fil1" d="M7635.5 4732.94c0,0 87.53,-55.61 46.69,-131.08 0,0 -32.67,-46.35 -67.7,-58.26 0,0 18.65,112.53 0,115.2 -18.65,2.64 -12.84,-127.12 -12.84,-127.12 0,0 -92.2,-50.33 -128.41,-46.35 0,0 57.22,109.9 38.57,107.25 -18.69,-2.64 -82.9,-113.87 -82.9,-113.87 0,0 -94.56,-19.87 -109.72,43.7 -15.2,63.55 9.35,95.33 23.33,99.3 14.02,3.99 103.9,2.66 101.55,15.9 -2.31,13.24 -63.02,34.43 -96.87,22.52 0,0 37.34,104.6 86.4,99.29 49,-5.29 64.2,-39.71 94.51,-42.35 30.36,-2.67 52.55,6.6 37.39,15.88 -15.2,9.27 -66.56,3.04 -91.06,26.68 -24.5,23.63 -44.34,38.2 1.18,48.78 45.51,10.59 127.23,3.99 143.57,-35.75 16.33,-39.71 16.33,-39.71 16.33,-39.71z"/>
   <path class="fil1" d="M7362.39 4542.28c0,0 245.12,90.02 273.12,190.66 0,0 -1.18,45.02 23.37,96.66l0 19.86c0,0 -25.73,-67.53 -39.71,-76.81 0,0 54.86,-87.38 -256.78,-230.37z"/>
   <path class="fil1" d="M7658.87 4829.6c0,0 37.8,65.12 16.24,144.38l-9.72 -2.95c0,0 9.39,-87.31 -10.34,-131.22 -19.78,-43.92 3.81,-10.22 3.81,-10.22z"/>
   <path class="fil1" d="M7774.81 4656.25c0,0 -115.44,-73.32 -61.57,-172.8 0,0 43.06,-61.09 89.25,-76.81 0,0 -24.64,148.38 0,151.85 24.64,3.49 16.92,-167.57 16.92,-167.57 0,0 121.56,-66.31 169.25,-61.07 0,0 -75.41,144.86 -50.77,141.37 24.6,-3.49 109.22,-150.1 109.22,-150.1 0,0 124.64,-26.19 144.66,57.6 20.01,83.77 -12.3,125.65 -30.77,130.89 -18.47,5.24 -136.94,3.49 -133.86,20.96 3.09,17.46 83.08,45.37 127.69,29.66 0,0 -49.23,137.9 -113.84,130.91 -64.62,-6.99 -84.62,-52.36 -124.65,-55.85 -39.97,-3.49 -69.19,8.74 -49.23,20.96 20.01,12.2 87.71,3.99 120.01,35.16 32.31,31.15 58.44,50.36 -1.54,64.33 -59.99,13.97 -167.71,5.24 -189.26,-47.12 -21.51,-52.36 -21.51,-52.36 -21.51,-52.36z"/>
   <path class="fil1" d="M8134.86 4404.9c0,0 -323.16,118.69 -360.06,251.35 0,0 1.5,59.35 -30.81,127.4l0 26.2c0,0 33.85,-89.01 52.32,-101.23 0,0 -72.33,-115.2 338.55,-303.71z"/>
   <path class="fil1" d="M7744 4783.65c0,0 -49.82,85.85 -21.42,190.33l12.84 -3.89c0,0 -12.44,-115.1 13.61,-172.99 26.04,-57.88 -5.03,-13.45 -5.03,-13.45z"/>
   <path class="fil1" d="M7770.9 5200.58c124.83,0 226.07,-114.82 226.07,-256.43l-452.12 0c0,141.61 101.19,256.43 226.06,256.43z"/>
   <path class="fil1" d="M8000.05 5213.63l-458.34 0 0 0c0,-17.49 12.48,-31.64 27.91,-31.64l402.57 0c15.38,0 27.86,14.15 27.86,31.64l0 0z"/>
   <polygon class="fil1" points="7537.4,4952.02 8002.07,4952.02 8002.07,4944.15 7537.4,4944.15 "/>
  </g>
  <path class="fil1" d="M6716.37 2114.43l265.07 309.65 -1544.49 1504.81 -1055.88 -1047.56 -218.21 224.01c-713.64,732.6 -1772.94,1816.66 -2036.02,2077.5l948.72 1.29c136.22,-138.79 304.27,-310.26 511.85,-522.48 303.76,-310.52 605.67,-619.99 801.18,-820.47l1044.52 1036.25c576.86,-563.1 1676.53,-1610.4 1987.72,-1940.1l241.03 281.56 267.13 -1261.69 -1212.6 157.23z"/>
  <path class="fil2" d="M1103.27 4043.24c-6.4,-165.4 -20.22,-309.34 -36.75,-409.66 -26.36,-159.96 -50.08,-251.98 -50.35,-252.94 -3.47,-14.07 -53.63,-71.03 -165.13,-69.25 -111.5,1.73 -100.93,76.4 -100.93,76.4l0 0c-0.01,2.51 0.31,4.85 0.81,6.63 1.07,3.84 103.43,393.41 98.98,896.37 -0.05,7.06 -0.81,19.26 -0.33,27.37 0,0.01 11.67,0.34 30.06,0.77 -5.15,2.99 -9.4,7.25 -9.27,11.76 0.14,4.13 26.02,332.38 -74.65,867.27l18.79 0c147.4,-456.89 130.4,-855.26 124.78,-877.79 32.27,0.59 68.19,1.08 98.56,1.11 -3.43,2.69 -5.86,5.98 -5.75,9.41 0.12,4.13 26.01,332.38 -74.65,867.27l18.79 0c148.28,-459.59 130.21,-859.93 124.68,-878.11 4.55,-0.44 7.1,-0.99 7.1,-1.69 9.02,-43.94 4.63,-165.73 -4.75,-274.93zm503.05 1154.74c-100.66,-534.89 -74.77,-863.14 -74.63,-867.27 0.23,-8.26 -14.22,-15.7 -22,-15.99 -7.86,-0.15 -42.59,-2.45 -46.62,4.61 -5.26,9.22 -25.58,413.64 124.49,878.65l18.76 0zm160.62 0c-100.65,-534.89 -74.76,-863.14 -74.62,-867.27 0.22,-8.26 -14.23,-15.7 -22,-15.99 -7.87,-0.15 -42.6,-2.45 -46.62,4.61 -5.27,9.22 -25.53,413.64 124.5,878.65l18.74 0z"/>
  <path class="fil1" d="M1135.76 4288.29c-0.07,7.02 -3.6,12.64 -7.91,12.64l-0.1 0c-4.29,-0.1 -7.72,-5.71 -7.77,-12.64l-221.44 0c-0.07,7.02 -3.6,12.64 -7.9,12.64l-0.1 0c-4.38,-0.1 -7.85,-5.91 -7.8,-12.97 1.29,-143.98 -6.54,-278.45 -18.37,-397.11 -29.44,-295.93 -83.86,-493.69 -84.64,-496.43 -0.49,-1.78 -0.79,-4.13 -0.79,-6.63 0,0 -10.58,-74.62 100.91,-76.4 111.53,-1.78 161.68,55.19 165.15,69.25 0.21,0.72 13.64,52.83 31.49,146.52 5.92,31.02 12.3,66.61 18.86,106.42 16.52,100.32 30.34,244.26 36.75,409.66 9.36,109.21 12.66,201.12 3.65,245.05z"/>
  <path class="fil1" d="M866.38 4300.93l868.18 0c0,0 -20.22,-85.87 -523.01,-73.09 -355.82,9.07 -345.17,73.09 -345.17,73.09z"/>
  <path class="fil2" d="M1735.06 4328.36l-868.18 0c-9.77,0 -17.77,-8.41 -17.77,-18.68l0 -12.24c0,-10.28 7.99,-18.69 17.77,-18.69l868.18 0c9.8,0 17.79,8.41 17.79,18.69l0 12.24c0,10.28 -7.99,18.68 -17.79,18.68z"/>
  <path class="fil3" d="M1704.59 3505.36l288.56 -65.61 17.02 43.47c0,0 -318.44,198.92 -348.27,189.16 -29.83,-9.75 42.69,-167.03 42.69,-167.03z"/>
  <path class="fil3" d="M1442.2 4875.4c-7.22,8.69 -8.14,18.39 -4.57,28.76 0,0.04 0.04,0.1 0.09,0.15 6.59,19.16 28.46,40.62 53.86,61.99 3.25,2.74 6.13,5.28 8.65,7.58 0.64,0.58 1.33,1.2 1.92,1.83 0.5,0.48 1.01,0.96 1.51,1.39 23.66,22.9 14.78,28.14 57.28,74.63 48.49,52.97 81.89,53.93 91.36,49.13 8.05,-4.14 -8.28,-32.23 -26.36,-63.79 -0.86,-1.53 -1.74,-3.07 -2.65,-4.61 -2.39,-4.22 -4.81,-8.45 -7.19,-12.68 -21.18,-37.99 -15.74,-55.85 -10.75,-112.37 4.11,-45.96 68.12,-256.74 68.12,-256.74l-92.93 -16.81c0,0 -27.99,167.85 -58.83,193.69 -16.47,13.78 -34.96,13.96 -50.79,24.15 -1.14,0.72 -2.24,1.44 -3.29,2.21 -9.01,6.24 -18.16,12.73 -25.44,21.47z"/>
  <path class="fil4" d="M1442.2 4875.4c-7.22,8.69 -8.14,18.39 -4.57,28.76 0,0.04 0.04,0.1 0.09,0.15 8.09,19.16 29.38,40.48 53.94,61.8 3.2,2.79 6.04,5.38 8.56,7.78 0.64,0.58 1.33,1.2 1.92,1.83 0.5,0.48 1.01,0.96 1.51,1.39 23.66,22.9 14.78,28.14 57.28,74.63 48.49,52.97 81.89,53.93 91.36,49.13 8.05,-4.14 -8.28,-32.23 -26.36,-63.79 -9.42,-3.64 -53.3,-22.32 -86.47,-66.88 -29.18,-39.1 -48.64,-89.38 -68.54,-118.48 -1.14,0.72 -2.24,1.44 -3.29,2.21 -9.01,6.24 -18.16,12.73 -25.44,21.47z"/>
  <path class="fil3" d="M2191.57 4814.45c5.73,30.11 46.64,25.08 92.34,13.36 45.66,-11.71 34.81,2.21 99.83,-5.33 65.01,-7.54 84.73,-33 86.7,-43.12 1.79,-9.03 -30.33,-12.2 -64.83,-16.38 -4.31,-0.49 -8.69,-1.05 -13.04,-1.63 -38.88,-5.14 -67.39,-31.46 -102.72,-53.12 -33.48,-20.51 -83.45,-104.02 -83.45,-104.02l-89.17 7.4c0,0 46.81,74.63 64.92,107.05 10.62,19.06 10.07,44.32 8.74,63.77 -0.68,10.62 -1.32,21.42 0.68,32.02z"/>
  <path class="fil4" d="M2283.91 4827.81c45.66,-11.71 34.81,2.21 99.83,-5.33 65.01,-7.54 84.73,-33 86.7,-43.12 1.79,-9.03 -30.33,-12.2 -64.83,-16.38l-0.32 0.73c0,0 -38.99,29 -93.11,30.35 -44.1,1.16 -90.82,-12.15 -121.29,-11.62 -0.68,10.62 -1.32,21.42 0.68,32.02 5.73,30.11 46.64,25.08 92.34,13.36z"/>
  <path class="fil3" d="M1993.15 3439.76c0,0 21.27,-54.65 44.65,-56.86 23.33,-2.25 97.73,-14.49 103.03,-3.36 5.32,11.15 0,51.3 -15.96,65.79 -15.92,14.5 -114.7,37.9 -114.7,37.9l-17.02 -43.47z"/>
  <path class="fil5" d="M1849.85 4215.98l-192.16 542.86c0,0 -29.51,2.98 -57.83,-5.56 -26.03,-7.88 -55.9,-28.58 -55.9,-28.58 0,0 47.66,-521.26 135.1,-629.65 87.38,-108.44 170.79,120.93 170.79,120.93z"/>
  <path class="fil6" d="M1089.77 3996.36c0,0 552.19,-195.99 675.35,-154.3 123.17,41.73 492.89,813.91 492.89,813.91 0,0 -8.32,11.63 -31.11,20.6 -21.18,8.35 -72.47,7.83 -72.47,7.83 0,0 -333.72,-300.25 -373.43,-387.79 -39.71,-87.61 -55.59,-170.98 -95.35,-162.67 -39.72,8.35 -512.46,204.35 -619.73,87.6 -107.26,-116.75 -79.21,-268.46 -79.21,-268.46l103.05 43.27z"/>
  <path class="fil7" d="M1404.58 2614.37c-23.87,-14.22 -52.47,-15.8 -72.49,-14.55 5.16,-5.57 15.29,-7.63 15.29,-7.63 -12.41,-1.93 -40.1,10.99 -40.1,10.99 -172.57,-69.78 -199.7,196.95 -196.07,258.9 3.6,61.96 4.04,133.27 -82.12,188.89 -169.51,109.35 -26.48,300.25 -26.48,300.25 1.33,0.82 78.87,138.83 78.87,138.83 -4.35,-50.08 215.76,-314.32 330.59,-393.46 27.98,-43.23 37.91,-119.54 38.64,-125.53 -4.81,60.5 -14.69,94.46 -23.51,113.58 97.26,-93.94 40.62,-432.51 -22.63,-470.26z"/>
  <path class="fil3" d="M1405.28 3100.51c0.58,0.25 -55.45,30.79 -97.58,18.69 -39.65,-11.35 -65.55,-65.27 -65,-65.42 16.8,-3.51 21.63,-27.7 21.28,-131.73l7.58 1.53 127.61 26.51c0,0 -2.9,42.17 -3,81.88 -0.08,33.33 1.85,64.98 9.12,68.53z"/>
  <path class="fil8" d="M1399.16 2950.1c0,0 -2.9,42.17 -3,81.88 -71.39,-2.11 -109.14,-70.5 -124.61,-108.39l127.61 26.51z"/>
  <path class="fil7" d="M1258.38 2909.04c0,0 -37.42,-62.1 -46.39,-115.16 -6.42,-37.85 11.97,-178.32 146.41,-158.04 0,0 39.05,4.02 75.75,30.06 29.19,20.64 71.33,65.36 24.21,187.86l-12.21 41.41 -187.76 13.87z"/>
  <path class="fil3" d="M1423 2987.71c0,0 -168.93,2.93 -169.05,-107.52 -0.11,-110.46 -22.01,-184.47 85.87,-191 107.83,-6.54 128.83,35.59 137.43,72.43 8.59,36.88 -10.29,222.49 -54.25,226.1z"/>
  <path class="fil7" d="M1416.75 2686.5c0,0 -46.25,129.57 -117.25,148.73 -70.98,19.16 -101.77,-0.82 -101.77,-0.82 0,0 54.45,-45.38 65.75,-124.62 0,0 118.38,-85.01 153.27,-23.29z"/>
  <path class="fil7" d="M1405.29 2697.01c0,0 34.54,28.91 42.96,57.06 8.41,28.14 12.21,86.01 28.32,84.03 0,0 34.82,-88.07 -4.35,-137.87 -41.52,-52.88 -66.93,-3.22 -66.93,-3.22z"/>
  <path class="fil6" d="M1029.09 3577.55c-16.66,-73.33 40.03,-215.63 99.19,-333.44 53.69,-106.81 109.42,-193.43 114.42,-190.32 141.59,88.22 154.38,14.89 154.38,14.89l0.01 0c0.06,0 128.61,17.91 165.03,83.71 45.15,81.63 93.97,309.81 142.47,352.97 -7.46,23.92 -4.26,36.64 3.6,66.27 1.71,6.34 3.57,12.39 5.63,18.11 7.31,20.84 16.42,37.79 24.34,52.44 -24.66,15.75 -72.25,45.61 -107.3,24.15 -53.43,-32.85 -95.16,-132.79 -118.62,-172.59 -0.1,-0.15 -0.14,-0.3 -0.23,-0.43 -51.01,303.08 18.35,372.08 -16.79,404.02 -37.06,33.77 -90.03,-16.03 -206.58,36.98 -76.43,34.83 -182.52,85.11 -253.92,93.89 -37.45,4.61 -65.4,-2.26 -74.5,-28.76 -26.48,-77.17 100.65,-282.04 68.86,-421.89z"/>
  <path class="fil9" d="M1385.45 2920.76c0,0 3.14,14.02 36.41,11.86 0,0 27.93,-1.78 27.07,-17.25 0,0 -27.08,-10.95 -63.47,5.38z"/>
  <path class="fil5" d="M960.23 3999.43c9.11,26.51 37.06,33.38 74.5,28.76 49.43,-22.62 262.93,-109.45 260.54,-168.27 -3.55,-87.08 -41.06,-89.85 -14.57,-197.38 21.26,-86.3 -176.01,-246.8 -207.47,-281.72 -59.17,117.81 -60.8,123.39 -44.15,196.72 31.79,139.84 -95.34,344.71 -68.86,421.89z"/>
  <path class="fil6" d="M936.1 3685.26c37.87,-55.8 77.31,-85.29 103.26,-100.14 -5.98,-16.18 159.25,-228.79 159.25,-261.72 0,-33.38 44.09,-269.61 44.09,-269.61 0,0 -137.67,8.94 -185.34,78.72 -59.61,87.26 -183.43,423.1 -121.26,552.76z"/>
  <path class="fil3" d="M1039.36 3585.12l275.12 75.35 -25.82 48.65c0,0 -334.82,-2.45 -352.56,-23.87 -17.74,-21.37 103.26,-100.14 103.26,-100.14z"/>
  <path class="fil10" d="M1512.25 3493.75c23.46,39.8 65.19,139.74 118.62,172.59 35.05,21.46 82.64,-8.4 107.3,-24.15 -7.92,-14.65 -17.03,-31.61 -24.34,-52.44 -19.68,4.75 -43.65,10.75 -59.16,15.65 -30.1,9.56 -142.42,-111.65 -142.42,-111.65z"/>
  <path class="fil3" d="M1314.48 3660.47c0,0 86.4,-25.69 106.97,-19.68 20.56,6.01 91.07,55.04 81.19,68.33 -9.92,13.31 -72.04,-7.97 -100.63,-3.93 -28.58,4.03 -50.68,18.82 -71.25,15.62 -20.59,-3.18 -42.11,-11.68 -42.11,-11.68l25.82 -48.65z"/>
  <path class="fil3" d="M1314.48 3660.47c0,0 42.27,-22.8 54.3,-35.77 1.51,-1.63 4.08,-1.3 5.24,0.62 3.22,5.33 6.24,15.65 -8.59,25.89 -21.34,14.74 -50.95,9.26 -50.95,9.26z"/>
  <path class="fil1" d="M1713.74 3788.08l-403.07 0 0 0c0,-18.63 14.37,-33.76 32.13,-33.76l370.94 0 0 33.76z"/>
  <polygon class="fil1" points="1712.6,3327.24 2335.79,3327.24 2186.31,3788.08 1559.05,3788.08 "/>
  <polygon class="fil11" points="2344.98,3327.29 2195.47,3788.03 1568.25,3788.03 1721.74,3327.29 "/>
  <path class="fil1" d="M2008.98 3553.38c-3.89,17.63 -20.63,31.89 -37.38,31.89 -16.79,0 -27.22,-14.26 -23.37,-31.89 3.88,-17.58 20.63,-31.88 37.38,-31.88 16.78,0 27.26,14.31 23.37,31.88z"/>
  <path class="fil12" d="M2344.98 3327.29l-149.52 460.74 -415.38 0c275.14,-98.54 348.4,-399.12 360.71,-460.74l204.19 0z"/>
  <path class="fil13" d="M535.74 5197.97c7.89,0 14.62,-5.81 15.97,-13.78l78.27 -465.64 112.58 -669.8 31.49 -187.24 -80.2 -2.39 -13.91 108.73 -97.69 764.02 -57.92 452.86c-0.89,7.01 4.46,13.25 11.4,13.25z"/>
  <path class="fil14" d="M679.95 3967.84c51.96,24.06 62.62,80.91 62.62,80.91l31.49 -187.24 -80.2 -2.39 -13.91 108.73z"/>
  <path class="fil13" d="M2530.28 5197.97c-7.88,0 -14.6,-5.81 -15.97,-13.78l-78.23 -465.64 -112.6 -669.8 -31.47 -187.24 80.15 -2.39 13.92 108.73 97.73 764.02 57.87 452.86c0.91,7.01 -4.44,13.25 -11.39,13.25z"/>
  <path class="fil14" d="M2386.07 3967.84c-51.93,24.06 -62.6,80.91 -62.6,80.91l-31.47 -187.24 80.15 -2.39 13.92 108.73z"/>
  <path class="fil14" d="M482.25 3935.04l2053.52 0c26.9,0 48.91,-23.1 48.91,-51.35l0 -44.36c0,-28.24 -22.01,-51.34 -48.91,-51.34l-2053.52 0c-26.9,0 -48.9,23.09 -48.9,51.34l0 44.36c0,28.25 22,51.35 48.9,51.35z"/>
  <g id="_3029828656864">
   <path class="fil15" d="M7244.35 4917.31c0,0 58.31,52.7 46.89,90.13 -11.34,37.44 -64.02,62.4 -71.09,108.17 -7.16,45.72 -35.55,70.68 -61.12,70.68 -25.66,0 -122.07,0 -122.07,0 0,0 -18.84,-32.19 26.6,-41.88 45.52,-9.7 62.74,-63.47 59.93,-113.4 -2.89,-49.91 4.18,-116.46 4.18,-116.46l96.75 -22.16 19.95 24.92z"/>
   <path class="fil15" d="M6528.91 5053.57c0,0 10.49,119.92 -15.17,132.38l-327.59 -0.66c0,0 0,-37.43 52.68,-45.76 52.6,-8.3 145,-38.79 160.68,-106.75 15.6,-67.93 129.4,20.79 129.4,20.79z"/>
   <path class="fil16" d="M6252.29 3359.93c0,0 17.31,210.18 37.68,462.81 27.53,343.18 60.69,764.73 64.01,844.58 5.71,138.65 28.47,360.47 28.47,360.47 0,0 54.05,52.69 162.14,30.5 0,0 96.32,-316.65 123.86,-651.7 0.43,-5.48 0.85,-11.02 1.28,-16.55 25.66,-341.07 65.46,-1059.24 65.46,-1059.24l-482.9 29.13z"/>
   <path class="fil17" d="M6252.29 3359.93c0,0 17.31,210.18 37.68,462.81l378.48 583.85c0.43,-5.48 0.85,-11.02 1.28,-16.55 25.66,-341.07 65.46,-1059.24 65.46,-1059.24l-482.9 29.13z"/>
   <path class="fil16" d="M6331.22 3384.89c0,0 311.48,761.14 516.23,1118.84 204.84,357.71 268.86,457.52 268.86,457.52 0,0 117.29,-45.76 128.03,-76.95 0,0 -78.33,-690.57 -215.49,-858.9 -77.49,-95.12 -144.32,-306.16 -140.99,-406.03 5.8,-172.21 -59.58,-371.78 -59.58,-371.78l-497.06 137.3z"/>
   <path class="fil3" d="M6082.49 3396.08c0,0 -58.14,77.95 -62.4,98.74 -4.35,20.81 -9.29,95.09 -2.39,116.84 6.99,21.75 43.22,-64.87 57.97,-74.86 14.66,-9.99 -9.21,34.09 -3.49,40.77 5.71,6.73 33.75,-27.07 44.75,-38.59 11.08,-11.55 5.89,-69.24 17.65,-104.35 11.76,-35.13 -52.08,-38.55 -52.08,-38.55z"/>
   <path class="fil9" d="M6338.98 2263.13c0,0 -78.59,724.28 -85.58,744.92 -1.53,4.49 -7.67,27.44 -16.36,60.41 -12.36,47.08 -29.83,114.81 -46.46,179.14 -24.98,97.27 -52,181.37 -52,181.37 0,0 -11.85,7.59 -40.49,5.16 -19.52,-1.65 -30.09,-18.15 -30.09,-18.15 0,0 2.9,-355.61 20.45,-436.66 17.56,-81.09 73.65,-579.02 102.04,-646.04 28.3,-67.01 148.49,-70.14 148.49,-70.14z"/>
   <path class="fil1" d="M6237.04 3068.46c-12.36,47.08 -29.83,114.81 -46.46,179.14 -10.66,-29.74 -24.21,-77.12 -32.82,-142.04 -15.77,-119.88 32.74,-375.2 32.74,-375.2l46.54 338.11z"/>
   <path class="fil9" d="M6859.39 3376.55c-112.77,62.98 -596.11,61.57 -618.52,12.14 -49.96,-110.43 -62.49,-671.58 -38.88,-843.71 0,0 12.19,-264.52 38.88,-252.88 178.58,-81.17 467.47,-7.43 467.47,-7.43 77.92,22.69 71.27,198.95 93,446.47 2.73,31.86 5.88,65.12 9.38,99.45 15.34,152.85 37.76,328.44 71.69,513.66 2.3,12.17 -6.3,22.98 -23.01,32.3z"/>
   <path class="fil3" d="M6574.85 2254.91c-2.98,47.3 -65.3,41.93 -140.31,25.02 -74.84,-16.88 -47.73,-60.66 -47.73,-60.66 0,0 1.11,-33.62 5.8,-73.9 1.71,-14.64 3.92,-30.23 6.73,-45.34 1.37,-7.4 2.81,-14.7 4.52,-21.73 9.8,-41.64 149.69,-1.46 148.67,9.75 -2.73,30.22 19.44,129.71 22.33,166.87z"/>
   <polygon class="fil18" points="6414.26,2337.49 6408.29,2272.12 6491.23,2287.6 6459.35,2345.99 "/>
   <path class="fil1" d="M6388.51 2188.49l-49.53 74.64c0,0 0,45.93 43.05,79.23l67.77 -62.48c0,0 -43.82,-16.54 -61.29,-91.39z"/>
   <path class="fil1" d="M6449.8 2279.88c0,0 14.06,49.89 41.17,72.79 0,0 105.87,-28.18 131.1,-81.83l-55.15 -70.47c0,0 -2.64,53.31 -117.12,79.51z"/>
   <path class="fil19" d="M6553.37 2111.54c0,0 -67.43,44.35 -160.77,33.83 1.71,-14.64 3.92,-30.23 6.73,-45.34 18.41,-4.43 33.84,-7.2 33.84,-7.2l120.19 18.71z"/>
   <path class="fil3" d="M6596.08 2061.15c-32.9,89.72 -153.09,66.81 -204.24,52.4 -14.4,-4.02 -23.36,-7.4 -23.36,-7.4 -15.77,-7.1 -20.72,-34.42 -19.27,-68.93 2.73,-68.29 29.92,-164.72 45.52,-187.96 23.61,-34.96 62.82,-70.5 179.35,-20.99 116.61,49.52 64.27,117.92 21.99,232.88z"/>
   <path class="fil20" d="M6686.09 2015.08c-36.74,29.71 -115.76,84.68 -115.76,84.68 0,0 8.78,-10.29 19.52,-39.94 1.2,-3.37 1.53,-8.29 1.37,-13.51 -0.34,-14.55 3.15,-29.07 10.9,-41.46 4.78,-7.74 6.48,-15.77 0.43,-21.44 -9.97,-9.38 -27.02,-0.77 -38.19,6.81 -7.41,5 -17.04,5.29 -24.64,0.62 -0.08,-0.03 -0.08,-0.06 -0.17,-0.09 -31.45,-19.49 3.25,-53.83 -22.24,-82.34 -25.66,-28.51 -136.22,-32.41 -131.7,-50.29 -37.76,-21.11 -13.98,-99.01 -13.3,-103.13 0,0 54.13,4.74 121.81,-11.99 54.9,-13.65 115.42,21.26 134.6,35.65 0,-3.45 -0.59,-8.24 -3.07,-13.29 0,0 8.35,8.12 8.18,17.61 0.85,0.84 1.2,1.41 0.94,1.56 0,0 10.91,-0.2 17.3,3.97 0,0 -4.68,-1.47 -6.9,1.3 -0.25,0.31 -0.6,0.52 -0.93,0.73 73.48,51.38 72.37,199.85 41.85,224.55z"/>
   <path class="fil9" d="M6422.36 2048.18c0,0 -5.97,11.3 -35.72,1.93 0,0 -24.89,-7.87 -20.8,-20.87 0,0 26.93,-3.27 56.52,18.94z"/>
   <path class="fil20" d="M6414.26 2337.49c0,0 -66.23,828.11 -65.3,897.1 0.93,69 73.4,141.96 73.4,141.96 0,0 57.62,-62.56 68.87,-128.54 11.34,-66.03 -31.88,-902.02 -31.88,-902.02l-45.09 -8.5z"/>
   <path class="fil1" d="M6859.39 3376.55c-0.09,0 -0.09,0 -0.09,0 -201.26,-28.67 -143.54,-687.92 -127.78,-690.52 15.77,-2.6 73.65,117.86 73.65,117.86l5.54 26.7c15.34,152.85 37.76,328.44 71.69,513.66 2.3,12.17 -6.3,22.98 -23.01,32.3z"/>
   <path class="fil21" d="M7450.81 3867.63l-425.45 122.57c-55.32,15.92 -113.88,-15.85 -129.99,-70.7l-53.62 -182.52c-16.12,-54.8 16.02,-112.7 71.43,-128.67l425.36 -122.57c55.4,-15.97 113.88,15.85 129.99,70.65l53.71 182.53c16.11,54.84 -16.03,112.74 -71.43,128.7z"/>
   <path class="fil6" d="M7227.04 3517.32l-151.99 43.82 -11.59 -39.41c-1.96,-6.77 1.96,-13.9 8.86,-15.89l38.11 -10.98 70.07 -20.22 18.93 -5.41c1.28,-0.37 2.55,-0.53 3.83,-0.49 5.54,0.08 10.58,3.71 12.19,9.2l11.59 39.37zm-329.21 203.4l54.21 184.63c10.57,35.74 38.96,61.73 72.88,71.18 11.26,3.14 23.02,4.46 35.04,3.67 0,0 0,0 0,0l0.08 0c7.42,-0.5 15,-1.74 22.5,-3.92l424.68 -122.36c55.58,-16.01 87.8,-74.12 71.6,-129.17l-54.21 -184.63c-16.2,-55.05 -74.93,-86.95 -130.51,-70.94l-146.19 42.13 -11.59 -39.41c-5.29,-18.2 -24.64,-28.67 -43.05,-23.39l-16.03 4.61 -88.99 25.63 -22.08 6.4c-8.78,2.51 -16.2,8.42 -20.72,16.46 -4.43,8.05 -5.45,17.37 -2.89,26.12l11.59 39.41 -84.74 24.39c-3.32,0.96 -6.65,2.06 -9.8,3.34l0 0.04 -0.09 0c-32.22,12.8 -55.15,40.4 -62.99,72.35l0 0.04c-4.17,17.09 -4,35.37 1.28,53.4z"/>
   <path class="fil3" d="M7099.52 3399.46c0,0 -13.13,109.19 11.59,107.62 24.73,-1.57 85.24,-13.28 89.34,-32.11 4.18,-18.82 -46.37,-106.55 -46.37,-106.55l-54.56 31.04z"/>
   <path class="fil3" d="M7102.76 3399.17c0,0 -18.92,23.27 -20.63,41.6 -1.62,18.32 -10.65,50.35 -2.13,52.4 8.44,2.07 23.95,-39.86 23.95,-39.86l-1.2 -54.15z"/>
   <path class="fil9" d="M6708.42 2284.67c0,0 106.81,25.33 191.29,185.99 84.47,160.65 151.22,484.68 191.54,570.23 40.32,85.5 71,342.15 71,342.15 0,0 -6.3,12.75 -28.05,17.42 -16.79,3.58 -34.18,2.18 -34.18,2.18 0,0 -158.81,-251.94 -181.66,-342.44 -12.36,-48.99 -200.83,-441.02 -200.83,-441.02l-9.12 -334.51z"/>
  </g>
  <path class="fil1" d="M2889 1646.24c47.77,72.08 53.62,153.62 27.34,216.2 -92.44,219.16 -379.19,199.54 -444.18,-26.34 -15.92,-58.05 -9.15,-122.74 31.52,-185.75 95.3,-145.95 293.94,-141.81 385.32,-4.11zm275.66 456.95l40.42 -97.41 0.93 -2.33c4.85,-11.89 0.34,-25.58 -10.54,-31.85l-74.89 -43.34c-1.26,-0.72 -2.42,-1.52 -3.46,-2.4 -7.32,-6.25 -10.71,-16.48 -7.95,-26.04 15.56,-56.59 20.07,-115.62 13.13,-173.94 -0.26,-2.42 -0.18,-4.82 0.16,-7.09 1.43,-8.7 7.34,-16.24 15.51,-19.51l67.14 -25.99c8.81,-3.49 14.8,-11.91 15.73,-21.18 0.2,-2.83 0.07,-5.86 -0.64,-8.86l-26.27 -104.72c-3.21,-12.88 -15.64,-21.23 -28.49,-18.94l-94.07 16.43c-9.29,1.59 -18.57,-2.42 -23.95,-10.4 -7.91,-11.37 -16.16,-22.41 -25.14,-33.15 -16.83,-20.16 -35.02,-38.28 -54.3,-54.45l-0.09 -0.09c-8.05,-6.76 -11.23,-17.68 -7.99,-27.82l30.28 -94.74 1.47 -4.77c3.99,-12.14 -1.83,-25.66 -13.45,-30.74l-96.75 -42.55c-11.81,-5.1 -25.56,-0.38 -31.82,11.13l-46.89 85.79c-5.21,9.55 -15.76,14.6 -26.07,12.47 -43.7,-8.29 -88.42,-9.72 -132.56,-3.9 -11.26,1.35 -21.9,-5.26 -25.94,-16.24l-30.1 -81.82c-4.62,-12.44 -17.43,-19.14 -29.77,-15.83l-102.19 27.09c-12.08,3.24 -19.71,15.45 -17.59,27.96l18.59 113.82c1.63,9.64 -2.27,19.38 -9.95,25.19 -9.51,7.08 -18.79,14.63 -27.85,22.64 -17.1,15.11 -32.7,31.24 -46.8,48.19 -6.36,7.77 -16.63,10.89 -25.96,7.58l-110.59 -37.57c-12.23,-4.06 -25.28,2.04 -30.33,14.09l-41.53 99.9c-4.31,10.6 -1.07,22.94 7.56,29.83 0.92,0.7 1.9,1.49 2.97,2.01l92.48 53.59c8.62,4.94 13.62,14.57 12.53,24.62 -0.07,0.88 -0.14,1.77 -0.36,2.64 -0.53,2.63 -1.07,5.07 -1.36,7.81 -5.71,30.84 -8.1,62.4 -7.31,93.93 0.44,10.53 -5.97,20.16 -15.74,23.85l-83.97 32.77c-11.92,4.58 -18.5,17.84 -15.29,30.55l5.8 23.3 20.48 81.24c3.13,12.78 15.31,20.84 27.99,18.71l92.66 -16.18c9.92,-1.8 19.64,3.13 24.69,12.05 13.15,23.43 28.77,46.16 46.62,67.54 13.26,15.89 27.56,30.69 42.47,44.11l-6.39 19.86 -26.02 81.54c-3.33,10.05 0.09,21.08 8.01,27.29 1.63,1.38 3.46,2.41 5.47,3.28l97.31 43.04c11.56,4.98 24.87,0.14 31.05,-10.93l31.93 -58.68c5.4,-9.89 16.92,-14.96 27.56,-12 44.22,12.33 89.87,17.39 135.23,14.96 10.76,-0.59 20.49,5.86 23.97,16l38.03 103.42c4.33,11.53 16.29,17.98 28.01,14.88l103.27 -27.54c12.26,-3.22 19.98,-15.5 17.79,-28.14l-19.4 -118.4c-1.74,-10.19 2.79,-20.32 11.41,-25.79 18.38,-11.64 36.04,-25.12 53.05,-40.15 9.15,-8.09 17.87,-16.48 26.2,-25.17 6.57,-6.78 16.23,-9.23 25.09,-6.32l106.03 35.98c12.33,4.15 25.56,-1.93 30.75,-14.15z"/>
  <path class="fil1" d="M229.63 4282.88c27.42,11.54 44.49,34.41 48.7,58.23 14.6,83.51 -72.06,136.15 -133.48,82.74 -15.56,-13.89 -25.8,-34.36 -25.93,-61.24 0.04,-62.49 58.3,-101.74 110.71,-79.73zm165.96 78.67l-6.68 -36.98 -0.16 -0.88c-0.85,-4.49 -4.73,-7.61 -9.06,-7.25l-29.85 2.47c-0.5,0.04 -0.99,0.04 -1.45,0 -3.3,-0.36 -6.21,-2.68 -7.22,-6.07 -6.17,-19.87 -16,-38.21 -29.02,-54.01 -0.53,-0.66 -0.96,-1.38 -1.29,-2.12 -1.23,-2.86 -0.94,-6.29 0.8,-8.92l14.52 -21.35c1.89,-2.83 2.03,-6.53 0.56,-9.45 -0.48,-0.88 -1.09,-1.74 -1.86,-2.48l-27.36 -25.55c-3.36,-3.15 -8.53,-3.07 -11.82,0.22l-24.11 24.02c-2.39,2.36 -5.83,3.07 -8.89,1.81 -4.43,-1.74 -8.9,-3.32 -13.53,-4.66 -8.67,-2.52 -17.35,-4.17 -25.98,-5l-0.04 -0.01c-3.6,-0.35 -6.58,-2.92 -7.55,-6.58l-9.11 -34.13 -0.48 -1.71c-1.13,-4.4 -5.37,-7.2 -9.69,-6.33l-36.02 7.16c-4.38,0.9 -7.46,5.09 -7.1,9.77l2.62 34.87c0.29,3.88 -1.81,7.52 -5.19,8.99 -14.21,6.46 -27.42,15.15 -39.09,25.86 -3.01,2.69 -7.33,2.92 -10.57,0.49l-24.15 -18.01c-3.68,-2.73 -8.65,-2.09 -11.6,1.4l-24.46 28.82c-2.88,3.42 -2.79,8.58 0.19,11.84l26.85 29.8c2.3,2.51 3,6.18 1.87,9.46 -1.41,4.02 -2.67,8.14 -3.78,12.36 -2.09,7.94 -3.57,15.89 -4.45,23.76 -0.37,3.59 -2.76,6.6 -6.08,7.52l-39.08 11.45c-4.3,1.29 -6.93,5.75 -6.12,10.34l6.84 37.95c0.75,4 4.02,6.99 7.82,7.26 0.4,0.01 0.83,0.05 1.23,-0.01l36.87 -3.03c3.43,-0.3 6.69,1.53 8.26,4.71 0.15,0.28 0.3,0.55 0.4,0.85 0.34,0.88 0.65,1.72 1.08,2.58 4.17,10.27 9.43,20.07 15.61,29.21 2.11,3.01 2.08,7.16 -0.05,10.25l-18.11 26.78c-2.58,3.78 -1.98,9.03 1.34,12.13l6.07 5.69 21.26 19.8c3.31,3.13 8.36,3.03 11.63,-0.19l23.76 -23.66c2.53,-2.55 6.27,-3.08 9.42,-1.47 8.22,4.23 17.03,7.76 26.23,10.43 6.84,1.98 13.76,3.43 20.61,4.36l1.9 7.16 7.85 29.37c0.93,3.64 4,6.2 7.46,6.42 0.73,0.07 1.46,0 2.2,-0.15l36.27 -7.13c4.29,-0.89 7.22,-5.03 6.93,-9.56l-1.83 -23.82c-0.31,-4.02 2.07,-7.86 5.71,-9.16 15.11,-5.37 29.28,-13.18 41.94,-23.14 3.01,-2.36 7.04,-2.45 9.95,-0.16l30.51 22.77c3.43,2.52 8.11,1.99 10.91,-1.32l24.68 -29.17c2.94,-3.45 2.86,-8.65 -0.16,-11.93l-27.95 -30.99c-2.42,-2.66 -3.03,-6.57 -1.56,-9.94 3.12,-7.18 5.68,-14.76 7.77,-22.65 1.12,-4.26 2.06,-8.51 2.83,-12.77 0.62,-3.34 2.95,-6.03 6.07,-6.98l37.47 -10.99c4.35,-1.28 7.02,-5.77 6.22,-10.44z"/>
  <path class="fil1" d="M3789.48 188.74c37.14,15.33 60.27,45.7 65.97,77.34 19.77,110.93 -97.63,180.85 -180.83,109.9 -21.08,-18.45 -34.96,-45.64 -35.12,-81.34 0.05,-83 78.97,-135.14 149.98,-105.9zm224.82 104.5l-9.05 -49.12 -0.23 -1.17c-1.14,-5.97 -6.4,-10.11 -12.27,-9.63l-40.43 3.28c-0.67,0.06 -1.33,0.06 -1.97,0 -4.47,-0.47 -8.41,-3.57 -9.77,-8.06 -8.36,-26.39 -21.68,-50.74 -39.31,-71.73 -0.72,-0.88 -1.3,-1.84 -1.75,-2.82 -1.66,-3.79 -1.27,-8.35 1.09,-11.85l19.67 -28.36c2.57,-3.75 2.76,-8.68 0.76,-12.56 -0.64,-1.17 -1.47,-2.32 -2.51,-3.3l-37.06 -33.93c-4.55,-4.18 -11.55,-4.08 -16.01,0.29l-32.68 31.9c-3.23,3.14 -7.89,4.08 -12.04,2.41 -6,-2.32 -12.06,-4.41 -18.32,-6.19 -11.75,-3.34 -23.51,-5.53 -35.2,-6.64l-0.06 -0.01c-4.88,-0.47 -8.92,-3.89 -10.25,-8.74l-12.33 -45.33 -0.65 -2.27c-1.53,-5.84 -7.27,-9.57 -13.13,-8.41l-48.8 9.51c-5.93,1.2 -10.11,6.77 -9.63,12.98l3.55 46.32c0.4,5.15 -2.45,9.98 -7.03,11.94 -19.25,8.59 -37.15,20.13 -52.96,34.36 -4.07,3.57 -9.92,3.86 -14.32,0.65l-32.71 -23.92c-5,-3.63 -11.73,-2.78 -15.71,1.85l-33.13 38.28c-3.91,4.54 -3.78,11.39 0.25,15.72l36.38 39.58c3.1,3.34 4.06,8.21 2.54,12.57 -1.91,5.35 -3.63,10.81 -5.13,16.41 -2.83,10.55 -4.83,21.1 -6.03,31.55 -0.51,4.77 -3.73,8.77 -8.23,10l-52.95 15.2c-5.83,1.72 -9.39,7.64 -8.29,13.73l9.25 50.4c1.02,5.32 5.44,9.28 10.59,9.65 0.54,0.02 1.12,0.07 1.68,-0.01l49.95 -4.03c4.64,-0.4 9.06,2.03 11.2,6.26 0.2,0.37 0.4,0.73 0.54,1.14 0.46,1.17 0.88,2.27 1.46,3.43 5.65,13.64 12.77,26.65 21.14,38.8 2.86,4 2.82,9.51 -0.07,13.6l-24.54 35.57c-3.5,5.03 -2.68,12 1.82,16.11l8.23 7.56 28.79 26.3c4.49,4.17 11.33,4.02 15.75,-0.24l32.19 -31.43c3.43,-3.39 8.5,-4.09 12.76,-1.95 11.14,5.62 23.06,10.3 35.53,13.85 9.25,2.64 18.64,4.57 27.92,5.8l2.57 9.51 10.64 39c1.26,4.84 5.42,8.23 10.11,8.53 0.99,0.1 1.97,0.01 2.98,-0.19l49.14 -9.47c5.81,-1.17 9.78,-6.67 9.38,-12.68l-2.48 -31.65c-0.41,-5.33 2.81,-10.44 7.74,-12.16 20.48,-7.13 39.67,-17.51 56.82,-30.74 4.07,-3.14 9.53,-3.25 13.48,-0.22l41.34 30.24c4.64,3.34 10.98,2.63 14.78,-1.75l33.44 -38.75c3.99,-4.58 3.87,-11.48 -0.22,-15.84l-37.86 -41.16c-3.28,-3.52 -4.11,-8.72 -2.12,-13.19 4.23,-9.54 7.71,-19.6 10.54,-30.1 1.51,-5.65 2.79,-11.29 3.84,-16.95 0.84,-4.43 4,-8.01 8.22,-9.27l50.75 -14.59c5.89,-1.71 9.52,-7.67 8.44,-13.87z"/>
  <g id="_3029833216944">
   <path class="fil22" d="M589.55 2446.6l68.25 250.38c1,3.69 1.37,7.43 1.15,11.04 -0.87,13.16 -9.43,24.97 -22.17,28.81l-414.29 124.42c-12.89,3.87 -26.13,-1.5 -33.4,-12.3 -2.02,-2.9 -3.53,-6.21 -4.54,-9.82l-68.25 -250.28c-4.67,-17.13 4.76,-34.95 21.1,-39.84l414.22 -124.42c16.27,-4.88 33.18,4.94 37.94,22.01z"/>
   <path class="fil2" d="M658.94 2708.02c-0.87,13.16 -9.43,24.97 -22.17,28.81l-414.29 124.42c-12.89,3.87 -26.13,-1.5 -33.4,-12.3l211 -201.77 258.88 60.83z"/>
   <path class="fil1" d="M589.55 2446.6l-185.45 241.73 -284.28 -86.67 -3.53 -12.81c-4.67,-17.13 4.76,-34.95 21.1,-39.84l414.22 -124.42c16.27,-4.88 33.18,4.94 37.94,22.01z"/>
  </g>
  <path class="fil1" d="M5620.73 941.03c29.92,53.92 51.65,115.68 63.17,185.16 2.62,14.68 3.76,31.45 4.16,49.03 0.75,75.95 -19.23,168.78 -50.98,227.17 -243.63,446.2 -860.76,353.55 -956.71,-134.98 -1.48,-8.05 -2.95,-16.09 -4.21,-24.3 -12.23,-76.45 8.47,-195.82 45,-264.49 19.24,-36 40.89,-68.55 64.27,-97.79 235.29,-291.12 664.65,-246.89 835.31,60.2zm506.43 1014.02l106.82 -198.43 2.51 -4.76c12.83,-24.24 5.76,-53.95 -16.51,-69.1l-153.67 -104.9c-2.55,-1.74 -4.89,-3.65 -6.99,-5.68 -14.61,-14.53 -19.94,-36.71 -12.05,-56.4 44.92,-116.68 66.36,-240.53 62.89,-364.92 -0.08,-5.17 0.58,-10.2 1.77,-14.96 4.79,-18.11 19.09,-32.97 37.47,-38.43l150.54 -42.86c19.75,-5.81 34.37,-22.51 38.22,-41.91 1.02,-5.95 1.36,-12.35 0.38,-18.81l-36.15 -225.8c-4.38,-27.75 -29.64,-47.57 -57.97,-45.06l-206.99 17.89c-20.4,1.68 -39.71,-8.43 -49.79,-26.23 -14.85,-25.43 -30.54,-50.22 -47.84,-74.49 -32.47,-45.58 -68.27,-87.1 -106.84,-124.68l-0.16 -0.21c-16.1,-15.71 -20.81,-39.32 -11.76,-60.18l84.35 -194.59 4.14 -9.82c11.07,-24.9 1.1,-54.5 -23.08,-67.31l-201.07 -107.11c-24.58,-12.86 -55.25,-5.37 -71.14,17.81l-118.59 172.76c-13.15,19.24 -37.02,28.02 -58.88,21.66 -93.02,-25.3 -189.62,-36.31 -286.35,-31.91 -24.64,0.83 -46.41,-15.03 -52.95,-38.93l-48.99 -178.13c-7.54,-27.1 -33.94,-43.52 -61.33,-38.73l-226.69 38.92c-26.79,4.69 -45.73,29.11 -43.66,55.91l17.73 243.63c1.61,20.65 -8.78,40.51 -26.56,51.4 -22,13.26 -43.59,27.53 -64.78,42.82 -40.02,28.87 -77.01,60.12 -110.94,93.39 -15.31,15.27 -38.13,20.02 -57.71,11.37l-232.04 -99.09c-25.68,-10.75 -55.17,-0.22 -68.45,24.34l-109.76 203.52c-11.46,21.59 -6.89,48.22 10.49,64.32 1.81,1.64 3.77,3.46 6.01,4.78l189.66 129.69c17.7,11.95 26.6,33.2 22.26,54.22 -0.32,1.83 -0.63,3.69 -1.32,5.5 -1.69,5.46 -3.31,10.53 -4.47,16.24 -18.5,64.11 -29.96,130.3 -34.49,197.01 -1.14,22.3 -16.92,41.52 -38.82,47.54l-188.32 54.21c-26.71,7.55 -43.6,34.38 -39.16,61.75l7.96 50.24 28.23 175.19c4.23,27.54 29.05,46.76 56.93,44.51l203.9 -17.6c21.8,-2.04 41.93,10.1 51.08,29.87 23.82,51.79 53.12,102.59 87.57,150.93 25.58,35.88 53.59,69.7 83.22,100.7l-17.75 40.8 -72.52 167.53c-9.2,20.63 -3.98,44.51 11.95,59.04 3.25,3.21 7.01,5.71 11.19,7.91l202.21 108.23c24.03,12.58 53.83,4.76 69.38,-17.53l80.81 -118.18c13.65,-19.93 39.59,-28.57 62.1,-20.38 93.25,33.89 191.18,52.75 289.9,55.73 23.4,0.67 43.18,16.01 48.72,38.05l61.86 225.15c7.1,25.13 31.74,40.86 57.73,36.44l229.09 -39.71c27.18,-4.61 46.34,-29.2 44.1,-56.22l-18.5 -253.47c-1.8,-21.82 10.06,-42.41 29.79,-52.4 42.12,-21.31 83.04,-46.6 122.83,-75.31 21.41,-15.44 41.99,-31.6 61.76,-48.43 15.52,-13.15 36.98,-16.6 55.57,-8.87l222.52 94.91c25.81,10.96 55.69,0.49 69.4,-24.39z"/>
  <path class="fil23" d="M8198.87 5197.16l0 4.45c0,7.14 -3.97,13.03 -8.79,13.03l-7746.19 0c-4.83,0 -8.8,-5.89 -8.8,-13.03l0 -4.45c0,-7.17 3.97,-13.02 8.8,-13.02l7746.19 0c4.82,0 8.79,5.85 8.79,13.02z"/>
  <g id="_3029833219184">
   <path class="fil1" d="M6420.1 461.16c0.43,40.14 15.05,76.81 39.03,105.29 20.75,24.64 32.47,55.61 32.81,87.8l0.5 46.43c0.32,29.51 24.72,53.41 54.24,53.09l85.88 -0.93c29.53,-0.32 53.4,-24.73 53.08,-54.25l-0.5 -46.5c-0.35,-32.26 10.87,-63.46 31.05,-88.62 23.45,-29.21 37.25,-66.48 36.56,-106.92 -1.51,-91.74 -76.36,-164.54 -168.13,-163.54 -10.18,0.11 -20.16,1.14 -29.8,3.01 -2.17,0.41 -4.29,0.86 -6.39,1.36 -74.27,17.34 -129.19,84.36 -128.33,163.79z"/>
   <path class="fil1" d="M6632.27 752.85l-0.16 1.43 -2.17 18.11 -0.56 4.77 0 0.04 -0.59 4.81 -2.16 18.1 -0.57 4.77 0 0.04 -0.56 4.81 -0.34 2.66c-1.1,9.18 -11.51,16.31 -24.04,16.45l-28.27 0.31c-2.98,0.03 -5.83,-0.34 -8.51,-1.03l0 0c-2.39,-0.63 -4.61,-1.53 -6.62,-2.66l-0.16 -0.09c-1.6,-0.93 -3.06,-2.01 -4.29,-3.22 -2.57,-2.47 -4.26,-5.45 -4.79,-8.75l-1.09 -7 -0.69 -4.41 0 -0.01 0 -0.1 0 -0.01 -0.67 -4.32 -2.57 -16.74 -0.69 -4.4 0 -0.09 -0.7 -4.34 -2.8 -18.14 92.99 -1z"/>
   <path class="fil2" d="M6557.55 825.36l0.16 0.08c2,1.14 4.23,2.04 6.62,2.67l0 0c13.02,-3.89 32.38,-9.71 61.16,-18.37l0.56 -4.82 0 -0.04 0.57 -4.78c-25.68,7.75 -55.17,16.61 -73.36,22.04 1.23,1.2 2.69,2.28 4.29,3.21zm63.5 -72.39l-15.97 0.17c-25.71,7.73 -51.17,15.37 -63,18.84l0.7 4.34 0 0.1 0.7 4.4c9.54,-2.76 32.52,-9.61 88.64,-26.54l0.16 -1.44 -11.22 0.13zm-74.36 48.9l0 0.01 0 0.1 0 0.01 0.69 4.41c11.06,-3.24 33.87,-10.05 81.4,-24.38l0.59 -4.81 0 -0.04 0.56 -4.77c-30.04,9.05 -66.35,19.97 -83.9,25.16l0.66 4.32z"/>
   <polygon class="fil9" points="6556.11,754.29 6517.75,541.86 6525.15,540.53 6563.52,752.96 "/>
   <polygon class="fil9" points="6619.83,753.66 6612.39,752.39 6648.48,542.51 6655.88,543.78 "/>
   <path class="fil9" d="M6632.18 549.84c-3.91,3.84 -6.56,8.74 -6.3,12.49 0.19,2.72 1.83,4.65 4.91,5.74 1.66,0.6 2.82,0.13 3.6,-1.45 1.71,-3.52 0.9,-10.99 -2.21,-16.78zm-84.06 -0.54c-3.95,3.59 -6.13,8.62 -6.57,13.19 -0.36,3.9 0.63,7.04 2.42,7.65 2.89,1 5.03,0.32 6.26,-2.02 2.29,-4.25 1.34,-12.37 -2.1,-18.82zm28.56 6.9c-2.06,2.62 -3.69,5.38 -4.52,7.97 -1.66,5.11 -0.24,8.53 4.32,10.19 1.82,0.67 4.24,1.19 5.39,-0.14 1.76,-2.05 0.66,-7.79 -2.69,-13.97 -0.76,-1.37 -1.59,-2.72 -2.5,-4.04zm32.9 -0.19c-4.43,6.62 -7.51,14.09 -6.73,18.06 0.22,1.26 0.85,1.97 1.95,2.21 4.49,0.96 7.2,-0.37 8.11,-3.96 1.06,-4.14 -0.45,-10.6 -3.34,-16.3zm-1.99 22.86c-0.98,0.01 -2.06,-0.1 -3.25,-0.36 -2.03,-0.44 -3.34,-1.82 -3.72,-3.99 -0.91,-4.7 2.68,-13.36 7.78,-20.72 -2.77,-4.7 -6.41,-8.56 -10.19,-9.66 -5.62,-1.63 -14.13,3.62 -20.04,10.27 1.12,1.53 2.12,3.14 3,4.76 3.13,5.74 5.41,13.1 2.42,16.54 -1.09,1.28 -3.34,2.45 -7.88,0.79 -5.66,-2.06 -7.74,-6.81 -5.72,-13.04 1.01,-3.05 2.88,-6.23 5.27,-9.19 -4.7,-5.98 -10.94,-10.49 -17.01,-9.66 -3.25,0.45 -6.02,1.62 -8.33,3.25 3.97,7.2 4.96,16.39 2.31,21.35 -1.8,3.38 -5.01,4.47 -9.01,3.1 -2.89,-0.99 -4.41,-4.92 -3.91,-10.02 0.5,-5.22 3.04,-10.96 7.63,-14.98 -1.21,-1.87 -2.71,-3.52 -4.38,-4.8 -10.58,-8.03 -19.15,0.8 -19.52,1.18l-1.65 -1.56c0.13,-0.11 10.37,-10.68 22.56,-1.44 1.82,1.41 3.44,3.2 4.78,5.22 2.56,-1.78 5.61,-3.05 9.22,-3.55 6.8,-0.93 13.66,3.81 18.79,10.16 6.42,-7.13 15.59,-12.44 22.09,-10.56 4.09,1.19 7.97,5.09 10.99,9.89 2.69,-3.57 5.69,-6.71 8.65,-8.7 4.72,-3.2 7.82,-2.51 9.59,-1.38 1.82,1.17 3.4,2.74 4.67,4.57 1.43,-1.15 2.89,-2.14 4.39,-2.9 5.45,-2.8 10.52,-2.66 14.23,0.42l-1.46 1.75c-3.99,-3.31 -9.06,-1.5 -11.74,-0.13 -1.47,0.75 -2.89,1.7 -4.2,2.78 3.72,6.57 4.55,15.17 2.48,19.37 -1.29,2.64 -3.63,3.57 -6.41,2.6 -4.99,-1.77 -6.25,-5.18 -6.4,-7.73 -0.33,-4.88 2.98,-10.48 7.39,-14.62 -1.18,-1.7 -2.58,-3.15 -4.16,-4.18 -2.19,-1.39 -5.06,-0.04 -7.1,1.35 -2.95,1.99 -5.98,5.25 -8.71,8.94 3.48,6.46 5.33,14.02 4.1,18.91 -0.61,2.38 -2.39,5.93 -7.54,5.99z"/>
  </g>
  <g id="_3029833222960">
   <polygon class="fil2" points="2267.21,3152.51 2324.69,3152.51 2324.69,2930.52 2267.21,2930.52 "/>
   <path class="fil2" d="M2317.51 2908.52l-40.5 0c-3.95,0 -7.19,-3.39 -7.19,-7.54l0 0c0,-4.15 3.24,-7.55 7.19,-7.55l40.5 0c3.95,0 7.19,3.4 7.19,7.55l0 0c0,4.15 -3.24,7.54 -7.19,7.54z"/>
   <polygon class="fil2" points="2168.1,3152.51 2225.58,3152.51 2225.58,2756.19 2168.1,2756.19 "/>
   <path class="fil2" d="M2217.09 2739.74l-40.5 0c-3.95,0 -7.19,-3.4 -7.19,-7.54l0 0c0,-4.16 3.24,-7.55 7.19,-7.55l40.5 0c3.95,0 7.18,3.39 7.18,7.55l0 0c0,4.14 -3.23,7.54 -7.18,7.54z"/>
   <polygon class="fil2" points="2073.13,3152.51 2130.62,3152.51 2130.62,2480.22 2073.13,2480.22 "/>
   <path class="fil2" d="M2122.11 2461.87l-40.5 0c-3.95,0 -7.19,-3.39 -7.19,-7.54l0 0c0,-4.15 3.24,-7.55 7.19,-7.55l40.5 0c3.96,0 7.19,3.4 7.19,7.55l0 0c0,4.15 -3.23,7.54 -7.19,7.54z"/>
   <polygon class="fil2" points="1975.65,3152.51 2033.14,3152.51 2033.14,2602.2 1975.65,2602.2 "/>
   <path class="fil2" d="M2024.64 2587.47l-40.5 0c-3.95,0 -7.19,-3.4 -7.19,-7.54l0 0c0,-4.16 3.24,-7.55 7.19,-7.55l40.5 0c3.96,0 7.19,3.39 7.19,7.55l0 0c0,4.14 -3.23,7.54 -7.19,7.54z"/>
   <polygon class="fil2" points="1880.67,3152.51 1938.16,3152.51 1938.16,2296.81 1880.67,2296.81 "/>
   <path class="fil2" d="M1929.67 2280.42l-40.5 0c-3.96,0 -7.19,-3.4 -7.19,-7.55l0 0c0,-4.14 3.23,-7.55 7.19,-7.55l40.5 0c3.95,0 7.19,3.4 7.19,7.55l0 0c0,4.15 -3.24,7.55 -7.19,7.55z"/>
   <polygon class="fil2" points="1788.19,3152.51 1845.68,3152.51 1845.68,2430.45 1788.19,2430.45 "/>
   <path class="fil2" d="M1837.19 2415.08l-40.5 0c-3.96,0 -7.19,-3.39 -7.19,-7.54l0 0c0,-4.15 3.23,-7.54 7.19,-7.54l40.5 0c3.95,0 7.19,3.39 7.19,7.54l0 0c0,4.15 -3.24,7.54 -7.19,7.54z"/>
  </g>
  <rect class="fil24" x="2598.72" y="673.31" width="3291.23" height="4510.82" rx="66.81" ry="69.22"/>
  <g id="_3029833228880">
   <path class="fil1" d="M6828.06 1659.27c4.61,-51.66 48.26,-89.98 97.47,-85.58 49.23,4.4 85.37,49.84 80.76,101.5 -4.61,51.66 -48.25,89.98 -97.47,85.58 -49.21,-4.4 -85.37,-49.84 -80.76,-101.5z"/>
   <path class="fil11" d="M6891.92 1627.15c1.48,-16.58 15.49,-28.88 31.28,-27.47 15.79,1.41 27.4,16 25.92,32.58 -1.48,16.58 -15.5,28.88 -31.28,27.47 -15.8,-1.41 -27.4,-16 -25.92,-32.58z"/>
   <path class="fil11" d="M6917.84 1659.73c-27.64,-2.47 -52.15,19.05 -54.75,48.07l100.11 8.94c2.6,-29.02 -17.71,-54.54 -45.36,-57z"/>
   <path class="fil1" d="M6220.62 1354.17c3.12,-34.85 32.56,-60.7 65.75,-57.73 33.21,2.96 57.6,33.62 54.48,68.48 -3.11,34.84 -32.56,60.69 -65.76,57.72 -33.19,-2.96 -57.59,-33.62 -54.48,-68.47z"/>
   <path class="fil11" d="M6263.7 1332.5c1,-11.19 10.46,-19.48 21.11,-18.53 10.66,0.95 18.49,10.79 17.49,21.98 -0.99,11.18 -10.45,19.48 -21.1,18.53 -10.66,-0.95 -18.49,-10.79 -17.49,-21.97z"/>
   <path class="fil11" d="M6281.19 1354.48c-18.64,-1.67 -35.18,12.86 -36.92,32.43l67.52 6.03c1.75,-19.57 -11.94,-36.79 -30.6,-38.46z"/>
   <path class="fil1" d="M6737.68 1081.02c1.11,-2.83 4.19,-4.2 6.88,-3.05 2.68,1.14 3.94,4.35 2.83,7.17 -1.1,2.83 -4.18,4.19 -6.86,3.05 -2.68,-1.14 -3.96,-4.35 -2.86,-7.17z"/>
   <path class="fil1" d="M6760.16 1090.56c1.11,-2.83 4.19,-4.19 6.87,-3.05 2.68,1.14 3.96,4.35 2.85,7.17 -1.11,2.83 -4.18,4.19 -6.86,3.05 -2.69,-1.14 -3.96,-4.35 -2.86,-7.17z"/>
   <path class="fil1" d="M6785.79 1107.4c-2.68,-1.14 -3.96,-4.35 -2.86,-7.17 1.13,-2.83 4.19,-4.2 6.88,-3.05 2.68,1.14 3.96,4.35 2.85,7.17 -1.11,2.82 -4.18,4.19 -6.87,3.05z"/>
   <path class="fil1" d="M6805.71 1109.9c1.11,-2.83 4.18,-4.2 6.87,-3.06 2.68,1.14 3.95,4.35 2.84,7.18 -1.11,2.82 -4.18,4.19 -6.87,3.05 -2.68,-1.14 -3.96,-4.35 -2.85,-7.17z"/>
   <path class="fil1" d="M6828.2 1119.44c1.11,-2.82 4.18,-4.19 6.86,-3.04 2.68,1.13 3.96,4.35 2.85,7.17 -1.11,2.83 -4.18,4.19 -6.87,3.04 -2.68,-1.14 -3.95,-4.35 -2.83,-7.17z"/>
   <path class="fil1" d="M6853.81 1136.29c-2.68,-1.14 -3.96,-4.35 -2.85,-7.18 1.11,-2.83 4.18,-4.19 6.87,-3.05 2.68,1.14 3.96,4.35 2.86,7.18 -1.12,2.82 -4.19,4.19 -6.87,3.05z"/>
   <path class="fil1" d="M6872.83 1138.39c1.11,-2.82 4.18,-4.19 6.87,-3.05 2.68,1.14 3.95,4.35 2.83,7.18 -1.11,2.82 -4.18,4.19 -6.86,3.04 -2.68,-1.14 -3.96,-4.35 -2.85,-7.17z"/>
   <path class="fil1" d="M6895.31 1147.93c1.11,-2.82 4.19,-4.19 6.87,-3.05 2.68,1.14 3.96,4.35 2.85,7.17 -1.11,2.83 -4.18,4.2 -6.87,3.05 -2.69,-1.14 -3.96,-4.35 -2.85,-7.17z"/>
   <path class="fil1" d="M6920.92 1164.77c-2.68,-1.14 -3.96,-4.35 -2.85,-7.17 1.11,-2.83 4.18,-4.19 6.87,-3.05 2.68,1.14 3.96,4.35 2.85,7.18 -1.11,2.82 -4.18,4.18 -6.87,3.04z"/>
   <path class="fil1" d="M6940.85 1167.27c1.11,-2.83 4.18,-4.19 6.86,-3.05 2.69,1.14 3.96,4.35 2.85,7.17 -1.11,2.83 -4.18,4.19 -6.86,3.05 -2.68,-1.14 -3.96,-4.35 -2.85,-7.17z"/>
   <path class="fil1" d="M6963.34 1176.82c1.11,-2.83 4.19,-4.19 6.87,-3.05 2.68,1.14 3.96,4.35 2.85,7.17 -1.11,2.83 -4.18,4.19 -6.87,3.05 -2.68,-1.14 -3.95,-4.35 -2.84,-7.17z"/>
   <path class="fil1" d="M6988.95 1193.66c-2.68,-1.14 -3.96,-4.35 -2.85,-7.18 1.11,-2.82 4.18,-4.19 6.87,-3.05 2.68,1.14 3.95,4.35 2.84,7.18 -1.11,2.82 -4.18,4.19 -6.87,3.05z"/>
   <path class="fil1" d="M7008.94 1196.18c1.11,-2.83 4.18,-4.2 6.87,-3.05 2.68,1.14 3.96,4.35 2.85,7.17 -1.11,2.83 -4.19,4.19 -6.87,3.05 -2.68,-1.14 -3.95,-4.35 -2.84,-7.17z"/>
   <path class="fil1" d="M7031.42 1205.71c1.11,-2.82 4.18,-4.19 6.86,-3.04 2.69,1.14 3.96,4.35 2.85,7.17 -1.11,2.82 -4.18,4.19 -6.86,3.05 -2.68,-1.14 -3.96,-4.35 -2.85,-7.18z"/>
   <path class="fil1" d="M7057.05 1222.56c-2.69,-1.14 -3.96,-4.35 -2.85,-7.18 1.11,-2.82 4.18,-4.19 6.86,-3.05 2.69,1.14 3.96,4.35 2.84,7.18 -1.08,2.83 -4.17,4.19 -6.85,3.05z"/>
   <path class="fil1" d="M7076.97 1225.05c1.11,-2.82 4.17,-4.19 6.85,-3.05 2.68,1.14 3.99,4.35 2.86,7.18 -1.11,2.82 -4.2,4.19 -6.88,3.04 -2.68,-1.14 -3.95,-4.35 -2.83,-7.17z"/>
   <path class="fil1" d="M7099.46 1234.6c1.08,-2.83 4.17,-4.19 6.85,-3.05 2.68,1.14 3.96,4.35 2.84,7.17 -1.11,2.83 -4.17,4.2 -6.86,3.05 -2.68,-1.14 -3.95,-4.35 -2.83,-7.17z"/>
   <path class="fil1" d="M7125.06 1251.44c-2.68,-1.14 -3.96,-4.35 -2.83,-7.17 1.11,-2.83 4.17,-4.2 6.85,-3.05 2.68,1.14 3.96,4.35 2.86,7.17 -1.11,2.83 -4.2,4.19 -6.88,3.05z"/>
   <path class="fil1" d="M7144.07 1253.55c1.11,-2.83 4.17,-4.2 6.89,-3.05 2.66,1.14 3.95,4.35 2.83,7.17 -1.11,2.82 -4.17,4.19 -6.88,3.05 -2.66,-1.14 -3.96,-4.35 -2.84,-7.17z"/>
   <path class="fil1" d="M7166.56 1263.09c1.11,-2.83 4.17,-4.19 6.86,-3.05 2.68,1.14 3.95,4.35 2.86,7.17 -1.11,2.83 -4.2,4.19 -6.88,3.05 -2.69,-1.14 -3.96,-4.35 -2.84,-7.17z"/>
   <path class="fil1" d="M7192.19 1279.93c-2.68,-1.14 -3.98,-4.35 -2.86,-7.18 1.11,-2.82 4.2,-4.18 6.86,-3.04 2.68,1.13 3.98,4.35 2.86,7.17 -1.11,2.83 -4.2,4.19 -6.86,3.05z"/>
   <path class="fil1" d="M7212.09 1282.42c1.11,-2.83 4.2,-4.19 6.88,-3.04 2.69,1.13 3.96,4.35 2.84,7.16 -1.08,2.83 -4.17,4.2 -6.86,3.06 -2.68,-1.14 -3.98,-4.35 -2.86,-7.18z"/>
   <path class="fil1" d="M7234.58 1291.98c1.11,-2.83 4.2,-4.2 6.86,-3.06 2.68,1.14 3.98,4.35 2.86,7.18 -1.11,2.83 -4.2,4.19 -6.86,3.05 -2.71,-1.14 -3.98,-4.35 -2.86,-7.17z"/>
   <path class="fil1" d="M7260.21 1308.81c-2.68,-1.14 -3.95,-4.35 -2.86,-7.17 1.11,-2.83 4.2,-4.19 6.88,-3.04 2.68,1.13 3.96,4.35 2.84,7.17 -1.11,2.82 -4.17,4.19 -6.86,3.04z"/>
   <path class="fil1" d="M6988.16 1577.11c-2.17,-2 -2.37,-5.48 -0.44,-7.78 1.93,-2.3 5.25,-2.53 7.43,-0.53 2.17,2 2.37,5.48 0.44,7.78 -1.93,2.3 -5.25,2.54 -7.43,0.53z"/>
   <path class="fil1" d="M7004.3 1557.88c-2.17,-2 -2.37,-5.48 -0.44,-7.78 1.92,-2.29 5.25,-2.53 7.41,-0.53 2.18,2 2.37,5.48 0.46,7.78 -1.93,2.3 -5.26,2.54 -7.43,0.53z"/>
   <path class="fil1" d="M7028.09 1537.87c-1.93,2.29 -5.27,2.53 -7.43,0.53 -2.17,-2 -2.37,-5.49 -0.44,-7.78 1.92,-2.3 5.25,-2.54 7.41,-0.53 2.18,2 2.37,5.48 0.46,7.78z"/>
   <path class="fil1" d="M7037 1518.92c-2.15,-2 -2.36,-5.48 -0.43,-7.78 1.9,-2.3 5.26,-2.53 7.4,-0.53 2.18,2 2.39,5.48 0.46,7.78 -1.93,2.3 -5.26,2.53 -7.43,0.53z"/>
   <path class="fil1" d="M7053.15 1499.69c-2.15,-2 -2.36,-5.48 -0.46,-7.78 1.94,-2.3 5.29,-2.53 7.44,-0.53 2.18,2 2.38,5.48 0.45,7.78 -1.93,2.3 -5.25,2.54 -7.43,0.53z"/>
   <path class="fil1" d="M7076.93 1479.68c-1.93,2.3 -5.26,2.54 -7.41,0.53 -2.18,-2 -2.39,-5.48 -0.46,-7.78 1.93,-2.29 5.26,-2.53 7.44,-0.52 2.15,2 2.36,5.48 0.43,7.77z"/>
   <path class="fil1" d="M7085.9 1460.68c-2.18,-2 -2.36,-5.48 -0.43,-7.78 1.93,-2.3 5.26,-2.54 7.4,-0.53 2.18,2 2.39,5.48 0.46,7.78 -1.93,2.3 -5.26,2.54 -7.43,0.53z"/>
   <path class="fil1" d="M7102.05 1441.46c-2.18,-2 -2.36,-5.48 -0.43,-7.78 1.93,-2.3 5.23,-2.54 7.4,-0.53 2.18,2 2.39,5.48 0.46,7.78 -1.93,2.3 -5.26,2.54 -7.43,0.53z"/>
   <path class="fil1" d="M7125.82 1421.44c-1.93,2.3 -5.25,2.54 -7.43,0.53 -2.15,-2 -2.36,-5.48 -0.43,-7.77 1.93,-2.3 5.26,-2.54 7.43,-0.53 2.15,2 2.36,5.47 0.43,7.77z"/>
   <path class="fil1" d="M7134.76 1402.5c-2.18,-2 -2.36,-5.48 -0.46,-7.78 1.94,-2.3 5.26,-2.54 7.44,-0.53 2.18,2 2.38,5.48 0.45,7.78 -1.93,2.29 -5.25,2.53 -7.43,0.53z"/>
   <path class="fil1" d="M7150.91 1383.27c-2.18,-2 -2.38,-5.49 -0.45,-7.79 1.93,-2.29 5.25,-2.53 7.43,-0.52 2.18,2 2.36,5.48 0.46,7.78 -1.93,2.3 -5.29,2.53 -7.44,0.53z"/>
   <path class="fil1" d="M7174.69 1363.26c-1.93,2.3 -5.26,2.54 -7.43,0.53 -2.15,-2 -2.36,-5.48 -0.43,-7.78 1.93,-2.3 5.23,-2.54 7.4,-0.53 2.18,2 2.39,5.49 0.46,7.78z"/>
   <path class="fil1" d="M7182.95 1345.09c-2.15,-2 -2.36,-5.49 -0.43,-7.78 1.93,-2.3 5.25,-2.54 7.4,-0.54 2.18,2 2.39,5.49 0.46,7.78 -1.93,2.3 -5.26,2.54 -7.43,0.54z"/>
   <path class="fil1" d="M7199.1 1325.86c-2.18,-2 -2.36,-5.48 -0.43,-7.78 1.93,-2.3 5.23,-2.54 7.4,-0.53 2.18,2 2.39,5.48 0.46,7.78 -1.93,2.3 -5.26,2.53 -7.43,0.53z"/>
   <path class="fil1" d="M7222.88 1305.85c-1.93,2.3 -5.26,2.54 -7.4,0.53 -2.18,-2 -2.39,-5.48 -0.46,-7.78 1.93,-2.3 5.26,-2.53 7.43,-0.53 2.15,2 2.36,5.48 0.43,7.78z"/>
   <path class="fil1" d="M7231.81 1286.9c-2.18,-2 -2.36,-5.48 -0.46,-7.78 1.93,-2.3 5.26,-2.54 7.43,-0.53 2.18,2 2.39,5.48 0.46,7.78 -1.96,2.3 -5.26,2.54 -7.43,0.53z"/>
   <path class="fil1" d="M7247.96 1267.68c-2.18,-2 -2.39,-5.49 -0.46,-7.79 1.93,-2.3 5.26,-2.53 7.43,-0.53 2.18,2 2.36,5.48 0.46,7.79 -1.96,2.29 -5.26,2.53 -7.43,0.53z"/>
   <path class="fil1" d="M7271.74 1247.66c-1.93,2.3 -5.25,2.53 -7.43,0.53 -2.15,-2 -2.36,-5.48 -0.43,-7.78 1.93,-2.3 5.23,-2.54 7.41,-0.54 2.18,2 2.38,5.49 0.45,7.79z"/>
   <path class="fil1" d="M7023.77 1667.07c-0.19,-3.04 2,-5.68 4.9,-5.92 2.89,-0.24 5.39,2.03 5.58,5.07 0.22,3.04 -1.97,5.68 -4.87,5.92 -2.89,0.24 -5.39,-2.03 -5.61,-5.06z"/>
   <path class="fil1" d="M7048.03 1665.08c-0.19,-3.03 2,-5.68 4.9,-5.92 2.89,-0.24 5.39,2.03 5.59,5.06 0.22,3.04 -1.97,5.69 -4.87,5.92 -2.9,0.24 -5.4,-2.03 -5.62,-5.07z"/>
   <path class="fil1" d="M7078.23 1668.15c-2.89,0.24 -5.4,-2.03 -5.62,-5.06 -0.19,-3.04 2,-5.69 4.9,-5.92 2.89,-0.24 5.4,2.03 5.62,5.06 0.19,3.04 -2,5.69 -4.9,5.92z"/>
   <path class="fil1" d="M7097.2 1661.08c-0.19,-3.04 2,-5.68 4.9,-5.92 2.89,-0.24 5.42,2.03 5.62,5.07 0.19,3.04 -2,5.68 -4.9,5.92 -2.89,0.24 -5.4,-2.03 -5.62,-5.06z"/>
   <path class="fil1" d="M7121.47 1659.11c-0.19,-3.04 2,-5.69 4.9,-5.92 2.89,-0.24 5.39,2.03 5.61,5.06 0.19,3.04 -2,5.69 -4.9,5.92 -2.89,0.24 -5.39,-2.03 -5.61,-5.06z"/>
   <path class="fil1" d="M7151.66 1662.17c-2.89,0.24 -5.39,-2.03 -5.61,-5.06 -0.19,-3.04 2,-5.69 4.9,-5.92 2.89,-0.24 5.39,2.03 5.61,5.06 0.19,3.04 -2,5.69 -4.9,5.92z"/>
   <path class="fil1" d="M7170.73 1655.09c-0.22,-3.04 1.97,-5.68 4.87,-5.92 2.89,-0.23 5.39,2.03 5.61,5.07 0.19,3.04 -1.97,5.69 -4.87,5.92 -2.89,0.23 -5.42,-2.03 -5.61,-5.07z"/>
   <path class="fil1" d="M7194.99 1653.12c-0.22,-3.04 1.97,-5.69 4.87,-5.92 2.89,-0.24 5.4,2.03 5.62,5.07 0.19,3.03 -1.97,5.68 -4.88,5.92 -2.92,0.23 -5.42,-2.03 -5.61,-5.07z"/>
   <path class="fil1" d="M7225.19 1656.18c-2.92,0.23 -5.43,-2.03 -5.62,-5.07 -0.22,-3.04 1.97,-5.69 4.87,-5.92 2.89,-0.23 5.4,2.03 5.62,5.07 0.19,3.04 -1.97,5.68 -4.87,5.92z"/>
   <path class="fil1" d="M7244.15 1649.11c-0.22,-3.04 1.97,-5.68 4.87,-5.92 2.89,-0.23 5.43,2.03 5.62,5.07 0.22,3.04 -1.97,5.68 -4.87,5.92 -2.92,0.23 -5.43,-2.03 -5.62,-5.07z"/>
   <path class="fil1" d="M7268.42 1647.13c-0.22,-3.04 1.97,-5.69 4.87,-5.92 2.89,-0.24 5.42,2.03 5.61,5.07 0.22,3.04 -1.97,5.68 -4.9,5.92 -2.89,0.23 -5.39,-2.03 -5.58,-5.07z"/>
   <path class="fil1" d="M7298.61 1650.2c-2.92,0.23 -5.42,-2.03 -5.61,-5.07 -0.22,-3.04 1.97,-5.69 4.87,-5.92 2.89,-0.24 5.42,2.03 5.61,5.07 0.22,3.04 -1.97,5.68 -4.87,5.92z"/>
   <path class="fil1" d="M7316.6 1643.21c-0.19,-3.04 1.97,-5.69 4.87,-5.92 2.9,-0.24 5.43,2.03 5.62,5.07 0.19,3.03 -1.97,5.68 -4.9,5.92 -2.89,0.24 -5.4,-2.03 -5.59,-5.06z"/>
   <path class="fil1" d="M7340.87 1641.23c-0.19,-3.04 1.97,-5.69 4.87,-5.92 2.89,-0.24 5.42,2.03 5.61,5.06 0.19,3.04 -2,5.68 -4.9,5.92 -2.86,0.24 -5.39,-2.03 -5.58,-5.06z"/>
   <path class="fil1" d="M7371.03 1644.29c-2.86,0.24 -5.39,-2.03 -5.58,-5.06 -0.19,-3.04 1.97,-5.69 4.87,-5.92 2.89,-0.24 5.42,2.03 5.61,5.06 0.19,3.04 -2,5.69 -4.9,5.92z"/>
   <path class="fil1" d="M7390.04 1637.22c-0.19,-3.04 1.97,-5.69 4.87,-5.92 2.89,-0.24 5.42,2.03 5.61,5.07 0.19,3.04 -2,5.68 -4.9,5.92 -2.86,0.24 -5.39,-2.03 -5.58,-5.06z"/>
   <path class="fil1" d="M7414.3 1635.24c-0.19,-3.03 1.97,-5.68 4.87,-5.92 2.9,-0.24 5.43,2.03 5.62,5.06 0.19,3.04 -2,5.69 -4.87,5.92 -2.89,0.24 -5.42,-2.03 -5.62,-5.07z"/>
   <path class="fil1" d="M7444.5 1638.32c-2.89,0.23 -5.42,-2.03 -5.62,-5.07 -0.19,-3.04 1.97,-5.69 4.88,-5.92 2.89,-0.24 5.42,2.03 5.61,5.06 0.19,3.04 -2,5.69 -4.87,5.93z"/>
   <path class="fil1" d="M6895.18 1554.58c-2.83,0.68 -5.64,-1.17 -6.25,-4.14 -0.64,-2.97 1.16,-5.93 4,-6.6 2.84,-0.68 5.64,1.18 6.25,4.14 0.64,2.98 -1.17,5.92 -4,6.6z"/>
   <path class="fil1" d="M6889.97 1529.71c-2.84,0.67 -5.65,-1.18 -6.26,-4.15 -0.63,-2.97 1.16,-5.92 4,-6.6 2.84,-0.67 5.64,1.18 6.26,4.15 0.63,2.97 -1.17,5.92 -4,6.6z"/>
   <path class="fil1" d="M6888.7 1497.91c0.61,2.97 -1.18,5.92 -4.02,6.6 -2.83,0.68 -5.65,-1.17 -6.26,-4.14 -0.62,-2.97 1.17,-5.92 4.02,-6.6 2.83,-0.67 5.62,1.18 6.26,4.15z"/>
   <path class="fil1" d="M6879.41 1479.31c-2.83,0.68 -5.63,-1.17 -6.25,-4.14 -0.63,-2.97 1.17,-5.92 4,-6.6 2.84,-0.68 5.64,1.18 6.26,4.14 0.63,2.97 -1.17,5.93 -4.01,6.6z"/>
   <path class="fil1" d="M6874.2 1454.44c-2.84,0.67 -5.64,-1.18 -6.26,-4.15 -0.63,-2.97 1.16,-5.92 4,-6.6 2.84,-0.67 5.64,1.18 6.26,4.15 0.62,2.97 -1.17,5.92 -4,6.6z"/>
   <path class="fil1" d="M6872.93 1422.64c0.62,2.96 -1.17,5.92 -4.02,6.6 -2.83,0.68 -5.62,-1.17 -6.26,-4.14 -0.62,-2.97 1.17,-5.92 4.02,-6.6 2.83,-0.68 5.63,1.18 6.26,4.15z"/>
   <path class="fil1" d="M6863.62 1403.98c-2.83,0.67 -5.62,-1.18 -6.26,-4.15 -0.61,-2.97 1.17,-5.92 4.02,-6.6 2.83,-0.67 5.63,1.18 6.26,4.15 0.62,2.97 -1.17,5.92 -4.02,6.6z"/>
   <path class="fil1" d="M6858.41 1379.1c-2.83,0.68 -5.64,-1.17 -6.25,-4.15 -0.62,-2.96 1.17,-5.92 4.02,-6.6 2.83,-0.68 5.62,1.17 6.25,4.15 0.62,2.96 -1.17,5.92 -4.02,6.6z"/>
   <path class="fil1" d="M6857.14 1347.3c0.63,2.97 -1.18,5.92 -4,6.6 -2.85,0.67 -5.65,-1.18 -6.27,-4.14 -0.63,-2.98 1.18,-5.93 4.01,-6.6 2.84,-0.68 5.64,1.17 6.26,4.14z"/>
   <path class="fil1" d="M6847.85 1328.7c-2.83,0.68 -5.62,-1.17 -6.25,-4.14 -0.62,-2.97 1.17,-5.92 4.02,-6.6 2.83,-0.68 5.62,1.17 6.25,4.14 0.62,2.97 -1.17,5.92 -4.02,6.6z"/>
   <path class="fil1" d="M6842.64 1303.84c-2.83,0.68 -5.63,-1.17 -6.26,-4.14 -0.62,-2.97 1.17,-5.92 4.02,-6.6 2.83,-0.68 5.62,1.18 6.26,4.14 0.61,2.97 -1.17,5.92 -4.02,6.6z"/>
   <path class="fil1" d="M6841.37 1272.04c0.63,2.97 -1.17,5.92 -4,6.6 -2.84,0.67 -5.65,-1.18 -6.26,-4.14 -0.64,-2.98 1.17,-5.92 4,-6.6 2.84,-0.68 5.64,1.17 6.26,4.14z"/>
   <path class="fil1" d="M6832.29 1254.45c-2.83,0.67 -5.62,-1.18 -6.26,-4.15 -0.61,-2.97 1.18,-5.92 4.02,-6.6 2.83,-0.67 5.63,1.18 6.26,4.15 0.62,2.97 -1.17,5.92 -4.02,6.6z"/>
   <path class="fil1" d="M6827.08 1229.58c-2.83,0.68 -5.64,-1.18 -6.25,-4.15 -0.62,-2.96 1.17,-5.92 4,-6.6 2.84,-0.68 5.64,1.18 6.27,4.14 0.62,2.97 -1.17,5.93 -4.02,6.6z"/>
   <path class="fil1" d="M6825.81 1197.78c0.63,2.97 -1.18,5.92 -4.01,6.6 -2.83,0.67 -5.64,-1.18 -6.25,-4.15 -0.64,-2.97 1.16,-5.92 4,-6.6 2.84,-0.68 5.64,1.17 6.26,4.14z"/>
   <path class="fil1" d="M6816.52 1179.19c-2.83,0.67 -5.63,-1.18 -6.26,-4.15 -0.62,-2.97 1.17,-5.92 4.02,-6.6 2.83,-0.68 5.62,1.17 6.25,4.14 0.62,2.97 -1.17,5.92 -4.01,6.6z"/>
   <path class="fil1" d="M6811.31 1154.31c-2.83,0.68 -5.65,-1.17 -6.26,-4.14 -0.62,-2.97 1.17,-5.92 4.02,-6.6 2.83,-0.68 5.62,1.17 6.26,4.14 0.61,2.97 -1.18,5.93 -4.02,6.6z"/>
   <path class="fil1" d="M6810.04 1122.51c0.63,2.97 -1.17,5.92 -4,6.6 -2.84,0.68 -5.64,-1.18 -6.26,-4.15 -0.63,-2.97 1.17,-5.92 4,-6.6 2.84,-0.68 5.64,1.17 6.26,4.14z"/>
   <path class="fil1" d="M6316.97 1331.73c-1.43,-2.64 -0.52,-6.01 2.01,-7.52 2.54,-1.51 5.74,-0.59 7.16,2.05 1.41,2.65 0.52,6.01 -2.01,7.53 -2.54,1.5 -5.74,0.58 -7.16,-2.06z"/>
   <path class="fil1" d="M6338.18 1319.07c-1.41,-2.65 -0.5,-6.01 2.03,-7.52 2.52,-1.51 5.73,-0.59 7.14,2.05 1.42,2.64 0.52,6.01 -2.02,7.52 -2.54,1.51 -5.73,0.59 -7.16,-2.05z"/>
   <path class="fil1" d="M6366.85 1308.29c-2.54,1.51 -5.74,0.59 -7.16,-2.05 -1.43,-2.65 -0.52,-6.01 2.01,-7.52 2.54,-1.51 5.74,-0.59 7.16,2.05 1.41,2.65 0.52,6.01 -2.01,7.52z"/>
   <path class="fil1" d="M6381.19 1293.42c-1.42,-2.64 -0.52,-6.01 2.02,-7.52 2.52,-1.51 5.73,-0.59 7.14,2.05 1.43,2.64 0.52,6.01 -2.01,7.52 -2.54,1.51 -5.74,0.59 -7.15,-2.05z"/>
   <path class="fil1" d="M6402.41 1280.76c-1.43,-2.65 -0.52,-6.01 2.01,-7.52 2.54,-1.51 5.74,-0.59 7.16,2.06 1.41,2.64 0.52,6.01 -2.01,7.52 -2.54,1.51 -5.74,0.6 -7.16,-2.05z"/>
   <path class="fil1" d="M6431.06 1269.98c-2.54,1.51 -5.74,0.59 -7.16,-2.05 -1.41,-2.64 -0.51,-6.01 2.03,-7.52 2.52,-1.52 5.74,-0.6 7.14,2.05 1.42,2.64 0.52,6.01 -2.01,7.52z"/>
   <path class="fil1" d="M6445.47 1255.07c-1.43,-2.64 -0.52,-6.01 2.01,-7.52 2.54,-1.51 5.74,-0.59 7.16,2.05 1.41,2.65 0.52,6.01 -2.02,7.52 -2.53,1.51 -5.74,0.59 -7.15,-2.05z"/>
   <path class="fil1" d="M6466.68 1242.41c-1.41,-2.64 -0.5,-6.01 2.02,-7.52 2.53,-1.5 5.74,-0.59 7.15,2.06 1.43,2.64 0.52,6.01 -2.01,7.52 -2.54,1.51 -5.73,0.59 -7.16,-2.06z"/>
   <path class="fil1" d="M6495.33 1231.64c-2.53,1.51 -5.73,0.59 -7.16,-2.05 -1.42,-2.65 -0.51,-6.01 2.02,-7.52 2.54,-1.51 5.74,-0.6 7.16,2.05 1.41,2.64 0.52,6.01 -2.02,7.52z"/>
   <path class="fil1" d="M6509.67 1216.77c-1.41,-2.65 -0.52,-6.01 2.03,-7.52 2.52,-1.51 5.74,-0.59 7.15,2.05 1.42,2.64 0.52,6.01 -2.02,7.52 -2.53,1.51 -5.73,0.59 -7.16,-2.05z"/>
   <path class="fil1" d="M6530.9 1204.11c-1.43,-2.65 -0.52,-6.01 2.01,-7.52 2.54,-1.51 5.74,-0.59 7.16,2.05 1.41,2.65 0.52,6.01 -2.01,7.52 -2.54,1.51 -5.75,0.59 -7.16,-2.05z"/>
   <path class="fil1" d="M6559.56 1193.33c-2.54,1.51 -5.74,0.6 -7.16,-2.05 -1.41,-2.64 -0.5,-6.01 2.02,-7.52 2.54,-1.51 5.74,-0.59 7.16,2.06 1.42,2.64 0.52,6.01 -2.01,7.52z"/>
   <path class="fil1" d="M6573.03 1178.97c-1.41,-2.65 -0.52,-6.01 2.02,-7.52 2.54,-1.51 5.74,-0.59 7.16,2.06 1.42,2.64 0.52,6.01 -2.02,7.52 -2.53,1.51 -5.73,0.59 -7.16,-2.05z"/>
   <path class="fil1" d="M6594.27 1166.31c-1.43,-2.64 -0.52,-6.01 2.01,-7.52 2.54,-1.51 5.74,-0.6 7.14,2.05 1.43,2.64 0.52,6.01 -2.01,7.52 -2.54,1.51 -5.73,0.59 -7.14,-2.05z"/>
   <path class="fil1" d="M6622.92 1155.54c-2.54,1.51 -5.74,0.59 -7.16,-2.06 -1.43,-2.64 -0.52,-6.01 2.01,-7.52 2.54,-1.51 5.73,-0.6 7.16,2.05 1.43,2.64 0.52,6.01 -2.01,7.52z"/>
   <path class="fil1" d="M6637.26 1140.66c-1.42,-2.65 -0.52,-6.01 2.01,-7.52 2.54,-1.52 5.74,-0.6 7.15,2.05 1.42,2.64 0.52,6.01 -2.02,7.52 -2.52,1.51 -5.73,0.59 -7.14,-2.05z"/>
   <path class="fil1" d="M6658.48 1128c-1.41,-2.65 -0.52,-6.01 2.01,-7.52 2.54,-1.51 5.74,-0.59 7.16,2.05 1.41,2.65 0.52,6.01 -2.01,7.52 -2.54,1.51 -5.74,0.59 -7.16,-2.05z"/>
   <path class="fil1" d="M6687.12 1117.22c-2.53,1.51 -5.73,0.59 -7.14,-2.05 -1.42,-2.64 -0.52,-6.01 2.02,-7.52 2.53,-1.51 5.73,-0.59 7.14,2.05 1.42,2.65 0.52,6.01 -2.02,7.52z"/>
   <path class="fil1" d="M7324.27 1345.99c2.27,-1.91 5.57,-1.54 7.4,0.83 1.79,2.36 1.4,5.84 -0.87,7.76 -2.27,1.91 -5.57,1.54 -7.37,-0.83 -1.82,-2.37 -1.43,-5.84 0.84,-7.76z"/>
   <path class="fil1" d="M7339.37 1365.84c2.3,-1.91 5.6,-1.54 7.4,0.83 1.79,2.37 1.43,5.84 -0.87,7.75 -2.27,1.91 -5.57,1.55 -7.37,-0.82 -1.79,-2.37 -1.43,-5.84 0.84,-7.76z"/>
   <path class="fil1" d="M7353.84 1393.7c-1.8,-2.37 -1.44,-5.84 0.87,-7.75 2.27,-1.91 5.57,-1.55 7.37,0.82 1.8,2.37 1.44,5.85 -0.84,7.76 -2.3,1.91 -5.59,1.54 -7.4,-0.83z"/>
   <path class="fil1" d="M7370.01 1406.07c2.27,-1.91 5.57,-1.55 7.37,0.82 1.8,2.37 1.44,5.85 -0.84,7.76 -2.27,1.91 -5.6,1.54 -7.4,-0.83 -1.8,-2.36 -1.41,-5.83 0.86,-7.75z"/>
   <path class="fil1" d="M7385.14 1425.92c2.24,-1.91 5.57,-1.54 7.37,0.83 1.8,2.37 1.41,5.83 -0.87,7.75 -2.27,1.91 -5.57,1.55 -7.37,-0.82 -1.8,-2.37 -1.44,-5.84 0.86,-7.76z"/>
   <path class="fil1" d="M7399.58 1453.78c-1.79,-2.37 -1.43,-5.84 0.87,-7.75 2.27,-1.91 5.57,-1.55 7.37,0.82 1.79,2.37 1.4,5.84 -0.84,7.76 -2.3,1.91 -5.6,1.54 -7.4,-0.83z"/>
   <path class="fil1" d="M7415.81 1466.2c2.24,-1.91 5.57,-1.54 7.37,0.82 1.8,2.37 1.41,5.84 -0.86,7.76 -2.27,1.91 -5.57,1.54 -7.37,-0.83 -1.8,-2.36 -1.44,-5.83 0.87,-7.75z"/>
   <path class="fil1" d="M7430.91 1486.05c2.27,-1.91 5.57,-1.54 7.37,0.82 1.8,2.37 1.44,5.84 -0.84,7.76 -2.3,1.91 -5.59,1.54 -7.4,-0.82 -1.8,-2.37 -1.44,-5.85 0.87,-7.76z"/>
   <path class="fil1" d="M7445.35 1513.91c-1.8,-2.37 -1.41,-5.84 0.86,-7.76 2.27,-1.91 5.57,-1.54 7.37,0.83 1.8,2.36 1.44,5.83 -0.84,7.75 -2.27,1.91 -5.6,1.54 -7.4,-0.82z"/>
   <path class="fil1" d="M7461.52 1526.27c2.27,-1.91 5.6,-1.53 7.4,0.83 1.8,2.37 1.41,5.84 -0.86,7.76 -2.27,1.91 -5.57,1.54 -7.37,-0.83 -1.8,-2.37 -1.43,-5.84 0.84,-7.76z"/>
   <path class="fil1" d="M7476.65 1546.12c2.27,-1.91 5.57,-1.55 7.37,0.82 1.8,2.37 1.44,5.84 -0.83,7.76 -2.3,1.91 -5.6,1.54 -7.4,-0.83 -1.8,-2.37 -1.41,-5.83 0.87,-7.75z"/>
   <path class="fil1" d="M7491.09 1573.98c-1.8,-2.37 -1.41,-5.83 0.87,-7.75 2.27,-1.91 5.56,-1.55 7.37,0.83 1.8,2.36 1.44,5.83 -0.84,7.75 -2.27,1.91 -5.59,1.54 -7.4,-0.83z"/>
   <path class="fil1" d="M6705.34 1085.3c3.84,-42.94 40.1,-74.78 81.01,-71.12 40.89,3.65 70.95,41.42 67.12,84.35 -3.84,42.94 -40.12,74.78 -81.01,71.12 -40.9,-3.66 -70.95,-41.43 -67.12,-84.35z"/>
   <path class="fil11" d="M6758.41 1058.6c1.23,-13.78 12.87,-24 26.01,-22.83 13.13,1.17 22.77,13.29 21.54,27.07 -1.23,13.78 -12.88,24 -26,22.83 -22.98,-2.05 -43.35,15.83 -45.5,39.95l83.2 7.43c2.15,-24.12 -14.73,-45.34 -37.69,-47.39 -13.14,-1.17 -22.79,-13.3 -21.55,-27.07z"/>
   <path class="fil1" d="M7166.19 1264.68c5.92,-66.16 61.78,-115.23 124.8,-109.6 63.05,5.63 109.34,63.83 103.43,129.98 -5.92,66.16 -61.78,115.23 -124.83,109.6 -63.02,-5.63 -109.31,-63.83 -103.4,-129.98z"/>
   <path class="fil11" d="M7247.97 1223.54c1.89,-21.23 19.83,-36.98 40.05,-35.17 20.25,1.81 35.11,20.49 33.21,41.72 -1.89,21.23 -19.83,36.98 -40.08,35.17 -20.22,-1.81 -35.08,-20.48 -33.18,-41.72z"/>
   <path class="fil11" d="M7281.14 1265.27c-35.39,-3.16 -66.76,24.4 -70.08,61.56l128.19 11.45c3.31,-37.16 -22.68,-69.85 -58.1,-73.01z"/>
   <path class="fil1" d="M7459.63 1621.78c3.99,-44.66 41.73,-77.79 84.28,-73.99 42.55,3.8 73.82,43.09 69.83,87.75 -3.99,44.67 -41.73,77.8 -84.28,74 -42.55,-3.8 -73.82,-43.09 -69.83,-87.76z"/>
   <path class="fil11" d="M7518.26 1599.24c1.16,-12.94 12.09,-22.53 24.41,-21.43 12.34,1.1 21.4,12.49 20.25,25.43 -1.16,12.94 -12.09,22.54 -24.43,21.43 -12.33,-1.1 -21.38,-12.48 -20.23,-25.43z"/>
   <path class="fil11" d="M7538.49 1624.67c-21.57,-1.92 -40.7,14.87 -42.72,37.52l78.12 6.98c2.03,-22.65 -13.82,-42.57 -35.41,-44.5z"/>
  </g>
  <rect class="fil25" x="2702.28" y="996.57" width="3075.51" height="4073.66" rx="62.43" ry="62.51"/>
  <ellipse class="fil26" cx="2831.49" cy="845.41" rx="39.09" ry="39.14"/>
  <ellipse class="fil27" cx="2994.49" cy="845.41" rx="39.09" ry="39.14"/>
  <ellipse class="fil27" cx="3157.5" cy="845.4" rx="39.09" ry="39.14"/>
  <path class="fil26" d="M1543.67 755.71l-19.45 273.98 -19.44 273.99c-3.81,53.71 -33.7,97.94 -82.13,121.5 -48.43,23.56 -101.67,19.78 -146.29,-10.37l-227.55 -153.83 -227.56 -153.83c-44.62,-30.15 -67.97,-78.15 -64.16,-131.87 3.81,-53.72 33.71,-97.94 82.13,-121.5l247 -120.16 247 -120.16c48.43,-23.55 101.67,-19.77 146.29,10.38 44.61,30.15 67.96,78.16 64.15,131.88z"/>
  <path class="fil26" d="M8184.04 3522.41l-33.01 -176.68 -33.03 -176.69c-6.47,-34.64 5.14,-67.59 31.91,-90.51 26.76,-22.93 61.1,-29.35 94.33,-17.64l169.52 59.75 169.52 59.75c33.24,11.71 55.96,38.24 62.44,72.88 6.47,34.64 -5.14,67.59 -31.91,90.51l-136.51 116.94 -136.51 116.94c-26.76,22.93 -61.1,29.35 -94.34,17.63 -33.23,-11.71 -55.96,-38.24 -62.43,-72.88z"/>
  <path class="fil26" d="M6475.27 5680.55l-72 90.79 -72 90.79c-14.12,17.8 -35.05,26.09 -57.53,22.76 -22.47,-3.32 -40.12,-17.31 -48.47,-38.44l-42.63 -107.74 -42.62 -107.75c-8.35,-21.12 -5.06,-43.4 9.06,-61.2 14.11,-17.8 35.05,-26.08 57.53,-22.76l114.62 16.96 114.62 16.95c22.47,3.33 40.12,17.32 48.47,38.44 8.36,21.13 5.06,43.4 -9.05,61.2z"/>
  <path class="fil24" d="M1753.67 1024.69l123.9 84.36 123.9 84.36c24.29,16.54 36.95,42.78 34.77,72.08 -2.18,29.3 -18.58,53.38 -45.05,66.15l-135.01 65.11 -135 65.12c-26.47,12.77 -55.52,10.61 -79.81,-5.93 -24.29,-16.54 -36.95,-42.78 -34.77,-72.08l11.11 -149.48 11.11 -149.48c2.18,-29.3 18.57,-53.38 45.04,-66.14 26.47,-12.77 55.52,-10.61 79.81,5.93z"/>
  <path class="fil24" d="M8389.27 3013.45l-110.39 -39.32 -110.39 -39.32c-21.64,-7.71 -36.39,-25.05 -40.54,-47.66 -4.14,-22.59 3.5,-44.04 21,-58.93l89.25 -75.93 89.25 -75.93c17.49,-14.89 39.89,-19 61.54,-11.29 21.64,7.71 36.4,25.05 40.54,47.66l21.14 115.26 21.14 115.27c4.14,22.59 -3.5,44.05 -21,58.93 -17.49,14.89 -39.89,19 -61.54,11.29z"/>
  <path class="fil24" d="M6045.84 5535.71l23.06 58.87 23.06 58.87c4.52,11.55 2.68,23.69 -5.06,33.38 -7.73,9.69 -19.18,14.17 -31.43,12.32l-62.52 -9.47 -62.52 -9.47c-12.26,-1.85 -21.86,-9.52 -26.39,-21.06 -4.52,-11.55 -2.68,-23.69 5.06,-33.38l39.46 -49.41 39.46 -49.41c7.73,-9.69 19.18,-14.17 31.43,-12.31 12.25,1.85 21.85,9.52 26.38,21.07z"/>
 </g>
</svg>
