<?xml version="1.0" encoding="UTF-8"?>
<!DOCTYPE svg PUBLIC "-//W3C//DTD SVG 1.1//EN" "http://www.w3.org/Graphics/SVG/1.1/DTD/svg11.dtd">
<!-- Creator: CorelDRAW 2018 (64-Bit) -->
<svg xmlns="http://www.w3.org/2000/svg" xml:space="preserve" width="115.468mm" height="69.0837mm" version="1.1" style="shape-rendering:geometricPrecision; text-rendering:geometricPrecision; image-rendering:optimizeQuality; fill-rule:evenodd; clip-rule:evenodd"
viewBox="0 0 9162.49 5481.84"
 xmlns:xlink="http://www.w3.org/1999/xlink">
 <defs>
  <style type="text/css">
   <![CDATA[
    .filintr5 {fill:#990310}
    .filintr6 {fill:#A4A4A4}
    .filintr25 {fill:#F2EDF1}
    .filintr3 {fill:#FBF8F8}
    .filintr4 {fill:white}
    .filintr15 {fill:#121212;fill-rule:nonzero}
    .filintr2 {fill:#2E3552;fill-rule:nonzero}
    .filintr16 {fill:#302121;fill-rule:nonzero}
    .filintr11 {fill:#402B13;fill-rule:nonzero}
    .filintr7 {fill:#470343;fill-rule:nonzero}
    .filintr21 {fill:#4D4D4D;fill-rule:nonzero}
    .filintr20 {fill:#595959;fill-rule:nonzero}
    .filintr24 {fill:#87111B;fill-rule:nonzero}
    .filintr18 {fill:#990310;fill-rule:nonzero}
    .filintr23 {fill:#D1BCCD;fill-rule:nonzero}
    .filintr10 {fill:#DBCAD8;fill-rule:nonzero}
    .filintr12 {fill:#E8945B;fill-rule:nonzero}
    .filintr9 {fill:#EBDCE8;fill-rule:nonzero}
    .filintr13 {fill:#EBF3FA;fill-rule:nonzero}
    .filintr22 {fill:#ED985F;fill-rule:nonzero}
    .filintr14 {fill:#F2CCAA;fill-rule:nonzero}
    .filintr1 {fill:#F2EDF1;fill-rule:nonzero}
    .filintr0 {fill:#FBF8F8;fill-rule:nonzero}
    .filintr8 {fill:#FFB27D;fill-rule:nonzero}
    .filintr7 {fill:white;fill-rule:nonzero}
    .filintr19 {fill:white;fill-rule:nonzero}
   ]]>
  </style>
 </defs>
 <g id="Слой_x0020_1">
  <metadata id="CorelCorpID_0Corel-Layer"/>
  <path class="filintr0" d="M551.98 5453.41c-396.32,-1738.31 -340.63,-4182.63 2652.75,-3691.08 1359.57,115.88 1345.9,493.13 2074.67,-651.57 965.78,-1477.07 3713.58,-349.46 2922.3,2294.63 -339.24,956.12 807.97,790.72 587.59,2050.52l-8237.31 -2.5z"/>
  <g id="_3029838613104">
   <path class="filintr1" d="M8013.51 5024.14c0,0 60.32,-79.83 3.73,-130.52 0,0 -41.33,-28.4 -75.04,-26.09 0,0 47.79,90.84 32.32,99.89 -15.47,9.03 -46.79,-105.59 -46.79,-105.59 0,0 -94.09,-10.36 -124.33,6.16 0,0 80.41,74.63 63.46,79.08 -16.96,4.44 -103.78,-68.81 -103.78,-68.81 0,0 -87.58,16.89 -82.91,77.48 4.67,60.59 34.81,79.3 48.09,77.68 13.28,-1.6 90.86,-35.19 92.55,-22.85 1.63,12.31 -45.01,52.59 -77.73,54.48 0,0 61.77,77.22 102.74,54.93 41.08,-22.3 44.56,-57.62 70.12,-70.86 25.56,-13.27 47.44,-13.22 36.85,0.28 -10.55,13.53 -56.85,26.64 -71.46,55.99 -14.62,29.36 -27.75,49.14 14.67,41.9 42.47,-7.24 111.49,-42.46 114.53,-82.8 2.98,-40.35 2.98,-40.35 2.98,-40.35z"/>
   <path class="filintr1" d="M7723.18 4957.37c0,0 237.81,-10.4 290.33,66.77 0,0 11.63,39.45 47.39,75.39l5.57 17.22c0,0 -41.22,-49.29 -55.94,-52.26 0,0 23.02,-95.59 -287.34,-107.12z"/>
   <path class="filintr1" d="M8060.9 5099.53c0,0 51.02,42.83 54.55,119.32l-9.24 0.96c0,0 -16.31,-79.11 -45.75,-110.07 -29.49,-30.93 0.44,-10.21 0.44,-10.21z"/>
   <path class="filintr1" d="M8224.41 4923.75c0,0 -95.93,-60.96 -51.17,-143.66 0,0 35.8,-50.79 74.19,-63.85 0,0 -20.44,123.33 0,126.25 20.44,2.89 14.08,-139.32 14.08,-139.32 0,0 101.05,-55.16 140.74,-50.79 0,0 -62.71,120.44 -42.27,117.53 20.49,-2.89 90.85,-124.8 90.85,-124.8 0,0 103.64,-21.77 120.25,47.9 16.66,69.65 -10.24,104.48 -25.56,108.82 -15.36,4.37 -113.88,2.92 -111.3,17.43 2.54,14.51 69.07,37.73 106.18,24.67 0,0 -40.93,114.65 -94.69,108.83 -53.7,-5.8 -70.37,-43.53 -103.58,-46.43 -33.27,-2.93 -57.59,7.24 -40.98,17.41 16.66,10.16 72.95,3.33 99.81,29.25 26.85,25.88 48.59,41.87 -1.29,53.45 -49.88,11.61 -139.44,4.37 -157.34,-39.18 -17.91,-43.52 -17.91,-43.52 -17.91,-43.52z"/>
   <path class="filintr1" d="M8523.74 4714.79c0,0 -268.64,98.66 -299.33,208.96 0,0 1.29,49.34 -25.61,105.93l0 21.77c0,0 28.19,-74.02 43.52,-84.18 0,0 -60.12,-95.77 281.42,-252.49z"/>
   <path class="filintr1" d="M8198.81 5029.68c0,0 -41.43,71.38 -17.81,158.24l10.64 -3.23c0,0 -10.29,-95.69 11.34,-143.82 21.69,-48.13 -4.17,-11.2 -4.17,-11.2z"/>
   <path class="filintr1" d="M8071.74 4839.71c0,0 126.52,-80.36 67.49,-189.39 0,0 -47.2,-66.95 -97.82,-84.18 0,0 27,162.62 0,166.42 -27.01,3.82 -18.55,-183.64 -18.55,-183.64 0,0 -133.23,-72.67 -185.49,-66.92 0,0 82.65,158.76 55.65,154.93 -26.96,-3.83 -119.7,-164.51 -119.7,-164.51 0,0 -136.61,-28.7 -158.54,63.13 -21.93,91.81 13.47,137.71 33.72,143.45 20.24,5.74 150.08,3.83 146.7,22.96 -3.38,19.14 -91.05,49.74 -139.94,32.51 0,0 53.96,151.13 124.78,143.48 70.81,-7.66 92.75,-57.39 136.6,-61.21 43.82,-3.83 75.84,9.56 53.96,22.96 -21.93,13.37 -96.13,4.36 -131.53,38.52 -35.41,34.14 -64.05,55.19 1.69,70.5 65.74,15.31 183.8,5.74 207.42,-51.65 23.57,-57.38 23.57,-57.38 23.57,-57.38z"/>
   <path class="filintr1" d="M7677.14 4564.23c0,0 354.17,130.08 394.6,275.47 0,0 -1.63,65.04 33.77,139.63l0 28.7c0,0 -37.1,-97.55 -57.34,-110.95 0,0 79.27,-126.25 -371.04,-332.85z"/>
   <path class="filintr1" d="M8105.51 4979.33c0,0 54.6,94.08 23.47,208.59l-14.08 -4.26c0,0 13.62,-126.15 -14.92,-189.59 -28.54,-63.43 5.52,-14.74 5.52,-14.74z"/>
   <path class="filintr1" d="M8076.02 5436.26c-136.8,0 -247.75,-125.83 -247.75,-281.03l495.51 0c0,155.19 -110.9,281.03 -247.76,281.03z"/>
   <path class="filintr1" d="M7824.89 5450.57l502.31 0 0 0c0,-19.16 -13.67,-34.68 -30.58,-34.68l-441.2 0c-16.86,0 -30.53,15.51 -30.53,34.68l0 0z"/>
   <polygon class="filintr1" points="8331.93,5163.85 7822.67,5163.85 7822.67,5155.24 8331.93,5155.24 "/>
  </g>
  <path class="filintr1" d="M1129.67 2225.23c45.79,19.27 74.3,57.47 81.32,97.24 24.38,139.47 -120.34,227.38 -222.9,138.18 -25.98,-23.19 -43.09,-57.37 -43.29,-102.27 0.06,-104.35 97.35,-169.91 184.88,-133.15zm277.14 131.38l-11.16 -61.76 -0.28 -1.47c-1.4,-7.51 -7.9,-12.72 -15.12,-12.11l-49.84 4.13c-0.83,0.07 -1.64,0.07 -2.43,-0.01 -5.51,-0.59 -10.37,-4.48 -12.05,-10.13 -10.31,-33.18 -26.73,-63.8 -48.46,-90.18 -0.89,-1.1 -1.6,-2.31 -2.16,-3.55 -2.05,-4.77 -1.56,-10.51 1.35,-14.89l24.25 -35.65c3.16,-4.72 3.4,-10.91 0.93,-15.8 -0.79,-1.46 -1.81,-2.91 -3.1,-4.14l-45.68 -42.67c-5.61,-5.25 -14.24,-5.13 -19.73,0.37l-40.27 40.1c-3.98,3.94 -9.74,5.13 -14.85,3.03 -7.4,-2.91 -14.87,-5.55 -22.59,-7.79 -14.48,-4.21 -28.98,-6.94 -43.39,-8.36l-0.07 -0.02c-6.02,-0.59 -10.99,-4.89 -12.62,-10.99l-15.21 -56.99 -0.79 -2.86c-1.89,-7.34 -8.97,-12.02 -16.19,-10.56l-60.15 11.95c-7.31,1.51 -12.47,8.51 -11.87,16.32l4.37 58.23c0.49,6.48 -3.02,12.56 -8.67,15.02 -23.73,10.78 -45.79,25.3 -65.28,43.19 -5.01,4.49 -12.24,4.86 -17.65,0.83l-40.33 -30.08c-6.15,-4.55 -14.45,-3.5 -19.37,2.33l-40.84 48.13c-4.82,5.7 -4.66,14.31 0.31,19.77l44.84 49.76c3.82,4.2 5.01,10.32 3.13,15.8 -2.36,6.73 -4.47,13.61 -6.32,20.64 -3.5,13.27 -5.96,26.52 -7.44,39.68 -0.63,5.99 -4.6,11.02 -10.15,12.57l-65.27 19.12c-7.19,2.16 -11.57,9.61 -10.21,17.27l11.4 63.37c1.26,6.68 6.71,11.66 13.06,12.12 0.66,0.03 1.38,0.09 2.06,-0.02l61.57 -5.05c5.72,-0.51 11.17,2.55 13.81,7.87 0.25,0.45 0.49,0.91 0.66,1.42 0.57,1.48 1.08,2.86 1.8,4.31 6.96,17.15 15.74,33.51 26.06,48.78 3.53,5.03 3.47,11.97 -0.09,17.1l-30.25 44.73c-4.32,6.31 -3.32,15.09 2.24,20.26l10.14 9.51 35.5 33.07c5.53,5.23 13.96,5.05 19.41,-0.3l39.68 -39.51c4.22,-4.26 10.47,-5.14 15.73,-2.46 13.74,7.07 28.44,12.95 43.8,17.42 11.41,3.32 22.99,5.74 34.42,7.28l3.17 11.96 13.12 49.05c1.56,6.08 6.68,10.36 12.47,10.72 1.22,0.12 2.43,0.01 3.67,-0.25l60.58 -11.91c7.16,-1.48 12.05,-8.39 11.55,-15.95l-3.06 -39.79c-0.51,-6.71 3.46,-13.12 9.54,-15.29 25.24,-8.97 48.9,-22.02 70.04,-38.65 5.01,-3.94 11.75,-4.09 16.62,-0.27l50.96 38.02c5.72,4.21 13.54,3.32 18.22,-2.2l41.21 -48.72c4.91,-5.75 4.77,-14.43 -0.26,-19.92l-46.67 -51.74c-4.05,-4.43 -5.05,-10.97 -2.61,-16.59 5.21,-11.99 9.5,-24.64 12.98,-37.84 1.87,-7.09 3.44,-14.2 4.73,-21.31 1.03,-5.58 4.94,-10.07 10.13,-11.65l62.56 -18.35c7.27,-2.15 11.74,-9.65 10.4,-17.44z"/>
  <path class="filintr1" d="M8188.09 1865.27c45.71,19.24 74.18,57.37 81.18,97.08 24.34,139.23 -120.14,227 -222.53,137.94 -25.93,-23.15 -43.02,-57.28 -43.22,-102.09 0.07,-104.18 97.18,-169.62 184.57,-132.93zm276.68 131.16l-11.14 -61.65 -0.28 -1.47c-1.4,-7.49 -7.89,-12.7 -15.1,-12.09l-49.75 4.13c-0.83,0.06 -1.64,0.06 -2.43,-0.01 -5.5,-0.6 -10.35,-4.47 -12.02,-10.12 -10.29,-33.12 -26.69,-63.69 -48.38,-90.03 -0.89,-1.1 -1.59,-2.31 -2.15,-3.55 -2.05,-4.76 -1.57,-10.48 1.34,-14.86l24.21 -35.6c3.15,-4.71 3.39,-10.89 0.93,-15.77 -0.79,-1.46 -1.81,-2.9 -3.09,-4.13l-45.61 -42.6c-5.59,-5.25 -14.22,-5.13 -19.69,0.37l-40.21 40.04c-3.98,3.94 -9.71,5.12 -14.81,3.02 -7.39,-2.91 -14.85,-5.54 -22.55,-7.78 -14.46,-4.2 -28.93,-6.94 -43.32,-8.34l-0.07 -0.02c-6.01,-0.59 -10.97,-4.88 -12.6,-10.97l-15.19 -56.89 -0.79 -2.85c-1.89,-7.32 -8.95,-12 -16.16,-10.55l-60.05 11.94c-7.3,1.5 -12.45,8.49 -11.85,16.29l4.36 58.13c0.5,6.47 -3.01,12.54 -8.65,14.99 -23.69,10.78 -45.71,25.27 -65.17,43.12 -5.01,4.48 -12.21,4.86 -17.62,0.83l-40.25 -30.03c-6.14,-4.55 -14.43,-3.49 -19.34,2.32l-40.78 48.05c-4.8,5.7 -4.64,14.3 0.31,19.73l44.77 49.68c3.82,4.19 5,10.31 3.12,15.77 -2.36,6.71 -4.46,13.58 -6.32,20.6 -3.49,13.24 -5.94,26.48 -7.42,39.61 -0.62,5.98 -4.59,11.01 -10.13,12.55l-65.16 19.09c-7.17,2.15 -11.55,9.59 -10.2,17.23l11.39 63.26c1.25,6.67 6.7,11.65 13.04,12.11 0.66,0.03 1.38,0.08 2.06,-0.02l61.47 -5.05c5.71,-0.5 11.15,2.55 13.78,7.86 0.25,0.45 0.48,0.91 0.66,1.42 0.56,1.47 1.08,2.86 1.79,4.3 6.95,17.12 15.72,33.45 26.01,48.7 3.53,5.03 3.47,11.95 -0.09,17.08l-30.19 44.65c-4.31,6.31 -3.31,15.07 2.24,20.23l10.13 9.49 35.43 33.01c5.53,5.22 13.94,5.05 19.39,-0.3l39.61 -39.45c4.21,-4.25 10.46,-5.13 15.7,-2.45 13.71,7.05 28.39,12.93 43.73,17.39 11.39,3.31 22.95,5.74 34.36,7.28l3.17 11.93 13.1 48.97c1.56,6.07 6.67,10.33 12.44,10.7 1.22,0.13 2.43,0.01 3.67,-0.25l60.47 -11.88c7.15,-1.48 12.04,-8.38 11.54,-15.93l-3.05 -39.72c-0.51,-6.7 3.45,-13.11 9.52,-15.27 25.2,-8.95 48.82,-21.98 69.93,-38.58 5,-3.94 11.72,-4.08 16.59,-0.28l50.87 37.96c5.71,4.21 13.51,3.32 18.19,-2.19l41.15 -48.63c4.9,-5.74 4.75,-14.42 -0.27,-19.89l-46.59 -51.67c-4.04,-4.42 -5.05,-10.94 -2.61,-16.56 5.21,-11.97 9.49,-24.6 12.97,-37.78 1.86,-7.09 3.44,-14.18 4.72,-21.28 1.03,-5.56 4.93,-10.05 10.12,-11.63l62.46 -18.32c7.25,-2.14 11.72,-9.63 10.39,-17.41z"/>
  <path class="filintr1" d="M1592.9 2109.59c15.86,6.67 25.73,19.9 28.16,33.68 8.44,48.3 -41.68,78.75 -77.19,47.85 -9,-8.03 -14.93,-19.87 -15,-35.41 0.02,-36.14 33.72,-58.85 64.03,-46.11zm95.98 45.5l-3.86 -21.39 -0.1 -0.51c-0.48,-2.59 -2.74,-4.4 -5.24,-4.19l-17.27 1.43c-0.29,0.02 -0.56,0.02 -0.84,0 -1.9,-0.21 -3.59,-1.55 -4.17,-3.51 -3.57,-11.49 -9.26,-22.1 -16.78,-31.23 -0.31,-0.38 -0.56,-0.8 -0.75,-1.23 -0.71,-1.65 -0.55,-3.64 0.47,-5.16l8.4 -12.35c1.1,-1.63 1.17,-3.78 0.32,-5.48 -0.27,-0.5 -0.63,-1.01 -1.07,-1.43l-15.82 -14.78c-1.94,-1.82 -4.93,-1.78 -6.83,0.13l-13.95 13.89c-1.38,1.36 -3.37,1.78 -5.14,1.05 -2.56,-1.01 -5.15,-1.92 -7.82,-2.7 -5.01,-1.45 -10.03,-2.4 -15.02,-2.89l-0.03 -0.01c-2.08,-0.21 -3.8,-1.7 -4.37,-3.81l-5.26 -19.73 -0.28 -0.99c-0.66,-2.54 -3.1,-4.16 -5.6,-3.66l-20.84 4.14c-2.53,0.52 -4.32,2.94 -4.11,5.65l1.52 20.17c0.17,2.24 -1.05,4.35 -3,5.2 -8.22,3.74 -15.86,8.76 -22.61,14.96 -1.73,1.56 -4.23,1.68 -6.11,0.29l-13.97 -10.42c-2.13,-1.58 -5,-1.21 -6.71,0.81l-14.15 16.67c-1.67,1.98 -1.61,4.96 0.11,6.84l15.53 17.23c1.33,1.45 1.74,3.58 1.08,5.48 -0.82,2.32 -1.55,4.71 -2.19,7.15 -1.21,4.59 -2.06,9.18 -2.57,13.74 -0.21,2.08 -1.59,3.82 -3.52,4.36l-22.61 6.62c-2.49,0.75 -4.01,3.32 -3.54,5.98l3.95 21.94c0.44,2.32 2.32,4.05 4.52,4.21 0.23,0.01 0.48,0.02 0.71,-0.01l21.32 -1.75c1.98,-0.17 3.87,0.88 4.78,2.72 0.09,0.16 0.17,0.32 0.23,0.49 0.19,0.52 0.37,1 0.62,1.5 2.41,5.94 5.45,11.6 9.03,16.89 1.22,1.74 1.2,4.14 -0.03,5.92l-10.47 15.49c-1.5,2.19 -1.15,5.23 0.77,7.01l3.52 3.29 12.29 11.46c1.92,1.81 4.84,1.75 6.73,-0.11l13.74 -13.68c1.46,-1.48 3.63,-1.78 5.45,-0.85 4.75,2.44 9.85,4.48 15.16,6.03 3.95,1.15 7.96,1.98 11.93,2.52l1.1 4.14 4.54 16.98c0.55,2.11 2.32,3.59 4.32,3.71 0.42,0.05 0.84,0.01 1.27,-0.09l20.98 -4.12c2.48,-0.52 4.17,-2.9 4,-5.52l-1.06 -13.78c-0.17,-2.32 1.2,-4.55 3.3,-5.29 8.74,-3.11 16.93,-7.63 24.26,-13.39 1.74,-1.37 4.07,-1.41 5.76,-0.1l17.65 13.16c1.98,1.46 4.68,1.15 6.31,-0.76l14.28 -16.87c1.7,-1.99 1.65,-5 -0.1,-6.9l-16.16 -17.93c-1.4,-1.53 -1.75,-3.79 -0.9,-5.74 1.81,-4.15 3.29,-8.53 4.5,-13.1 0.64,-2.46 1.19,-4.92 1.63,-7.39 0.36,-1.93 1.71,-3.48 3.51,-4.03l21.67 -6.36c2.52,-0.75 4.06,-3.34 3.6,-6.04z"/>
  <path class="filintr1" d="M8001.33 2526.53c23.97,10.09 38.91,30.09 42.58,50.92 12.77,73.03 -63.01,119.06 -116.72,72.35 -13.6,-12.15 -22.56,-30.04 -22.67,-53.55 0.04,-54.65 50.97,-88.98 96.81,-69.73zm145.12 68.8l-5.84 -32.34 -0.15 -0.76c-0.73,-3.94 -4.13,-6.67 -7.92,-6.34l-26.1 2.16c-0.43,0.04 -0.86,0.04 -1.27,0 -2.88,-0.31 -5.43,-2.35 -6.31,-5.31 -5.4,-17.37 -13.99,-33.41 -25.37,-47.22 -0.47,-0.57 -0.84,-1.21 -1.13,-1.86 -1.07,-2.5 -0.82,-5.5 0.71,-7.8l12.7 -18.67c1.66,-2.47 1.79,-5.71 0.49,-8.27 -0.42,-0.76 -0.95,-1.52 -1.63,-2.17l-23.92 -22.34c-2.94,-2.75 -7.46,-2.69 -10.34,0.19l-21.08 21c-2.09,2.07 -5.1,2.69 -7.78,1.59 -3.87,-1.52 -7.78,-2.9 -11.82,-4.08 -7.59,-2.2 -15.18,-3.63 -22.73,-4.37l-0.03 -0.01c-3.16,-0.31 -5.76,-2.56 -6.61,-5.75l-7.97 -29.84 -0.42 -1.49c-0.98,-3.85 -4.69,-6.3 -8.47,-5.54l-31.49 6.26c-3.82,0.79 -6.53,4.46 -6.21,8.55l2.29 30.49c0.26,3.39 -1.58,6.57 -4.54,7.86 -12.42,5.65 -23.97,13.25 -34.18,22.62 -2.63,2.35 -6.41,2.54 -9.24,0.43l-21.12 -15.75c-3.22,-2.39 -7.56,-1.83 -10.14,1.22l-21.39 25.2c-2.52,2.98 -2.44,7.5 0.17,10.35l23.47 26.06c2.01,2.2 2.63,5.41 1.64,8.28 -1.24,3.52 -2.34,7.12 -3.32,10.81 -1.83,6.94 -3.12,13.89 -3.89,20.77 -0.33,3.13 -2.41,5.77 -5.32,6.58l-34.18 10.01c-3.76,1.13 -6.06,5.03 -5.35,9.04l5.98 33.18c0.65,3.51 3.51,6.11 6.83,6.36 0.35,0.02 0.72,0.04 1.08,-0.02l32.24 -2.65c3,-0.26 5.85,1.33 7.23,4.13 0.13,0.24 0.26,0.48 0.35,0.75 0.29,0.77 0.56,1.5 0.94,2.25 3.64,8.97 8.24,17.54 13.64,25.54 1.85,2.63 1.82,6.27 -0.05,8.96l-15.84 23.42c-2.25,3.31 -1.73,7.9 1.17,10.61l5.31 4.98 18.59 17.31c2.9,2.74 7.31,2.65 10.16,-0.16l20.77 -20.69c2.21,-2.23 5.48,-2.69 8.24,-1.29 7.19,3.7 14.89,6.78 22.93,9.12 5.98,1.74 12.04,3.01 18.02,3.82l1.66 6.26 6.87 25.68c0.82,3.19 3.5,5.43 6.53,5.62 0.63,0.06 1.27,0 1.92,-0.13l31.72 -6.23c3.75,-0.78 6.32,-4.4 6.05,-8.36l-1.6 -20.83c-0.26,-3.52 1.82,-6.87 5,-8.01 13.22,-4.7 25.61,-11.53 36.68,-20.24 2.63,-2.06 6.15,-2.13 8.7,-0.14l26.68 19.91c3,2.21 7.09,1.74 9.55,-1.15l21.58 -25.5c2.56,-3.02 2.49,-7.56 -0.14,-10.43l-24.44 -27.1c-2.12,-2.32 -2.64,-5.74 -1.36,-8.69 2.73,-6.28 4.98,-12.9 6.79,-19.81 0.98,-3.72 1.81,-7.44 2.48,-11.16 0.54,-2.92 2.58,-5.27 5.3,-6.1l32.76 -9.61c3.8,-1.12 6.14,-5.05 5.44,-9.13z"/>
  <path class="filintr1" d="M447.42 4263.17c19.39,-0.94 35.88,7.7 45.08,20.53 32.14,45.02 -4,100.44 -55.2,86.33 -13.07,-3.79 -24.88,-12.93 -32.53,-28.72 -17.61,-36.79 5.6,-76.31 42.65,-78.14zm119.84 -0.52l-14.36 -19.88 -0.35 -0.47c-1.76,-2.41 -4.93,-3.15 -7.37,-1.71l-16.86 9.87c-0.29,0.17 -0.57,0.3 -0.86,0.41 -2.05,0.72 -4.41,0.17 -5.96,-1.54 -9.24,-9.95 -20.19,-17.97 -32.3,-23.59 -0.5,-0.24 -0.96,-0.54 -1.36,-0.89 -1.52,-1.33 -2.32,-3.43 -2.04,-5.48l2.52 -16.66c0.32,-2.2 -0.64,-4.42 -2.34,-5.72 -0.52,-0.38 -1.13,-0.72 -1.79,-0.94l-23.3 -7.32c-2.86,-0.9 -5.89,0.6 -6.9,3.46l-7.42 20.94c-0.73,2.06 -2.56,3.44 -4.71,3.57 -3.1,0.22 -6.17,0.56 -9.28,1.07 -5.82,0.96 -11.39,2.44 -16.7,4.39l-0.02 0c-2.22,0.81 -4.7,0.13 -6.31,-1.74l-14.98 -17.51 -0.76 -0.87c-1.9,-2.26 -5.19,-2.72 -7.49,-0.98l-19.17 14.37c-2.32,1.76 -2.96,5.1 -1.43,7.75l11.38 19.78c1.27,2.2 1.06,4.93 -0.52,6.75 -6.53,7.81 -11.86,16.65 -15.7,26.24 -1.01,2.44 -3.49,3.79 -6.08,3.28l-19.29 -3.79c-2.94,-0.56 -5.68,1.21 -6.43,4.09l-6.26 23.86c-0.74,2.82 0.78,5.83 3.44,6.91l24.21 9.96c2.06,0.83 3.51,2.79 3.77,5.04 0.3,2.77 0.72,5.55 1.25,8.34 1.01,5.27 2.38,10.36 4.09,15.24 0.79,2.22 0.24,4.67 -1.46,6.14l-19.77 17.77c-2.17,1.97 -2.45,5.33 -0.68,7.81l14.72 20.39c1.57,2.15 4.34,2.98 6.65,2.07 0.24,-0.1 0.5,-0.21 0.72,-0.36l20.85 -12.18c1.93,-1.14 4.36,-0.99 6.19,0.44 0.17,0.12 0.33,0.24 0.48,0.39 0.44,0.42 0.86,0.83 1.36,1.21 5.35,4.86 11.21,9.15 17.43,12.78 2.09,1.18 3.25,3.63 2.86,6.05l-3.1 20.86c-0.45,2.96 1.38,5.88 4.21,6.76l5.17 1.64 18.09 5.65c2.83,0.91 5.78,-0.57 6.79,-3.38l7.31 -20.62c0.76,-2.21 2.82,-3.58 5.13,-3.52 6.03,0.17 12.2,-0.24 18.37,-1.26 4.59,-0.76 9.07,-1.86 13.36,-3.25l3.13 3.67 12.9 15.07c1.58,1.88 4.11,2.52 6.21,1.67 0.45,-0.16 0.86,-0.4 1.25,-0.71l19.34 -14.43c2.27,-1.73 2.82,-4.99 1.37,-7.57l-7.79 -13.51c-1.32,-2.28 -1,-5.21 0.78,-7 7.38,-7.42 13.51,-16.01 18.15,-25.45 1.1,-2.24 3.45,-3.42 5.82,-2.9l24.38 4.79c2.72,0.52 5.32,-1.12 6.05,-3.85l6.29 -24.13c0.76,-2.86 -0.75,-5.89 -3.46,-6.97l-25.19 -10.35c-2.17,-0.87 -3.63,-3.01 -3.72,-5.4 -0.18,-5.11 -0.81,-10.29 -1.82,-15.53 -0.54,-2.82 -1.18,-5.59 -1.93,-8.31 -0.58,-2.14 0.03,-4.38 1.59,-5.82l18.95 -17.04c2.2,-1.98 2.51,-5.38 0.72,-7.9z"/>
  <path class="fil2" d="M8797.35 5463.3l0 4.72c0,7.58 -4.21,13.82 -9.32,13.82l-8218.65 0c-5.13,0 -9.34,-6.24 -9.34,-13.82l0 -4.72c0,-7.61 4.21,-13.81 9.34,-13.81l8218.65 0c5.11,0 9.32,6.21 9.32,13.81z"/>
  <g id="_3029838621104">
   <polygon class="filintr1" points="7243.41,1959.73 7315.35,1959.73 7315.35,1681.92 7243.41,1681.92 "/>
   <path class="filintr1" d="M7306.36 1654.39l-50.68 0c-4.94,0 -8.99,-4.25 -8.99,-9.43l0 0c0,-5.19 4.05,-9.44 8.99,-9.44l50.68 0c4.94,0 9,4.25 9,9.44l0 0c0,5.19 -4.05,9.43 -9,9.43z"/>
   <polygon class="filintr1" points="7119.39,1959.73 7191.33,1959.73 7191.33,1463.76 7119.39,1463.76 "/>
   <path class="filintr1" d="M7180.7 1443.18l-50.68 0c-4.94,0 -9,-4.25 -9,-9.44l0 0c0,-5.2 4.05,-9.44 9,-9.44l50.68 0c4.94,0 8.99,4.25 8.99,9.44l0 0c0,5.19 -4.05,9.44 -8.99,9.44z"/>
   <polygon class="filintr1" points="7000.54,1959.73 7072.48,1959.73 7072.48,1118.39 7000.54,1118.39 "/>
   <path class="filintr1" d="M7061.84 1095.45l-50.68 0c-4.94,0 -9,-4.25 -9,-9.44l0 0c0,-5.19 4.05,-9.44 9,-9.44l50.68 0c4.95,0 8.99,4.25 8.99,9.44l0 0c0,5.2 -4.04,9.44 -8.99,9.44z"/>
   <polygon class="filintr1" points="6878.54,1959.73 6950.48,1959.73 6950.48,1271.05 6878.54,1271.05 "/>
   <path class="filintr1" d="M6939.86 1252.62l-50.68 0c-4.94,0 -9,-4.25 -9,-9.44l0 0c0,-5.19 4.05,-9.43 9,-9.43l50.68 0c4.95,0 8.99,4.25 8.99,9.43l0 0c0,5.19 -4.04,9.44 -8.99,9.44z"/>
   <polygon class="filintr1" points="6759.69,1959.73 6831.63,1959.73 6831.63,888.87 6759.69,888.87 "/>
   <path class="filintr1" d="M6821 868.36l-50.67 0c-4.95,0 -9,-4.25 -9,-9.44l0 0c0,-5.19 4.05,-9.44 9,-9.44l50.67 0c4.95,0 9,4.25 9,9.44l0 0c0,5.2 -4.05,9.44 -9,9.44z"/>
   <polygon class="filintr1" points="6643.96,1959.73 6715.9,1959.73 6715.9,1056.11 6643.96,1056.11 "/>
   <path class="filintr1" d="M6705.27 1036.89l-50.68 0c-4.95,0 -8.99,-4.25 -8.99,-9.43l0 0c0,-5.2 4.04,-9.44 8.99,-9.44l50.68 0c4.94,0 9,4.25 9,9.44l0 0c0,5.19 -4.05,9.43 -9,9.43z"/>
  </g>
  <rect class="filintr3" x="2855.64" y="663.53" width="3491.97" height="4785.95" rx="70.88" ry="73.44"/>
  <rect class="filintr4" x="2965.51" y="1006.51" width="3263.09" height="4322.13" rx="66.24" ry="66.32"/>
  <ellipse class="filintr5" cx="3102.6" cy="846.12" rx="41.47" ry="41.53"/>
  <ellipse class="filintr6" cx="3275.55" cy="846.12" rx="41.47" ry="41.53"/>
  <ellipse class="filintr6" cx="3448.5" cy="846.12" rx="41.47" ry="41.53"/>
  <path class="filintr5" d="M8759.28 3040.32l182.35 197.04 182.36 197.04c35.75,38.63 47.29,89.51 31.72,139.78 -15.58,50.28 -53.87,85.71 -105.2,97.36l-261.82 59.4 -261.81 59.41c-51.32,11.64 -101.16,-3.8 -136.91,-42.43 -35.76,-38.63 -47.3,-89.51 -31.72,-139.78l79.46 -256.45 79.45 -256.44c15.58,-50.28 53.87,-85.71 105.2,-97.36 51.33,-11.64 101.16,3.8 136.92,42.43z"/>
  <path class="filintr5" d="M5611.02 509.83l-181.67 -1.16 -181.67 -1.16c-35.61,-0.23 -66.08,-18.08 -83.69,-49.03 -17.62,-30.96 -17.39,-66.27 0.62,-97l91.83 -156.76 91.84 -156.76c18,-30.73 48.7,-48.19 84.31,-47.96 35.62,0.22 66.08,18.07 83.69,49.03l89.84 157.92 89.83 157.91c17.62,30.95 17.39,66.27 -0.62,97 -18,30.73 -48.69,48.19 -84.31,47.97z"/>
  <path class="filintr5" d="M269.36 5136.32l-113.31 -40.41 -113.31 -40.41c-22.21,-7.92 -37.36,-25.73 -41.6,-48.94 -4.25,-23.19 3.6,-45.21 21.58,-60.5l91.64 -77.92 91.64 -77.93c17.97,-15.28 40.97,-19.49 63.18,-11.57 22.22,7.93 37.36,25.73 41.61,48.94l21.66 118.33 21.66 118.34c4.25,23.19 -3.6,45.21 -21.57,60.5 -17.97,15.28 -40.97,19.49 -63.18,11.57z"/>
  <path class="filintr3" d="M8570.4 3931.08l127.12 -28.38 127.11 -28.39c24.92,-5.57 49.08,2.01 66.35,20.81 17.28,18.8 22.8,43.5 15.16,67.87l-38.97 124.28 -38.97 124.28c-7.64,24.37 -26.27,41.49 -51.2,47.06 -24.92,5.56 -49.07,-2.01 -66.35,-20.81l-88.14 -95.9 -88.15 -95.89c-17.27,-18.8 -22.8,-43.5 -15.16,-67.87 7.64,-24.36 26.28,-41.49 51.2,-47.06z"/>
  <path class="filintr3" d="M5145.36 208.45l-60.22 101.99 -60.21 101.99c-11.81,20 -31.85,31.31 -55.07,31.08 -23.23,-0.22 -43.04,-11.93 -54.46,-32.14l-58.22 -103.15 -58.22 -103.15c-11.41,-20.22 -11.19,-43.24 0.62,-63.23 11.81,-19.99 31.85,-31.3 55.07,-31.08l118.44 1.16 118.43 1.15c23.23,0.23 43.04,11.93 54.46,32.15 11.41,20.22 11.19,43.24 -0.62,63.23z"/>
  <path class="filintr3" d="M268.12 4665.81l-50.16 42.36 -50.15 42.36c-9.84,8.3 -22.39,10.55 -34.5,6.19 -12.11,-4.36 -20.34,-14.11 -22.61,-26.77l-11.6 -64.62 -11.61 -64.62c-2.27,-12.66 2.06,-24.67 11.89,-32.97 9.83,-8.31 22.39,-10.56 34.49,-6.2l61.76 22.26 61.77 22.26c12.1,4.36 20.34,14.11 22.61,26.78 2.28,12.66 -2.05,24.67 -11.88,32.97z"/>
  <g id="_3029838634384">
   <path class="filintr7" d="M7043.01 2210.79c-61.73,-31.99 -111.11,-11.89 -111.11,-11.89 -188.74,-22.15 -243.75,197.93 -241.23,273.66 2.52,75.72 11.19,157.07 -73.09,255.45 -243.46,284.16 266.38,296.73 266.38,296.73 4.37,-227.07 276.47,-144.21 264.61,-121.23 348.89,83.75 34.65,-619.95 -105.56,-692.72z"/>
   <path class="filintr8" d="M6315.01 3157.36c0,0 -33.21,-50.52 -59.97,-51.52 -26.72,-0.96 -76.27,-14.84 -72.29,-4.94 3.93,9.91 34.66,10.91 37.63,16.85 2.97,5.95 -45.58,14.85 -59.46,15.85 -13.85,0.96 -46.55,0 -45.54,6.94 0.96,6.9 58.91,35.66 99.79,31.69 40.87,-3.97 91.39,11.88 91.39,11.88l8.44 -26.76z"/>
   <path class="filintr9" d="M6794.96 3173.7c0,0 -18.08,35.75 -50.72,76.78 -39.45,49.39 -100.26,106.46 -176.63,117.72 -36.5,5.4 -72.15,-2.48 -104.92,-17.04 -0.07,0 -0.12,0 -0.12,0 -92.73,-41.19 -162.45,-135.85 -162.45,-135.85 -16.35,-44.57 10.41,-74.8 10.41,-74.8 0,0 187.24,42.14 205.1,33.19 17.83,-8.9 121.79,-308.55 146.6,-346.22 24.73,-37.67 109.18,-57.22 109.18,-57.22l23.55 403.44z"/>
   <path class="filintr10" d="M6744.24 3250.48c-39.45,49.39 -100.26,106.46 -176.63,117.72 -36.5,5.4 -72.15,-2.48 -104.92,-17.04 3.63,0.5 96.26,11.91 133.18,-54.1 37.6,-67.36 78.39,-174.37 134.24,-138.7 24.15,15.39 23.05,53.64 14.13,92.12z"/>
   <path class="filintr11" d="M7493.5 5194.81c0,0 57.11,52.17 46.01,89.18 -11.19,37.06 -62.74,61.77 -69.65,107.04 -6.97,45.26 -34.91,69.99 -59.97,69.99 -25.07,0 -119.61,0 -119.61,0 0,0 -18.43,-31.89 26.15,-41.49 44.58,-9.6 61.4,-62.81 58.62,-112.22 -2.77,-49.39 4.21,-115.25 4.21,-115.25l94.71 -21.93 19.51 24.68z"/>
   <path class="filintr11" d="M7009.95 5216.97c0,0 20.53,220.87 -4.54,233.21l-320.97 -0.65c0,0 0,-37.06 51.55,-45.27 51.48,-8.25 142.07,-38.45 157.46,-105.66 15.31,-67.25 116.49,-81.64 116.49,-81.64z"/>
   <path class="filintr8" d="M7238.73 3632.33c-66.12,-148.14 -106.57,-190.68 -98.83,-236.64 5.72,-34.24 -17.5,-638.08 -17.5,-638.08 -7.82,-2.43 -23.55,-4.59 -32.13,-6.51 -27.08,-6.01 -49.54,-25.03 -58.79,-51.17 -11.28,-31.48 -20.19,-77.98 -20.02,-136.23l-8.41 1.67 -142.32 28.16c0,0 3.28,44.79 3.28,86.96 0,0.35 0,0.71 0,1.05 0.25,36.64 -23.8,68.95 -58.96,79.12 -18,5.22 -33.64,9.61 -33.64,9.61 0,0 -52.23,149.19 -62.24,302.39 -9.93,153.23 95.05,219.82 -0.75,526.02 -97.82,312.72 566.74,115.49 530.32,33.66z"/>
   <path class="filintr12" d="M6860.74 2593.52c0,0 3.28,44.79 3.28,86.96 79.66,-2.24 121.72,-74.87 139.04,-115.12l-142.32 28.16z"/>
   <path class="filintr8" d="M6834.15 2633.46c0,0 188.41,3.1 188.5,-114.23 0.08,-117.34 24.56,-195.96 -95.72,-202.9 -120.28,-6.95 -143.66,37.79 -153.25,76.95 -9.59,39.16 11.52,236.35 60.47,240.18z"/>
   <path class="filintr7" d="M6841.14 2313.46c0,0 51.56,137.66 130.71,158 79.14,20.36 113.46,-0.85 113.46,-0.85 0,0 -60.73,-48.23 -73.34,-132.42 0,0 -131.98,-90.25 -170.83,-24.73z"/>
   <path class="filintr7" d="M6853.92 2324.63c0,0 -38.26,14.3 -54,42.19 -15.39,27.27 -28.51,63.4 -25.48,107.72 0,0 -38.87,-93.55 4.79,-146.49 46.34,-56.12 74.68,-3.42 74.68,-3.42z"/>
   <path class="filintr13" d="M6875.12 2560.67c0,0 -12.96,17.1 -38.95,15.86 -20.94,-0.99 -29.11,-19.16 -29.11,-19.16 0,0 38.52,-9.25 68.05,3.29z"/>
   <path class="filintr9" d="M7256.9 3024.75c0,0 4.71,67.44 0,148.34 -3.19,53.64 -57.44,125.51 -65.18,143.28 -19.27,44.58 -41.05,51.83 -41.05,51.83l-168.56 41.29 -59.3 14.54 -186.89 -55.83c0,0 -85.12,-237.57 -50.97,-371.34 34.24,-133.71 86.47,-226.61 86.47,-226.61 0,0 152.5,149.34 350.99,-12.65l134.49 267.14z"/>
   <path class="filintr14" d="M7207.52 3194.99c-3.19,53.64 -8.07,103.61 -15.81,121.38 -19.27,44.58 -41.05,51.83 -41.05,51.83l-168.56 41.29 -73.26 -21.51c0,0 244.42,-37.02 217.26,-247.25l81.41 54.25z"/>
   <path class="filintr15" d="M6747.86 3404.25c0,0 -92.6,288.07 -98.58,386.14 -5.89,98.09 176.97,1393.28 184.28,1438.47 6.98,42.6 59.89,69.75 59.89,69.75 0,0 24.31,14.35 59.05,4.55 48.19,-13.62 63.33,-29.89 63.33,-29.89 0,0 72.08,-923.73 27.5,-1253.69 -44.58,-329.99 -45.08,-615.33 -45.08,-615.33l-250.4 0z"/>
   <path class="filintr16" d="M7139.9 3395.69c0,0 141.14,189.4 154.35,317.42 13.2,128.06 20.69,577.82 48.7,702.64 28.09,124.81 131.05,365.04 131.05,754.38 0,0 -10.68,22.32 -43.74,34.2 -10.6,3.81 -24.81,7.47 -38.52,10.64 -27.25,6.24 -55.26,-7.1 -67.71,-32.12 -69.64,-140.24 -291.44,-592.5 -302.79,-686.4 -8.08,-66.44 -78.14,-506.14 -230.97,-764.17 -36.59,-61.93 22.54,-308.25 22.54,-308.25l327.11 -28.34z"/>
   <path class="filintr17" d="M6871 2563.81c0,0 -3.28,13.82 -37.68,11.69 0,0 -28.94,-1.79 -28.01,-16.98 0,0 28.01,-10.82 65.69,5.29z"/>
   <path class="filintr7" d="M6733.05 3359.8c0,0 37.18,29.38 110.95,30.88 88.14,1.78 306.58,-22.48 306.58,-22.48 0,0 9.76,27.11 9.34,55.75 0,0 -266.8,67.29 -421.4,9.83 0,0 -19.93,-37.52 -5.47,-73.99z"/>
   <path class="filintr17" d="M6822.81 3388.9c-14.81,0 -26.84,14.46 -26.84,32.2 0,17.77 12.03,32.2 26.84,32.2 14.89,0 26.91,-14.43 26.91,-32.2 0,-17.74 -12.02,-32.2 -26.91,-32.2zm0 77.74c-22.12,0 -40.21,-20.44 -40.21,-45.54 0,-25.11 18.08,-45.51 40.21,-45.51 22.2,0 40.29,20.4 40.29,45.51 0,25.1 -18.08,45.54 -40.29,45.54z"/>
   <polygon class="filintr8" points="7437.82,3411.92 7164.46,3649.91 6838.7,3275.77 7112.07,3037.75 "/>
   <path class="filintr8" d="M7089.01 3412.76c0,0 -100.17,11.73 -99.93,35.48 0.34,23.8 24.99,72.65 37.35,74.81 12.36,2.15 81.5,-66.05 81.5,-66.05l-18.93 -44.24z"/>
   <path class="filintr9" d="M7122.4 2757.61c0,0 133.74,9.37 185.05,133.96 51.22,124.62 148.46,333.8 148.46,369.01 0,35.2 -54.25,143.67 -346.03,206.07 0,0 -30.2,-31.74 -28.34,-56.84 0,0 182.1,-156.43 181.59,-174.71 -0.93,-34.58 -29.86,-80.24 -189.75,-240.19 -43.49,-43.49 49.03,-237.29 49.03,-237.29z"/>
  </g>
  <g id="_3029838643632">
   <path class="filintr8" d="M2522.54 2431.15c0,0 -50.78,-90.27 0,-108.63 50.81,-18.36 73.79,-1.43 76.21,19.13 2.42,20.56 -19.35,101.6 -19.35,101.6l-56.86 -12.1z"/>
   <path class="filintr19" d="M2563.26 3008.5c-92.59,16.7 -177.75,24.43 -254.62,26.15 -72.96,1.64 -138.4,-2.15 -195.71,-8.81 -15.39,-1.76 -30.18,-3.75 -44.38,-5.9 -149.93,-22.75 -232.75,-63.07 -232.75,-63.07 0,0 137.01,-286.8 247.7,-275.79 129.84,12.94 349.87,129.47 371.74,96.78 24.62,-36.81 45.25,-352.57 45.25,-352.57 57.55,-39.43 91.94,2.13 91.94,2.13 0,0 112.47,555.53 -29.16,581.07z"/>
   <path class="filintr1" d="M2563.26 3008.5c-92.59,16.7 -177.75,24.43 -254.62,26.15 -72.96,1.64 -138.4,-2.15 -195.71,-8.81 -34.54,-109.87 -59.39,-222.09 10.09,-154.42 122.56,119.33 440.24,137.08 440.24,137.08z"/>
   <path class="filintr15" d="M1825.4 5324.13c0,0 -9.84,114.03 14.25,125.87l308.44 -0.61c0,0 0,-35.6 -49.55,-43.52 -49.52,-7.89 -136.57,-36.9 -151.29,-101.49 -14.74,-64.62 -121.84,19.76 -121.84,19.76z"/>
   <path class="filintr20" d="M2051.84 3944.23c-1.53,74.53 -5.11,151.43 -12.12,220.56 -33.33,327.94 -45.02,724.19 -49.8,800.59 -8.32,132.6 -34.49,344.45 -34.49,344.45 0,0 -51.97,49.32 -153.27,25.79 0,0 -83.91,-305.13 -102.66,-626.43 -0.28,-5.28 -0.56,-10.59 -0.83,-15.86 -2.17,-42.49 -4.44,-91.05 -6.78,-143.43 -15.42,-350.81 -32.18,-871.94 -32.18,-871.94l387.03 -90.87c0,0 8.92,171.28 5.11,357.15z"/>
   <path class="filintr21" d="M2051.84 3944.23c-98.1,169.22 -285.05,481.02 -359.96,605.66 -15.42,-350.81 -32.18,-871.94 -32.18,-871.94l387.03 -90.87c0,0 8.92,171.28 5.11,357.15z"/>
   <path class="filintr8" d="M1071.83 3616.4c0,0 -62.97,74.07 -68.65,94.6 -5.67,20.54 -15.76,94.52 -10.33,116.76 5.39,22.23 47.27,-62 62.5,-70.99 15.23,-9 -11.43,33.49 -6.23,40.58 5.2,7.09 35.27,-24.79 46.99,-35.6 11.74,-10.78 10.57,-68.87 24.65,-103.22 14.09,-34.35 -48.94,-42.14 -48.94,-42.14z"/>
   <path class="filintr15" d="M1057.08 5194.57c0,0 -54.92,50.09 -44.19,85.68 10.7,35.6 60.25,59.34 66.95,102.83 6.7,43.52 33.46,67.26 57.56,67.26 24.11,0 114.92,0 114.92,0 0,0 17.73,-30.64 -25.13,-39.86 -42.83,-9.23 -59,-60.36 -56.3,-107.81 2.67,-47.47 -4.03,-110.75 -4.03,-110.75l-91.05 -21.09 -18.73 23.73z"/>
   <path class="filintr20" d="M1985.75 3685.91c0,0 -362.32,775.23 -555.13,1115.36 -192.79,340.14 -253.04,435.04 -253.04,435.04 0,0 -110.47,-43.48 -120.5,-73.17 0,0 73.72,-656.66 202.84,-816.73 72.96,-90.44 158.66,-361.88 162.67,-456.81 4.02,-94.93 88.65,-321.49 88.65,-321.49l474.51 117.8z"/>
   <path class="filintr19" d="M2091.67 3722.45c0,0 -144.07,96.32 -348.01,87.38 -89.49,-3.9 -266.99,-29.27 -295.65,-100.44 -6.72,-16.73 -1.8,-37.94 8.28,-70.48 26.21,-84.6 87.24,-245.69 68.81,-602.89 -1.72,-33.23 -0.78,-64.49 2.39,-93.74 19.2,-175.94 120.03,-280.14 217.5,-314.19 237.67,-83.06 316.9,32.03 316.9,32.03 0,0 105.06,83.23 120.9,256.94 31.66,347.45 -91.13,805.39 -91.13,805.39z"/>
   <path class="filintr8" d="M1814.64 2608.15c0,0 109.05,66.32 227.34,47.57 0,0 23.4,-5.95 11.89,-33.41 7.2,-22.15 6.33,-20.16 10.51,-36.62 10.36,-37.89 13.53,-59.76 13.53,-59.76l-67.11 -70.55 -63.58 -67.42c-17.57,161.15 -132.57,220.19 -132.57,220.19z"/>
   <path class="filintr22" d="M1937.04 2449.07c0,0 36.52,97.64 127.34,136.62 10.36,-37.89 17.12,-77.53 17.12,-77.53l-70.7 -52.78 -73.76 -6.31z"/>
   <path class="filintr8" d="M2153.23 2522.53c0,0 -208.16,26.02 -222.78,-101.9 -14.62,-127.91 -51.33,-210.72 80.96,-232.74 132.28,-22.01 163.74,23.96 179.17,65.5 15.42,41.55 16.43,259.08 -37.35,269.15z"/>
   <path class="filintr15" d="M1864.73 2167.09c-1.81,-2.22 -6.06,-4.12 -15.68,-5.01 0,0 7.9,-4.53 18.2,-4.4 2.5,-13.32 10.54,-36.79 33.83,-41.68 0,0 -12.65,6.14 -14.78,20.33 27.73,-26.44 85.76,-44.25 243.84,-25.74 208.34,24.4 134.42,155.58 106.74,170.52 -27.65,14.93 -94.07,-31.38 -144.62,-29.28 -50.55,2.09 -62.93,74.57 -80.38,83.91 -17.47,9.35 -10.09,-8.06 -32.82,-19.4 -22.76,-11.32 -26.4,26.92 -20.65,52.1 5.73,25.18 -27.29,56.85 -27.29,56.85 0,0 0,0 -30.83,-35.81 -30.82,-35.81 -55.55,-183.49 -39.76,-214.18 1.39,-2.71 2.78,-5.45 4.2,-8.21z"/>
   <polygon class="filintr10" points="2500.49,2371.27 2147.08,2374.42 2144.67,2321.26 2496.95,2293.95 "/>
   <polygon class="filintr10" points="2767.25,2380.15 2382.48,2385.71 2378.09,2289.05 2761.76,2259.32 "/>
   <polygon class="filintr23" points="3026.68,2387.74 2702.22,2388.14 2696.3,2257.64 3019.42,2228.24 "/>
   <path class="filintr23" d="M3031.35 2409.76l0 0c10,-0.45 17.73,-8.94 17.27,-18.95l-7.62 -167.62c-0.45,-10.01 -8.92,-17.76 -18.93,-17.31l0 0c-10.06,0.46 -17.79,8.93 -17.33,18.95l7.61 167.63c0.46,10.01 8.98,17.75 18.99,17.3z"/>
   <path class="filintr10" d="M2145.98 2385.77l0 0c-8.9,0.4 -16.43,-6.48 -16.85,-15.38l-1.98 -43.49c-0.41,-8.9 6.48,-16.44 15.37,-16.85l0 0c8.92,-0.4 16.45,6.48 16.85,15.38l1.97 43.49c0.42,8.9 -6.48,16.44 -15.36,16.85z"/>
   <path class="filintr1" d="M1456.3 3638.91c26.21,-84.6 87.24,-245.69 68.81,-602.89 -1.72,-33.23 -0.78,-64.49 2.39,-93.74l0.03 0c78.2,-6.72 197.79,77.84 197.79,77.84 0,0 -73.65,448.93 -269.02,618.79z"/>
   <path class="filintr19" d="M1814.64 2608.15c0,0 -200.57,34.47 -305.18,162.18 -104.61,127.7 -272.89,307.77 -312.65,370.82 -39.8,63.05 -150.24,492.18 -150.24,492.18 0,0 7.31,13.78 37.77,21.82 29.15,7.69 50.3,-4.23 50.3,-4.23 0,0 146.31,-250.43 201.41,-375.54 22.87,-51.97 418.59,-257.83 567.36,-236.5 58.42,8.38 -88.77,-430.74 -88.77,-430.74z"/>
   <path class="filintr8" d="M2498.37 2278.73c0,0 43.14,26.38 68.96,15.22 25.79,-11.16 23.51,-21.39 23.51,-21.39 0,0 -77.95,-21.63 -92.47,6.17z"/>
   <path class="filintr18" d="M2009.26 2748.04c0,0 -88.02,555.7 -712.51,717.51l-68.04 134.21 119.5 20.23c0,0 710.99,-205.98 701.41,-881.77l-40.36 9.82z"/>
   <polygon class="filintr24" points="1995.62,2659.35 1966.8,2662.17 1966.8,2703.9 2009.26,2748.04 2049.65,2738.22 2049.65,2680.31 2020.6,2659.35 "/>
   <path class="filintr1" d="M1882.51 2548.84c0,0 -27.9,6.29 -91.71,59.31 0,0 63.46,134.66 197.3,150.79 0,0 -2.14,-62.5 7.53,-99.59 0,0 -106.08,-37.98 -113.11,-110.5z"/>
   <path class="filintr1" d="M1995.62 2659.35c0,0 65.31,34.68 70.15,88.7 0,0 24.96,-39.56 17.73,-66.95 -7.25,-27.39 -29.62,-58.78 -29.62,-58.78 0,0 2.22,33 -58.25,37.03z"/>
  </g>
  <path class="filintr25" d="M2291.68 4380.13l105.2 -23.12 19.82 90.18c0.96,4.39 3.16,7.67 6.6,9.86 3.44,2.21 7.35,2.82 11.74,1.86l78.42 -17.24c4.07,-0.89 7.28,-3.08 9.64,-6.55 2.36,-3.47 3.05,-7.39 2.09,-11.77l-19.82 -90.19 237.18 -52.13c4.37,-0.96 7.67,-3.15 9.87,-6.59 2.21,-3.44 2.82,-7.35 1.86,-11.74l-13.21 -60.12c-0.96,-4.36 -3.16,-7.67 -6.6,-9.86 -3.44,-2.21 -7.36,-2.82 -11.74,-1.86l-237.18 52.13 -12.18 -55.42 159.69 -35.1c62.62,-13.76 109.53,-44.07 140.75,-90.99 31.21,-46.88 40.18,-100.55 26.9,-161 -13.28,-60.41 -43.93,-105.37 -91.93,-134.88 -48,-29.47 -103.32,-37.36 -165.94,-23.6l-253.14 55.63c-4.39,0.97 -7.67,3.17 -9.88,6.6 -2.2,3.44 -2.81,7.36 -1.86,11.73l64.92 295.42 -105.2 23.12c-4.39,0.96 -7.66,3.24 -9.82,6.83 -2.16,3.59 -2.8,7.43 -1.9,11.5l15.38 69.97c0.96,4.39 3.16,7.67 6.6,9.87 3.44,2.21 7.34,2.82 11.73,1.85l105.21 -23.12 12.18 55.43 -105.21 23.12c-4.39,0.96 -7.67,3.17 -9.87,6.61 -2.2,3.43 -2.82,7.35 -1.86,11.72l13.21 60.12c0.97,4.39 3.16,7.67 6.6,9.88 3.44,2.21 7.35,2.81 11.74,1.85l0 0zm113.46 -502.99l150.29 -33.03c33.18,-7.29 62.08,-3.48 86.71,11.47 24.61,14.94 40.37,38.07 47.25,69.37 6.88,31.32 2.28,58.93 -13.81,82.79 -16.09,23.9 -40.72,39.48 -73.91,46.78l-150.29 33.03 -46.25 -210.41 0 0z"/>
  <path class="filintr25" d="M2386.09 4806.1l40.51 10.55 -9.05 34.72c-0.44,1.69 -0.26,3.21 0.55,4.58 0.8,1.36 2.05,2.27 3.73,2.71l30.2 7.86c1.56,0.4 3.06,0.21 4.49,-0.57 1.43,-0.79 2.36,-2.02 2.8,-3.71l9.05 -34.72 91.32 23.78c1.68,0.44 3.21,0.26 4.59,-0.54 1.36,-0.8 2.27,-2.05 2.71,-3.74l6.03 -23.15c0.44,-1.68 0.26,-3.21 -0.55,-4.58 -0.8,-1.37 -2.05,-2.28 -3.73,-2.71l-91.32 -23.79 5.55 -21.34 61.49 16.01c24.11,6.28 45.7,4.06 64.78,-6.68 19.08,-10.73 31.65,-27.73 37.72,-51 6.05,-23.27 3.37,-44.24 -8.04,-62.93 -11.43,-18.67 -29.19,-31.15 -53.3,-37.44l-97.47 -25.38c-1.68,-0.44 -3.21,-0.25 -4.58,0.54 -1.37,0.81 -2.28,2.06 -2.71,3.74l-29.63 113.75 -40.5 -10.55c-1.69,-0.44 -3.22,-0.23 -4.61,0.63 -1.38,0.86 -2.28,2.08 -2.68,3.64l-7.02 26.94c-0.44,1.69 -0.25,3.21 0.55,4.59 0.8,1.37 2.05,2.27 3.74,2.71l40.51 10.55 -5.56 21.34 -40.51 -10.55c-1.68,-0.44 -3.21,-0.26 -4.58,0.55 -1.36,0.79 -2.28,2.05 -2.71,3.73l-6.03 23.15c-0.44,1.69 -0.25,3.21 0.55,4.59 0.8,1.37 2.05,2.27 3.74,2.71l0 0zm128.01 -154.15l57.86 15.07c12.78,3.33 22.11,9.75 28,19.27 5.89,9.51 7.26,20.31 4.13,32.35 -3.14,12.06 -9.61,20.81 -19.39,26.23 -9.79,5.44 -21.07,6.49 -33.84,3.17l-57.87 -15.08 21.11 -81.01 0 0z"/>
  <path class="filintr25" d="M2461.85 5198.53l17.35 -19.12 16.39 14.88c0.8,0.72 1.68,1.06 2.66,1.01 0.98,-0.05 1.83,-0.47 2.56,-1.26l12.93 -14.25c0.67,-0.74 1,-1.61 0.98,-2.62 -0.02,-1.01 -0.43,-1.87 -1.23,-2.59l-16.39 -14.88 39.13 -43.1c0.72,-0.79 1.06,-1.68 1.02,-2.66 -0.05,-0.98 -0.47,-1.83 -1.27,-2.56l-10.93 -9.91c-0.79,-0.72 -1.67,-1.06 -2.65,-1.02 -0.98,0.05 -1.83,0.47 -2.56,1.27l-39.13 43.1 -10.07 -9.14 26.34 -29.02c10.32,-11.38 15.29,-23.81 14.88,-37.32 -0.4,-13.49 -6.09,-25.23 -17.08,-35.2 -10.98,-9.97 -23.21,-14.5 -36.68,-13.61 -13.47,0.9 -25.38,7.04 -35.71,18.42l-41.76 46c-0.72,0.79 -1.06,1.68 -1.02,2.66 0.05,0.98 0.48,1.83 1.27,2.55l53.68 48.74 -17.35 19.12c-0.72,0.79 -1.05,1.69 -0.97,2.7 0.07,1 0.48,1.84 1.22,2.51l12.71 11.55c0.79,0.72 1.68,1.06 2.66,1.02 0.98,-0.05 1.83,-0.47 2.56,-1.27l17.35 -19.12 10.07 9.14 -17.35 19.12c-0.73,0.8 -1.06,1.68 -1.02,2.67 0.05,0.98 0.47,1.83 1.26,2.55l10.93 9.92c0.79,0.72 1.68,1.06 2.66,1.02 0.98,-0.05 1.83,-0.48 2.56,-1.27l0 0zm-47.62 -114.06l24.8 -27.3c5.48,-6.03 11.65,-9.29 18.54,-9.79 6.88,-0.49 13.17,1.84 18.86,7.01 5.69,5.17 8.62,11.2 8.78,18.09 0.17,6.9 -2.48,13.37 -7.95,19.4l-24.79 27.31 -38.24 -34.72 0 0z"/>
 </g>
</svg>
