<?xml version="1.0" encoding="UTF-8"?>
<!DOCTYPE svg PUBLIC "-//W3C//DTD SVG 1.1//EN" "http://www.w3.org/Graphics/SVG/1.1/DTD/svg11.dtd">
<!-- Creator: CorelDRAW 2018 (64-Bit) -->
<svg xmlns="http://www.w3.org/2000/svg" xml:space="preserve" width="109.881mm" height="81.6342mm" version="1.1" style="shape-rendering:geometricPrecision; text-rendering:geometricPrecision; image-rendering:optimizeQuality; fill-rule:evenodd; clip-rule:evenodd"
viewBox="0 0 8594.87 6385.39"
 xmlns:xlink="http://www.w3.org/1999/xlink">
 <defs>
  <style type="text/css">
   <![CDATA[
    .filinro8 {fill:#990310}
    .filinro9 {fill:#A4A4A4}
    .filinro5 {fill:#FBF8F8}
    .filinro7 {fill:white}
    .filinro22 {fill:#121212;fill-rule:nonzero}
    .filinro31 {fill:#233862;fill-rule:nonzero}
    .filinro2 {fill:#2E3552;fill-rule:nonzero}
    .filinro27 {fill:#302121;fill-rule:nonzero}
    .filinro10 {fill:#302121;fill-rule:nonzero}
    .filinro28 {fill:#402B13;fill-rule:nonzero}
    .filinro17 {fill:#402B13;fill-rule:nonzero}
    .filinro26 {fill:#470343;fill-rule:nonzero}
    .filinro19 {fill:#4D4D4D;fill-rule:nonzero}
    .filinro20 {fill:#595959;fill-rule:nonzero}
    .filinro18 {fill:#595959;fill-rule:nonzero}
    .filinro23 {fill:#704B24;fill-rule:nonzero}
    .filinro16 {fill:#78111A;fill-rule:nonzero}
    .filinro12 {fill:#87111B;fill-rule:nonzero}
    .filinro11 {fill:#990310;fill-rule:nonzero}
    .filinro25 {fill:#D1BCCD;fill-rule:nonzero}
    .filinro30 {fill:#D9E9F9;fill-rule:nonzero}
    .filinro24 {fill:#DBCAD8;fill-rule:nonzero}
    .filinro15 {fill:#E2915A;fill-rule:nonzero}
    .filinro29 {fill:#E9F3FE;fill-rule:nonzero}
    .filinro3 {fill:#EBDCE8;fill-rule:nonzero}
    .filinro21 {fill:#ED975D;fill-rule:nonzero}
    .filinro1 {fill:#F2EDF1;fill-rule:nonzero}
    .filinro0 {fill:#FBF8F8;fill-rule:nonzero}
    .filinro13 {fill:#FCFCFC;fill-rule:nonzero}
    .filinro14 {fill:#FFB27D;fill-rule:nonzero}
    .filinro4 {fill:white;fill-rule:nonzero}
    .filinro6 {fill:white;fill-rule:nonzero}
   ]]>
  </style>
 </defs>
 <g id="Слой_x0020_1">
  <metadata id="CorelCorpID_0Corel-Layer"/>
  <path class="filinro0" d="M8257.88 5453.47c859.72,-1646.19 128.83,-4868.06 -2821.88,-4383.51 -1340.19,114.22 -1487.59,2052.79 -2205.97,924.41 -979.61,-1538.81 -3239.5,-1470.54 -2369.81,846.12 334.4,1135.65 -1339.57,1470.18 -722.22,2615.44l8119.89 -2.46z"/>
  <g id="_2549017812544">
   <path class="filinro1" d="M957.1 4946.72c0,0 -71.05,-94.03 -4.39,-153.74 0,0 48.68,-33.45 88.4,-30.73 0,0 -56.29,107.01 -38.08,117.67 18.22,10.63 55.12,-124.38 55.12,-124.38 0,0 110.83,-12.22 146.44,7.25 0,0 -94.72,87.91 -74.75,93.15 19.98,5.23 122.26,-81.06 122.26,-81.06 0,0 103.16,19.89 97.65,91.27 -5.51,71.37 -41.01,93.4 -56.65,91.5 -15.64,-1.89 -107.02,-41.46 -109.01,-26.92 -1.93,14.5 53.02,61.96 91.56,64.19 0,0 -72.75,90.96 -121.02,64.7 -48.39,-26.26 -52.49,-67.86 -82.59,-83.46 -30.11,-15.63 -55.89,-15.57 -43.41,0.33 12.42,15.93 66.96,31.38 84.18,65.95 17.22,34.57 32.69,57.88 -17.28,49.35 -50.03,-8.53 -131.33,-50.01 -134.91,-97.54 -3.52,-47.53 -3.52,-47.53 -3.52,-47.53z"/>
   <path class="filinro1" d="M1299.09 4868.07c0,0 -280.12,-12.24 -341.98,78.65 0,0 -13.7,46.46 -55.82,88.8l-6.56 20.29c0,0 48.56,-58.06 65.9,-61.57 0,0 -27.13,-112.59 338.46,-126.18z"/>
   <path class="filinro1" d="M901.29 5035.53c0,0 -60.1,50.45 -64.27,140.55l10.9 1.13c0,0 19.22,-93.18 53.89,-129.64 34.74,-36.43 -0.52,-12.04 -0.52,-12.04z"/>
   <path class="filinro1" d="M708.68 4828.47c0,0 113,-71.8 60.28,-169.21 0,0 -42.18,-59.83 -87.39,-75.22 0,0 24.08,145.28 0,148.72 -24.08,3.41 -16.58,-164.1 -16.58,-164.1 0,0 -119.03,-64.98 -165.77,-59.83 0,0 73.86,141.87 49.79,138.46 -24.13,-3.41 -107.02,-147.01 -107.02,-147.01 0,0 -122.08,-25.65 -141.64,56.41 -19.63,82.04 12.07,123.07 30.11,128.19 18.1,5.15 134.15,3.44 131.1,20.53 -2.99,17.09 -81.36,44.45 -125.06,29.07 0,0 48.21,135.04 111.53,128.19 63.26,-6.82 82.89,-51.27 122.02,-54.68 39.19,-3.44 67.83,8.53 48.27,20.5 -19.63,11.98 -85.94,3.93 -117.57,34.46 -31.63,30.49 -57.23,49.32 1.53,62.97 58.75,13.67 164.25,5.15 185.34,-46.15 21.09,-51.27 21.09,-51.27 21.09,-51.27z"/>
   <path class="filinro1" d="M356.09 4582.34c0,0 316.44,116.22 352.58,246.13 0,0 -1.53,58.12 30.17,124.78l0 25.66c0,0 -33.21,-87.19 -51.26,-99.16 0,0 70.82,-112.81 -331.49,-297.41z"/>
   <path class="filinro1" d="M738.85 4953.25c0,0 48.79,84.07 20.97,186.4l-12.54 -3.81c0,0 12.12,-112.71 -13.35,-169.39 -25.54,-56.69 4.92,-13.2 4.92,-13.2z"/>
   <path class="filinro1" d="M888.51 4729.47c0,0 -149.02,-94.65 -79.49,-223.08 0,0 55.58,-78.86 115.22,-99.15 0,0 -31.8,191.55 0,196.03 31.81,4.5 21.85,-216.32 21.85,-216.32 0,0 156.92,-85.6 218.49,-78.83 0,0 -97.35,187.01 -65.55,182.5 31.75,-4.51 141,-193.78 141,-193.78 0,0 160.91,-33.81 186.75,74.36 25.83,108.15 -15.88,162.21 -39.72,168.97 -23.84,6.77 -176.78,4.51 -172.8,27.06 3.98,22.54 107.25,58.58 164.84,38.29 0,0 -63.56,178.03 -146.97,169.01 -83.41,-9.02 -109.25,-67.6 -160.91,-72.1 -51.61,-4.51 -89.33,11.27 -63.56,27.05 25.84,15.75 113.24,5.15 154.95,45.38 41.71,40.22 75.44,65.01 -1.99,83.05 -77.44,18.03 -216.5,6.76 -244.33,-60.84 -27.77,-67.6 -27.77,-67.6 -27.77,-67.6z"/>
   <path class="filinro1" d="M1353.33 4404.98c0,0 -417.2,153.22 -464.82,324.49 0,0 1.93,76.61 -39.77,164.47l0 33.81c0,0 43.7,-114.91 67.54,-130.69 0,0 -93.38,-148.71 437.05,-392.08z"/>
   <path class="filinro1" d="M848.74 4893.94c0,0 -64.32,110.82 -27.65,245.7l16.58 -5.02c0,0 -16.05,-148.59 17.57,-223.32 33.63,-74.72 -6.5,-17.36 -6.5,-17.36z"/>
   <path class="filinro1" d="M883.47 5432.18c161.15,0 291.84,-148.23 291.84,-331.03l-583.67 0c0,182.81 130.63,331.03 291.84,331.03z"/>
   <path class="filinro1" d="M1179.29 5449.03l-591.7 0 0 0c0,-22.57 16.11,-40.85 36.03,-40.85l519.71 0c19.85,0 35.97,18.27 35.97,40.85l0 0z"/>
   <polygon class="filinro1" points="582.03,5111.28 1181.9,5111.28 1181.9,5101.14 582.03,5101.14 "/>
  </g>
  <path class="filinro1" d="M2079.19 1905.37c28.83,12.13 46.78,36.18 51.21,61.23 15.35,87.82 -75.78,143.17 -140.36,87 -16.36,-14.6 -27.13,-36.12 -27.26,-64.39 0.04,-65.71 61.29,-106.99 116.41,-83.84zm174.51 82.73l-7.02 -38.88 -0.18 -0.92c-0.88,-4.73 -4.97,-8.01 -9.52,-7.63l-31.38 2.6c-0.52,0.04 -1.03,0.04 -1.53,-0.01 -3.47,-0.37 -6.52,-2.82 -7.58,-6.37 -6.49,-20.89 -16.83,-40.18 -30.51,-56.79 -0.56,-0.7 -1.01,-1.45 -1.36,-2.24 -1.29,-3 -0.99,-6.61 0.85,-9.38l15.27 -22.45c1.99,-2.97 2.14,-6.87 0.59,-9.94 -0.5,-0.92 -1.14,-1.84 -1.96,-2.61l-28.76 -26.86c-3.54,-3.31 -8.97,-3.24 -12.43,0.23l-25.36 25.26c-2.51,2.48 -6.13,3.23 -9.35,1.91 -4.66,-1.84 -9.36,-3.5 -14.23,-4.9 -9.11,-2.65 -18.24,-4.38 -27.32,-5.26l-0.04 -0.01c-3.79,-0.38 -6.92,-3.08 -7.95,-6.92l-9.57 -35.89 -0.5 -1.8c-1.19,-4.61 -5.65,-7.56 -10.19,-6.65l-37.87 7.52c-4.6,0.95 -7.85,5.36 -7.48,10.28l2.75 36.67c0.31,4.08 -1.89,7.9 -5.45,9.45 -14.94,6.8 -28.83,15.93 -41.11,27.2 -3.15,2.83 -7.7,3.06 -11.11,0.52l-25.39 -18.94c-3.87,-2.87 -9.1,-2.2 -12.19,1.47l-25.72 30.3c-3.03,3.6 -2.93,9.02 0.2,12.45l28.23 31.33c2.41,2.64 3.15,6.5 1.97,9.95 -1.49,4.23 -2.82,8.57 -3.98,12.99 -2.21,8.35 -3.75,16.7 -4.68,24.98 -0.4,3.77 -2.9,6.94 -6.4,7.91l-41.1 12.05c-4.52,1.35 -7.29,6.05 -6.43,10.86l7.18 39.9c0.79,4.22 4.22,7.35 8.22,7.64 0.41,0.02 0.87,0.05 1.3,-0.02l38.77 -3.19c3.6,-0.31 7.03,1.61 8.69,4.96 0.16,0.29 0.31,0.58 0.41,0.9 0.36,0.92 0.68,1.8 1.13,2.71 4.38,10.79 9.91,21.1 16.41,30.72 2.22,3.17 2.18,7.53 -0.06,10.77l-19.04 28.16c-2.72,3.97 -2.09,9.5 1.41,12.76l6.38 5.98 22.36 20.82c3.48,3.29 8.79,3.18 12.23,-0.2l24.98 -24.87c2.65,-2.68 6.59,-3.24 9.89,-1.55 8.65,4.45 17.91,8.16 27.59,10.97 7.18,2.09 14.47,3.61 21.67,4.58l2 7.53 8.26 30.88c0.98,3.83 4.2,6.52 7.85,6.75 0.77,0.08 1.53,0.01 2.32,-0.16l38.14 -7.49c4.51,-0.93 7.6,-5.28 7.27,-10.04l-1.92 -25.05c-0.31,-4.22 2.18,-8.27 6.01,-9.63 15.9,-5.65 30.8,-13.86 44.11,-24.33 3.16,-2.49 7.4,-2.57 10.47,-0.17l32.09 23.94c3.61,2.65 8.53,2.09 11.47,-1.38l25.95 -30.68c3.09,-3.62 3,-9.09 -0.17,-12.54l-29.39 -32.59c-2.55,-2.78 -3.18,-6.9 -1.64,-10.44 3.29,-7.56 5.98,-15.52 8.17,-23.83 1.18,-4.47 2.17,-8.95 2.98,-13.43 0.65,-3.5 3.11,-6.34 6.37,-7.33l39.4 -11.56c4.58,-1.35 7.39,-6.07 6.55,-10.98z"/>
  <path class="filinro1" d="M6472.76 1042.85c28.83,12.13 46.78,36.18 51.21,61.23 15.35,87.82 -75.78,143.17 -140.36,87 -16.36,-14.6 -27.13,-36.12 -27.26,-64.39 0.04,-65.71 61.29,-106.99 116.41,-83.84zm174.51 82.73l-7.02 -38.88 -0.18 -0.92c-0.88,-4.73 -4.97,-8.01 -9.52,-7.63l-31.38 2.6c-0.52,0.04 -1.03,0.04 -1.53,-0.01 -3.47,-0.37 -6.52,-2.82 -7.58,-6.37 -6.49,-20.89 -16.83,-40.18 -30.51,-56.79 -0.56,-0.7 -1.01,-1.45 -1.36,-2.24 -1.29,-3 -0.99,-6.61 0.85,-9.38l15.27 -22.45c1.99,-2.97 2.14,-6.87 0.59,-9.94 -0.5,-0.92 -1.14,-1.84 -1.96,-2.61l-28.76 -26.86c-3.54,-3.31 -8.97,-3.24 -12.43,0.23l-25.36 25.26c-2.51,2.48 -6.13,3.23 -9.35,1.91 -4.66,-1.84 -9.36,-3.5 -14.23,-4.9 -9.11,-2.65 -18.24,-4.38 -27.32,-5.26l-0.04 -0.01c-3.79,-0.38 -6.92,-3.08 -7.95,-6.92l-9.57 -35.89 -0.5 -1.8c-1.19,-4.61 -5.65,-7.56 -10.19,-6.65l-37.87 7.52c-4.6,0.95 -7.85,5.36 -7.48,10.28l2.75 36.67c0.31,4.08 -1.89,7.9 -5.45,9.45 -14.94,6.8 -28.83,15.93 -41.11,27.2 -3.15,2.83 -7.7,3.06 -11.11,0.52l-25.39 -18.94c-3.87,-2.87 -9.1,-2.2 -12.19,1.47l-25.72 30.3c-3.03,3.6 -2.93,9.02 0.2,12.45l28.23 31.33c2.41,2.64 3.15,6.5 1.97,9.95 -1.49,4.23 -2.82,8.57 -3.98,12.99 -2.21,8.35 -3.75,16.7 -4.68,24.98 -0.4,3.77 -2.9,6.94 -6.4,7.91l-41.1 12.05c-4.52,1.35 -7.29,6.05 -6.43,10.86l7.18 39.9c0.79,4.22 4.22,7.35 8.22,7.64 0.41,0.02 0.87,0.05 1.3,-0.02l38.77 -3.19c3.6,-0.31 7.03,1.61 8.69,4.96 0.16,0.29 0.31,0.58 0.41,0.9 0.36,0.92 0.68,1.8 1.13,2.71 4.38,10.79 9.91,21.1 16.41,30.72 2.22,3.17 2.18,7.53 -0.06,10.77l-19.04 28.16c-2.72,3.97 -2.09,9.5 1.41,12.76l6.38 5.98 22.36 20.82c3.48,3.29 8.79,3.18 12.23,-0.2l24.98 -24.87c2.65,-2.68 6.59,-3.24 9.89,-1.55 8.65,4.45 17.91,8.16 27.59,10.97 7.18,2.09 14.47,3.61 21.67,4.58l2 7.53 8.26 30.88c0.98,3.83 4.2,6.52 7.85,6.75 0.77,0.08 1.53,0.01 2.32,-0.16l38.14 -7.49c4.51,-0.93 7.6,-5.28 7.27,-10.04l-1.92 -25.05c-0.31,-4.22 2.18,-8.27 6.01,-9.63 15.9,-5.65 30.8,-13.86 44.11,-24.33 3.16,-2.49 7.4,-2.57 10.47,-0.17l32.09 23.94c3.61,2.65 8.53,2.09 11.47,-1.38l25.95 -30.68c3.09,-3.62 3,-9.09 -0.17,-12.54l-29.39 -32.59c-2.55,-2.78 -3.18,-6.9 -1.64,-10.44 3.29,-7.56 5.98,-15.52 8.17,-23.83 1.18,-4.47 2.17,-8.95 2.98,-13.43 0.65,-3.5 3.11,-6.34 6.37,-7.33l39.4 -11.56c4.58,-1.35 7.39,-6.07 6.55,-10.98z"/>
  <path class="filinro1" d="M1202.23 1719.01c15.12,6.37 24.54,18.98 26.85,32.12 8.06,46.06 -39.74,75.09 -73.61,45.63 -8.58,-7.66 -14.24,-18.94 -14.3,-33.78 0.02,-34.46 32.15,-56.11 61.06,-43.98zm91.52 43.39l-3.68 -20.39 -0.09 -0.48c-0.46,-2.48 -2.6,-4.2 -4.99,-4l-16.46 1.36c-0.28,0.02 -0.55,0.02 -0.81,0 -1.82,-0.2 -3.43,-1.48 -3.98,-3.35 -3.4,-10.96 -8.82,-21.07 -16,-29.79 -0.3,-0.36 -0.53,-0.76 -0.72,-1.17 -0.67,-1.57 -0.52,-3.47 0.45,-4.91l8.01 -11.78c1.05,-1.56 1.13,-3.6 0.31,-5.22 -0.26,-0.48 -0.59,-0.96 -1.02,-1.37l-15.08 -14.09c-1.85,-1.74 -4.71,-1.7 -6.52,0.13l-13.3 13.24c-1.31,1.31 -3.21,1.69 -4.9,1 -2.44,-0.96 -4.91,-1.83 -7.46,-2.57 -4.78,-1.39 -9.57,-2.29 -14.33,-2.76l-0.02 0c-1.99,-0.2 -3.63,-1.62 -4.17,-3.64l-5.02 -18.82 -0.26 -0.94c-0.63,-2.42 -2.96,-3.97 -5.35,-3.5l-19.87 3.95c-2.41,0.5 -4.11,2.82 -3.92,5.39l1.45 19.23c0.16,2.14 -0.99,4.15 -2.86,4.96 -7.84,3.56 -15.12,8.35 -21.56,14.27 -1.66,1.48 -4.04,1.6 -5.84,0.27l-13.31 -9.93c-2.03,-1.51 -4.77,-1.16 -6.4,0.77l-13.49 15.89c-1.6,1.89 -1.54,4.73 0.1,6.53l14.81 16.43c1.27,1.38 1.65,3.41 1.03,5.22 -0.78,2.22 -1.48,4.49 -2.09,6.81 -1.16,4.38 -1.97,8.76 -2.46,13.1 -0.2,1.98 -1.52,3.65 -3.36,4.15l-21.55 6.31c-2.38,0.71 -3.82,3.18 -3.38,5.7l3.77 20.93c0.41,2.21 2.21,3.85 4.31,4 0.22,0.01 0.46,0.02 0.68,-0.01l20.34 -1.67c1.89,-0.16 3.69,0.84 4.56,2.6 0.08,0.15 0.16,0.3 0.22,0.47 0.19,0.48 0.35,0.95 0.59,1.42 2.3,5.66 5.2,11.06 8.6,16.11 1.17,1.67 1.15,3.96 -0.03,5.66l-9.99 14.77c-1.42,2.08 -1.1,4.98 0.74,6.69l3.35 3.14 11.73 10.92c1.82,1.73 4.61,1.67 6.41,-0.1l13.11 -13.05c1.39,-1.41 3.46,-1.7 5.19,-0.81 4.53,2.34 9.39,4.28 14.46,5.75 3.77,1.1 7.59,1.9 11.37,2.41l1.05 3.95 4.33 16.2c0.52,2.01 2.21,3.42 4.11,3.54 0.41,0.05 0.81,0.01 1.21,-0.08l20.01 -3.93c2.36,-0.48 3.98,-2.77 3.82,-5.26l-1.01 -13.14c-0.16,-2.22 1.14,-4.33 3.15,-5.05 8.34,-2.96 16.14,-7.27 23.13,-12.77 1.66,-1.3 3.88,-1.35 5.49,-0.09l16.83 12.55c1.89,1.39 4.47,1.1 6.02,-0.73l13.61 -16.08c1.62,-1.9 1.57,-4.77 -0.09,-6.58l-15.42 -17.09c-1.34,-1.46 -1.67,-3.62 -0.86,-5.48 1.72,-3.96 3.14,-8.13 4.29,-12.49 0.62,-2.35 1.14,-4.69 1.56,-7.05 0.34,-1.84 1.63,-3.32 3.35,-3.85l20.66 -6.05c2.4,-0.71 3.88,-3.19 3.43,-5.76z"/>
  <path class="filinro1" d="M2155.42 2380.78c14.26,6.01 23.14,17.9 25.33,30.29 7.59,43.44 -37.48,70.82 -69.44,43.04 -8.09,-7.23 -13.41,-17.87 -13.48,-31.85 0.02,-32.51 30.32,-52.92 57.59,-41.48zm86.32 40.92l-3.47 -19.23 -0.09 -0.46c-0.44,-2.34 -2.46,-3.96 -4.71,-3.77l-15.53 1.29c-0.26,0.02 -0.52,0.02 -0.76,0 -1.71,-0.19 -3.23,-1.4 -3.75,-3.16 -3.21,-10.33 -8.33,-19.88 -15.1,-28.09 -0.27,-0.34 -0.5,-0.72 -0.67,-1.1 -0.63,-1.49 -0.48,-3.28 0.42,-4.64l7.55 -11.11c0.99,-1.47 1.06,-3.4 0.29,-4.92 -0.24,-0.45 -0.56,-0.91 -0.96,-1.29l-14.23 -13.29c-1.75,-1.63 -4.44,-1.6 -6.15,0.12l-12.55 12.49c-1.24,1.23 -3.03,1.6 -4.62,0.94 -2.31,-0.91 -4.63,-1.73 -7.03,-2.42 -4.51,-1.31 -9.03,-2.17 -13.52,-2.6l-0.02 0c-1.88,-0.19 -3.43,-1.53 -3.93,-3.43l-4.73 -17.75 -0.25 -0.89c-0.59,-2.28 -2.79,-3.75 -5.05,-3.29l-18.73 3.72c-2.28,0.47 -3.88,2.65 -3.69,5.08l1.36 18.14c0.15,2.02 -0.94,3.91 -2.7,4.68 -7.39,3.36 -14.27,7.88 -20.34,13.45 -1.56,1.4 -3.81,1.51 -5.5,0.26l-12.55 -9.37c-1.92,-1.42 -4.51,-1.09 -6.04,0.73l-12.72 14.99c-1.5,1.78 -1.45,4.47 0.09,6.16l13.97 15.5c1.19,1.31 1.56,3.21 0.97,4.92 -0.74,2.1 -1.39,4.24 -1.97,6.43 -1.09,4.13 -1.85,8.26 -2.31,12.36 -0.2,1.87 -1.44,3.43 -3.17,3.91l-20.33 5.96c-2.24,0.67 -3.61,2.99 -3.18,5.37l3.56 19.73c0.39,2.09 2.09,3.64 4.06,3.78 0.21,0.02 0.44,0.03 0.65,-0.01l19.17 -1.57c1.78,-0.16 3.48,0.79 4.3,2.45 0.08,0.15 0.16,0.29 0.2,0.45 0.18,0.46 0.34,0.89 0.56,1.35 2.17,5.33 4.9,10.43 8.12,15.19 1.1,1.57 1.08,3.73 -0.03,5.33l-9.42 13.93c-1.35,1.97 -1.03,4.7 0.7,6.31l3.16 2.96 11.05 10.3c1.73,1.63 4.35,1.58 6.05,-0.09l12.36 -12.3c1.31,-1.33 3.26,-1.6 4.9,-0.77 4.27,2.21 8.85,4.04 13.64,5.43 3.55,1.03 7.16,1.78 10.72,2.27l0.99 3.72 4.08 15.28c0.48,1.89 2.08,3.22 3.88,3.34 0.38,0.04 0.76,0 1.15,-0.08l18.87 -3.71c2.23,-0.46 3.75,-2.61 3.6,-4.97l-0.95 -12.4c-0.16,-2.09 1.08,-4.08 2.97,-4.76 7.86,-2.79 15.23,-6.85 21.82,-12.04 1.56,-1.23 3.66,-1.27 5.18,-0.09l15.87 11.85c1.78,1.31 4.22,1.03 5.68,-0.69l12.84 -15.17c1.53,-1.79 1.49,-4.5 -0.09,-6.2l-14.53 -16.12c-1.26,-1.38 -1.57,-3.41 -0.81,-5.16 1.63,-3.74 2.96,-7.67 4.04,-11.79 0.58,-2.21 1.07,-4.43 1.47,-6.64 0.33,-1.74 1.54,-3.14 3.16,-3.63l19.48 -5.72c2.26,-0.66 3.66,-3 3.24,-5.43z"/>
  <path class="filinro1" d="M6396.91 2222.46c9.66,44.55 11.86,92.91 5.18,144.56 -1.27,10.95 -4.04,23.07 -7.52,35.6 -15.69,53.92 -49.65,115.37 -84.59,149.93 -267.73,263.85 -684.82,66.51 -648.44,-299.8 0.66,-6.02 1.35,-12.02 2.21,-18.1 7.67,-56.73 47.81,-136.81 88.33,-177.63 21.31,-21.38 43.58,-39.8 66.38,-55.5 228.71,-155.85 523.22,-32.88 578.47,220.95zm142.01 825.94l117.99 -117.66 2.79 -2.83c14.26,-14.42 15.6,-36.96 3.07,-52.45l-86.39 -107.06c-1.43,-1.78 -2.68,-3.63 -3.73,-5.51 -7.24,-13.41 -6.27,-30.25 3.51,-42.5 56.71,-73.01 98.33,-156.1 122.43,-244.91 1.04,-3.67 2.59,-7.09 4.44,-10.21 7.27,-11.8 20.56,-19.27 34.74,-19.21l115.72 1.8c15.22,0.11 29.14,-8.6 36,-21.5 1.99,-4 3.61,-8.46 4.29,-13.24l22.62 -167.56c2.82,-20.58 -10.83,-40 -31.41,-44.27l-150.35 -31.53c-14.8,-3.16 -26.31,-14.44 -29.65,-29.19 -5.08,-21.17 -10.9,-42.07 -17.97,-62.94 -13.25,-39.2 -29.73,-76.23 -49,-111.07l-0.08 -0.19c-8.04,-14.56 -6.34,-32.28 4.53,-45.11l101.26 -119.75 5.02 -6.07c13.16,-15.27 12.41,-38.34 -1.97,-52.57l-119.47 -118.75c-14.65,-14.35 -37.97,-15.6 -54.16,-2.58l-120.83 96.98c-13.41,10.81 -32.19,11.92 -46.31,2.76 -60.44,-37.77 -126.47,-66.19 -195.89,-83.73 -17.62,-4.67 -29.65,-20.54 -29.18,-38.86l3.35 -136.56c0.45,-20.8 -14.74,-38.05 -35.15,-40.52l-168.78 -20.84c-19.97,-2.4 -38.59,10.84 -42.85,30.26l-39.46 176.25c-3.27,14.96 -14.87,26.81 -29.78,30.72 -18.41,4.69 -36.73,10.18 -55,16.48 -34.49,11.9 -67.35,26.13 -98.47,42.43 -14.1,7.55 -31.26,6.03 -43.29,-4.27l-143.1 -119.68c-15.88,-13.09 -39.01,-11.94 -53.66,2.61l-121.15 120.64c-12.72,12.84 -15.17,32.66 -6.31,47.77 0.93,1.54 1.93,3.25 3.24,4.67l106.57 132.29c9.98,12.24 11.75,29.18 4.19,43.14 -0.62,1.23 -1.24,2.49 -2.1,3.61 -2.36,3.5 -4.59,6.74 -6.64,10.54 -26.78,41.43 -49.02,85.85 -66.47,132.1 -5.56,15.55 -20.84,25.78 -37.62,25.37l-144.89 -1.83c-20.52,-0.35 -38.21,15.03 -40.9,35.36l-5.1 37.26 -17.41 130.05c-2.89,20.4 10.58,39.3 30.8,43.65l148.09 31.08c15.86,3.21 27.52,16.11 29.79,32.05 5.8,41.75 15.7,83.96 29.77,125.53 10.44,30.87 23.05,60.78 37.4,89.05l-21.28 25.1 -87.11 103.11c-10.92,12.64 -12.32,30.66 -4.15,44.34 1.62,2.97 3.74,5.55 6.23,7.99l120.04 119.79c14.33,14.03 37.09,14.85 52.86,2.4l82.44 -66.41c13.92,-11.19 34.13,-11.77 48.32,-1.17 58.78,43.9 124.08,78.16 193.32,101.34 16.43,5.47 27.15,20.56 26.36,37.34l-4.27 172.59c-0.34,19.3 13.74,35.71 33.09,38.12l170.64 20.8c20.23,2.54 39.04,-10.78 43.22,-30.39l41.03 -183.37c3.38,-15.83 16.17,-27.88 32.27,-30.74 34.37,-6.09 68.73,-15.27 103.03,-27.09 18.46,-6.36 36.47,-13.41 54.07,-21.1 13.79,-5.99 29.72,-3.86 41.22,5.58l137.27 114.69c15.93,13.27 39.31,12.23 54.33,-2.45z"/>
  <path class="filinro1" d="M8257.88 5463.22l0 4.65c0,7.47 -4.15,13.63 -9.19,13.63l-8101.49 0c-5.05,0 -9.21,-6.16 -9.21,-13.63l0 -4.65c0,-7.5 4.15,-13.62 9.21,-13.62l8101.49 0c5.04,0 9.19,6.12 9.19,13.62z"/>
  <g id="_2549017820544">
   <path class="filinro1" d="M1335.33 1461.78c0.63,58.23 21.84,111.43 56.63,152.74 30.1,35.74 47.1,80.68 47.6,127.38l0.73 67.35c0.47,42.82 35.85,77.48 78.69,77.01l124.59 -1.35c42.83,-0.46 77.46,-35.88 77,-78.7l-0.74 -67.46c-0.5,-46.8 15.78,-92.06 45.05,-128.55 34.02,-42.37 54.03,-96.44 53.04,-155.1 -2.2,-133.08 -110.77,-238.69 -243.9,-237.25 -14.77,0.16 -29.25,1.65 -43.24,4.36 -3.15,0.59 -6.21,1.25 -9.28,1.97 -107.73,25.16 -187.41,122.39 -186.17,237.61z"/>
   <path class="filinro1" d="M1643.11 1884.91l-0.24 2.07 -3.14 26.28 -0.81 6.92 0 0.05 -0.86 6.97 -3.14 26.27 -0.81 6.92 0 0.05 -0.81 6.99 -0.49 3.85c-1.6,13.32 -16.69,23.66 -34.89,23.86l-41.01 0.45c-4.32,0.05 -8.46,-0.48 -12.34,-1.5l0 0c-3.48,-0.91 -6.7,-2.22 -9.61,-3.86l-0.23 -0.13c-2.32,-1.35 -4.44,-2.92 -6.23,-4.66 -3.73,-3.58 -6.18,-7.92 -6.94,-12.7l-1.58 -10.15 -1 -6.4 0 -0.01 0 -0.14 0 -0.02 -0.96 -6.26 -3.73 -24.28 -1 -6.37 -0.01 -0.14 -1 -6.29 -4.07 -26.31 134.91 -1.46z"/>
   <path class="filinro3" d="M1534.72 1990.1l0.23 0.13c2.91,1.64 6.12,2.96 9.61,3.87l0 0c18.89,-5.65 46.96,-14.08 88.72,-26.66l0.82 -6.98 0 -0.06 0.81 -6.92c-37.24,11.23 -80.03,24.1 -106.42,31.97 1.79,1.74 3.9,3.31 6.23,4.65zm92.11 -105.02l-23.18 0.25c-37.3,11.22 -74.23,22.3 -91.39,27.34l1 6.3 0.01 0.14 1 6.37c13.84,-4 47.17,-13.94 128.59,-38.5l0.24 -2.07 -16.28 0.17zm-107.86 70.94l0 0.02 0 0.14 0 0.01 0.99 6.41c16.06,-4.7 49.14,-14.59 118.09,-35.38l0.86 -6.97 0 -0.05 0.82 -6.93c-43.59,13.13 -96.26,28.97 -121.73,36.51l0.96 6.26z"/>
   <polygon class="filinro4" points="1532.63,1887.02 1476.98,1578.85 1487.73,1576.91 1543.37,1885.08 "/>
   <polygon class="filinro4" points="1625.07,1886.09 1614.28,1884.24 1666.63,1579.78 1677.38,1581.62 "/>
   <path class="filinro4" d="M1642.99 1590.42c-5.68,5.57 -9.52,12.68 -9.14,18.12 0.27,3.94 2.65,6.74 7.12,8.32 2.41,0.88 4.09,0.2 5.23,-2.1 2.48,-5.1 1.3,-15.94 -3.2,-24.34zm-121.94 -0.79c-5.73,5.21 -8.89,12.5 -9.53,19.14 -0.52,5.65 0.92,10.22 3.5,11.11 4.19,1.45 7.3,0.47 9.08,-2.93 3.32,-6.16 1.95,-17.94 -3.05,-27.31zm41.43 10.02c-2.98,3.8 -5.34,7.8 -6.55,11.55 -2.41,7.42 -0.35,12.39 6.26,14.79 2.64,0.96 6.16,1.71 7.83,-0.21 2.54,-2.97 0.94,-11.31 -3.91,-20.27 -1.1,-1.99 -2.32,-3.96 -3.63,-5.86zm47.73 -0.27c-6.43,9.6 -10.9,20.44 -9.77,26.2 0.34,1.84 1.24,2.85 2.84,3.2 6.51,1.4 10.45,-0.53 11.77,-5.75 1.53,-6.02 -0.66,-15.37 -4.84,-23.65zm-2.89 33.16c-1.42,0.02 -2.98,-0.15 -4.72,-0.52 -2.95,-0.63 -4.83,-2.64 -5.4,-5.8 -1.32,-6.81 3.89,-19.37 11.29,-30.06 -4.04,-6.81 -9.3,-12.41 -14.79,-14.01 -8.17,-2.38 -20.49,5.24 -29.07,14.89 1.63,2.22 3.08,4.55 4.35,6.89 4.54,8.33 7.85,19.01 3.5,24.01 -1.58,1.85 -4.85,3.55 -11.42,1.16 -8.21,-3 -11.22,-9.89 -8.3,-18.92 1.46,-4.43 4.18,-9.03 7.64,-13.33 -6.81,-8.67 -15.87,-15.23 -24.66,-14.02 -4.71,0.65 -8.74,2.34 -12.09,4.71 5.76,10.44 7.2,23.77 3.36,30.97 -2.61,4.9 -7.27,6.5 -13.07,4.5 -4.2,-1.43 -6.4,-7.14 -5.68,-14.54 0.72,-7.57 4.41,-15.9 11.07,-21.73 -1.77,-2.71 -3.93,-5.12 -6.35,-6.97 -15.34,-11.65 -27.79,1.17 -28.32,1.72l-2.39 -2.28c0.18,-0.16 15.05,-15.49 32.72,-2.07 2.65,2.03 4.99,4.63 6.94,7.56 3.71,-2.58 8.13,-4.43 13.38,-5.14 9.86,-1.35 19.81,5.52 27.25,14.74 9.32,-10.34 22.63,-18.05 32.04,-15.32 5.94,1.73 11.56,7.38 15.95,14.35 3.9,-5.19 8.26,-9.73 12.55,-12.62 6.84,-4.65 11.35,-3.65 13.9,-1.99 2.64,1.69 4.94,3.98 6.79,6.63 2.07,-1.67 4.19,-3.11 6.36,-4.2 7.92,-4.07 15.26,-3.86 20.65,0.59l-2.11 2.55c-5.79,-4.8 -13.14,-2.19 -17.04,-0.2 -2.12,1.09 -4.2,2.47 -6.09,4.04 5.4,9.53 6.59,22.01 3.59,28.1 -1.87,3.82 -5.28,5.19 -9.3,3.77 -7.24,-2.57 -9.07,-7.52 -9.28,-11.22 -0.48,-7.08 4.33,-15.2 10.72,-21.21 -1.72,-2.46 -3.74,-4.57 -6.03,-6.06 -3.18,-2.02 -7.34,-0.05 -10.29,1.95 -4.29,2.89 -8.68,7.62 -12.63,12.97 5.05,9.37 7.74,20.33 5.95,27.44 -0.9,3.45 -3.47,8.6 -10.94,8.69z"/>
  </g>
  <rect class="filinro5" x="2400.87" y="731.87" width="3442.19" height="4717.73" rx="69.87" ry="72.39"/>
  <g id="_2549017822304">
   <path class="filinro1" d="M6960.42 1905.16c6.75,-37.29 41.03,-62.29 76.54,-55.86 35.52,6.43 58.83,41.87 52.08,79.15 -6.75,37.28 -41.01,62.29 -76.54,55.86 -35.51,-6.43 -58.83,-41.87 -52.08,-79.15z"/>
   <path class="filinro6" d="M7009 1885.98c2.17,-11.96 13.16,-19.99 24.56,-17.92 11.4,2.06 18.89,13.44 16.72,25.41 -2.17,11.96 -13.17,19.99 -24.57,17.92 -11.4,-2.06 -18.88,-13.44 -16.72,-25.41z"/>
   <path class="filinro6" d="M7025.71 1911.38c-19.95,-3.61 -39.2,10.43 -42.98,31.37l72.24 13.09c3.79,-20.94 -9.31,-40.84 -29.26,-44.46z"/>
   <path class="filinro1" d="M6932.68 1478.51c0.99,-1.98 3.32,-2.78 5.2,-1.77 1.88,1.01 2.59,3.43 1.6,5.41 -0.99,1.98 -3.32,2.77 -5.19,1.77 -1.88,-1.01 -2.6,-3.43 -1.6,-5.41z"/>
   <path class="filinro1" d="M6948.41 1486.93c0.99,-1.98 3.32,-2.78 5.19,-1.77 1.88,1 2.6,3.43 1.6,5.4 -0.99,1.98 -3.32,2.78 -5.19,1.77 -1.89,-1.01 -2.59,-3.43 -1.6,-5.4z"/>
   <path class="filinro1" d="M6965.94 1500.87c-1.87,-1.01 -2.6,-3.43 -1.6,-5.41 1.01,-1.98 3.32,-2.77 5.2,-1.77 1.88,1.01 2.6,3.43 1.6,5.41 -0.99,1.98 -3.32,2.77 -5.2,1.77z"/>
   <path class="filinro1" d="M6980.28 1503.99c0.99,-1.98 3.32,-2.78 5.2,-1.77 1.87,1 2.58,3.43 1.6,5.4 -0.99,1.98 -3.32,2.78 -5.19,1.77 -1.88,-1 -2.6,-3.43 -1.6,-5.4z"/>
   <path class="filinro1" d="M6996.01 1512.41c0.99,-1.99 3.32,-2.78 5.19,-1.77 1.87,1 2.6,3.43 1.6,5.4 -0.99,1.98 -3.32,2.77 -5.2,1.77 -1.88,-1.01 -2.59,-3.43 -1.6,-5.4z"/>
   <path class="filinro1" d="M7013.54 1526.35c-1.87,-1.01 -2.6,-3.43 -1.6,-5.41 0.99,-1.98 3.32,-2.77 5.2,-1.77 1.88,1.01 2.6,3.43 1.6,5.41 -1,1.98 -3.32,2.77 -5.2,1.77z"/>
   <path class="filinro1" d="M7027.23 1529.13c0.99,-1.98 3.32,-2.77 5.2,-1.77 1.87,1.01 2.58,3.43 1.6,5.4 -0.99,1.99 -3.32,2.78 -5.19,1.77 -1.88,-1 -2.6,-3.43 -1.6,-5.4z"/>
   <path class="filinro1" d="M7042.96 1537.55c0.99,-1.99 3.32,-2.78 5.19,-1.77 1.87,1 2.6,3.43 1.6,5.4 -0.99,1.98 -3.32,2.77 -5.19,1.77 -1.89,-1 -2.6,-3.43 -1.6,-5.4z"/>
   <path class="filinro1" d="M7060.49 1551.49c-1.88,-1.01 -2.6,-3.43 -1.6,-5.41 0.99,-1.98 3.32,-2.77 5.2,-1.77 1.88,1.01 2.6,3.43 1.6,5.41 -0.99,1.98 -3.32,2.77 -5.2,1.77z"/>
   <path class="filinro1" d="M7074.83 1554.61c0.99,-1.98 3.32,-2.77 5.19,-1.77 1.89,1.01 2.6,3.43 1.6,5.4 -0.99,1.99 -3.32,2.78 -5.19,1.77 -1.88,-1 -2.6,-3.43 -1.6,-5.4z"/>
   <path class="filinro1" d="M7090.56 1563.04c0.99,-1.99 3.32,-2.78 5.19,-1.77 1.87,1 2.59,3.43 1.6,5.4 -0.99,1.98 -3.32,2.77 -5.21,1.77 -1.87,-1.01 -2.58,-3.43 -1.59,-5.4z"/>
   <path class="filinro1" d="M7108.09 1576.98c-1.88,-1.01 -2.6,-3.43 -1.6,-5.41 0.99,-1.98 3.32,-2.77 5.2,-1.77 1.87,1.01 2.59,3.43 1.6,5.4 -0.99,1.99 -3.32,2.78 -5.19,1.78z"/>
   <path class="filinro1" d="M7122.46 1580.12c0.99,-1.99 3.32,-2.78 5.19,-1.77 1.87,1 2.6,3.43 1.6,5.4 -0.99,1.98 -3.32,2.78 -5.2,1.77 -1.88,-1.01 -2.59,-3.43 -1.6,-5.4z"/>
   <path class="filinro1" d="M7138.19 1588.54c0.99,-1.98 3.32,-2.77 5.19,-1.77 1.89,1.01 2.6,3.43 1.6,5.4 -0.99,1.99 -3.32,2.78 -5.19,1.78 -1.88,-1.01 -2.6,-3.43 -1.6,-5.41z"/>
   <path class="filinro1" d="M7155.72 1602.48c-1.88,-1 -2.59,-3.43 -1.6,-5.4 0.99,-1.98 3.32,-2.78 5.19,-1.77 1.88,1 2.59,3.43 1.59,5.4 -0.98,1.99 -3.31,2.78 -5.19,1.77z"/>
   <path class="filinro1" d="M7170.06 1605.61c0.99,-1.99 3.31,-2.78 5.19,-1.78 1.88,1.01 2.6,3.43 1.61,5.41 -0.99,1.98 -3.33,2.77 -5.21,1.77 -1.88,-1.01 -2.59,-3.43 -1.59,-5.4z"/>
   <path class="filinro1" d="M7185.79 1614.02c0.98,-1.98 3.31,-2.78 5.19,-1.77 1.89,1.01 2.59,3.43 1.6,5.4 -0.99,1.98 -3.31,2.78 -5.19,1.77 -1.89,-1 -2.59,-3.42 -1.6,-5.4z"/>
   <path class="filinro1" d="M7203.31 1627.96c-1.88,-1 -2.59,-3.43 -1.6,-5.4 1,-1.99 3.31,-2.78 5.19,-1.78 1.88,1.01 2.59,3.43 1.61,5.41 -1,1.98 -3.33,2.77 -5.21,1.77z"/>
   <path class="filinro1" d="M7217.01 1630.75c0.99,-1.99 3.31,-2.78 5.21,-1.77 1.85,1 2.59,3.43 1.59,5.4 -0.99,1.98 -3.31,2.78 -5.21,1.77 -1.85,-1 -2.59,-3.43 -1.59,-5.4z"/>
   <path class="filinro1" d="M7232.74 1639.16c1,-1.98 3.31,-2.77 5.19,-1.77 1.88,1.01 2.59,3.43 1.61,5.41 -1,1.98 -3.33,2.77 -5.21,1.76 -1.88,-1 -2.59,-3.43 -1.6,-5.4z"/>
   <path class="filinro1" d="M7250.28 1653.1c-1.89,-1 -2.61,-3.43 -1.61,-5.4 0.99,-1.99 3.32,-2.77 5.19,-1.77 1.88,1 2.6,3.43 1.61,5.4 -0.99,1.98 -3.33,2.78 -5.19,1.77z"/>
   <path class="filinro1" d="M7264.6 1656.22c0.99,-1.98 3.32,-2.77 5.21,-1.76 1.88,1 2.59,3.43 1.59,5.4 -0.98,1.98 -3.31,2.78 -5.19,1.77 -1.88,-1.01 -2.61,-3.43 -1.61,-5.41z"/>
   <path class="filinro1" d="M7280.33 1664.65c1,-1.98 3.33,-2.77 5.19,-1.77 1.88,1 2.6,3.43 1.61,5.4 -1,1.99 -3.33,2.78 -5.19,1.78 -1.9,-1.01 -2.61,-3.43 -1.62,-5.41z"/>
   <path class="filinro1" d="M7297.87 1678.58c-1.89,-1 -2.59,-3.43 -1.62,-5.41 1,-1.98 3.33,-2.77 5.21,-1.76 1.89,1 2.59,3.43 1.6,5.4 -0.99,1.98 -3.31,2.78 -5.19,1.77z"/>
   <path class="filinro1" d="M7082.31 1855.9c-1.45,-1.6 -1.37,-4.15 0.19,-5.69 1.56,-1.54 3.98,-1.5 5.44,0.1 1.45,1.6 1.37,4.15 -0.19,5.69 -1.56,1.54 -3.98,1.5 -5.44,-0.1z"/>
   <path class="filinro1" d="M7095.31 1842.97c-1.45,-1.6 -1.36,-4.15 0.2,-5.69 1.54,-1.54 3.98,-1.49 5.43,0.1 1.45,1.6 1.36,4.15 -0.18,5.69 -1.56,1.55 -4,1.5 -5.44,-0.1z"/>
   <path class="filinro1" d="M7113.93 1829.98c-1.56,1.54 -3.99,1.49 -5.44,-0.1 -1.45,-1.6 -1.36,-4.15 0.2,-5.69 1.54,-1.55 3.98,-1.5 5.43,0.1 1.45,1.6 1.36,4.14 -0.19,5.69z"/>
   <path class="filinro1" d="M7121.67 1816.77c-1.43,-1.6 -1.35,-4.14 0.2,-5.69 1.53,-1.54 3.99,-1.49 5.42,0.1 1.45,1.6 1.38,4.15 -0.18,5.69 -1.56,1.55 -3.99,1.5 -5.44,-0.1z"/>
   <path class="filinro1" d="M7134.68 1803.85c-1.44,-1.6 -1.36,-4.15 0.18,-5.69 1.55,-1.54 4,-1.49 5.44,0.1 1.45,1.6 1.37,4.15 -0.18,5.69 -1.56,1.54 -4,1.49 -5.44,-0.1z"/>
   <path class="filinro1" d="M7153.29 1790.85c-1.55,1.54 -3.99,1.49 -5.42,-0.1 -1.45,-1.6 -1.38,-4.15 0.18,-5.69 1.56,-1.54 3.99,-1.49 5.44,0.1 1.43,1.6 1.35,4.15 -0.2,5.69z"/>
   <path class="filinro1" d="M7161.07 1777.62c-1.45,-1.6 -1.35,-4.15 0.2,-5.69 1.56,-1.54 3.99,-1.49 5.42,0.1 1.45,1.6 1.38,4.15 -0.18,5.69 -1.55,1.55 -3.99,1.5 -5.44,-0.1z"/>
   <path class="filinro1" d="M7174.08 1764.7c-1.45,-1.6 -1.35,-4.15 0.2,-5.69 1.55,-1.55 3.97,-1.5 5.42,0.09 1.45,1.6 1.38,4.15 -0.18,5.69 -1.56,1.54 -3.99,1.49 -5.44,-0.1z"/>
   <path class="filinro1" d="M7192.7 1751.7c-1.56,1.54 -4,1.49 -5.44,-0.1 -1.43,-1.6 -1.35,-4.15 0.2,-5.69 1.56,-1.54 4,-1.49 5.44,0.1 1.44,1.6 1.35,4.15 -0.2,5.69z"/>
   <path class="filinro1" d="M7200.44 1738.5c-1.45,-1.6 -1.35,-4.15 0.18,-5.69 1.56,-1.54 3.99,-1.49 5.44,0.1 1.45,1.6 1.38,4.15 -0.18,5.69 -1.56,1.54 -3.99,1.49 -5.44,-0.1z"/>
   <path class="filinro1" d="M7213.46 1725.57c-1.45,-1.6 -1.38,-4.15 0.18,-5.69 1.55,-1.54 3.99,-1.49 5.44,0.11 1.45,1.6 1.35,4.14 -0.18,5.69 -1.56,1.54 -4.01,1.49 -5.44,-0.1z"/>
   <path class="filinro1" d="M7232.06 1712.57c-1.55,1.54 -3.99,1.5 -5.44,-0.1 -1.43,-1.6 -1.35,-4.14 0.2,-5.69 1.56,-1.54 3.97,-1.5 5.43,0.1 1.45,1.6 1.37,4.15 -0.19,5.69z"/>
   <path class="filinro1" d="M7239.28 1699.9c-1.43,-1.6 -1.35,-4.15 0.2,-5.69 1.56,-1.54 4,-1.49 5.43,0.09 1.45,1.6 1.38,4.15 -0.18,5.69 -1.56,1.54 -3.99,1.49 -5.44,-0.1z"/>
   <path class="filinro1" d="M7252.28 1686.97c-1.45,-1.6 -1.35,-4.15 0.2,-5.69 1.56,-1.54 3.97,-1.5 5.42,0.1 1.45,1.6 1.38,4.15 -0.18,5.69 -1.56,1.55 -3.99,1.5 -5.44,-0.1z"/>
   <path class="filinro1" d="M7270.9 1673.97c-1.56,1.55 -3.99,1.5 -5.42,-0.09 -1.45,-1.6 -1.38,-4.15 0.18,-5.69 1.56,-1.54 3.99,-1.49 5.44,0.11 1.43,1.6 1.35,4.14 -0.2,5.68z"/>
   <path class="filinro1" d="M7278.65 1660.77c-1.45,-1.6 -1.35,-4.15 0.18,-5.69 1.55,-1.55 3.99,-1.5 5.44,0.1 1.45,1.6 1.37,4.15 -0.18,5.69 -1.58,1.54 -4,1.5 -5.44,-0.1z"/>
   <path class="filinro1" d="M7291.66 1647.85c-1.45,-1.6 -1.38,-4.15 0.18,-5.69 1.56,-1.54 3.99,-1.49 5.44,0.1 1.45,1.6 1.35,4.15 -0.18,5.69 -1.57,1.53 -3.99,1.49 -5.44,-0.1z"/>
   <path class="filinro1" d="M7310.28 1634.85c-1.56,1.54 -3.99,1.49 -5.44,-0.1 -1.43,-1.6 -1.35,-4.15 0.2,-5.69 1.55,-1.54 3.97,-1.5 5.42,0.09 1.45,1.6 1.38,4.15 -0.18,5.69z"/>
   <path class="filinro1" d="M7102.3 1923.69c0.06,-2.22 1.83,-4 3.96,-3.98 2.12,0.02 3.79,1.83 3.72,4.05 -0.04,2.22 -1.81,4 -3.93,3.99 -2.13,-0.02 -3.79,-1.83 -3.75,-4.06z"/>
   <path class="filinro1" d="M7120.09 1923.84c0.06,-2.22 1.83,-4 3.95,-3.99 2.13,0.02 3.79,1.84 3.73,4.06 -0.04,2.22 -1.81,4 -3.93,3.99 -2.12,-0.02 -3.79,-1.84 -3.75,-4.06z"/>
   <path class="filinro1" d="M7141.85 1928.06c-2.13,-0.02 -3.79,-1.83 -3.75,-4.06 0.06,-2.21 1.83,-4 3.96,-3.98 2.12,0.02 3.79,1.83 3.75,4.05 -0.06,2.22 -1.83,4 -3.95,3.99z"/>
   <path class="filinro1" d="M7156.12 1924.16c0.06,-2.22 1.83,-4 3.95,-3.99 2.13,0.02 3.82,1.84 3.75,4.06 -0.06,2.22 -1.83,4 -3.96,3.98 -2.12,-0.02 -3.79,-1.83 -3.75,-4.05z"/>
   <path class="filinro1" d="M7173.9 1924.32c0.06,-2.22 1.83,-4 3.96,-3.99 2.12,0.02 3.79,1.83 3.75,4.06 -0.06,2.22 -1.83,4 -3.95,3.98 -2.13,-0.02 -3.79,-1.83 -3.75,-4.05z"/>
   <path class="filinro1" d="M7195.67 1928.54c-2.12,-0.02 -3.79,-1.84 -3.75,-4.06 0.06,-2.22 1.83,-4 3.95,-3.99 2.13,0.02 3.79,1.84 3.75,4.06 -0.06,2.22 -1.83,4 -3.96,3.99z"/>
   <path class="filinro1" d="M7210 1924.63c0.05,-2.22 1.81,-4 3.93,-3.98 2.12,0.02 3.79,1.83 3.75,4.05 -0.05,2.22 -1.81,4.01 -3.93,3.99 -2.13,-0.02 -3.82,-1.83 -3.75,-4.06z"/>
   <path class="filinro1" d="M7227.79 1924.8c0.04,-2.23 1.81,-4.01 3.93,-4 2.12,0.02 3.79,1.84 3.75,4.06 -0.06,2.22 -1.81,4.01 -3.93,3.99 -2.14,-0.02 -3.81,-1.84 -3.75,-4.05z"/>
   <path class="filinro1" d="M7249.55 1929.01c-2.14,-0.02 -3.82,-1.84 -3.75,-4.06 0.05,-2.22 1.81,-4.01 3.93,-3.99 2.12,0.02 3.79,1.83 3.75,4.05 -0.06,2.22 -1.81,4.01 -3.93,4z"/>
   <path class="filinro1" d="M7263.82 1925.11c0.04,-2.22 1.81,-4 3.93,-3.99 2.12,0.02 3.81,1.84 3.75,4.06 -0.04,2.22 -1.81,4 -3.93,3.99 -2.14,-0.02 -3.81,-1.84 -3.75,-4.06z"/>
   <path class="filinro1" d="M7281.6 1925.27c0.05,-2.22 1.81,-4 3.93,-3.99 2.12,0.02 3.82,1.84 3.75,4.06 -0.05,2.22 -1.81,4 -3.96,3.98 -2.12,-0.02 -3.79,-1.83 -3.73,-4.05z"/>
   <path class="filinro1" d="M7303.37 1929.48c-2.14,-0.02 -3.81,-1.84 -3.75,-4.06 0.04,-2.22 1.81,-4 3.93,-3.99 2.12,0.02 3.81,1.84 3.75,4.06 -0.04,2.22 -1.81,4 -3.93,3.99z"/>
   <path class="filinro1" d="M7316.92 1925.58c0.06,-2.22 1.81,-4.01 3.93,-3.99 2.12,0.02 3.81,1.84 3.75,4.05 -0.06,2.22 -1.81,4.01 -3.95,3.99 -2.12,-0.02 -3.79,-1.83 -3.73,-4.05z"/>
   <path class="filinro1" d="M7334.7 1925.73c0.06,-2.22 1.81,-4.01 3.93,-3.99 2.13,0.02 3.82,1.84 3.75,4.06 -0.06,2.21 -1.83,4 -3.96,3.98 -2.1,-0.02 -3.79,-1.83 -3.72,-4.05z"/>
   <path class="filinro1" d="M7356.45 1929.94c-2.1,-0.01 -3.79,-1.83 -3.73,-4.05 0.06,-2.22 1.81,-4 3.93,-3.99 2.12,0.02 3.81,1.84 3.75,4.06 -0.06,2.22 -1.83,4 -3.95,3.98z"/>
   <path class="filinro1" d="M7370.74 1926.05c0.05,-2.21 1.81,-4 3.93,-3.99 2.13,0.02 3.82,1.84 3.75,4.06 -0.06,2.22 -1.83,4 -3.96,3.99 -2.1,-0.02 -3.79,-1.84 -3.72,-4.06z"/>
   <path class="filinro1" d="M7388.52 1926.2c0.06,-2.21 1.81,-4 3.93,-3.99 2.12,0.02 3.81,1.84 3.75,4.06 -0.06,2.22 -1.83,4 -3.93,3.99 -2.13,-0.02 -3.82,-1.84 -3.75,-4.06z"/>
   <path class="filinro1" d="M7410.29 1930.43c-2.12,-0.02 -3.81,-1.84 -3.75,-4.06 0.05,-2.22 1.81,-4.01 3.93,-3.99 2.13,0.02 3.82,1.83 3.75,4.05 -0.06,2.22 -1.83,4 -3.93,4z"/>
   <path class="filinro1" d="M7016.14 1833.4c-2.11,0.31 -4.03,-1.23 -4.28,-3.43 -0.27,-2.21 1.24,-4.24 3.35,-4.54 2.11,-0.31 4.02,1.23 4.28,3.43 0.27,2.21 -1.24,4.24 -3.35,4.54z"/>
   <path class="filinro1" d="M7013.98 1814.96c-2.1,0.31 -4.02,-1.23 -4.28,-3.43 -0.26,-2.2 1.24,-4.23 3.35,-4.54 2.11,-0.31 4.03,1.23 4.28,3.43 0.27,2.21 -1.24,4.23 -3.35,4.54z"/>
   <path class="filinro1" d="M7015.15 1791.74c0.25,2.21 -1.25,4.23 -3.36,4.54 -2.1,0.31 -4.03,-1.23 -4.29,-3.43 -0.25,-2.2 1.24,-4.23 3.36,-4.54 2.1,-0.31 4.02,1.23 4.29,3.43z"/>
   <path class="filinro1" d="M7009.62 1777.59c-2.11,0.31 -4.03,-1.22 -4.28,-3.43 -0.27,-2.2 1.24,-4.23 3.34,-4.54 2.11,-0.31 4.03,1.23 4.29,3.43 0.26,2.2 -1.25,4.23 -3.35,4.54z"/>
   <path class="filinro1" d="M7007.46 1759.16c-2.11,0.31 -4.03,-1.23 -4.28,-3.43 -0.27,-2.2 1.24,-4.23 3.35,-4.54 2.11,-0.31 4.02,1.23 4.28,3.43 0.25,2.2 -1.24,4.23 -3.35,4.54z"/>
   <path class="filinro1" d="M7008.62 1735.94c0.26,2.2 -1.24,4.23 -3.36,4.54 -2.1,0.31 -4.01,-1.23 -4.28,-3.43 -0.26,-2.2 1.24,-4.23 3.36,-4.54 2.1,-0.31 4.01,1.23 4.28,3.43z"/>
   <path class="filinro1" d="M7003.08 1721.75c-2.1,0.31 -4.01,-1.23 -4.28,-3.43 -0.26,-2.21 1.24,-4.23 3.36,-4.54 2.1,-0.31 4.01,1.23 4.28,3.43 0.26,2.2 -1.24,4.23 -3.36,4.54z"/>
   <path class="filinro1" d="M7000.92 1703.32c-2.1,0.31 -4.02,-1.23 -4.28,-3.43 -0.25,-2.2 1.24,-4.23 3.36,-4.54 2.1,-0.31 4.02,1.23 4.28,3.43 0.26,2.2 -1.24,4.23 -3.36,4.54z"/>
   <path class="filinro1" d="M7002.08 1680.09c0.27,2.21 -1.24,4.23 -3.34,4.54 -2.11,0.31 -4.03,-1.23 -4.29,-3.43 -0.26,-2.21 1.24,-4.24 3.35,-4.54 2.11,-0.31 4.03,1.23 4.28,3.43z"/>
   <path class="filinro1" d="M6996.55 1665.95c-2.1,0.31 -4.02,-1.22 -4.29,-3.43 -0.25,-2.2 1.24,-4.23 3.36,-4.54 2.1,-0.31 4.02,1.23 4.29,3.43 0.25,2.2 -1.24,4.23 -3.36,4.54z"/>
   <path class="filinro1" d="M6994.39 1647.52c-2.1,0.31 -4.02,-1.22 -4.28,-3.43 -0.26,-2.2 1.24,-4.23 3.36,-4.54 2.1,-0.31 4.01,1.23 4.28,3.43 0.26,2.21 -1.24,4.23 -3.36,4.54z"/>
   <path class="filinro1" d="M6995.56 1624.3c0.27,2.2 -1.24,4.23 -3.35,4.54 -2.11,0.31 -4.03,-1.23 -4.28,-3.43 -0.27,-2.21 1.24,-4.23 3.35,-4.54 2.11,-0.31 4.02,1.23 4.28,3.43z"/>
   <path class="filinro1" d="M6990.11 1610.91c-2.1,0.31 -4.01,-1.23 -4.28,-3.43 -0.25,-2.2 1.24,-4.23 3.36,-4.54 2.1,-0.31 4.02,1.23 4.28,3.43 0.26,2.21 -1.24,4.24 -3.36,4.54z"/>
   <path class="filinro1" d="M6987.96 1592.47c-2.1,0.31 -4.03,-1.23 -4.28,-3.43 -0.26,-2.2 1.24,-4.23 3.34,-4.54 2.11,-0.31 4.03,1.23 4.29,3.43 0.25,2.21 -1.24,4.24 -3.36,4.54z"/>
   <path class="filinro1" d="M6989.12 1569.25c0.27,2.21 -1.24,4.23 -3.35,4.54 -2.11,0.31 -4.03,-1.23 -4.28,-3.43 -0.27,-2.2 1.24,-4.23 3.35,-4.54 2.11,-0.31 4.02,1.23 4.28,3.43z"/>
   <path class="filinro1" d="M6983.58 1555.11c-2.1,0.31 -4.02,-1.23 -4.28,-3.43 -0.26,-2.2 1.24,-4.23 3.36,-4.54 2.1,-0.31 4.01,1.23 4.28,3.43 0.26,2.2 -1.24,4.23 -3.36,4.54z"/>
   <path class="filinro1" d="M6981.43 1536.67c-2.1,0.31 -4.02,-1.23 -4.28,-3.43 -0.25,-2.2 1.24,-4.23 3.36,-4.54 2.1,-0.31 4.02,1.23 4.28,3.43 0.26,2.2 -1.24,4.23 -3.36,4.54z"/>
   <path class="filinro1" d="M6982.6 1513.45c0.26,2.2 -1.25,4.23 -3.35,4.54 -2.11,0.31 -4.03,-1.23 -4.29,-3.43 -0.26,-2.21 1.24,-4.23 3.35,-4.54 2.11,-0.31 4.03,1.24 4.29,3.43z"/>
   <path class="filinro1" d="M7342.03 1709.84c1.78,-1.24 4.15,-0.76 5.33,1.09 1.15,1.85 0.63,4.34 -1.14,5.58 -1.78,1.24 -4.15,0.76 -5.3,-1.09 -1.18,-1.85 -0.66,-4.34 1.12,-5.58z"/>
   <path class="filinro1" d="M7351.71 1725.27c1.8,-1.24 4.18,-0.75 5.33,1.09 1.15,1.85 0.66,4.35 -1.14,5.58 -1.78,1.24 -4.15,0.76 -5.31,-1.08 -1.15,-1.85 -0.66,-4.35 1.12,-5.59z"/>
   <path class="filinro1" d="M7360.41 1746.5c-1.15,-1.85 -0.66,-4.35 1.14,-5.58 1.78,-1.24 4.15,-0.76 5.3,1.09 1.16,1.84 0.66,4.34 -1.12,5.58 -1.79,1.24 -4.17,0.75 -5.33,-1.09z"/>
   <path class="filinro1" d="M7371.36 1756.56c1.78,-1.24 4.16,-0.76 5.31,1.08 1.16,1.85 0.66,4.35 -1.12,5.58 -1.78,1.24 -4.18,0.76 -5.33,-1.09 -1.16,-1.84 -0.64,-4.34 1.13,-5.58z"/>
   <path class="filinro1" d="M7381.07 1771.99c1.75,-1.24 4.15,-0.76 5.3,1.09 1.16,1.84 0.64,4.34 -1.13,5.58 -1.78,1.24 -4.15,0.75 -5.31,-1.09 -1.15,-1.85 -0.66,-4.34 1.14,-5.58z"/>
   <path class="filinro1" d="M7389.74 1793.22c-1.16,-1.85 -0.66,-4.34 1.13,-5.58 1.78,-1.24 4.16,-0.75 5.31,1.09 1.16,1.85 0.64,4.34 -1.12,5.58 -1.8,1.24 -4.18,0.76 -5.33,-1.09z"/>
   <path class="filinro1" d="M7400.73 1803.31c1.75,-1.24 4.15,-0.76 5.3,1.09 1.16,1.84 0.64,4.34 -1.13,5.58 -1.78,1.24 -4.15,0.75 -5.31,-1.09 -1.15,-1.85 -0.66,-4.34 1.14,-5.58z"/>
   <path class="filinro1" d="M7410.41 1818.75c1.78,-1.24 4.16,-0.75 5.31,1.09 1.16,1.84 0.66,4.34 -1.12,5.58 -1.8,1.24 -4.18,0.75 -5.33,-1.09 -1.16,-1.84 -0.66,-4.34 1.13,-5.58z"/>
   <path class="filinro1" d="M7419.09 1839.97c-1.16,-1.84 -0.64,-4.34 1.13,-5.58 1.78,-1.24 4.15,-0.76 5.31,1.08 1.15,1.85 0.66,4.35 -1.12,5.58 -1.78,1.25 -4.18,0.76 -5.33,-1.09z"/>
   <path class="filinro1" d="M7430.04 1850.03c1.78,-1.24 4.18,-0.75 5.33,1.09 1.16,1.85 0.64,4.34 -1.13,5.58 -1.78,1.24 -4.15,0.76 -5.31,-1.09 -1.16,-1.85 -0.66,-4.34 1.12,-5.58z"/>
   <path class="filinro1" d="M7439.74 1865.46c1.78,-1.24 4.15,-0.75 5.31,1.09 1.15,1.85 0.66,4.35 -1.12,5.59 -1.8,1.24 -4.18,0.75 -5.33,-1.1 -1.16,-1.84 -0.64,-4.33 1.13,-5.58z"/>
   <path class="filinro1" d="M7448.41 1886.68c-1.15,-1.84 -0.63,-4.33 1.14,-5.58 1.78,-1.24 4.15,-0.76 5.31,1.09 1.15,1.84 0.66,4.34 -1.12,5.58 -1.78,1.24 -4.18,0.75 -5.33,-1.1z"/>
   <path class="filinro1" d="M6908.87 1479.49c5.62,-30.98 34.09,-51.77 63.61,-46.42 29.52,5.34 48.9,34.79 43.29,65.78 -5.61,30.98 -34.1,51.77 -63.61,46.42 -29.52,-5.35 -48.9,-34.81 -43.29,-65.79z"/>
   <path class="filinro6" d="M6949.24 1463.56c1.8,-9.95 10.94,-16.61 20.42,-14.9 9.47,1.72 15.69,11.17 13.89,21.12 -1.81,9.94 -10.94,16.61 -20.42,14.89 -16.59,-3 -32.58,8.67 -35.73,26.08l60.04 10.88c3.15,-17.41 -7.74,-33.96 -24.31,-36.96 -9.49,-1.71 -15.71,-11.17 -13.9,-21.11z"/>
   <path class="filinro1" d="M7232.36 1640.3c8.65,-47.75 52.52,-79.78 98,-71.54 45.51,8.24 75.36,53.63 66.71,101.37 -8.65,47.75 -52.52,79.77 -98.02,71.53 -45.48,-8.24 -75.33,-53.63 -66.68,-101.36z"/>
   <path class="filinro6" d="M7294.56 1615.74c2.78,-15.32 16.86,-25.6 31.45,-22.96 14.61,2.64 24.19,17.22 21.42,32.54 -2.78,15.32 -16.86,25.6 -31.48,22.96 -14.59,-2.64 -24.18,-17.22 -21.4,-32.54z"/>
   <path class="filinro6" d="M7315.96 1648.28c-25.54,-4.63 -50.19,13.36 -55.04,40.17l92.51 16.76c4.86,-26.82 -11.91,-52.31 -37.47,-56.94z"/>
   <path class="filinro1" d="M7422.38 1919.38c5.84,-32.23 35.48,-53.85 66.18,-48.28 30.71,5.56 50.87,36.2 45.04,68.43 -5.84,32.23 -35.47,53.85 -66.18,48.29 -30.71,-5.56 -50.87,-36.2 -45.04,-68.44z"/>
   <path class="filinro6" d="M7466.52 1906.84c1.69,-9.34 10.28,-15.6 19.17,-13.99 8.9,1.61 14.74,10.49 13.05,19.83 -1.7,9.34 -10.28,15.6 -19.18,13.99 -8.89,-1.61 -14.74,-10.49 -13.05,-19.83z"/>
   <path class="filinro6" d="M7479.57 1926.67c-15.57,-2.82 -30.59,8.14 -33.55,24.49l56.38 10.21c2.96,-16.34 -7.26,-31.87 -22.83,-34.7z"/>
  </g>
  <rect class="filinro7" x="2509.17" y="1069.96" width="3216.57" height="4260.51" rx="65.29" ry="65.38"/>
  <ellipse class="filinro8" cx="2644.31" cy="911.86" rx="40.88" ry="40.93"/>
  <ellipse class="filinro9" cx="2814.79" cy="911.86" rx="40.88" ry="40.93"/>
  <ellipse class="filinro9" cx="2985.28" cy="911.85" rx="40.88" ry="40.93"/>
  <path class="filinro8" d="M2228.62 6013.87l-33.06 135.98 -33.06 135.98c-6.48,26.66 -25.26,46.33 -51.59,54.05 -26.32,7.71 -52.75,1.29 -72.6,-17.65l-101.23 -96.62 -101.23 -96.62c-19.85,-18.94 -27.5,-45.04 -21.02,-71.7 6.48,-26.66 25.26,-46.33 51.59,-54.05l134.29 -39.36 134.29 -39.36c26.33,-7.72 52.75,-1.29 72.6,17.65 19.85,18.94 27.5,45.04 21.02,71.7z"/>
  <path class="filinro8" d="M72.59 3591.25l19.06 -187.02 19.06 -187.03c3.73,-36.66 25.12,-66.29 58.74,-81.39 33.62,-15.1 69.97,-11.39 99.86,10.18l152.43 110.02 152.43 110.02c29.89,21.57 44.85,54.89 41.11,91.56 -3.73,36.66 -25.12,66.29 -58.74,81.39l-171.5 77 -171.5 77.01c-33.62,15.1 -69.97,11.4 -99.86,-10.18 -29.88,-21.57 -44.85,-54.89 -41.11,-91.56z"/>
  <path class="filinro8" d="M5675.64 407.05l-114.01 41.07 -114.02 41.07c-22.35,8.05 -45.53,3.89 -63.68,-11.44 -18.15,-15.33 -26.13,-37.49 -21.92,-60.88l21.43 -119.27 21.44 -119.28c4.2,-23.39 19.4,-41.38 41.75,-49.43 22.36,-8.06 45.53,-3.89 63.68,11.44l92.58 78.2 92.57 78.2c18.15,15.33 26.13,37.49 21.93,60.87 -4.21,23.39 -19.41,41.38 -41.75,49.43z"/>
  <path class="filinro5" d="M2311.24 6166.84l55.07 52.91 55.07 52.91c10.79,10.37 14.92,24.63 11.33,39.16 -3.58,14.53 -13.87,25.23 -28.25,29.4l-73.35 21.23 -73.35 21.23c-14.38,4.17 -28.79,0.61 -39.59,-9.76 -10.79,-10.37 -14.92,-24.63 -11.33,-39.16l18.29 -74.14 18.29 -74.14c3.59,-14.54 13.87,-25.24 28.25,-29.4 14.38,-4.16 28.78,-0.61 39.58,9.77z"/>
  <path class="filinro5" d="M428.83 3141.23l-99.14 -72.06 -99.14 -72.06c-19.44,-14.13 -29.12,-35.89 -26.6,-59.78 2.52,-23.89 16.52,-43.16 38.48,-52.92l111.97 -49.83 111.97 -49.83c21.96,-9.77 45.64,-7.27 65.08,6.85 19.43,14.13 29.11,35.89 26.6,59.78l-12.84 121.89 -12.84 121.88c-2.52,23.9 -16.52,43.16 -38.48,52.93 -21.95,9.76 -45.63,7.27 -65.07,-6.86z"/>
  <path class="filinro5" d="M5373.59 41.78l-11.92 65.05 -11.92 65.05c-2.33,12.75 -10.66,22.54 -22.87,26.89 -12.21,4.36 -24.86,2.04 -34.73,-6.36l-50.37 -42.85 -50.37 -42.85c-9.88,-8.39 -14.2,-20.5 -11.86,-33.25 2.34,-12.76 10.66,-22.54 22.88,-26.9l62.29 -22.2 62.29 -22.21c12.22,-4.35 24.86,-2.03 34.73,6.37 9.88,8.4 14.2,20.5 11.86,33.26z"/>
  <path class="filinro10" d="M1513.9 5452.33c0,0 -7.58,-59.1 -25.16,-94.22 -17.58,-35.14 -129.39,-12.78 -129.39,-12.78 0,0 -22.36,19.16 -27.16,108.62l181.7 -1.62z"/>
  <path class="filinro10" d="M1894.88 5451.44c-26.27,-16.04 -11.33,-135.68 -11.33,-135.68 0,0 122.44,-97.95 139.27,-22.95 16.83,75.01 116.3,108.65 172.94,117.84 39.09,6.35 51.19,27.98 54.93,40.79l-355.81 0z"/>
  <path class="filinro11" d="M1641.28 4581.41c4.98,27.44 8.15,49.96 8.99,66.1 11.38,222.02 186.87,729.62 218.26,741.44 48.57,18.33 125.06,-20.6 165.07,-33.38 16.58,-5.28 27.78,-22.01 24.08,-38.98 -86.91,-399.52 -118.85,-974.82 -130.47,-1315.45 -5.87,-171.54 -35.32,-290.05 -35.32,-290.05 0,0 -428.02,-114.22 -430.56,30.26 -2.25,127.82 141.77,629.17 179.94,840.06z"/>
  <path class="filinro12" d="M1641.28 4581.41l285.93 -580.27c-5.87,-171.54 -35.32,-290.05 -35.32,-290.05 0,0 -428.02,-114.22 -430.56,30.26 -2.25,127.82 141.77,629.17 179.94,840.06z"/>
  <path class="filinro11" d="M1736.52 3741.86l-226.27 1639.9c0,0 -99.37,23.97 -176.65,4.81 0,0 -66.24,-872.21 -60.73,-1083.07 5.52,-210.86 -47.53,-564.23 12.12,-603.17 59.65,-38.98 451.54,41.53 451.54,41.53z"/>
  <path class="filinro13" d="M1240.88 3714.51c-1.1,14.81 8.39,28.3 22.66,32.46 31.56,9.13 67.95,15.52 138.14,30.04 65.92,13.7 154.6,25.82 263.58,26.48 173.31,1.13 238.94,-58.62 238.94,-58.62 7.46,0.13 -3.94,-36.13 -14.22,-208.63 -3.49,-58.41 -6.85,-132.46 -9.27,-226.07 -2.18,-84.2 -3.66,-184.28 -3.8,-302.96 -0.18,-142.77 -221.19,-296.4 -225.27,-296.4l-0.05 0.07c0,20.56 -32.41,58.49 -82.31,61.77 -59.23,3.86 -131.89,-25.61 -131.89,-59.72 0,-0.34 -107.09,171.3 -145.11,354.17 -4.84,23.22 -8.57,47.67 -11.55,73.39 -9.03,77.58 -0.31,22.25 -39.84,574.01z"/>
  <path class="filinro13" d="M1651.63 2710.83c0,0 205.51,-1.74 254.98,67.62 49.46,69.37 157.9,442.51 101.32,566.69 -56.6,124.18 -162.49,-51.37 -221.26,-127.4 -58.77,-76.07 -135.04,-506.9 -135.04,-506.9z"/>
  <path class="filinro14" d="M1653.73 2679.47l-0.12 21.24c0,0 5.79,66.44 -76.03,76.14 -81.81,9.73 -142.72,-12.21 -140.5,-63.48 7.37,-39.7 14.39,-80.66 14.94,-113.5 0.2,-12.2 -0.64,-25.16 -2.91,-39.78l158.54 -3.17 46.68 7.63 -0.6 114.92z"/>
  <path class="filinro15" d="M1654.34 2564.55l-0.6 114.92c-16.84,7.83 -35.83,12.61 -57.14,12.61 -72.86,0 -119.97,-53.43 -144.57,-92.21 0.2,-12.2 -0.64,-25.16 -2.91,-39.78l158.54 -3.17 46.68 7.63z"/>
  <path class="filinro14" d="M1436.97 2534.58c18.39,98.99 146.11,95.74 201.32,89.51 15.53,-1.73 25.3,-3.71 25.3,-3.71 17.52,-4.68 27.29,-32.27 31.84,-68.41 9.01,-71.52 -2.38,-176.5 -14.45,-203.36 -18.19,-40.4 -52.43,-84.1 -181.06,-52.57 -128.66,31.55 -86.55,111.7 -62.94,238.53z"/>
  <path class="filinro1" d="M1861.79 2988.93c0,0 79.49,175.55 77.17,228.16 0,0 -39.37,-1.35 -77.17,9.93 -62.14,18.51 0,-238.08 0,-238.08z"/>
  <path class="filinro10" d="M1720.45 2254.4c0,0 -56.62,-4.35 -123.4,-33.39 -54.2,-23.57 -122.58,2.39 -144.78,14.08 0.6,-3.57 2.03,-8.46 5.41,-13.35 0,0 -9.96,7.07 -11.43,16.94 -1.02,0.76 -1.49,1.28 -1.22,1.46 0,0 -11.3,-2.07 -18.56,1.19 0,0 5.08,-0.72 6.9,2.55 0.19,0.34 0.48,0.63 0.81,0.9 -84.56,40.85 -92.36,174.48 -65.16,205.39 32.73,37.2 81.23,119.98 81.23,119.98 0,0 5.08,-18.8 -0.88,-51.53 -5.94,-32.73 22.32,-32.73 58.04,-47.61 35.71,-14.89 5.95,-56.54 37.2,-81.84 31.24,-25.3 145.82,-10.41 144.33,-29.76 42.53,-15.49 31.51,-100.65 31.51,-105z"/>
  <path class="filinro1" d="M1411.07 3317.74c33.55,134.76 396.42,204.36 478.92,218.51 -3.49,-58.41 -6.85,-132.46 -9.27,-226.07l-469.65 7.56z"/>
  <path class="filinro14" d="M1490.72 3361.56c-3.47,0 -80.67,-11.54 -94.5,-18.44 -13.83,-6.94 -77.09,-96.8 -35.66,-119.85 41.42,-23.04 152.61,69.13 152.61,69.13l-22.46 69.16z"/>
  <path class="filinro13" d="M1960.32 3388.24c0,0 -298.62,16.21 -499.02,-26.68 0,0 -5.05,-57.9 57.93,-83.62 0,0 312.34,-66.21 387.37,-47.77 75.03,18.44 53.71,158.07 53.71,158.07z"/>
  <path class="filinro13" d="M1274.55 3153.89c61.97,74.73 142.99,135.76 232.3,150.04l0.02 -0.04c0.74,-1.13 27.04,-41.03 22.11,-99.72 -2.28,-27.17 -11.26,-58.35 -32.52,-91.56 -6.55,-10.2 -12.38,-22.15 -17.56,-35.4 -48.78,-124.42 -41.51,-364.27 -41.51,-364.27 0,0 -207.11,21.69 -271.64,113.89 -39.53,56.46 10.87,208.92 108.8,327.06z"/>
  <path class="filinro15" d="M1638.29 2624.09c15.53,-1.73 25.3,-3.71 25.3,-3.71 17.52,-4.68 27.29,-32.27 31.84,-68.41 -32.84,8.1 -47.9,33.46 -54.17,44.27 -2.83,4.87 -3.41,15.77 -2.97,27.85z"/>
  <path class="filinro14" d="M1721.74 2680.08c0,0 71.52,-118.03 15.9,-123.16 -55.63,-5.13 -77.97,32.52 -86.01,46.35 -8.03,13.83 2.1,76.2 2.1,76.2l68 0.62z"/>
  <path class="filinro13" d="M1449.12 3200.22c2.18,14.94 6.66,28.71 12.19,40.97 17.47,38.77 45.55,62.74 45.55,62.74l0.02 -0.04c185.77,-83.86 223.36,-371.79 229.66,-529.98 2.53,-63.59 0,-106.23 0,-106.23 -83.8,-27.74 -107.36,20.46 -107.36,20.46 0,0 -98.94,235.3 -150.27,389.07 -19.64,58.85 -32.3,105.76 -29.78,123.01z"/>
  <path class="filinro1" d="M1274.55 3153.89c61.97,74.73 142.99,135.76 232.3,150.04l0.02 -0.04c185.77,-83.86 223.36,-371.79 229.66,-529.98 0,0 -87.91,318.82 -207.55,430.26 -21.62,20.16 -44.3,33.55 -67.68,37.02 0,0 -150.88,-42.65 -182.52,-82.8 -2.25,-2.88 -3.64,-4.29 -4.24,-4.5z"/>
  <g id="_2549021043856">
   <path class="filinro16" d="M7604.96 2616.04l-134.67 255.5 -69.04 -25.12 22.42 68.18 -135.03 406.71c0,0 -74.66,-516.76 316.33,-705.27z"/>
   <path class="filinro16" d="M7380.32 2841.93c0,0 -148.91,548.98 -163.25,1072.79 0,0 123.49,43.07 317.52,8.97 195.02,-34.25 -154.26,-1081.76 -154.26,-1081.76z"/>
   <path class="filinro15" d="M6667.28 3603.14c39.97,-0.74 96.25,4.19 114.82,-16.14 21.07,-23.04 45.95,-19.66 45.95,-19.66l-5.02 -26.35 -6.04 -31.46c0,0 -2.27,-2.88 -10.47,-2.78 0,0 -28.95,1.25 -42.76,-3.68 -33.67,-12.05 -167.58,68.19 -163.07,90.46 1.72,8.34 49.6,9.96 66.6,9.62z"/>
   <path class="filinro16" d="M7397.11 2831.17c0,0 -226.2,467.22 -296.2,517.37 -70,50.15 -319.54,158.6 -319.54,158.6 0,0 -6.52,15.53 -0.46,38.29 6.31,23.68 18.75,30.4 18.75,30.4 0,0 348.89,-31.15 430.01,-81.65 81.08,-50.49 259.96,-251.72 259.96,-251.72l-92.52 -411.29z"/>
   <path class="filinro17" d="M8059.18 5450.75l133.9 0c16.85,-9.13 31.85,-30.08 36.61,-61.33 6.53,-43.13 54.87,-66.66 65.34,-101.91 10.41,-35.27 -43.13,-84.92 -43.13,-84.92l-8.99 -11.55 -9.31 -11.98 -88.87 20.92c0,0 -2.21,21.13 -3.51,48.1 -0.99,19.45 -1.48,41.94 -0.4,61.63 2.63,47.06 -13.15,97.7 -54.93,106.86 -30.91,6.77 -29.53,25.09 -26.7,34.19z"/>
   <path class="filinro17" d="M7282.23 5450.75l306.16 0c14.74,-17.95 9.31,-84.27 7.08,-105.9 -0.46,-4.38 -0.77,-6.92 -0.77,-6.92 0,0 -104.55,-83.63 -118.92,-19.58 -0.44,1.99 -0.95,3.95 -1.54,5.91 -18.1,59.88 -99.25,87.09 -146.12,94.69 -30.45,4.93 -41.72,20.77 -45.89,31.8z"/>
   <path class="filinro18" d="M7340.56 3741.82c0,0 15.9,198.05 34.56,436.14 25.37,323.41 55.84,720.67 58.88,795.94 5.21,130.69 26.13,339.73 26.13,339.73 0,0 49.62,49.65 148.95,28.73 0,0 88.51,-298.4 113.8,-614.15 0.41,-5.18 0.77,-10.39 1.17,-15.6 23.53,-321.41 60.1,-998.25 60.1,-998.25l-443.58 27.46z"/>
   <path class="filinro19" d="M7340.56 3741.82c0,0 15.9,198.05 34.56,436.14l347.76 550.25c0.41,-5.18 0.77,-10.39 1.17,-15.6 23.53,-321.41 60.1,-998.25 60.1,-998.25l-443.58 27.46z"/>
   <path class="filinro20" d="M7413.07 3765.32c0,0 286.15,717.32 474.28,1054.42 188.16,337.1 246.94,431.18 246.94,431.18 0,0 107.8,-43.14 117.61,-72.51 0,0 -71.96,-650.79 -197.96,-809.45 -71.2,-89.64 -154.83,-358.67 -158.75,-452.71 -3.92,-94.08 -25.48,-280.27 -25.48,-280.27l-456.63 129.34z"/>
   <path class="filinro14" d="M7484.29 2719.63c111.81,35.28 305.3,-59.94 305.3,-59.94 0,0 -103.11,-77.37 -97.69,-238.25l-86.45 69.68 -58.76 47.32c0,0 0.24,27.9 6.68,76.8 1.17,8.92 2.54,18.54 4.16,28.83 1.29,8.2 -2.32,16.49 -9.4,20.85 -40.74,25.21 -63.84,54.71 -63.84,54.71z"/>
   <path class="filinro4" d="M7328.24 3758.3c3.36,2.78 7.26,4.47 11.73,4.47 42,-0.55 164.44,22.76 268.04,12.13 87.34,-8.39 164.66,-34.28 247.68,-71.47 11.03,-4.96 36.4,-18.51 35.81,-30.82 -0.37,-13.48 -1.71,-33.05 -3.4,-57.72 -5.84,-85.68 -16.11,-233.06 -6.12,-403.1 1.81,-31.65 2.76,-63.08 2.86,-93.99 0.85,-230.46 -44.82,-433.16 -136.66,-501.76 0,0 -64.03,35.92 -108.33,50.08 -43.44,13.88 -65.8,11.08 -88.31,-3.85 0,0 -43.84,21.78 -62.58,42.22 -43.41,47.3 -77.27,110.09 -99.66,200.23 -19.05,76.69 -36.91,188.54 -43.07,331.88 -2.79,64.97 -20.8,519.46 -17.98,521.7z"/>
   <path class="filinro11" d="M7871.27 2996.83l-123.09 -380.79c0,0 -295.51,111.44 -309.19,528.72 -5.37,95.06 -28.18,484.73 13.08,807.65 0,0 230.25,89.69 512.48,-87.32l-93.28 -868.26z"/>
   <path class="filinro21" d="M7546.7 2538.44c0,0 0.24,27.9 6.68,76.8 65.06,-11.16 138.89,-116.34 138.89,-116.34 -33.15,-9.57 -62.15,-11.29 -86.82,-7.77l-58.76 47.32z"/>
   <path class="filinro14" d="M7498.26 2535.46c0,0 201.42,33.45 220.32,-92.29 18.91,-125.74 57.62,-206.1 -70.16,-232.78 -127.8,-26.68 -160.06,17.54 -176.57,57.97 -16.51,40.44 -25.48,255.15 26.41,267.1z"/>
   <path class="filinro22" d="M8381.99 4162.12l-411.2 58.58c-53.52,7.62 -103.55,-29.9 -111.17,-83.42l-25.4 -178.2c-7.59,-53.52 29.93,-103.54 83.45,-111.17l411.2 -58.6c53.52,-7.63 103.55,29.93 111.17,83.44l25.39 178.2c7.63,53.52 -29.93,103.55 -83.44,111.17z"/>
   <path class="filinro10" d="M8221.14 3804.16l-146.89 20.96 -5.48 -38.48c-0.92,-6.62 3.71,-12.77 10.32,-13.73l36.88 -5.26 67.68 -9.65 18.26 -2.6c1.25,-0.16 2.48,-0.13 3.64,0.06 5.12,0.82 9.35,4.9 10.11,10.25l5.48 38.45zm-332.71 147.07l25.7 180.26c4.99,34.89 27.91,63.04 58.08,76.33 9.99,4.44 20.8,7.27 32.05,8.09 0,0 0,0 0.03,0l0.03 0c6.99,0.58 14.18,0.37 21.41,-0.66l410.47 -58.52c53.7,-7.67 91.38,-57.84 83.72,-111.57l-25.64 -180.28c-7.68,-53.7 -57.9,-91.38 -111.6,-83.73l-141.35 20.16 -5.48 -38.48c-2.51,-17.77 -19.05,-30.15 -36.79,-27.63l-15.5 2.21 -85.99 12.26 -21.36 3.06c-8.57,1.2 -16.2,5.73 -21.44,12.69 -5.21,6.99 -7.42,15.53 -6.19,24.11l5.48 38.48 -81.88 11.65c-3.25,0.45 -6.41,1.07 -9.5,1.84 -0.04,0.02 -0.06,0.02 -0.06,0.02l-0.03 0c-31.65,7.76 -56.58,30.58 -68.14,59.49l0 0.04c-6.16,15.43 -8.51,32.62 -6.03,50.2z"/>
   <path class="filinro14" d="M8069.31 3631.5c0,0 21.6,28.77 22.46,40.26 5.8,77.9 -29.81,88.69 62.37,131.94 0,0 39.33,15.01 40.01,-15.53 0.67,-30.54 -27.3,-31.03 -22.18,-73.8 5.88,-49.32 5.3,-49.78 -27.07,-75.54l-21.45 -35.46 -54.14 28.13z"/>
   <path class="filinro11" d="M8124.25 3653.56c-34.75,6.73 -72.36,4.02 -72.36,4.02 0,0 -103.09,-318.42 -116.35,-347.49 -13.26,-29.1 -306.16,-373.37 -306.16,-373.37l118.81 -320.68c0,0 69.69,40.78 143.36,167.88 90.99,157.02 191.04,409.89 208.81,450.96 53.17,122.88 71.62,398.36 71.62,398.36 0,0 -20.46,14.99 -47.72,20.31z"/>
   <path class="filinro23" d="M7718.73 2431.06c0,0 -20.64,-3.46 -17.3,-31.92 3.31,-28.46 3.27,-65.67 -19.88,-58.74 -23.12,6.94 -24.3,25.47 -33.79,14.64 -9.53,-10.82 -9.68,-56.41 -78.54,-59.59 -68.87,-3.18 -96.87,20.79 -128.87,6.71 -32.05,-14.08 -33.74,-62.55 -33.74,-62.55 0,0 9.1,17.31 22.89,22.82 0,0 -53.46,-73.08 8.42,-123.19 61.86,-50.11 124.93,-17.3 160.74,-15.14 78.85,4.78 129.81,9.51 155.56,61.33 25.77,51.83 15.14,195.74 -35.48,245.62z"/>
   <path class="filinro14" d="M8103.38 3665.74c0,0 -20.81,21.7 -22.12,30.7 -4.19,28.95 -13.88,41.45 -9.04,44.61 10.08,6.55 23.41,-14.89 29.78,-34.13 6.37,-19.21 1.38,-41.18 1.38,-41.18z"/>
   <path class="filinro16" d="M7748.18 2616.04l-134.64 255.5 -69.08 -25.12 22.42 68.18 -135 406.71c0,0 -74.69,-516.76 316.3,-705.27z"/>
   <path class="filinro4" d="M7484.29 2464.1c0,0 7.85,20.74 27.46,21.29 19.6,0.56 34.73,-18.49 34.73,-18.49 0,0 -42.54,-9.86 -62.18,-2.8z"/>
   <path class="filinro24" d="M6433.44 4391.72l408.91 -94.72c53.21,-12.35 86.69,-65.99 74.36,-119.2l-41.05 -177.21c-12.35,-53.21 -65.99,-86.67 -119.2,-74.32l-408.91 94.72c-53.24,12.34 -86.7,65.99 -74.36,119.2l41.05 177.21c12.35,53.22 65.95,86.67 119.2,74.32z"/>
   <path class="filinro25" d="M6445.65 3957.49c-1.24,-5.37 1.25,-10.73 5.78,-13.36 1.05,-0.62 2.18,-1.1 3.43,-1.38l18.14 -4.22 67.31 -15.57 36.66 -8.52c6.62,-1.53 13.23,2.6 14.74,9.2l8.88 38.23 -146.06 33.82 -8.88 -38.19zm352.07 10.37l0 -0.02c-21.45,-23.04 -53.28,-35.48 -85.89,-31.25l-0.04 0.04c-0.03,0 -0.05,0 -0.09,0 -3.19,0.39 -6.37,0.97 -9.62,1.71l-81.43 18.87 -8.85 -38.23c-1.97,-8.52 -7.18,-15.81 -14.65,-20.46 -7.48,-4.65 -16.3,-6.12 -24.81,-4.13l-21.26 4.9 -85.5 19.82 -15.41 3.55c-17.65,4.11 -28.74,21.82 -24.6,39.49l8.85 38.23 -140.55 32.57c-53.42,12.37 -87,66.2 -74.62,119.62l41.54 179.27c12.37,53.39 66.2,86.96 119.63,74.59l408.19 -94.54c7.2,-1.68 14.03,-4.1 20.41,-7.16l0.03 -0.04c0.03,0 0.03,0 0.06,0 10.26,-4.9 19.42,-11.48 27.24,-19.33 23.58,-23.56 34.92,-58.41 26.89,-93.13l-41.53 -179.27c-4.04,-17.46 -12.53,-32.81 -23.99,-45.1z"/>
   <path class="filinro14" d="M6529.54 3737.22c0,0 -12.34,43.78 -8.09,57.74 28.71,94.58 78.4,156.45 -55.14,140.49 0,0 5.51,-5.48 -20.03,-53.6 -29.5,-55.51 -28.99,-56.31 -2.57,-101.5l9.13 -51.59 76.7 8.46z"/>
   <path class="filinro14" d="M6697.54 3624.61c-40.31,-2.45 -89.42,-13.02 -107.34,-34.31 -20.31,-24.17 -40.56,-30.67 -40.56,-30.67l6.19 -26.41 7.41 -31.52c0,0 2.39,-2.78 10.66,-2.32 0,0 31.62,7.13 43.38,-1.93 11.7,-9.07 33.18,-3.55 46.41,5.24 16.79,11.15 39.49,9.34 38.94,14.82 0,0 -33.33,16.36 -30.24,19.15 30.54,27.08 110.9,37.87 105.7,59 -2.09,8.33 -63.36,30 -80.54,28.95z"/>
   <path class="filinro14" d="M6135.78 2594.68l-0.13 21.92c0,0 5.95,68.53 -78.42,78.54 -84.4,10.04 -153.6,8.71 -151.33,-44.17 7.63,-40.95 21.23,-104.51 21.81,-138.39 0.18,-12.59 -0.67,-25.95 -3,-41.04l163.53 -3.26 48.16 7.86 -0.61 118.54z"/>
   <path class="filinro15" d="M6136.39 2476.13l-0.61 118.54c-17.4,8.08 -36.97,13.01 -58.98,13.01 -75.14,0 -123.74,-55.11 -149.09,-95.11 0.18,-12.59 -0.67,-25.95 -3,-41.04l163.53 -3.26 48.16 7.86z"/>
   <path class="filinro14" d="M5912.17 2445.21c18.97,102.12 150.73,98.77 207.67,92.35 16.02,-1.78 26.1,-3.82 26.1,-3.82 18.08,-4.83 28.15,-33.29 32.81,-70.56 9.32,-73.77 -2.42,-182.06 -14.89,-209.75 -18.75,-41.68 -54.1,-86.76 -186.77,-54.24 -132.72,32.55 -89.27,115.21 -64.92,246.03z"/>
   <path class="filinro26" d="M5804.34 5468.39l186.72 0c-1.41,-9.78 -6.16,-39.58 -14.89,-67 -3.03,-9.56 -6.55,-18.84 -10.58,-26.9 -18.16,-36.27 -133.5,-13.2 -133.5,-13.2 0,0 -10.72,9.19 -19.09,44.23 -3.71,15.44 -6.95,35.93 -8.67,62.87z"/>
   <path class="filinro26" d="M6368.54 5409.48c0.52,25.4 3.71,49.45 12.93,58.91l369.29 0c-4.69,-13.36 -17.98,-33.45 -55.9,-39.61 -43.08,-6.95 -110.23,-27.7 -149.44,-69.14 -13.96,-14.74 -24.38,-32.11 -28.92,-52.42 -17.4,-77.34 -143.67,23.72 -143.67,23.72 0,0 -5.08,40.74 -4.29,78.54z"/>
   <path class="filinro10" d="M6122.9 4573.3c5.15,28.33 8.43,51.55 9.28,68.22 11.73,229 192.75,752.59 225.13,764.78 50.08,18.9 129,-21.25 170.27,-34.43 17.09,-5.45 28.64,-22.7 24.84,-40.19 -89.64,-412.12 -122.6,-1005.58 -134.58,-1356.88 -6.06,-176.97 -36.42,-299.23 -36.42,-299.23 0,0 -441.5,-117.79 -444.15,31.21 -2.32,131.89 146.25,649.01 185.62,866.52z"/>
   <path class="filinro22" d="M6122.9 4573.3l294.95 -598.5c-6.06,-176.97 -36.42,-299.23 -36.42,-299.23 0,0 -441.5,-117.79 -444.15,31.21 -2.32,131.89 146.25,649.01 185.62,866.52z"/>
   <path class="filinro27" d="M6221.15 3707.3l-233.4 1691.58c0,0 -102.5,24.73 -182.21,4.97 0,0 -68.34,-899.67 -62.65,-1117.17 5.7,-217.51 -49.01,-581.99 12.5,-622.17 61.55,-40.23 465.76,42.79 465.76,42.79z"/>
   <path class="filinro28" d="M6168.98 2269.38c-36.46,11.49 -113.56,-0.23 -145.79,25.84 -32.22,26.11 -1.53,69.08 -38.34,84.41l-0.16 0.05c-7.45,3.1 -16.12,1 -21.17,-5.3 -10.21,-12.73 -24.33,-25.43 -37.22,-20.17 -10.57,4.33 -11.12,18 -6.44,31.3 3.93,11.18 2.82,23.72 -3.98,33.43 -2.9,4.21 -4.83,8.82 -4.01,13.47 3.07,16.86 11.46,38.76 14.52,49.98l0.83 11.76c0,0 -61.7,-66.79 -87.67,-123 -17.83,-38.57 -17.5,-182.72 69.76,-224.85 -0.37,-0.3 -0.65,-0.58 -0.83,-0.95 -1.91,-3.37 -7.14,-2.61 -7.14,-2.61 7.51,-3.37 19.15,-1.24 19.15,-1.24 -0.27,-0.18 0.21,-0.73 1.26,-1.52 1.53,-10.18 11.79,-17.47 11.79,-17.47 -3.49,5.05 -4.96,10.08 -5.58,13.77 22.91,-12.08 93.44,-38.83 149.34,-14.5 37.8,16.43 72.45,25.2 96.04,29.76 19.39,3.75 33.15,21.05 32.44,40.78 -1.04,27.71 -10.68,67.53 -36.79,77.05z"/>
   <path class="filinro29" d="M5886.01 2680.35l53.74 1152.97c0,0 448.49,7.32 435.68,-94.17 -12.8,-101.49 -161.66,-1023.5 -161.66,-1023.5l-327.76 -35.31z"/>
   <path class="filinro10" d="M6033.85 3402.58c0,0 -22.76,307.97 -66.5,501.3 0,0 -261.71,13.87 -323.84,-87.18 0,0 49.17,-415.99 49.17,-500.39 0,-29.65 -2.27,-69.97 -5.91,-115.03 -5.42,-68.28 -13.88,-147.35 -21.9,-216.26 -11.12,-95.94 -21.35,-172.19 -21.35,-172.19l215.79 -175.34 174.55 765.1z"/>
   <path class="filinro10" d="M6553.17 3766.94c0,0 -48.82,30.58 -125.73,20.31 -27.96,68.65 -93.97,91.96 -93.97,85.75 0,-0.74 -14.83,-129.62 -32.35,-281.5 -1.72,-15.2 -3.47,-30.58 -5.27,-46.08 -0.16,-1.31 -0.31,-2.67 -0.46,-3.98 -2.94,-25.43 -5.88,-51.16 -8.85,-76.76 -21.09,-182.92 -41.3,-358.28 -41.3,-358.28 -45.89,-280.93 -84.77,-466.61 -84.77,-466.61 97.91,10.19 163.99,45.07 190.33,90.74 78.15,135.45 134.73,474.21 167.91,727.83 0.05,0.65 0.13,1.29 0.24,1.93 5.7,43.78 10.72,84.99 14.99,122.14 0.31,2.33 0.55,4.62 0.79,6.87 12.19,106.3 18.44,177.64 18.44,177.64z"/>
   <path class="filinro4" d="M6099.14 2462.02c0,0 4.26,13.17 37.49,8.36 0,0 27.91,-4.03 25.83,-18.72 0,0 -28.03,-8.28 -63.32,10.36z"/>
   <path class="filinro30" d="M5873.3 2636.09c-0.56,-11 51.55,-26.2 51.55,-26.2 0,0 59.68,82.71 157.96,84.14 0,0 -28,54.5 -61.03,68.61 0,0 -145.23,-61.21 -148.48,-126.55z"/>
   <path class="filinro30" d="M6082.81 2692.09c0,0 52.05,-30.86 52.24,-64.33 0,0 33.63,-4.21 48.3,12.1 0,0 12.35,57.34 -4,90.65 0,0 -75,-11.42 -96.53,-38.42z"/>
   <path class="filinro11" d="M6047.45 2687.13l70.62 -16.92c0,0 9.22,0.8 8.94,12.3 -0.24,11.51 -19.88,45.1 -28.55,47.79 -8.7,2.68 -67.7,-19.9 -51.01,-43.17z"/>
   <path class="filinro29" d="M5881.51 2630.41c-0.55,-11.01 34.74,-33.67 34.74,-33.67 0,0 68.29,79.8 166.56,81.23 0,0 -28,54.5 -61.03,68.61 0,0 -137.03,-50.83 -140.27,-116.17z"/>
   <path class="filinro29" d="M6082.81 2677.97c0,0 52.66,-27.92 52.84,-61.38 0,0 31.77,13.99 46.48,30.29 0,0 13.57,36.2 -2.78,69.51 0,0 -75,-11.42 -96.53,-38.42z"/>
   <path class="filinro11" d="M6211.87 3644.77c-2.72,33.06 -15.38,63.97 -35.5,86.7l-31.65 35.69c-7.93,8.97 -20.27,7.9 -26.77,-2.3l-38.2 -59.89c-10.23,-16.05 -14.92,-36.49 -13.14,-57.01 4.08,-45.71 11.67,-133.75 17.92,-218.73 5.06,-68.86 9.22,-135.74 9.89,-176.39 2.08,-129.86 -14.92,-543.61 -14.92,-543.61l25.37 1.33c0,0 61.51,159.96 92.42,378.22 7.63,53.74 13.35,110.96 15.9,170.24 0,0 10.97,236.31 -1.32,385.74z"/>
   <path class="filinro12" d="M6211.87 3644.77c-2.72,33.06 -15.38,63.97 -35.5,86.7l-31.65 35.69c-7.93,8.97 -20.27,7.9 -26.77,-2.3l-38.2 -59.89c-10.23,-16.05 -14.92,-36.49 -13.14,-57.01 4.08,-45.71 11.67,-133.75 17.92,-218.73 71.08,-97.48 100.82,-231.35 112.77,-340.44 7.63,53.74 13.35,110.96 15.9,170.24 0,0 10.97,236.31 -1.32,385.74z"/>
   <path class="filinro22" d="M5916.25 2596.74c0,0 139.79,585.45 117.54,805.98 0,0 -51.4,-235.66 -175.07,-428.71 0,0 45.13,-39.7 42.68,-54.33 0,0 -33.49,-9.93 -66.02,-3.24 0,0 3.62,-252.36 23.86,-279.02 20.27,-26.67 57.01,-40.69 57.01,-40.69z"/>
   <path class="filinro22" d="M6135.65 2616.59c-20.98,1.7 138.5,572.09 150.33,754.92 0,0 -14,-326.25 -12.62,-420.3 0,0 -58.05,-30.74 -58.05,-41.52 0,-10.79 61.91,-39.94 61.91,-39.94 0,0 -39.21,-200.92 -60.6,-223.06 -21.41,-22.14 -80.97,-30.11 -80.97,-30.11z"/>
   <path class="filinro14" d="M6427.54 3810.47c0,0 -9.68,13.09 -3.53,46.02 6.16,32.9 2.76,51.06 11.27,45.37 8.53,-5.67 26.1,-45.19 26.1,-45.19l-33.85 -46.2z"/>
   <path class="filinro22" d="M6016.76 3492.79c-162.73,-24.3 -271.54,-176.36 -329.99,-291.52 -5.42,-68.28 -13.88,-147.35 -21.9,-216.26l38.08 -108.63 313.82 616.41z"/>
   <path class="filinro31" d="M6534.72 3589.29c-32.38,7.5 -130.72,25.88 -233.61,2.21 -1.72,-15.2 -3.47,-30.58 -5.27,-46.08 -0.16,-1.31 -0.31,-2.67 -0.46,-3.98 3.36,-13.2 6.77,-26.41 10.15,-39.6 58.23,20.85 188.37,66.5 228.41,80.59 0.31,2.33 0.55,4.62 0.79,6.87z"/>
   <path class="filinro10" d="M5859.24 2637.43c0.06,0.04 -142.98,18.05 -208.25,109.16 -65.28,91.11 74.9,587.3 365.77,746.21 139.94,76.43 543.7,93.64 543.7,93.64 0,0 22.21,2.21 31,-42.46 3.07,-15.59 0,-42.14 0,-42.14 0,0 -459.6,-172.32 -500.01,-205.5 -40.41,-33.21 -232.2,-658.91 -232.2,-658.91z"/>
   <path class="filinro15" d="M6763.75 3503.06c0,0 -48.1,-12.07 -61.89,-14.99 -16.07,-3.39 -30.81,-15.5 -35.5,-9.8 -8.73,10.6 28.1,29.23 42.61,61.97 7.11,16.08 21.48,24.82 50.21,13.02 14.49,-5.94 26.03,-35.99 4.57,-50.2z"/>
  </g>
 </g>
</svg>
