<?xml version="1.0" encoding="UTF-8"?>
<!DOCTYPE svg PUBLIC "-//W3C//DTD SVG 1.1//EN" "http://www.w3.org/Graphics/SVG/1.1/DTD/svg11.dtd">
<!-- Creator: CorelDRAW 2018 (64-Bit) -->
<svg xmlns="http://www.w3.org/2000/svg" xml:space="preserve" width="17.101mm" height="17.101mm" version="1.1" style="shape-rendering:geometricPrecision; text-rendering:geometricPrecision; image-rendering:optimizeQuality; fill-rule:evenodd; clip-rule:evenodd"
viewBox="0 0 20.82 20.82"
 xmlns:xlink="http://www.w3.org/1999/xlink">
 <defs>
  <style type="text/css">
   <![CDATA[
    .fil1 {fill:#990310}
    .fil0 {fill:#ECE5EB;fill-rule:nonzero}
   ]]>
  </style>
 </defs>
 <g id="Слой_x0020_1">
  <metadata id="CorelCorpID_0Corel-Layer"/>
  <path class="fil0" d="M10.41 0c2.87,0 5.48,1.17 7.36,3.05 1.88,1.88 3.05,4.49 3.05,7.36 0,2.87 -1.17,5.48 -3.05,7.36 -1.88,1.88 -4.49,3.05 -7.36,3.05 -2.87,0 -5.48,-1.17 -7.36,-3.05 -1.88,-1.88 -3.05,-4.49 -3.05,-7.36 0,-2.87 1.17,-5.48 3.05,-7.36 1.88,-1.88 4.49,-3.05 7.36,-3.05zm7.1 3.31c-1.82,-1.82 -4.33,-2.94 -7.1,-2.94 -2.77,0 -5.28,1.12 -7.1,2.94 -1.82,1.82 -2.94,4.33 -2.94,7.1 0,2.77 1.12,5.28 2.94,7.1 1.82,1.82 4.33,2.94 7.1,2.94 2.77,0 5.28,-1.12 7.1,-2.94 1.82,-1.82 2.94,-4.33 2.94,-7.1 0,-2.77 -1.12,-5.28 -2.94,-7.1z"/>
  <g id="_2993628850336">
   <g>
    <g>
     <path class="fil1" d="M13.66 9.68l-4.38 -3c-0.2,-0.14 -0.41,-0.21 -0.58,-0.21 -0.33,0 -0.53,0.26 -0.53,0.7l0 6.49c0,0.44 0.2,0.7 0.53,0.7 0.17,0 0.37,-0.07 0.57,-0.21l4.39 -3c0.28,-0.19 0.44,-0.45 0.44,-0.73 0,-0.28 -0.15,-0.54 -0.44,-0.73z"/>
    </g>
   </g>
   <g>
   </g>
   <g>
   </g>
   <g>
   </g>
   <g>
   </g>
   <g>
   </g>
   <g>
   </g>
   <g>
   </g>
   <g>
   </g>
   <g>
   </g>
   <g>
   </g>
   <g>
   </g>
   <g>
   </g>
   <g>
   </g>
   <g>
   </g>
   <g>
   </g>
  </g>
 </g>
</svg>
